<svg xmlns="http://www.w3.org/2000/svg" xmlns:xlink="http://www.w3.org/1999/xlink" width="840" height="602.75"><rect width="840" height="602.75" rx="5" ry="5" class="a"/><svg y="0%" x="0%"><circle cx="20" cy="20" r="6" fill="#ff5f58"/><circle cx="40" cy="20" r="6" fill="#ffbd2e"/><circle cx="60" cy="20" r="6" fill="#18c132"/></svg><svg height="542.75" viewBox="0 0 80 54.275" width="800" x="15" xmlns="http://www.w3.org/2000/svg" xmlns:xlink="http://www.w3.org/1999/xlink" y="50"><style>@keyframes i{0%{transform:translateX(0)}3.01%{transform:translateX(-80px)}3.41%{transform:translateX(-320px)}12.56%{transform:translateX(-400px)}13.78%{transform:translateX(-480px)}14.55%{transform:translateX(-560px)}15.08%{transform:translateX(-640px)}15.96%{transform:translateX(-720px)}16.54%{transform:translateX(-800px)}17.94%{transform:translateX(-880px)}19.32%{transform:translateX(-960px)}20.45%{transform:translateX(-1040px)}21.19%{transform:translateX(-1120px)}21.97%{transform:translateX(-1200px)}23.6%{transform:translateX(-1280px)}23.99%{transform:translateX(-1360px)}24.54%{transform:translateX(-1440px)}26.18%{transform:translateX(-1520px)}27.34%{transform:translateX(-1600px)}28.02%{transform:translateX(-1680px)}29.08%{transform:translateX(-1760px)}29.63%{transform:translateX(-1840px)}30.31%{transform:translateX(-1920px)}32.05%{transform:translateX(-2000px)}33.18%{transform:translateX(-2080px)}34.8%{transform:translateX(-2240px)}34.81%{transform:translateX(-2320px)}35.25%{transform:translateX(-2400px)}36.59%{transform:translateX(-2480px)}36.6%{transform:translateX(-2560px)}37.94%{transform:translateX(-2640px)}39.29%{transform:translateX(-2720px)}40.63%{transform:translateX(-2880px)}41.98%{transform:translateX(-2960px)}43.32%{transform:translateX(-3040px)}44.67%{transform:translateX(-3120px)}46.01%{transform:translateX(-3200px)}47.36%{transform:translateX(-3280px)}48.7%{transform:translateX(-3360px)}50.05%{transform:translateX(-3440px)}51.39%{transform:translateX(-3520px)}52.74%{transform:translateX(-3600px)}54.08%{transform:translateX(-3680px)}55.43%{transform:translateX(-3760px)}56.77%{transform:translateX(-3840px)}58.12%{transform:translateX(-3920px)}59.47%{transform:translateX(-4000px)}60.82%{transform:translateX(-4080px)}62.16%{transform:translateX(-4160px)}63.5%{transform:translateX(-4240px)}64.85%{transform:translateX(-4320px)}66.2%{transform:translateX(-4400px)}67.54%{transform:translateX(-4560px)}68.89%{transform:translateX(-4640px)}70.24%{transform:translateX(-4720px)}71.58%{transform:translateX(-4800px)}72.93%{transform:translateX(-4880px)}74.28%{transform:translateX(-4960px)}75.62%{transform:translateX(-5040px)}76.97%{transform:translateX(-5120px)}78.32%{transform:translateX(-5200px)}79.66%{transform:translateX(-5280px)}81.01%{transform:translateX(-5440px)}82.34%{transform:translateX(-5520px)}83.69%{transform:translateX(-5600px)}85.03%{transform:translateX(-5680px)}86.38%{transform:translateX(-5760px)}87.73%{transform:translateX(-5840px)}89.09%{transform:translateX(-5920px)}89.43%{transform:translateX(-6160px)}to{transform:translateX(-6240px)}}.a{fill:#282d35}.f{fill:#b9c0cb;white-space:pre}</style><g font-family="Monaco,Consolas,Menlo,'Bitstream Vera Sans Mono','Powerline Symbols',monospace" font-size="1.67"><defs><symbol id="1"><text y="1.67" class="f">&gt;</text></symbol><symbol id="2"><text y="1.67" class="f">&gt;</text><text x="2.004" y="1.67" class="f">python3</text></symbol><symbol id="3"><text y="1.67" class="f">&gt;</text><text x="2.004" y="1.67" class="f">python3</text><text x="10.02" y="1.67" class="f">moving_bike.py</text></symbol><symbol id="4"><text x="9.018" y="1.67" class="f">__o</text></symbol><symbol id="5"><text x="12.024" y="1.67" class="f">__o</text></symbol><symbol id="6"><text x="32.064" y="1.67" class="f">__o</text></symbol><symbol id="7"><text x="28.056" y="1.67" class="f">_`\&lt;,_</text></symbol><symbol id="8"><text x="42.084" y="1.67" class="f">__o</text></symbol><symbol id="9"><text x="47.094" y="1.67" class="f">__o</text></symbol><symbol id="10"><text x="43.086" y="1.67" class="f">_`\&lt;,_</text></symbol><symbol id="11"><text x="43.086" y="1.67" class="f">(+)</text><text x="47.094" y="1.67" class="f">L(+)</text></symbol><symbol id="a"><path fill="transparent" d="M0 0h80v25H0z"/></symbol><symbol id="b"><path fill="#6f7683" d="M0 0h1.102v2.171H0z"/></symbol></defs><path class="a" d="M0 0h80v54.275H0z"/><g style="animation-duration:22.630337s;animation-iteration-count:infinite;animation-name:i;animation-timing-function:steps(1,end)"><svg width="6320"><svg><use xlink:href="#a"/><use xlink:href="#b" x="-.004"/></svg><svg x="80"><use xlink:href="#a"/><use xlink:href="#b" x="-.004"/></svg><svg x="160"><use xlink:href="#a"/><use xlink:href="#b" x="-.004"/></svg><svg x="240"><use xlink:href="#a"/><use xlink:href="#b" x="1.996"/><use xlink:href="#1"/></svg><svg x="320"><use xlink:href="#a"/><use xlink:href="#b" x="1.996"/><use xlink:href="#1"/></svg><svg x="400"><use xlink:href="#a"/><use xlink:href="#b" x="2.996"/><text y="1.67" class="f">&gt;</text><text x="2.004" y="1.67" class="f">p</text></svg><svg x="480"><use xlink:href="#a"/><use xlink:href="#b" x="3.996"/><text y="1.67" class="f">&gt;</text><text x="2.004" y="1.67" class="f">py</text></svg><svg x="560"><use xlink:href="#a"/><use xlink:href="#b" x="4.996"/><text y="1.67" class="f">&gt;</text><text x="2.004" y="1.67" class="f">pyt</text></svg><svg x="640"><use xlink:href="#a"/><use xlink:href="#b" x="5.996"/><text y="1.67" class="f">&gt;</text><text x="2.004" y="1.67" class="f">pyth</text></svg><svg x="720"><use xlink:href="#a"/><use xlink:href="#b" x="6.996"/><text y="1.67" class="f">&gt;</text><text x="2.004" y="1.67" class="f">pytho</text></svg><svg x="800"><use xlink:href="#a"/><use xlink:href="#b" x="7.996"/><text y="1.67" class="f">&gt;</text><text x="2.004" y="1.67" class="f">python</text></svg><svg x="880"><use xlink:href="#a"/><use xlink:href="#b" x="8.996"/><use xlink:href="#2"/></svg><svg x="960"><use xlink:href="#a"/><use xlink:href="#b" x="9.996"/><use xlink:href="#2"/></svg><svg x="1040"><use xlink:href="#a"/><use xlink:href="#b" x="10.996"/><text y="1.67" class="f">&gt;</text><text x="2.004" y="1.67" class="f">python3</text><text x="10.02" y="1.67" class="f">m</text></svg><svg x="1120"><use xlink:href="#a"/><use xlink:href="#b" x="11.996"/><text y="1.67" class="f">&gt;</text><text x="2.004" y="1.67" class="f">python3</text><text x="10.02" y="1.67" class="f">mo</text></svg><svg x="1200"><use xlink:href="#a"/><use xlink:href="#b" x="12.996"/><text y="1.67" class="f">&gt;</text><text x="2.004" y="1.67" class="f">python3</text><text x="10.02" y="1.67" class="f">mov</text></svg><svg x="1280"><use xlink:href="#a"/><use xlink:href="#b" x="13.996"/><text y="1.67" class="f">&gt;</text><text x="2.004" y="1.67" class="f">python3</text><text x="10.02" y="1.67" class="f">movi</text></svg><svg x="1360"><use xlink:href="#a"/><use xlink:href="#b" x="14.996"/><text y="1.67" class="f">&gt;</text><text x="2.004" y="1.67" class="f">python3</text><text x="10.02" y="1.67" class="f">movin</text></svg><svg x="1440"><use xlink:href="#a"/><use xlink:href="#b" x="15.996"/><text y="1.67" class="f">&gt;</text><text x="2.004" y="1.67" class="f">python3</text><text x="10.02" y="1.67" class="f">moving</text></svg><svg x="1520"><use xlink:href="#a"/><use xlink:href="#b" x="16.996"/><text y="1.67" class="f">&gt;</text><text x="2.004" y="1.67" class="f">python3</text><text x="10.02" y="1.67" class="f">moving_</text></svg><svg x="1600"><use xlink:href="#a"/><use xlink:href="#b" x="17.996"/><text y="1.67" class="f">&gt;</text><text x="2.004" y="1.67" class="f">python3</text><text x="10.02" y="1.67" class="f">moving_b</text></svg><svg x="1680"><use xlink:href="#a"/><use xlink:href="#b" x="18.996"/><text y="1.67" class="f">&gt;</text><text x="2.004" y="1.67" class="f">python3</text><text x="10.02" y="1.67" class="f">moving_bi</text></svg><svg x="1760"><use xlink:href="#a"/><use xlink:href="#b" x="19.996"/><text y="1.67" class="f">&gt;</text><text x="2.004" y="1.67" class="f">python3</text><text x="10.02" y="1.67" class="f">moving_bik</text></svg><svg x="1840"><use xlink:href="#a"/><use xlink:href="#b" x="20.996"/><text y="1.67" class="f">&gt;</text><text x="2.004" y="1.67" class="f">python3</text><text x="10.02" y="1.67" class="f">moving_bike</text></svg><svg x="1920"><use xlink:href="#a"/><use xlink:href="#b" x="21.996"/><text y="1.67" class="f">&gt;</text><text x="2.004" y="1.67" class="f">python3</text><text x="10.02" y="1.67" class="f">moving_bike.</text></svg><svg x="2000"><use xlink:href="#a"/><use xlink:href="#b" x="22.996"/><text y="1.67" class="f">&gt;</text><text x="2.004" y="1.67" class="f">python3</text><text x="10.02" y="1.67" class="f">moving_bike.p</text></svg><svg x="2080"><use xlink:href="#a"/><use xlink:href="#b" x="23.996"/><use xlink:href="#3"/></svg><svg x="2160"><use xlink:href="#a"/><use xlink:href="#b" x="23.996"/><use xlink:href="#3"/></svg><svg x="2240"><use xlink:href="#a"/><use xlink:href="#b" x="-.004" y="2.146"/><use xlink:href="#3"/></svg><svg x="2320"><use xlink:href="#a"/><use xlink:href="#b" x="-.004" y="2.146"/><use xlink:href="#3"/></svg><svg x="2400"><use xlink:href="#a"/><use xlink:href="#b" x="-.004" y="8.659"/><text x="8.016" y="3.841" class="f">__o</text><text x="4.008" y="6.012" class="f">_`\&lt;,_</text><text x="4.008" y="8.183" class="f">(-)/</text><text x="9.018" y="8.183" class="f">(-)</text></svg><svg x="2480"><use xlink:href="#a"/><use xlink:href="#b" x="-.004" y="4.317"/><use xlink:href="#4" y="2.171"/></svg><svg x="2560"><use xlink:href="#a"/><use xlink:href="#b" x="-.004" y="8.659"/><use xlink:href="#4" y="2.171"/><text x="5.01" y="6.012" class="f">_`\&lt;,_</text><text x="5.01" y="8.183" class="f">(+)</text><text x="9.018" y="8.183" class="f">L(+)</text></svg><svg x="2640"><use xlink:href="#a"/><use xlink:href="#b" x="-.004" y="8.659"/><text x="10.02" y="3.841" class="f">__o</text><text x="6.012" y="6.012" class="f">_`\&lt;,_</text><text x="6.012" y="8.183" class="f">(-)/</text><text x="11.022" y="8.183" class="f">(-)</text></svg><svg x="2720"><use xlink:href="#a"/><use xlink:href="#b" x="-.004" y="8.659"/><text x="11.022" y="3.841" class="f">__o</text><text x="7.014" y="6.012" class="f">_`\&lt;,_</text><text x="7.014" y="8.183" class="f">(+)</text><text x="11.022" y="8.183" class="f">L(+)</text></svg><svg x="2800"><use xlink:href="#a"/><use xlink:href="#b" x="-.004" y="4.317"/><use xlink:href="#5" y="2.171"/></svg><svg x="2880"><use xlink:href="#a"/><use xlink:href="#b" x="-.004" y="8.659"/><use xlink:href="#5" y="2.171"/><text x="8.016" y="6.012" class="f">_`\&lt;,_</text><text x="8.016" y="8.183" class="f">(-)/</text><text x="13.026" y="8.183" class="f">(-)</text></svg><svg x="2960"><use xlink:href="#a"/><use xlink:href="#b" x="-.004" y="8.659"/><text x="13.026" y="3.841" class="f">__o</text><text x="9.018" y="6.012" class="f">_`\&lt;,_</text><text x="9.018" y="8.183" class="f">(+)</text><text x="13.026" y="8.183" class="f">L(+)</text></svg><svg x="3040"><use xlink:href="#a"/><use xlink:href="#b" x="-.004" y="8.659"/><text x="14.028" y="3.841" class="f">__o</text><text x="10.02" y="6.012" class="f">_`\&lt;,_</text><text x="10.02" y="8.183" class="f">(-)/</text><text x="15.03" y="8.183" class="f">(-)</text></svg><svg x="3120"><use xlink:href="#a"/><use xlink:href="#b" x="-.004" y="8.659"/><text x="15.03" y="3.841" class="f">__o</text><text x="11.022" y="6.012" class="f">_`\&lt;,_</text><text x="11.022" y="8.183" class="f">(+)</text><text x="15.03" y="8.183" class="f">L(+)</text></svg><svg x="3200"><use xlink:href="#a"/><use xlink:href="#b" x="-.004" y="8.659"/><text x="16.032" y="3.841" class="f">__o</text><text x="12.024" y="6.012" class="f">_`\&lt;,_</text><text x="12.024" y="8.183" class="f">(-)/</text><text x="17.034" y="8.183" class="f">(-)</text></svg><svg x="3280"><use xlink:href="#a"/><use xlink:href="#b" x="-.004" y="8.659"/><text x="17.034" y="3.841" class="f">__o</text><text x="13.026" y="6.012" class="f">_`\&lt;,_</text><text x="13.026" y="8.183" class="f">(+)</text><text x="17.034" y="8.183" class="f">L(+)</text></svg><svg x="3360"><use xlink:href="#a"/><use xlink:href="#b" x="-.004" y="8.659"/><text x="18.036" y="3.841" class="f">__o</text><text x="14.028" y="6.012" class="f">_`\&lt;,_</text><text x="14.028" y="8.183" class="f">(-)/</text><text x="19.038" y="8.183" class="f">(-)</text></svg><svg x="3440"><use xlink:href="#a"/><use xlink:href="#b" x="-.004" y="8.659"/><text x="19.038" y="3.841" class="f">__o</text><text x="15.03" y="6.012" class="f">_`\&lt;,_</text><text x="15.03" y="8.183" class="f">(+)</text><text x="19.038" y="8.183" class="f">L(+)</text></svg><svg x="3520"><use xlink:href="#a"/><use xlink:href="#b" x="-.004" y="8.659"/><text x="20.04" y="3.841" class="f">__o</text><text x="16.032" y="6.012" class="f">_`\&lt;,_</text><text x="16.032" y="8.183" class="f">(-)/</text><text x="21.042" y="8.183" class="f">(-)</text></svg><svg x="3600"><use xlink:href="#a"/><use xlink:href="#b" x="-.004" y="8.659"/><text x="21.042" y="3.841" class="f">__o</text><text x="17.034" y="6.012" class="f">_`\&lt;,_</text><text x="17.034" y="8.183" class="f">(+)</text><text x="21.042" y="8.183" class="f">L(+)</text></svg><svg x="3680"><use xlink:href="#a"/><use xlink:href="#b" x="-.004" y="8.659"/><text x="22.044" y="3.841" class="f">__o</text><text x="18.036" y="6.012" class="f">_`\&lt;,_</text><text x="18.036" y="8.183" class="f">(-)/</text><text x="23.046" y="8.183" class="f">(-)</text></svg><svg x="3760"><use xlink:href="#a"/><use xlink:href="#b" x="-.004" y="8.659"/><text x="23.046" y="3.841" class="f">__o</text><text x="19.038" y="6.012" class="f">_`\&lt;,_</text><text x="19.038" y="8.183" class="f">(+)</text><text x="23.046" y="8.183" class="f">L(+)</text></svg><svg x="3840"><use xlink:href="#a"/><use xlink:href="#b" x="-.004" y="8.659"/><text x="24.048" y="3.841" class="f">__o</text><text x="20.04" y="6.012" class="f">_`\&lt;,_</text><text x="20.04" y="8.183" class="f">(-)/</text><text x="25.05" y="8.183" class="f">(-)</text></svg><svg x="3920"><use xlink:href="#a"/><use xlink:href="#b" x="-.004" y="8.659"/><text x="25.05" y="3.841" class="f">__o</text><text x="21.042" y="6.012" class="f">_`\&lt;,_</text><text x="21.042" y="8.183" class="f">(+)</text><text x="25.05" y="8.183" class="f">L(+)</text></svg><svg x="4000"><use xlink:href="#a"/><use xlink:href="#b" x="-.004" y="8.659"/><text x="26.052" y="3.841" class="f">__o</text><text x="22.044" y="6.012" class="f">_`\&lt;,_</text><text x="22.044" y="8.183" class="f">(-)/</text><text x="27.054" y="8.183" class="f">(-)</text></svg><svg x="4080"><use xlink:href="#a"/><use xlink:href="#b" x="-.004" y="8.659"/><text x="27.054" y="3.841" class="f">__o</text><text x="23.046" y="6.012" class="f">_`\&lt;,_</text><text x="23.046" y="8.183" class="f">(+)</text><text x="27.054" y="8.183" class="f">L(+)</text></svg><svg x="4160"><use xlink:href="#a"/><use xlink:href="#b" x="-.004" y="8.659"/><text x="28.056" y="3.841" class="f">__o</text><text x="24.048" y="6.012" class="f">_`\&lt;,_</text><text x="24.048" y="8.183" class="f">(-)/</text><text x="29.058" y="8.183" class="f">(-)</text></svg><svg x="4240"><use xlink:href="#a"/><use xlink:href="#b" x="-.004" y="8.659"/><text x="29.058" y="3.841" class="f">__o</text><text x="25.05" y="6.012" class="f">_`\&lt;,_</text><text x="25.05" y="8.183" class="f">(+)</text><text x="29.058" y="8.183" class="f">L(+)</text></svg><svg x="4320"><use xlink:href="#a"/><use xlink:href="#b" x="-.004" y="8.659"/><text x="30.06" y="3.841" class="f">__o</text><text x="26.052" y="6.012" class="f">_`\&lt;,_</text><text x="26.052" y="8.183" class="f">(-)/</text><text x="31.062" y="8.183" class="f">(-)</text></svg><svg x="4400"><use xlink:href="#a"/><use xlink:href="#b" x="-.004" y="8.659"/><text x="31.062" y="3.841" class="f">__o</text><text x="27.054" y="6.012" class="f">_`\&lt;,_</text><text x="27.054" y="8.183" class="f">(+)</text><text x="31.062" y="8.183" class="f">L(+)</text></svg><svg x="4480"><use xlink:href="#a"/><use xlink:href="#b" x="-.004" y="6.488"/><use xlink:href="#6" y="2.171"/><use xlink:href="#7" y="4.342"/></svg><svg x="4560"><use xlink:href="#a"/><use xlink:href="#b" x="-.004" y="8.659"/><use xlink:href="#6" y="2.171"/><use xlink:href="#7" y="4.342"/><text x="28.056" y="8.183" class="f">(-)/</text><text x="33.066" y="8.183" class="f">(-)</text></svg><svg x="4640"><use xlink:href="#a"/><use xlink:href="#b" x="-.004" y="8.659"/><text x="33.066" y="3.841" class="f">__o</text><text x="29.058" y="6.012" class="f">_`\&lt;,_</text><text x="29.058" y="8.183" class="f">(+)</text><text x="33.066" y="8.183" class="f">L(+)</text></svg><svg x="4720"><use xlink:href="#a"/><use xlink:href="#b" x="-.004" y="8.659"/><text x="34.068" y="3.841" class="f">__o</text><text x="30.06" y="6.012" class="f">_`\&lt;,_</text><text x="30.06" y="8.183" class="f">(-)/</text><text x="35.07" y="8.183" class="f">(-)</text></svg><svg x="4800"><use xlink:href="#a"/><use xlink:href="#b" x="-.004" y="8.659"/><text x="35.07" y="3.841" class="f">__o</text><text x="31.062" y="6.012" class="f">_`\&lt;,_</text><text x="31.062" y="8.183" class="f">(+)</text><text x="35.07" y="8.183" class="f">L(+)</text></svg><svg x="4880"><use xlink:href="#a"/><use xlink:href="#b" x="-.004" y="8.659"/><text x="36.072" y="3.841" class="f">__o</text><text x="32.064" y="6.012" class="f">_`\&lt;,_</text><text x="32.064" y="8.183" class="f">(-)/</text><text x="37.074" y="8.183" class="f">(-)</text></svg><svg x="4960"><use xlink:href="#a"/><use xlink:href="#b" x="-.004" y="8.659"/><text x="37.074" y="3.841" class="f">__o</text><text x="33.066" y="6.012" class="f">_`\&lt;,_</text><text x="33.066" y="8.183" class="f">(+)</text><text x="37.074" y="8.183" class="f">L(+)</text></svg><svg x="5040"><use xlink:href="#a"/><use xlink:href="#b" x="-.004" y="8.659"/><text x="38.076" y="3.841" class="f">__o</text><text x="34.068" y="6.012" class="f">_`\&lt;,_</text><text x="34.068" y="8.183" class="f">(-)/</text><text x="39.078" y="8.183" class="f">(-)</text></svg><svg x="5120"><use xlink:href="#a"/><use xlink:href="#b" x="-.004" y="8.659"/><text x="39.078" y="3.841" class="f">__o</text><text x="35.07" y="6.012" class="f">_`\&lt;,_</text><text x="35.07" y="8.183" class="f">(+)</text><text x="39.078" y="8.183" class="f">L(+)</text></svg><svg x="5200"><use xlink:href="#a"/><use xlink:href="#b" x="-.004" y="8.659"/><text x="40.08" y="3.841" class="f">__o</text><text x="36.072" y="6.012" class="f">_`\&lt;,_</text><text x="36.072" y="8.183" class="f">(-)/</text><text x="41.082" y="8.183" class="f">(-)</text></svg><svg x="5280"><use xlink:href="#a"/><use xlink:href="#b" x="-.004" y="8.659"/><text x="41.082" y="3.841" class="f">__o</text><text x="37.074" y="6.012" class="f">_`\&lt;,_</text><text x="37.074" y="8.183" class="f">(+)</text><text x="41.082" y="8.183" class="f">L(+)</text></svg><svg x="5360"><use xlink:href="#a"/><use xlink:href="#b" x="-.004" y="4.317"/><use xlink:href="#8" y="2.171"/></svg><svg x="5440"><use xlink:href="#a"/><use xlink:href="#b" x="-.004" y="8.659"/><use xlink:href="#8" y="2.171"/><text x="38.076" y="6.012" class="f">_`\&lt;,_</text><text x="38.076" y="8.183" class="f">(-)/</text><text x="43.086" y="8.183" class="f">(-)</text></svg><svg x="5520"><use xlink:href="#a"/><use xlink:href="#b" x="-.004" y="8.659"/><text x="43.086" y="3.841" class="f">__o</text><text x="39.078" y="6.012" class="f">_`\&lt;,_</text><text x="39.078" y="8.183" class="f">(+)</text><text x="43.086" y="8.183" class="f">L(+)</text></svg><svg x="5600"><use xlink:href="#a"/><use xlink:href="#b" x="-.004" y="8.659"/><text x="44.088" y="3.841" class="f">__o</text><text x="40.08" y="6.012" class="f">_`\&lt;,_</text><text x="40.08" y="8.183" class="f">(-)/</text><text x="45.09" y="8.183" class="f">(-)</text></svg><svg x="5680"><use xlink:href="#a"/><use xlink:href="#b" x="-.004" y="8.659"/><text x="45.09" y="3.841" class="f">__o</text><text x="41.082" y="6.012" class="f">_`\&lt;,_</text><text x="41.082" y="8.183" class="f">(+)</text><text x="45.09" y="8.183" class="f">L(+)</text></svg><svg x="5760"><use xlink:href="#a"/><use xlink:href="#b" x="-.004" y="8.659"/><text x="46.092" y="3.841" class="f">__o</text><text x="42.084" y="6.012" class="f">_`\&lt;,_</text><text x="42.084" y="8.183" class="f">(-)/</text><text x="47.094" y="8.183" class="f">(-)</text></svg><svg x="5840"><use xlink:href="#a"/><use xlink:href="#b" x="-.004" y="8.659"/><use xlink:href="#9" y="2.171"/><use xlink:href="#10" y="4.342"/><use xlink:href="#11" y="6.513"/></svg><svg x="5920"><use xlink:href="#a"/><use xlink:href="#b" x="-.004" y="8.659"/><use xlink:href="#9" y="2.171"/><use xlink:href="#10" y="4.342"/><use xlink:href="#11" y="6.513"/></svg><svg x="6000"><use xlink:href="#a"/><use xlink:href="#b" x="-.004" y="8.659"/><use xlink:href="#9" y="2.171"/><use xlink:href="#10" y="4.342"/><use xlink:href="#11" y="6.513"/></svg><svg x="6080"><use xlink:href="#a"/><use xlink:href="#b" x="1.996" y="8.659"/><use xlink:href="#9" y="2.171"/><use xlink:href="#10" y="4.342"/><use xlink:href="#11" y="6.513"/><use xlink:href="#1" y="8.684"/></svg><svg x="6160"><use xlink:href="#a"/><use xlink:href="#b" x="1.996" y="8.659"/><use xlink:href="#9" y="2.171"/><use xlink:href="#10" y="4.342"/><use xlink:href="#11" y="6.513"/><use xlink:href="#1" y="8.684"/></svg><svg x="6240"><use xlink:href="#a"/><use xlink:href="#b" x="-.004" y="10.83"/><use xlink:href="#9" y="2.171"/><use xlink:href="#10" y="4.342"/><use xlink:href="#11" y="6.513"/><use xlink:href="#1" y="8.684"/></svg></svg></g></g></svg></svg>