<svg xmlns="http://www.w3.org/2000/svg" xmlns:xlink="http://www.w3.org/1999/xlink" width="800" height="521.04"><rect width="800" height="521.04" rx="0" ry="0" class="a"/><svg height="521.04" viewBox="0 0 80 52.104" width="800" xmlns="http://www.w3.org/2000/svg" xmlns:xlink="http://www.w3.org/1999/xlink"><style>@keyframes h{0%{transform:translateX(0)}.27%{transform:translateX(-80px)}3.36%{transform:translateX(-160px)}5.02%{transform:translateX(-240px)}7.13%{transform:translateX(-320px)}8.23%{transform:translateX(-400px)}9.33%{transform:translateX(-480px)}9.97%{transform:translateX(-560px)}13.64%{transform:translateX(-640px)}15.56%{transform:translateX(-720px)}16.68%{transform:translateX(-800px)}17.96%{transform:translateX(-880px)}20.48%{transform:translateX(-960px)}28.9%{transform:translateX(-1040px)}28.97%{transform:translateX(-1120px)}42.59%{transform:translateX(-1200px)}44.02%{transform:translateX(-1280px)}45.14%{transform:translateX(-1360px)}49.36%{transform:translateX(-1440px)}50.31%{transform:translateX(-1520px)}51.63%{transform:translateX(-1600px)}52.45%{transform:translateX(-1680px)}60.09%{transform:translateX(-1760px)}60.1%{transform:translateX(-1840px)}74.22%{transform:translateX(-1920px)}75.74%{transform:translateX(-2000px)}78.75%{transform:translateX(-2080px)}85.88%{transform:translateX(-2240px)}85.93%{transform:translateX(-2320px)}94.2%{transform:translateX(-2400px)}95.42%{transform:translateX(-2480px)}96.68%{transform:translateX(-2560px)}97.97%{transform:translateX(-2640px)}to{transform:translateX(-2800px)}}.a{fill:#282d35}.d{fill:#b9c0cb;white-space:pre}</style><g font-family="Monaco,Consolas,Menlo,'Bitstream Vera Sans Mono','Powerline Symbols',monospace" font-size="1.67"><defs><symbol id="1"><text y="1.67" style="white-space:pre" fill="#a8cc8c" font-weight="700">tgwtg@zepo</text><text x="10.02" y="1.67" class="d">:</text><text x="11.022" y="1.67" style="white-space:pre" fill="#71bef2" font-weight="700">~/workspace/lightning</text></symbol><symbol id="2"><text y="1.67" class="d">$</text></symbol><symbol id="3"><text y="1.67" class="d">$</text><text x="2.004" y="1.67" class="d">python3</text></symbol><symbol id="4"><text y="1.67" class="d">$</text><text x="2.004" y="1.67" class="d">python3</text><text x="10.02" y="1.67" class="d">session1.py</text></symbol><symbol id="5"><text y="1.67" class="d">Lightnin&apos;</text><text x="10.02" y="1.67" class="d">Time!</text></symbol><symbol id="6"><text y="1.67" class="d">Y&apos;all</text><text x="6.012" y="1.67" class="d">need</text><text x="11.022" y="1.67" class="d">to</text><text x="14.028" y="1.67" class="d">know</text><text x="19.038" y="1.67" class="d">my</text><text x="22.044" y="1.67" class="d">favorite</text><text x="31.062" y="1.67" class="d">soup</text><text x="36.072" y="1.67" class="d">is</text><text x="39.078" y="1.67" class="d">tomato</text></symbol><symbol id="7"><text y="1.67" class="d">Roger</text><text x="6.012" y="1.67" class="d">does</text><text x="11.022" y="1.67" class="d">not</text><text x="15.03" y="1.67" class="d">like</text><text x="20.04" y="1.67" class="d">soup!</text><text x="26.052" y="1.67" class="d">Not</text><text x="30.06" y="1.67" class="d">even</text><text x="35.07" y="1.67" class="d">tomato!</text><text x="43.086" y="1.67" class="d">Roger</text><text x="49.098" y="1.67" class="d">has</text><text x="53.106" y="1.67" class="d">no</text><text x="56.112" y="1.67" class="d">taste!</text></symbol><symbol id="8"><text y="1.67" class="d">What</text><text x="5.01" y="1.67" class="d">is</text><text x="8.016" y="1.67" class="d">your</text><text x="13.026" y="1.67" class="d">favorite</text><text x="22.044" y="1.67" class="d">soup?</text><text x="28.056" y="1.67" class="d">chicken</text></symbol><symbol id="9"><text y="1.67" class="d">My</text><text x="3.006" y="1.67" class="d">favorite</text><text x="12.024" y="1.67" class="d">soup</text><text x="17.034" y="1.67" class="d">is</text><text x="20.04" y="1.67" class="d">tomato</text></symbol><symbol id="10"><text y="1.67" class="d">Your</text><text x="5.01" y="1.67" class="d">favorite</text><text x="14.028" y="1.67" class="d">soup</text><text x="19.038" y="1.67" class="d">is</text><text x="22.044" y="1.67" class="d">chicken</text></symbol><symbol id="11"><text y="1.67" class="d">Do</text><text x="3.006" y="1.67" class="d">you</text><text x="7.014" y="1.67" class="d">like</text><text x="12.024" y="1.67" class="d">tomato</text><text x="19.038" y="1.67" class="d">soup?</text><text x="25.05" y="1.67" class="d">yes</text></symbol><symbol id="12"><text y="1.67" class="d">You</text><text x="4.008" y="1.67" class="d">said:</text><text x="10.02" y="1.67" class="d">yes</text></symbol><symbol id="13"><text y="1.67" class="d">$</text><text x="2.004" y="1.67" class="d">exit</text></symbol><symbol id="a"><path fill="transparent" d="M0 0h80v24H0z"/></symbol><symbol id="b"><path fill="#6f7683" d="M0 0h1.102v2.171H0z"/></symbol></defs><path class="a" d="M0 0h80v52.104H0z"/><g style="animation-duration:19.720695s;animation-iteration-count:infinite;animation-name:h;animation-timing-function:steps(1,end)"><svg width="2880"><svg><use xlink:href="#a"/><use xlink:href="#b" x="-.004"/></svg><svg x="80"><use xlink:href="#a"/><use xlink:href="#b" x="1.996" y="2.146"/><use xlink:href="#1"/><use xlink:href="#2" y="2.171"/></svg><svg x="160"><use xlink:href="#a"/><use xlink:href="#b" x="2.996" y="2.146"/><use xlink:href="#1"/><text y="3.841" class="d">$</text><text x="2.004" y="3.841" class="d">p</text></svg><svg x="240"><use xlink:href="#a"/><use xlink:href="#b" x="3.996" y="2.146"/><use xlink:href="#1"/><text y="3.841" class="d">$</text><text x="2.004" y="3.841" class="d">py</text></svg><svg x="320"><use xlink:href="#a"/><use xlink:href="#b" x="4.996" y="2.146"/><use xlink:href="#1"/><text y="3.841" class="d">$</text><text x="2.004" y="3.841" class="d">pyt</text></svg><svg x="400"><use xlink:href="#a"/><use xlink:href="#b" x="5.996" y="2.146"/><use xlink:href="#1"/><text y="3.841" class="d">$</text><text x="2.004" y="3.841" class="d">pyth</text></svg><svg x="480"><use xlink:href="#a"/><use xlink:href="#b" x="6.996" y="2.146"/><use xlink:href="#1"/><text y="3.841" class="d">$</text><text x="2.004" y="3.841" class="d">pytho</text></svg><svg x="560"><use xlink:href="#a"/><use xlink:href="#b" x="7.996" y="2.146"/><use xlink:href="#1"/><text y="3.841" class="d">$</text><text x="2.004" y="3.841" class="d">python</text></svg><svg x="640"><use xlink:href="#a"/><use xlink:href="#b" x="8.996" y="2.146"/><use xlink:href="#1"/><use xlink:href="#3" y="2.171"/></svg><svg x="720"><use xlink:href="#a"/><use xlink:href="#b" x="9.996" y="2.146"/><use xlink:href="#1"/><use xlink:href="#3" y="2.171"/></svg><svg x="800"><use xlink:href="#a"/><use xlink:href="#b" x="10.996" y="2.146"/><use xlink:href="#1"/><text y="3.841" class="d">$</text><text x="2.004" y="3.841" class="d">python3</text><text x="10.02" y="3.841" class="d">s</text></svg><svg x="880"><use xlink:href="#a"/><use xlink:href="#b" x="11.996" y="2.146"/><use xlink:href="#1"/><text y="3.841" class="d">$</text><text x="2.004" y="3.841" class="d">python3</text><text x="10.02" y="3.841" class="d">se</text></svg><svg x="960"><use xlink:href="#a"/><use xlink:href="#b" x="21.996" y="2.146"/><use xlink:href="#1"/><use xlink:href="#4" y="2.171"/></svg><svg x="1040"><use xlink:href="#a"/><use xlink:href="#b" x="-.004" y="4.317"/><use xlink:href="#1"/><use xlink:href="#4" y="2.171"/></svg><svg x="1120"><use xlink:href="#a"/><use xlink:href="#b" x="27.996" y="10.83"/><use xlink:href="#1"/><use xlink:href="#4" y="2.171"/><use xlink:href="#5" y="4.342"/><use xlink:href="#6" y="6.513"/><use xlink:href="#7" y="8.684"/><text y="12.525" class="d">What</text><text x="5.01" y="12.525" class="d">is</text><text x="8.016" y="12.525" class="d">your</text><text x="13.026" y="12.525" class="d">favorite</text><text x="22.044" y="12.525" class="d">soup?</text></svg><svg x="1200"><use xlink:href="#a"/><use xlink:href="#b" x="28.996" y="10.83"/><use xlink:href="#1"/><use xlink:href="#4" y="2.171"/><use xlink:href="#5" y="4.342"/><use xlink:href="#6" y="6.513"/><use xlink:href="#7" y="8.684"/><text y="12.525" class="d">What</text><text x="5.01" y="12.525" class="d">is</text><text x="8.016" y="12.525" class="d">your</text><text x="13.026" y="12.525" class="d">favorite</text><text x="22.044" y="12.525" class="d">soup?</text><text x="28.056" y="12.525" class="d">c</text></svg><svg x="1280"><use xlink:href="#a"/><use xlink:href="#b" x="29.996" y="10.83"/><use xlink:href="#1"/><use xlink:href="#4" y="2.171"/><use xlink:href="#5" y="4.342"/><use xlink:href="#6" y="6.513"/><use xlink:href="#7" y="8.684"/><text y="12.525" class="d">What</text><text x="5.01" y="12.525" class="d">is</text><text x="8.016" y="12.525" class="d">your</text><text x="13.026" y="12.525" class="d">favorite</text><text x="22.044" y="12.525" class="d">soup?</text><text x="28.056" y="12.525" class="d">ch</text></svg><svg x="1360"><use xlink:href="#a"/><use xlink:href="#b" x="30.996" y="10.83"/><use xlink:href="#1"/><use xlink:href="#4" y="2.171"/><use xlink:href="#5" y="4.342"/><use xlink:href="#6" y="6.513"/><use xlink:href="#7" y="8.684"/><text y="12.525" class="d">What</text><text x="5.01" y="12.525" class="d">is</text><text x="8.016" y="12.525" class="d">your</text><text x="13.026" y="12.525" class="d">favorite</text><text x="22.044" y="12.525" class="d">soup?</text><text x="28.056" y="12.525" class="d">chi</text></svg><svg x="1440"><use xlink:href="#a"/><use xlink:href="#b" x="31.996" y="10.83"/><use xlink:href="#1"/><use xlink:href="#4" y="2.171"/><use xlink:href="#5" y="4.342"/><use xlink:href="#6" y="6.513"/><use xlink:href="#7" y="8.684"/><text y="12.525" class="d">What</text><text x="5.01" y="12.525" class="d">is</text><text x="8.016" y="12.525" class="d">your</text><text x="13.026" y="12.525" class="d">favorite</text><text x="22.044" y="12.525" class="d">soup?</text><text x="28.056" y="12.525" class="d">chic</text></svg><svg x="1520"><use xlink:href="#a"/><use xlink:href="#b" x="32.996" y="10.83"/><use xlink:href="#1"/><use xlink:href="#4" y="2.171"/><use xlink:href="#5" y="4.342"/><use xlink:href="#6" y="6.513"/><use xlink:href="#7" y="8.684"/><text y="12.525" class="d">What</text><text x="5.01" y="12.525" class="d">is</text><text x="8.016" y="12.525" class="d">your</text><text x="13.026" y="12.525" class="d">favorite</text><text x="22.044" y="12.525" class="d">soup?</text><text x="28.056" y="12.525" class="d">chick</text></svg><svg x="1600"><use xlink:href="#a"/><use xlink:href="#b" x="33.996" y="10.83"/><use xlink:href="#1"/><use xlink:href="#4" y="2.171"/><use xlink:href="#5" y="4.342"/><use xlink:href="#6" y="6.513"/><use xlink:href="#7" y="8.684"/><text y="12.525" class="d">What</text><text x="5.01" y="12.525" class="d">is</text><text x="8.016" y="12.525" class="d">your</text><text x="13.026" y="12.525" class="d">favorite</text><text x="22.044" y="12.525" class="d">soup?</text><text x="28.056" y="12.525" class="d">chicke</text></svg><svg x="1680"><use xlink:href="#a"/><use xlink:href="#b" x="34.996" y="10.83"/><use xlink:href="#1"/><use xlink:href="#4" y="2.171"/><use xlink:href="#5" y="4.342"/><use xlink:href="#6" y="6.513"/><use xlink:href="#7" y="8.684"/><use xlink:href="#8" y="10.855"/></svg><svg x="1760"><use xlink:href="#a"/><use xlink:href="#b" x="-.004" y="13.001"/><use xlink:href="#1"/><use xlink:href="#4" y="2.171"/><use xlink:href="#5" y="4.342"/><use xlink:href="#6" y="6.513"/><use xlink:href="#7" y="8.684"/><use xlink:href="#8" y="10.855"/></svg><svg x="1840"><use xlink:href="#a"/><use xlink:href="#b" x="24.996" y="17.343"/><use xlink:href="#1"/><use xlink:href="#4" y="2.171"/><use xlink:href="#5" y="4.342"/><use xlink:href="#6" y="6.513"/><use xlink:href="#7" y="8.684"/><use xlink:href="#8" y="10.855"/><use xlink:href="#9" y="13.026"/><use xlink:href="#10" y="15.197"/><text y="19.038" class="d">Do</text><text x="3.006" y="19.038" class="d">you</text><text x="7.014" y="19.038" class="d">like</text><text x="12.024" y="19.038" class="d">tomato</text><text x="19.038" y="19.038" class="d">soup?</text></svg><svg x="1920"><use xlink:href="#a"/><use xlink:href="#b" x="25.996" y="17.343"/><use xlink:href="#1"/><use xlink:href="#4" y="2.171"/><use xlink:href="#5" y="4.342"/><use xlink:href="#6" y="6.513"/><use xlink:href="#7" y="8.684"/><use xlink:href="#8" y="10.855"/><use xlink:href="#9" y="13.026"/><use xlink:href="#10" y="15.197"/><text y="19.038" class="d">Do</text><text x="3.006" y="19.038" class="d">you</text><text x="7.014" y="19.038" class="d">like</text><text x="12.024" y="19.038" class="d">tomato</text><text x="19.038" y="19.038" class="d">soup?</text><text x="25.05" y="19.038" class="d">y</text></svg><svg x="2000"><use xlink:href="#a"/><use xlink:href="#b" x="26.996" y="17.343"/><use xlink:href="#1"/><use xlink:href="#4" y="2.171"/><use xlink:href="#5" y="4.342"/><use xlink:href="#6" y="6.513"/><use xlink:href="#7" y="8.684"/><use xlink:href="#8" y="10.855"/><use xlink:href="#9" y="13.026"/><use xlink:href="#10" y="15.197"/><text y="19.038" class="d">Do</text><text x="3.006" y="19.038" class="d">you</text><text x="7.014" y="19.038" class="d">like</text><text x="12.024" y="19.038" class="d">tomato</text><text x="19.038" y="19.038" class="d">soup?</text><text x="25.05" y="19.038" class="d">ye</text></svg><svg x="2080"><use xlink:href="#a"/><use xlink:href="#b" x="27.996" y="17.343"/><use xlink:href="#1"/><use xlink:href="#4" y="2.171"/><use xlink:href="#5" y="4.342"/><use xlink:href="#6" y="6.513"/><use xlink:href="#7" y="8.684"/><use xlink:href="#8" y="10.855"/><use xlink:href="#9" y="13.026"/><use xlink:href="#10" y="15.197"/><use xlink:href="#11" y="17.368"/></svg><svg x="2160"><use xlink:href="#a"/><use xlink:href="#b" x="-.004" y="19.514"/><use xlink:href="#1"/><use xlink:href="#4" y="2.171"/><use xlink:href="#5" y="4.342"/><use xlink:href="#6" y="6.513"/><use xlink:href="#7" y="8.684"/><use xlink:href="#8" y="10.855"/><use xlink:href="#9" y="13.026"/><use xlink:href="#10" y="15.197"/><use xlink:href="#11" y="17.368"/></svg><svg x="2240"><use xlink:href="#a"/><use xlink:href="#b" x="-.004" y="21.685"/><use xlink:href="#1"/><use xlink:href="#4" y="2.171"/><use xlink:href="#5" y="4.342"/><use xlink:href="#6" y="6.513"/><use xlink:href="#7" y="8.684"/><use xlink:href="#8" y="10.855"/><use xlink:href="#9" y="13.026"/><use xlink:href="#10" y="15.197"/><use xlink:href="#11" y="17.368"/><use xlink:href="#12" y="19.539"/></svg><svg x="2320"><use xlink:href="#a"/><use xlink:href="#b" x="1.996" y="23.856"/><use xlink:href="#1"/><use xlink:href="#4" y="2.171"/><use xlink:href="#5" y="4.342"/><use xlink:href="#6" y="6.513"/><use xlink:href="#7" y="8.684"/><use xlink:href="#8" y="10.855"/><use xlink:href="#9" y="13.026"/><use xlink:href="#10" y="15.197"/><use xlink:href="#11" y="17.368"/><use xlink:href="#12" y="19.539"/><use xlink:href="#1" y="21.71"/><use xlink:href="#2" y="23.881"/></svg><svg x="2400"><use xlink:href="#a"/><use xlink:href="#b" x="2.996" y="23.856"/><use xlink:href="#1"/><use xlink:href="#4" y="2.171"/><use xlink:href="#5" y="4.342"/><use xlink:href="#6" y="6.513"/><use xlink:href="#7" y="8.684"/><use xlink:href="#8" y="10.855"/><use xlink:href="#9" y="13.026"/><use xlink:href="#10" y="15.197"/><use xlink:href="#11" y="17.368"/><use xlink:href="#12" y="19.539"/><use xlink:href="#1" y="21.71"/><text y="25.551" class="d">$</text><text x="2.004" y="25.551" class="d">e</text></svg><svg x="2480"><use xlink:href="#a"/><use xlink:href="#b" x="3.996" y="23.856"/><use xlink:href="#1"/><use xlink:href="#4" y="2.171"/><use xlink:href="#5" y="4.342"/><use xlink:href="#6" y="6.513"/><use xlink:href="#7" y="8.684"/><use xlink:href="#8" y="10.855"/><use xlink:href="#9" y="13.026"/><use xlink:href="#10" y="15.197"/><use xlink:href="#11" y="17.368"/><use xlink:href="#12" y="19.539"/><use xlink:href="#1" y="21.71"/><text y="25.551" class="d">$</text><text x="2.004" y="25.551" class="d">ex</text></svg><svg x="2560"><use xlink:href="#a"/><use xlink:href="#b" x="4.996" y="23.856"/><use xlink:href="#1"/><use xlink:href="#4" y="2.171"/><use xlink:href="#5" y="4.342"/><use xlink:href="#6" y="6.513"/><use xlink:href="#7" y="8.684"/><use xlink:href="#8" y="10.855"/><use xlink:href="#9" y="13.026"/><use xlink:href="#10" y="15.197"/><use xlink:href="#11" y="17.368"/><use xlink:href="#12" y="19.539"/><use xlink:href="#1" y="21.71"/><text y="25.551" class="d">$</text><text x="2.004" y="25.551" class="d">exi</text></svg><svg x="2640"><use xlink:href="#a"/><use xlink:href="#b" x="5.996" y="23.856"/><use xlink:href="#1"/><use xlink:href="#4" y="2.171"/><use xlink:href="#5" y="4.342"/><use xlink:href="#6" y="6.513"/><use xlink:href="#7" y="8.684"/><use xlink:href="#8" y="10.855"/><use xlink:href="#9" y="13.026"/><use xlink:href="#10" y="15.197"/><use xlink:href="#11" y="17.368"/><use xlink:href="#12" y="19.539"/><use xlink:href="#1" y="21.71"/><use xlink:href="#13" y="23.881"/></svg><svg x="2720"><use xlink:href="#a"/><use xlink:href="#b" x="-.004" y="26.027"/><use xlink:href="#1"/><use xlink:href="#4" y="2.171"/><use xlink:href="#5" y="4.342"/><use xlink:href="#6" y="6.513"/><use xlink:href="#7" y="8.684"/><use xlink:href="#8" y="10.855"/><use xlink:href="#9" y="13.026"/><use xlink:href="#10" y="15.197"/><use xlink:href="#11" y="17.368"/><use xlink:href="#12" y="19.539"/><use xlink:href="#1" y="21.71"/><use xlink:href="#13" y="23.881"/></svg><svg x="2800"><use xlink:href="#a"/><use xlink:href="#b" x="-.004" y="28.198"/><use xlink:href="#1"/><use xlink:href="#4" y="2.171"/><use xlink:href="#5" y="4.342"/><use xlink:href="#6" y="6.513"/><use xlink:href="#7" y="8.684"/><use xlink:href="#8" y="10.855"/><use xlink:href="#9" y="13.026"/><use xlink:href="#10" y="15.197"/><use xlink:href="#11" y="17.368"/><use xlink:href="#12" y="19.539"/><use xlink:href="#1" y="21.71"/><use xlink:href="#13" y="23.881"/><text y="27.722" class="d">exit</text></svg></svg></g></g></svg></svg>