<svg xmlns="http://www.w3.org/2000/svg" xmlns:xlink="http://www.w3.org/1999/xlink" width="530" height="477.62"><rect width="530" height="477.62" rx="0" ry="0" class="a"/><svg height="477.62" viewBox="0 0 53 47.762" width="530" xmlns="http://www.w3.org/2000/svg" xmlns:xlink="http://www.w3.org/1999/xlink"><style>@keyframes h{0%{transform:translateX(0)}.11%{transform:translateX(-53px)}2.43%{transform:translateX(-106px)}2.85%{transform:translateX(-159px)}3.12%{transform:translateX(-212px)}3.33%{transform:translateX(-265px)}3.58%{transform:translateX(-318px)}3.76%{transform:translateX(-371px)}4.12%{transform:translateX(-424px)}4.71%{transform:translateX(-477px)}5.01%{transform:translateX(-530px)}5.4%{transform:translateX(-583px)}5.81%{transform:translateX(-636px)}8.12%{transform:translateX(-689px)}8.16%{transform:translateX(-742px)}12.39%{transform:translateX(-795px)}12.67%{transform:translateX(-848px)}13.8%{transform:translateX(-901px)}14.25%{transform:translateX(-954px)}14.62%{transform:translateX(-1007px)}14.88%{transform:translateX(-1060px)}15.8%{transform:translateX(-1113px)}15.81%{transform:translateX(-1166px)}21.73%{transform:translateX(-1219px)}22.5%{transform:translateX(-1325px)}22.52%{transform:translateX(-1378px)}28.15%{transform:translateX(-1431px)}31.53%{transform:translateX(-1484px)}31.56%{transform:translateX(-1537px)}33.56%{transform:translateX(-1590px)}33.96%{transform:translateX(-1643px)}34.41%{transform:translateX(-1696px)}35.71%{transform:translateX(-1855px)}43.54%{transform:translateX(-1908px)}43.79%{transform:translateX(-1961px)}44.54%{transform:translateX(-2067px)}44.55%{transform:translateX(-2120px)}51.09%{transform:translateX(-2173px)}54.19%{transform:translateX(-2226px)}54.22%{transform:translateX(-2279px)}59.99%{transform:translateX(-2332px)}60.43%{transform:translateX(-2385px)}60.8%{transform:translateX(-2438px)}61.12%{transform:translateX(-2491px)}61.38%{transform:translateX(-2544px)}62.07%{transform:translateX(-2650px)}66.1%{transform:translateX(-2703px)}66.93%{transform:translateX(-2756px)}66.95%{transform:translateX(-2809px)}74.52%{transform:translateX(-2862px)}76.09%{transform:translateX(-2915px)}76.12%{transform:translateX(-2968px)}82.18%{transform:translateX(-3021px)}82.49%{transform:translateX(-3074px)}82.64%{transform:translateX(-3127px)}82.9%{transform:translateX(-3180px)}83.55%{transform:translateX(-3339px)}91.36%{transform:translateX(-3392px)}92.06%{transform:translateX(-3498px)}92.08%{transform:translateX(-3551px)}97.56%{transform:translateX(-3604px)}97.99%{transform:translateX(-3657px)}98.31%{transform:translateX(-3710px)}98.63%{transform:translateX(-3763px)}to{transform:translateX(-3869px)}}.a{fill:#282d35}.d{fill:#b9c0cb;white-space:pre}</style><g font-family="Monaco,Consolas,Menlo,'Bitstream Vera Sans Mono','Powerline Symbols',monospace" font-size="1.67"><defs><symbol id="1"><text y="1.67" style="white-space:pre" fill="#a8cc8c" font-weight="700">tgwtg@zepo</text><text x="10.02" y="1.67" class="d">:</text><text x="11.022" y="1.67" style="white-space:pre" fill="#71bef2" font-weight="700">~/workspace/session2</text></symbol><symbol id="2"><text y="1.67" class="d">$</text></symbol><symbol id="3"><text y="1.67" class="d">$</text><text x="2.004" y="1.67" class="d">python3</text></symbol><symbol id="4"><text y="1.67" class="d">$</text><text x="2.004" y="1.67" class="d">python3</text><text x="10.02" y="1.67" class="d">example.py</text></symbol><symbol id="5"><text y="1.67" class="d">What&apos;s</text><text x="7.014" y="1.67" class="d">your</text><text x="12.024" y="1.67" class="d">favorite</text><text x="21.042" y="1.67" class="d">color?</text></symbol><symbol id="6"><text y="1.67" class="d">What&apos;s</text><text x="7.014" y="1.67" class="d">your</text><text x="12.024" y="1.67" class="d">favorite</text><text x="21.042" y="1.67" class="d">color?</text><text x="28.056" y="1.67" class="d">p</text></symbol><symbol id="7"><text y="1.67" class="d">What&apos;s</text><text x="7.014" y="1.67" class="d">your</text><text x="12.024" y="1.67" class="d">favorite</text><text x="21.042" y="1.67" class="d">color?</text><text x="28.056" y="1.67" class="d">purple</text></symbol><symbol id="8"><text y="1.67" class="d">You</text><text x="4.008" y="1.67" class="d">must</text><text x="9.018" y="1.67" class="d">have</text><text x="14.028" y="1.67" class="d">royal</text><text x="20.04" y="1.67" class="d">blood</text></symbol><symbol id="9"><text y="1.67" class="d">-------------------</text></symbol><symbol id="10"><text y="1.67" class="d">Cheer!</text></symbol><symbol id="11"><text y="1.67" class="d">How</text><text x="4.008" y="1.67" class="d">many</text><text x="9.018" y="1.67" class="d">times</text><text x="15.03" y="1.67" class="d">should</text><text x="22.044" y="1.67" class="d">we</text><text x="25.05" y="1.67" class="d">loop?</text></symbol><symbol id="12"><text y="1.67" class="d">How</text><text x="4.008" y="1.67" class="d">many</text><text x="9.018" y="1.67" class="d">times</text><text x="15.03" y="1.67" class="d">should</text><text x="22.044" y="1.67" class="d">we</text><text x="25.05" y="1.67" class="d">loop?</text><text x="31.062" y="1.67" class="d">4</text></symbol><symbol id="13"><text y="1.67" class="d">LOOP-DA-LOOP</text></symbol><symbol id="14"><text y="1.67" class="d">What&apos;s</text><text x="7.014" y="1.67" class="d">your</text><text x="12.024" y="1.67" class="d">favorite</text><text x="21.042" y="1.67" class="d">color?</text><text x="28.056" y="1.67" class="d">red</text></symbol><symbol id="15"><text y="1.67" class="d">Like</text><text x="5.01" y="1.67" class="d">a</text><text x="7.014" y="1.67" class="d">fire</text><text x="12.024" y="1.67" class="d">engine!</text></symbol><symbol id="16"><text y="1.67" class="d">How</text><text x="4.008" y="1.67" class="d">many</text><text x="9.018" y="1.67" class="d">times</text><text x="15.03" y="1.67" class="d">should</text><text x="22.044" y="1.67" class="d">we</text><text x="25.05" y="1.67" class="d">loop?</text><text x="31.062" y="1.67" class="d">20</text></symbol><symbol id="17"><text y="1.67" class="d">What&apos;s</text><text x="7.014" y="1.67" class="d">your</text><text x="12.024" y="1.67" class="d">favorite</text><text x="21.042" y="1.67" class="d">color?</text><text x="28.056" y="1.67" class="d">green</text></symbol><symbol id="18"><text y="1.67" class="d">I</text><text x="2.004" y="1.67" class="d">like</text><text x="7.014" y="1.67" class="d">green</text><text x="13.026" y="1.67" class="d">too</text></symbol><symbol id="19"><text y="1.67" class="d">How</text><text x="4.008" y="1.67" class="d">many</text><text x="9.018" y="1.67" class="d">times</text><text x="15.03" y="1.67" class="d">should</text><text x="22.044" y="1.67" class="d">we</text><text x="25.05" y="1.67" class="d">loop?</text><text x="31.062" y="1.67" class="d">0</text></symbol><symbol id="20"><text y="1.67" class="d">What&apos;s</text><text x="7.014" y="1.67" class="d">your</text><text x="12.024" y="1.67" class="d">favorite</text><text x="21.042" y="1.67" class="d">color?</text><text x="28.056" y="1.67" class="d">pink</text></symbol><symbol id="21"><text y="1.67" class="d">Your</text><text x="5.01" y="1.67" class="d">favorite</text><text x="14.028" y="1.67" class="d">color,</text><text x="21.042" y="1.67" class="d">pink,</text><text x="27.054" y="1.67" class="d">does</text><text x="32.064" y="1.67" class="d">not</text><text x="36.072" y="1.67" class="d">interest</text><text x="45.09" y="1.67" class="d">me</text></symbol><symbol id="22"><text y="1.67" class="d">How</text><text x="4.008" y="1.67" class="d">many</text><text x="9.018" y="1.67" class="d">times</text><text x="15.03" y="1.67" class="d">should</text><text x="22.044" y="1.67" class="d">we</text><text x="25.05" y="1.67" class="d">loop?</text><text x="31.062" y="1.67" class="d">6</text></symbol><symbol id="23"><text y="1.67" class="d">$</text><text x="2.004" y="1.67" class="d">exit</text></symbol><symbol id="a"><path fill="transparent" d="M0 0h53v22H0z"/></symbol><symbol id="b"><path fill="#6f7683" d="M0 0h1.102v2.171H0z"/></symbol></defs><path class="a" d="M0 0h53v47.762H0z"/><g style="animation-duration:52.051322s;animation-iteration-count:infinite;animation-name:h;animation-timing-function:steps(1,end)"><svg width="3922"><svg><use xlink:href="#a"/><use xlink:href="#b" x="-.004"/></svg><svg x="53"><use xlink:href="#a"/><use xlink:href="#b" x="1.996" y="2.146"/><use xlink:href="#1"/><use xlink:href="#2" y="2.171"/></svg><svg x="106"><use xlink:href="#a"/><use xlink:href="#b" x="2.996" y="2.146"/><use xlink:href="#1"/><text y="3.841" class="d">$</text><text x="2.004" y="3.841" class="d">p</text></svg><svg x="159"><use xlink:href="#a"/><use xlink:href="#b" x="3.996" y="2.146"/><use xlink:href="#1"/><text y="3.841" class="d">$</text><text x="2.004" y="3.841" class="d">py</text></svg><svg x="212"><use xlink:href="#a"/><use xlink:href="#b" x="4.996" y="2.146"/><use xlink:href="#1"/><text y="3.841" class="d">$</text><text x="2.004" y="3.841" class="d">pyt</text></svg><svg x="265"><use xlink:href="#a"/><use xlink:href="#b" x="5.996" y="2.146"/><use xlink:href="#1"/><text y="3.841" class="d">$</text><text x="2.004" y="3.841" class="d">pyth</text></svg><svg x="318"><use xlink:href="#a"/><use xlink:href="#b" x="6.996" y="2.146"/><use xlink:href="#1"/><text y="3.841" class="d">$</text><text x="2.004" y="3.841" class="d">pytho</text></svg><svg x="371"><use xlink:href="#a"/><use xlink:href="#b" x="7.996" y="2.146"/><use xlink:href="#1"/><text y="3.841" class="d">$</text><text x="2.004" y="3.841" class="d">python</text></svg><svg x="424"><use xlink:href="#a"/><use xlink:href="#b" x="8.996" y="2.146"/><use xlink:href="#1"/><use xlink:href="#3" y="2.171"/></svg><svg x="477"><use xlink:href="#a"/><use xlink:href="#b" x="9.996" y="2.146"/><use xlink:href="#1"/><use xlink:href="#3" y="2.171"/></svg><svg x="530"><use xlink:href="#a"/><use xlink:href="#b" x="10.996" y="2.146"/><use xlink:href="#1"/><text y="3.841" class="d">$</text><text x="2.004" y="3.841" class="d">python3</text><text x="10.02" y="3.841" class="d">e</text></svg><svg x="583"><use xlink:href="#a"/><use xlink:href="#b" x="11.996" y="2.146"/><use xlink:href="#1"/><text y="3.841" class="d">$</text><text x="2.004" y="3.841" class="d">python3</text><text x="10.02" y="3.841" class="d">ex</text></svg><svg x="636"><use xlink:href="#a"/><use xlink:href="#b" x="20.996" y="2.146"/><use xlink:href="#1"/><use xlink:href="#4" y="2.171"/></svg><svg x="689"><use xlink:href="#a"/><use xlink:href="#b" x="-.004" y="4.317"/><use xlink:href="#1"/><use xlink:href="#4" y="2.171"/></svg><svg x="742"><use xlink:href="#a"/><use xlink:href="#b" x="27.996" y="4.317"/><use xlink:href="#1"/><use xlink:href="#4" y="2.171"/><use xlink:href="#5" y="4.342"/></svg><svg x="795"><use xlink:href="#a"/><use xlink:href="#b" x="28.996" y="4.317"/><use xlink:href="#1"/><use xlink:href="#4" y="2.171"/><use xlink:href="#6" y="4.342"/></svg><svg x="848"><use xlink:href="#a"/><use xlink:href="#b" x="29.996" y="4.317"/><use xlink:href="#1"/><use xlink:href="#4" y="2.171"/><text y="6.012" class="d">What&apos;s</text><text x="7.014" y="6.012" class="d">your</text><text x="12.024" y="6.012" class="d">favorite</text><text x="21.042" y="6.012" class="d">color?</text><text x="28.056" y="6.012" class="d">pu</text></svg><svg x="901"><use xlink:href="#a"/><use xlink:href="#b" x="30.996" y="4.317"/><use xlink:href="#1"/><use xlink:href="#4" y="2.171"/><text y="6.012" class="d">What&apos;s</text><text x="7.014" y="6.012" class="d">your</text><text x="12.024" y="6.012" class="d">favorite</text><text x="21.042" y="6.012" class="d">color?</text><text x="28.056" y="6.012" class="d">pur</text></svg><svg x="954"><use xlink:href="#a"/><use xlink:href="#b" x="31.996" y="4.317"/><use xlink:href="#1"/><use xlink:href="#4" y="2.171"/><text y="6.012" class="d">What&apos;s</text><text x="7.014" y="6.012" class="d">your</text><text x="12.024" y="6.012" class="d">favorite</text><text x="21.042" y="6.012" class="d">color?</text><text x="28.056" y="6.012" class="d">purp</text></svg><svg x="1007"><use xlink:href="#a"/><use xlink:href="#b" x="32.996" y="4.317"/><use xlink:href="#1"/><use xlink:href="#4" y="2.171"/><text y="6.012" class="d">What&apos;s</text><text x="7.014" y="6.012" class="d">your</text><text x="12.024" y="6.012" class="d">favorite</text><text x="21.042" y="6.012" class="d">color?</text><text x="28.056" y="6.012" class="d">purpl</text></svg><svg x="1060"><use xlink:href="#a"/><use xlink:href="#b" x="33.996" y="4.317"/><use xlink:href="#1"/><use xlink:href="#4" y="2.171"/><use xlink:href="#7" y="4.342"/></svg><svg x="1113"><use xlink:href="#a"/><use xlink:href="#b" x="-.004" y="6.488"/><use xlink:href="#1"/><use xlink:href="#4" y="2.171"/><use xlink:href="#7" y="4.342"/></svg><svg x="1166"><use xlink:href="#a"/><use xlink:href="#b" x="30.996" y="28.198"/><use xlink:href="#1"/><use xlink:href="#4" y="2.171"/><use xlink:href="#7" y="4.342"/><use xlink:href="#8" y="6.513"/><use xlink:href="#9" y="10.855"/><use xlink:href="#10" y="15.197"/><use xlink:href="#10" y="17.368"/><use xlink:href="#10" y="19.539"/><use xlink:href="#9" y="23.881"/><use xlink:href="#11" y="28.223"/></svg><svg x="1219"><use xlink:href="#a"/><use xlink:href="#b" x="31.996" y="28.198"/><use xlink:href="#1"/><use xlink:href="#4" y="2.171"/><use xlink:href="#7" y="4.342"/><use xlink:href="#8" y="6.513"/><use xlink:href="#9" y="10.855"/><use xlink:href="#10" y="15.197"/><use xlink:href="#10" y="17.368"/><use xlink:href="#10" y="19.539"/><use xlink:href="#9" y="23.881"/><use xlink:href="#12" y="28.223"/></svg><svg x="1272"><use xlink:href="#a"/><use xlink:href="#b" x="-.004" y="30.369"/><use xlink:href="#1"/><use xlink:href="#4" y="2.171"/><use xlink:href="#7" y="4.342"/><use xlink:href="#8" y="6.513"/><use xlink:href="#9" y="10.855"/><use xlink:href="#10" y="15.197"/><use xlink:href="#10" y="17.368"/><use xlink:href="#10" y="19.539"/><use xlink:href="#9" y="23.881"/><use xlink:href="#12" y="28.223"/></svg><svg x="1325"><use xlink:href="#a"/><use xlink:href="#b" x="-.004" y="39.053"/><use xlink:href="#1"/><use xlink:href="#4" y="2.171"/><use xlink:href="#7" y="4.342"/><use xlink:href="#8" y="6.513"/><use xlink:href="#9" y="10.855"/><use xlink:href="#10" y="15.197"/><use xlink:href="#10" y="17.368"/><use xlink:href="#10" y="19.539"/><use xlink:href="#9" y="23.881"/><use xlink:href="#12" y="28.223"/><use xlink:href="#13" y="30.394"/><use xlink:href="#13" y="32.565"/><use xlink:href="#13" y="34.736"/><use xlink:href="#13" y="36.907"/></svg><svg x="1378"><use xlink:href="#a"/><use xlink:href="#b" x="1.996" y="41.224"/><use xlink:href="#1"/><use xlink:href="#4" y="2.171"/><use xlink:href="#7" y="4.342"/><use xlink:href="#8" y="6.513"/><use xlink:href="#9" y="10.855"/><use xlink:href="#10" y="15.197"/><use xlink:href="#10" y="17.368"/><use xlink:href="#10" y="19.539"/><use xlink:href="#9" y="23.881"/><use xlink:href="#12" y="28.223"/><use xlink:href="#13" y="30.394"/><use xlink:href="#13" y="32.565"/><use xlink:href="#13" y="34.736"/><use xlink:href="#13" y="36.907"/><use xlink:href="#1" y="39.078"/><use xlink:href="#2" y="41.249"/></svg><svg x="1431"><use xlink:href="#a"/><use xlink:href="#b" x="20.996" y="41.224"/><use xlink:href="#1"/><use xlink:href="#4" y="2.171"/><use xlink:href="#7" y="4.342"/><use xlink:href="#8" y="6.513"/><use xlink:href="#9" y="10.855"/><use xlink:href="#10" y="15.197"/><use xlink:href="#10" y="17.368"/><use xlink:href="#10" y="19.539"/><use xlink:href="#9" y="23.881"/><use xlink:href="#12" y="28.223"/><use xlink:href="#13" y="30.394"/><use xlink:href="#13" y="32.565"/><use xlink:href="#13" y="34.736"/><use xlink:href="#13" y="36.907"/><use xlink:href="#1" y="39.078"/><use xlink:href="#4" y="41.249"/></svg><svg x="1484"><use xlink:href="#a"/><use xlink:href="#b" x="-.004" y="43.395"/><use xlink:href="#1"/><use xlink:href="#4" y="2.171"/><use xlink:href="#7" y="4.342"/><use xlink:href="#8" y="6.513"/><use xlink:href="#9" y="10.855"/><use xlink:href="#10" y="15.197"/><use xlink:href="#10" y="17.368"/><use xlink:href="#10" y="19.539"/><use xlink:href="#9" y="23.881"/><use xlink:href="#12" y="28.223"/><use xlink:href="#13" y="30.394"/><use xlink:href="#13" y="32.565"/><use xlink:href="#13" y="34.736"/><use xlink:href="#13" y="36.907"/><use xlink:href="#1" y="39.078"/><use xlink:href="#4" y="41.249"/></svg><svg x="1537"><use xlink:href="#a"/><use xlink:href="#b" x="27.996" y="43.395"/><use xlink:href="#1"/><use xlink:href="#4" y="2.171"/><use xlink:href="#7" y="4.342"/><use xlink:href="#8" y="6.513"/><use xlink:href="#9" y="10.855"/><use xlink:href="#10" y="15.197"/><use xlink:href="#10" y="17.368"/><use xlink:href="#10" y="19.539"/><use xlink:href="#9" y="23.881"/><use xlink:href="#12" y="28.223"/><use xlink:href="#13" y="30.394"/><use xlink:href="#13" y="32.565"/><use xlink:href="#13" y="34.736"/><use xlink:href="#13" y="36.907"/><use xlink:href="#1" y="39.078"/><use xlink:href="#4" y="41.249"/><use xlink:href="#5" y="43.42"/></svg><svg x="1590"><use xlink:href="#a"/><use xlink:href="#b" x="28.996" y="43.395"/><use xlink:href="#1"/><use xlink:href="#4" y="2.171"/><use xlink:href="#7" y="4.342"/><use xlink:href="#8" y="6.513"/><use xlink:href="#9" y="10.855"/><use xlink:href="#10" y="15.197"/><use xlink:href="#10" y="17.368"/><use xlink:href="#10" y="19.539"/><use xlink:href="#9" y="23.881"/><use xlink:href="#12" y="28.223"/><use xlink:href="#13" y="30.394"/><use xlink:href="#13" y="32.565"/><use xlink:href="#13" y="34.736"/><use xlink:href="#13" y="36.907"/><use xlink:href="#1" y="39.078"/><use xlink:href="#4" y="41.249"/><text y="45.09" class="d">What&apos;s</text><text x="7.014" y="45.09" class="d">your</text><text x="12.024" y="45.09" class="d">favorite</text><text x="21.042" y="45.09" class="d">color?</text><text x="28.056" y="45.09" class="d">r</text></svg><svg x="1643"><use xlink:href="#a"/><use xlink:href="#b" x="29.996" y="43.395"/><use xlink:href="#1"/><use xlink:href="#4" y="2.171"/><use xlink:href="#7" y="4.342"/><use xlink:href="#8" y="6.513"/><use xlink:href="#9" y="10.855"/><use xlink:href="#10" y="15.197"/><use xlink:href="#10" y="17.368"/><use xlink:href="#10" y="19.539"/><use xlink:href="#9" y="23.881"/><use xlink:href="#12" y="28.223"/><use xlink:href="#13" y="30.394"/><use xlink:href="#13" y="32.565"/><use xlink:href="#13" y="34.736"/><use xlink:href="#13" y="36.907"/><use xlink:href="#1" y="39.078"/><use xlink:href="#4" y="41.249"/><text y="45.09" class="d">What&apos;s</text><text x="7.014" y="45.09" class="d">your</text><text x="12.024" y="45.09" class="d">favorite</text><text x="21.042" y="45.09" class="d">color?</text><text x="28.056" y="45.09" class="d">re</text></svg><svg x="1696"><use xlink:href="#a"/><use xlink:href="#b" x="30.996" y="43.395"/><use xlink:href="#1"/><use xlink:href="#4" y="2.171"/><use xlink:href="#7" y="4.342"/><use xlink:href="#8" y="6.513"/><use xlink:href="#9" y="10.855"/><use xlink:href="#10" y="15.197"/><use xlink:href="#10" y="17.368"/><use xlink:href="#10" y="19.539"/><use xlink:href="#9" y="23.881"/><use xlink:href="#12" y="28.223"/><use xlink:href="#13" y="30.394"/><use xlink:href="#13" y="32.565"/><use xlink:href="#13" y="34.736"/><use xlink:href="#13" y="36.907"/><use xlink:href="#1" y="39.078"/><use xlink:href="#4" y="41.249"/><use xlink:href="#14" y="43.42"/></svg><svg x="1749"><use xlink:href="#a"/><use xlink:href="#b" x="-.004" y="45.566"/><use xlink:href="#1"/><use xlink:href="#4" y="2.171"/><use xlink:href="#7" y="4.342"/><use xlink:href="#8" y="6.513"/><use xlink:href="#9" y="10.855"/><use xlink:href="#10" y="15.197"/><use xlink:href="#10" y="17.368"/><use xlink:href="#10" y="19.539"/><use xlink:href="#9" y="23.881"/><use xlink:href="#12" y="28.223"/><use xlink:href="#13" y="30.394"/><use xlink:href="#13" y="32.565"/><use xlink:href="#13" y="34.736"/><use xlink:href="#13" y="36.907"/><use xlink:href="#1" y="39.078"/><use xlink:href="#4" y="41.249"/><use xlink:href="#14" y="43.42"/></svg><svg x="1802"><use xlink:href="#a"/><use xlink:href="#b" x="-.004" y="45.566"/><use xlink:href="#9"/><use xlink:href="#10" y="4.342"/><use xlink:href="#10" y="6.513"/><use xlink:href="#10" y="8.684"/><use xlink:href="#9" y="13.026"/><use xlink:href="#12" y="17.368"/><use xlink:href="#13" y="19.539"/><use xlink:href="#13" y="21.71"/><use xlink:href="#13" y="23.881"/><use xlink:href="#13" y="26.052"/><use xlink:href="#1" y="28.223"/><use xlink:href="#4" y="30.394"/><use xlink:href="#14" y="32.565"/><use xlink:href="#15" y="34.736"/><use xlink:href="#9" y="39.078"/><use xlink:href="#10" y="43.42"/></svg><svg x="1855"><use xlink:href="#a"/><use xlink:href="#b" x="30.996" y="45.566"/><use xlink:href="#9" y="2.171"/><use xlink:href="#12" y="6.513"/><use xlink:href="#13" y="8.684"/><use xlink:href="#13" y="10.855"/><use xlink:href="#13" y="13.026"/><use xlink:href="#13" y="15.197"/><use xlink:href="#1" y="17.368"/><use xlink:href="#4" y="19.539"/><use xlink:href="#14" y="21.71"/><use xlink:href="#15" y="23.881"/><use xlink:href="#9" y="28.223"/><use xlink:href="#10" y="32.565"/><use xlink:href="#10" y="34.736"/><use xlink:href="#10" y="36.907"/><use xlink:href="#9" y="41.249"/><use xlink:href="#11" y="45.591"/></svg><svg x="1908"><use xlink:href="#a"/><use xlink:href="#b" x="31.996" y="45.566"/><use xlink:href="#9" y="2.171"/><use xlink:href="#12" y="6.513"/><use xlink:href="#13" y="8.684"/><use xlink:href="#13" y="10.855"/><use xlink:href="#13" y="13.026"/><use xlink:href="#13" y="15.197"/><use xlink:href="#1" y="17.368"/><use xlink:href="#4" y="19.539"/><use xlink:href="#14" y="21.71"/><use xlink:href="#15" y="23.881"/><use xlink:href="#9" y="28.223"/><use xlink:href="#10" y="32.565"/><use xlink:href="#10" y="34.736"/><use xlink:href="#10" y="36.907"/><use xlink:href="#9" y="41.249"/><text y="47.261" class="d">How</text><text x="4.008" y="47.261" class="d">many</text><text x="9.018" y="47.261" class="d">times</text><text x="15.03" y="47.261" class="d">should</text><text x="22.044" y="47.261" class="d">we</text><text x="25.05" y="47.261" class="d">loop?</text><text x="31.062" y="47.261" class="d">2</text></svg><svg x="1961"><use xlink:href="#a"/><use xlink:href="#b" x="32.996" y="45.566"/><use xlink:href="#9" y="2.171"/><use xlink:href="#12" y="6.513"/><use xlink:href="#13" y="8.684"/><use xlink:href="#13" y="10.855"/><use xlink:href="#13" y="13.026"/><use xlink:href="#13" y="15.197"/><use xlink:href="#1" y="17.368"/><use xlink:href="#4" y="19.539"/><use xlink:href="#14" y="21.71"/><use xlink:href="#15" y="23.881"/><use xlink:href="#9" y="28.223"/><use xlink:href="#10" y="32.565"/><use xlink:href="#10" y="34.736"/><use xlink:href="#10" y="36.907"/><use xlink:href="#9" y="41.249"/><use xlink:href="#16" y="45.591"/></svg><svg x="2014"><use xlink:href="#a"/><use xlink:href="#b" x="-.004" y="45.566"/><use xlink:href="#9"/><use xlink:href="#12" y="4.342"/><use xlink:href="#13" y="6.513"/><use xlink:href="#13" y="8.684"/><use xlink:href="#13" y="10.855"/><use xlink:href="#13" y="13.026"/><use xlink:href="#1" y="15.197"/><use xlink:href="#4" y="17.368"/><use xlink:href="#14" y="19.539"/><use xlink:href="#15" y="21.71"/><use xlink:href="#9" y="26.052"/><use xlink:href="#10" y="30.394"/><use xlink:href="#10" y="32.565"/><use xlink:href="#10" y="34.736"/><use xlink:href="#9" y="39.078"/><use xlink:href="#16" y="43.42"/></svg><svg x="2067"><use xlink:href="#a"/><use xlink:href="#b" x="-.004" y="45.566"/><use xlink:href="#16"/><use xlink:href="#13" y="2.171"/><use xlink:href="#13" y="4.342"/><use xlink:href="#13" y="6.513"/><use xlink:href="#13" y="8.684"/><use xlink:href="#13" y="10.855"/><use xlink:href="#13" y="13.026"/><use xlink:href="#13" y="15.197"/><use xlink:href="#13" y="17.368"/><use xlink:href="#13" y="19.539"/><use xlink:href="#13" y="21.71"/><use xlink:href="#13" y="23.881"/><use xlink:href="#13" y="26.052"/><use xlink:href="#13" y="28.223"/><use xlink:href="#13" y="30.394"/><use xlink:href="#13" y="32.565"/><use xlink:href="#13" y="34.736"/><use xlink:href="#13" y="36.907"/><use xlink:href="#13" y="39.078"/><use xlink:href="#13" y="41.249"/><use xlink:href="#13" y="43.42"/></svg><svg x="2120"><use xlink:href="#a"/><use xlink:href="#b" x="1.996" y="45.566"/><use xlink:href="#13"/><use xlink:href="#13" y="2.171"/><use xlink:href="#13" y="4.342"/><use xlink:href="#13" y="6.513"/><use xlink:href="#13" y="8.684"/><use xlink:href="#13" y="10.855"/><use xlink:href="#13" y="13.026"/><use xlink:href="#13" y="15.197"/><use xlink:href="#13" y="17.368"/><use xlink:href="#13" y="19.539"/><use xlink:href="#13" y="21.71"/><use xlink:href="#13" y="23.881"/><use xlink:href="#13" y="26.052"/><use xlink:href="#13" y="28.223"/><use xlink:href="#13" y="30.394"/><use xlink:href="#13" y="32.565"/><use xlink:href="#13" y="34.736"/><use xlink:href="#13" y="36.907"/><use xlink:href="#13" y="39.078"/><use xlink:href="#13" y="41.249"/><use xlink:href="#1" y="43.42"/><use xlink:href="#2" y="45.591"/></svg><svg x="2173"><use xlink:href="#a"/><use xlink:href="#b" x="20.996" y="45.566"/><use xlink:href="#13"/><use xlink:href="#13" y="2.171"/><use xlink:href="#13" y="4.342"/><use xlink:href="#13" y="6.513"/><use xlink:href="#13" y="8.684"/><use xlink:href="#13" y="10.855"/><use xlink:href="#13" y="13.026"/><use xlink:href="#13" y="15.197"/><use xlink:href="#13" y="17.368"/><use xlink:href="#13" y="19.539"/><use xlink:href="#13" y="21.71"/><use xlink:href="#13" y="23.881"/><use xlink:href="#13" y="26.052"/><use xlink:href="#13" y="28.223"/><use xlink:href="#13" y="30.394"/><use xlink:href="#13" y="32.565"/><use xlink:href="#13" y="34.736"/><use xlink:href="#13" y="36.907"/><use xlink:href="#13" y="39.078"/><use xlink:href="#13" y="41.249"/><use xlink:href="#1" y="43.42"/><use xlink:href="#4" y="45.591"/></svg><svg x="2226"><use xlink:href="#a"/><use xlink:href="#b" x="-.004" y="45.566"/><use xlink:href="#13"/><use xlink:href="#13" y="2.171"/><use xlink:href="#13" y="4.342"/><use xlink:href="#13" y="6.513"/><use xlink:href="#13" y="8.684"/><use xlink:href="#13" y="10.855"/><use xlink:href="#13" y="13.026"/><use xlink:href="#13" y="15.197"/><use xlink:href="#13" y="17.368"/><use xlink:href="#13" y="19.539"/><use xlink:href="#13" y="21.71"/><use xlink:href="#13" y="23.881"/><use xlink:href="#13" y="26.052"/><use xlink:href="#13" y="28.223"/><use xlink:href="#13" y="30.394"/><use xlink:href="#13" y="32.565"/><use xlink:href="#13" y="34.736"/><use xlink:href="#13" y="36.907"/><use xlink:href="#13" y="39.078"/><use xlink:href="#1" y="41.249"/><use xlink:href="#4" y="43.42"/></svg><svg x="2279"><use xlink:href="#a"/><use xlink:href="#b" x="27.996" y="45.566"/><use xlink:href="#13"/><use xlink:href="#13" y="2.171"/><use xlink:href="#13" y="4.342"/><use xlink:href="#13" y="6.513"/><use xlink:href="#13" y="8.684"/><use xlink:href="#13" y="10.855"/><use xlink:href="#13" y="13.026"/><use xlink:href="#13" y="15.197"/><use xlink:href="#13" y="17.368"/><use xlink:href="#13" y="19.539"/><use xlink:href="#13" y="21.71"/><use xlink:href="#13" y="23.881"/><use xlink:href="#13" y="26.052"/><use xlink:href="#13" y="28.223"/><use xlink:href="#13" y="30.394"/><use xlink:href="#13" y="32.565"/><use xlink:href="#13" y="34.736"/><use xlink:href="#13" y="36.907"/><use xlink:href="#13" y="39.078"/><use xlink:href="#1" y="41.249"/><use xlink:href="#4" y="43.42"/><use xlink:href="#5" y="45.591"/></svg><svg x="2332"><use xlink:href="#a"/><use xlink:href="#b" x="28.996" y="45.566"/><use xlink:href="#13"/><use xlink:href="#13" y="2.171"/><use xlink:href="#13" y="4.342"/><use xlink:href="#13" y="6.513"/><use xlink:href="#13" y="8.684"/><use xlink:href="#13" y="10.855"/><use xlink:href="#13" y="13.026"/><use xlink:href="#13" y="15.197"/><use xlink:href="#13" y="17.368"/><use xlink:href="#13" y="19.539"/><use xlink:href="#13" y="21.71"/><use xlink:href="#13" y="23.881"/><use xlink:href="#13" y="26.052"/><use xlink:href="#13" y="28.223"/><use xlink:href="#13" y="30.394"/><use xlink:href="#13" y="32.565"/><use xlink:href="#13" y="34.736"/><use xlink:href="#13" y="36.907"/><use xlink:href="#13" y="39.078"/><use xlink:href="#1" y="41.249"/><use xlink:href="#4" y="43.42"/><text y="47.261" class="d">What&apos;s</text><text x="7.014" y="47.261" class="d">your</text><text x="12.024" y="47.261" class="d">favorite</text><text x="21.042" y="47.261" class="d">color?</text><text x="28.056" y="47.261" class="d">g</text></svg><svg x="2385"><use xlink:href="#a"/><use xlink:href="#b" x="29.996" y="45.566"/><use xlink:href="#13"/><use xlink:href="#13" y="2.171"/><use xlink:href="#13" y="4.342"/><use xlink:href="#13" y="6.513"/><use xlink:href="#13" y="8.684"/><use xlink:href="#13" y="10.855"/><use xlink:href="#13" y="13.026"/><use xlink:href="#13" y="15.197"/><use xlink:href="#13" y="17.368"/><use xlink:href="#13" y="19.539"/><use xlink:href="#13" y="21.71"/><use xlink:href="#13" y="23.881"/><use xlink:href="#13" y="26.052"/><use xlink:href="#13" y="28.223"/><use xlink:href="#13" y="30.394"/><use xlink:href="#13" y="32.565"/><use xlink:href="#13" y="34.736"/><use xlink:href="#13" y="36.907"/><use xlink:href="#13" y="39.078"/><use xlink:href="#1" y="41.249"/><use xlink:href="#4" y="43.42"/><text y="47.261" class="d">What&apos;s</text><text x="7.014" y="47.261" class="d">your</text><text x="12.024" y="47.261" class="d">favorite</text><text x="21.042" y="47.261" class="d">color?</text><text x="28.056" y="47.261" class="d">gr</text></svg><svg x="2438"><use xlink:href="#a"/><use xlink:href="#b" x="30.996" y="45.566"/><use xlink:href="#13"/><use xlink:href="#13" y="2.171"/><use xlink:href="#13" y="4.342"/><use xlink:href="#13" y="6.513"/><use xlink:href="#13" y="8.684"/><use xlink:href="#13" y="10.855"/><use xlink:href="#13" y="13.026"/><use xlink:href="#13" y="15.197"/><use xlink:href="#13" y="17.368"/><use xlink:href="#13" y="19.539"/><use xlink:href="#13" y="21.71"/><use xlink:href="#13" y="23.881"/><use xlink:href="#13" y="26.052"/><use xlink:href="#13" y="28.223"/><use xlink:href="#13" y="30.394"/><use xlink:href="#13" y="32.565"/><use xlink:href="#13" y="34.736"/><use xlink:href="#13" y="36.907"/><use xlink:href="#13" y="39.078"/><use xlink:href="#1" y="41.249"/><use xlink:href="#4" y="43.42"/><text y="47.261" class="d">What&apos;s</text><text x="7.014" y="47.261" class="d">your</text><text x="12.024" y="47.261" class="d">favorite</text><text x="21.042" y="47.261" class="d">color?</text><text x="28.056" y="47.261" class="d">gre</text></svg><svg x="2491"><use xlink:href="#a"/><use xlink:href="#b" x="31.996" y="45.566"/><use xlink:href="#13"/><use xlink:href="#13" y="2.171"/><use xlink:href="#13" y="4.342"/><use xlink:href="#13" y="6.513"/><use xlink:href="#13" y="8.684"/><use xlink:href="#13" y="10.855"/><use xlink:href="#13" y="13.026"/><use xlink:href="#13" y="15.197"/><use xlink:href="#13" y="17.368"/><use xlink:href="#13" y="19.539"/><use xlink:href="#13" y="21.71"/><use xlink:href="#13" y="23.881"/><use xlink:href="#13" y="26.052"/><use xlink:href="#13" y="28.223"/><use xlink:href="#13" y="30.394"/><use xlink:href="#13" y="32.565"/><use xlink:href="#13" y="34.736"/><use xlink:href="#13" y="36.907"/><use xlink:href="#13" y="39.078"/><use xlink:href="#1" y="41.249"/><use xlink:href="#4" y="43.42"/><text y="47.261" class="d">What&apos;s</text><text x="7.014" y="47.261" class="d">your</text><text x="12.024" y="47.261" class="d">favorite</text><text x="21.042" y="47.261" class="d">color?</text><text x="28.056" y="47.261" class="d">gree</text></svg><svg x="2544"><use xlink:href="#a"/><use xlink:href="#b" x="32.996" y="45.566"/><use xlink:href="#13"/><use xlink:href="#13" y="2.171"/><use xlink:href="#13" y="4.342"/><use xlink:href="#13" y="6.513"/><use xlink:href="#13" y="8.684"/><use xlink:href="#13" y="10.855"/><use xlink:href="#13" y="13.026"/><use xlink:href="#13" y="15.197"/><use xlink:href="#13" y="17.368"/><use xlink:href="#13" y="19.539"/><use xlink:href="#13" y="21.71"/><use xlink:href="#13" y="23.881"/><use xlink:href="#13" y="26.052"/><use xlink:href="#13" y="28.223"/><use xlink:href="#13" y="30.394"/><use xlink:href="#13" y="32.565"/><use xlink:href="#13" y="34.736"/><use xlink:href="#13" y="36.907"/><use xlink:href="#13" y="39.078"/><use xlink:href="#1" y="41.249"/><use xlink:href="#4" y="43.42"/><use xlink:href="#17" y="45.591"/></svg><svg x="2597"><use xlink:href="#a"/><use xlink:href="#b" x="-.004" y="45.566"/><use xlink:href="#13"/><use xlink:href="#13" y="2.171"/><use xlink:href="#13" y="4.342"/><use xlink:href="#13" y="6.513"/><use xlink:href="#13" y="8.684"/><use xlink:href="#13" y="10.855"/><use xlink:href="#13" y="13.026"/><use xlink:href="#13" y="15.197"/><use xlink:href="#13" y="17.368"/><use xlink:href="#13" y="19.539"/><use xlink:href="#13" y="21.71"/><use xlink:href="#13" y="23.881"/><use xlink:href="#13" y="26.052"/><use xlink:href="#13" y="28.223"/><use xlink:href="#13" y="30.394"/><use xlink:href="#13" y="32.565"/><use xlink:href="#13" y="34.736"/><use xlink:href="#13" y="36.907"/><use xlink:href="#1" y="39.078"/><use xlink:href="#4" y="41.249"/><use xlink:href="#17" y="43.42"/></svg><svg x="2650"><use xlink:href="#a"/><use xlink:href="#b" x="30.996" y="45.566"/><use xlink:href="#13"/><use xlink:href="#13" y="2.171"/><use xlink:href="#13" y="4.342"/><use xlink:href="#13" y="6.513"/><use xlink:href="#13" y="8.684"/><use xlink:href="#13" y="10.855"/><use xlink:href="#13" y="13.026"/><use xlink:href="#13" y="15.197"/><use xlink:href="#1" y="17.368"/><use xlink:href="#4" y="19.539"/><use xlink:href="#17" y="21.71"/><use xlink:href="#18" y="23.881"/><use xlink:href="#9" y="28.223"/><use xlink:href="#10" y="32.565"/><use xlink:href="#10" y="34.736"/><use xlink:href="#10" y="36.907"/><use xlink:href="#9" y="41.249"/><use xlink:href="#11" y="45.591"/></svg><svg x="2703"><use xlink:href="#a"/><use xlink:href="#b" x="31.996" y="45.566"/><use xlink:href="#13"/><use xlink:href="#13" y="2.171"/><use xlink:href="#13" y="4.342"/><use xlink:href="#13" y="6.513"/><use xlink:href="#13" y="8.684"/><use xlink:href="#13" y="10.855"/><use xlink:href="#13" y="13.026"/><use xlink:href="#13" y="15.197"/><use xlink:href="#1" y="17.368"/><use xlink:href="#4" y="19.539"/><use xlink:href="#17" y="21.71"/><use xlink:href="#18" y="23.881"/><use xlink:href="#9" y="28.223"/><use xlink:href="#10" y="32.565"/><use xlink:href="#10" y="34.736"/><use xlink:href="#10" y="36.907"/><use xlink:href="#9" y="41.249"/><use xlink:href="#19" y="45.591"/></svg><svg x="2756"><use xlink:href="#a"/><use xlink:href="#b" x="-.004" y="45.566"/><use xlink:href="#13"/><use xlink:href="#13" y="2.171"/><use xlink:href="#13" y="4.342"/><use xlink:href="#13" y="6.513"/><use xlink:href="#13" y="8.684"/><use xlink:href="#13" y="10.855"/><use xlink:href="#13" y="13.026"/><use xlink:href="#1" y="15.197"/><use xlink:href="#4" y="17.368"/><use xlink:href="#17" y="19.539"/><use xlink:href="#18" y="21.71"/><use xlink:href="#9" y="26.052"/><use xlink:href="#10" y="30.394"/><use xlink:href="#10" y="32.565"/><use xlink:href="#10" y="34.736"/><use xlink:href="#9" y="39.078"/><use xlink:href="#19" y="43.42"/></svg><svg x="2809"><use xlink:href="#a"/><use xlink:href="#b" x="1.996" y="45.566"/><use xlink:href="#13"/><use xlink:href="#13" y="2.171"/><use xlink:href="#13" y="4.342"/><use xlink:href="#13" y="6.513"/><use xlink:href="#13" y="8.684"/><use xlink:href="#13" y="10.855"/><use xlink:href="#1" y="13.026"/><use xlink:href="#4" y="15.197"/><use xlink:href="#17" y="17.368"/><use xlink:href="#18" y="19.539"/><use xlink:href="#9" y="23.881"/><use xlink:href="#10" y="28.223"/><use xlink:href="#10" y="30.394"/><use xlink:href="#10" y="32.565"/><use xlink:href="#9" y="36.907"/><use xlink:href="#19" y="41.249"/><use xlink:href="#1" y="43.42"/><use xlink:href="#2" y="45.591"/></svg><svg x="2862"><use xlink:href="#a"/><use xlink:href="#b" x="20.996" y="45.566"/><use xlink:href="#13"/><use xlink:href="#13" y="2.171"/><use xlink:href="#13" y="4.342"/><use xlink:href="#13" y="6.513"/><use xlink:href="#13" y="8.684"/><use xlink:href="#13" y="10.855"/><use xlink:href="#1" y="13.026"/><use xlink:href="#4" y="15.197"/><use xlink:href="#17" y="17.368"/><use xlink:href="#18" y="19.539"/><use xlink:href="#9" y="23.881"/><use xlink:href="#10" y="28.223"/><use xlink:href="#10" y="30.394"/><use xlink:href="#10" y="32.565"/><use xlink:href="#9" y="36.907"/><use xlink:href="#19" y="41.249"/><use xlink:href="#1" y="43.42"/><use xlink:href="#4" y="45.591"/></svg><svg x="2915"><use xlink:href="#a"/><use xlink:href="#b" x="-.004" y="45.566"/><use xlink:href="#13"/><use xlink:href="#13" y="2.171"/><use xlink:href="#13" y="4.342"/><use xlink:href="#13" y="6.513"/><use xlink:href="#13" y="8.684"/><use xlink:href="#1" y="10.855"/><use xlink:href="#4" y="13.026"/><use xlink:href="#17" y="15.197"/><use xlink:href="#18" y="17.368"/><use xlink:href="#9" y="21.71"/><use xlink:href="#10" y="26.052"/><use xlink:href="#10" y="28.223"/><use xlink:href="#10" y="30.394"/><use xlink:href="#9" y="34.736"/><use xlink:href="#19" y="39.078"/><use xlink:href="#1" y="41.249"/><use xlink:href="#4" y="43.42"/></svg><svg x="2968"><use xlink:href="#a"/><use xlink:href="#b" x="27.996" y="45.566"/><use xlink:href="#13"/><use xlink:href="#13" y="2.171"/><use xlink:href="#13" y="4.342"/><use xlink:href="#13" y="6.513"/><use xlink:href="#13" y="8.684"/><use xlink:href="#1" y="10.855"/><use xlink:href="#4" y="13.026"/><use xlink:href="#17" y="15.197"/><use xlink:href="#18" y="17.368"/><use xlink:href="#9" y="21.71"/><use xlink:href="#10" y="26.052"/><use xlink:href="#10" y="28.223"/><use xlink:href="#10" y="30.394"/><use xlink:href="#9" y="34.736"/><use xlink:href="#19" y="39.078"/><use xlink:href="#1" y="41.249"/><use xlink:href="#4" y="43.42"/><use xlink:href="#5" y="45.591"/></svg><svg x="3021"><use xlink:href="#a"/><use xlink:href="#b" x="28.996" y="45.566"/><use xlink:href="#13"/><use xlink:href="#13" y="2.171"/><use xlink:href="#13" y="4.342"/><use xlink:href="#13" y="6.513"/><use xlink:href="#13" y="8.684"/><use xlink:href="#1" y="10.855"/><use xlink:href="#4" y="13.026"/><use xlink:href="#17" y="15.197"/><use xlink:href="#18" y="17.368"/><use xlink:href="#9" y="21.71"/><use xlink:href="#10" y="26.052"/><use xlink:href="#10" y="28.223"/><use xlink:href="#10" y="30.394"/><use xlink:href="#9" y="34.736"/><use xlink:href="#19" y="39.078"/><use xlink:href="#1" y="41.249"/><use xlink:href="#4" y="43.42"/><use xlink:href="#6" y="45.591"/></svg><svg x="3074"><use xlink:href="#a"/><use xlink:href="#b" x="29.996" y="45.566"/><use xlink:href="#13"/><use xlink:href="#13" y="2.171"/><use xlink:href="#13" y="4.342"/><use xlink:href="#13" y="6.513"/><use xlink:href="#13" y="8.684"/><use xlink:href="#1" y="10.855"/><use xlink:href="#4" y="13.026"/><use xlink:href="#17" y="15.197"/><use xlink:href="#18" y="17.368"/><use xlink:href="#9" y="21.71"/><use xlink:href="#10" y="26.052"/><use xlink:href="#10" y="28.223"/><use xlink:href="#10" y="30.394"/><use xlink:href="#9" y="34.736"/><use xlink:href="#19" y="39.078"/><use xlink:href="#1" y="41.249"/><use xlink:href="#4" y="43.42"/><text y="47.261" class="d">What&apos;s</text><text x="7.014" y="47.261" class="d">your</text><text x="12.024" y="47.261" class="d">favorite</text><text x="21.042" y="47.261" class="d">color?</text><text x="28.056" y="47.261" class="d">pi</text></svg><svg x="3127"><use xlink:href="#a"/><use xlink:href="#b" x="30.996" y="45.566"/><use xlink:href="#13"/><use xlink:href="#13" y="2.171"/><use xlink:href="#13" y="4.342"/><use xlink:href="#13" y="6.513"/><use xlink:href="#13" y="8.684"/><use xlink:href="#1" y="10.855"/><use xlink:href="#4" y="13.026"/><use xlink:href="#17" y="15.197"/><use xlink:href="#18" y="17.368"/><use xlink:href="#9" y="21.71"/><use xlink:href="#10" y="26.052"/><use xlink:href="#10" y="28.223"/><use xlink:href="#10" y="30.394"/><use xlink:href="#9" y="34.736"/><use xlink:href="#19" y="39.078"/><use xlink:href="#1" y="41.249"/><use xlink:href="#4" y="43.42"/><text y="47.261" class="d">What&apos;s</text><text x="7.014" y="47.261" class="d">your</text><text x="12.024" y="47.261" class="d">favorite</text><text x="21.042" y="47.261" class="d">color?</text><text x="28.056" y="47.261" class="d">pin</text></svg><svg x="3180"><use xlink:href="#a"/><use xlink:href="#b" x="31.996" y="45.566"/><use xlink:href="#13"/><use xlink:href="#13" y="2.171"/><use xlink:href="#13" y="4.342"/><use xlink:href="#13" y="6.513"/><use xlink:href="#13" y="8.684"/><use xlink:href="#1" y="10.855"/><use xlink:href="#4" y="13.026"/><use xlink:href="#17" y="15.197"/><use xlink:href="#18" y="17.368"/><use xlink:href="#9" y="21.71"/><use xlink:href="#10" y="26.052"/><use xlink:href="#10" y="28.223"/><use xlink:href="#10" y="30.394"/><use xlink:href="#9" y="34.736"/><use xlink:href="#19" y="39.078"/><use xlink:href="#1" y="41.249"/><use xlink:href="#4" y="43.42"/><use xlink:href="#20" y="45.591"/></svg><svg x="3233"><use xlink:href="#a"/><use xlink:href="#b" x="-.004" y="45.566"/><use xlink:href="#13"/><use xlink:href="#13" y="2.171"/><use xlink:href="#13" y="4.342"/><use xlink:href="#13" y="6.513"/><use xlink:href="#1" y="8.684"/><use xlink:href="#4" y="10.855"/><use xlink:href="#17" y="13.026"/><use xlink:href="#18" y="15.197"/><use xlink:href="#9" y="19.539"/><use xlink:href="#10" y="23.881"/><use xlink:href="#10" y="26.052"/><use xlink:href="#10" y="28.223"/><use xlink:href="#9" y="32.565"/><use xlink:href="#19" y="36.907"/><use xlink:href="#1" y="39.078"/><use xlink:href="#4" y="41.249"/><use xlink:href="#20" y="43.42"/></svg><svg x="3286"><use xlink:href="#a"/><use xlink:href="#b" x="-.004" y="45.566"/><use xlink:href="#10" y="2.171"/><use xlink:href="#10" y="4.342"/><use xlink:href="#10" y="6.513"/><use xlink:href="#9" y="10.855"/><use xlink:href="#19" y="15.197"/><use xlink:href="#1" y="17.368"/><use xlink:href="#4" y="19.539"/><use xlink:href="#20" y="21.71"/><use xlink:href="#21" y="23.881"/><use xlink:href="#9" y="28.223"/><use xlink:href="#10" y="32.565"/><use xlink:href="#10" y="34.736"/><use xlink:href="#10" y="36.907"/><use xlink:href="#9" y="41.249"/></svg><svg x="3339"><use xlink:href="#a"/><use xlink:href="#b" x="30.996" y="45.566"/><use xlink:href="#10" y="2.171"/><use xlink:href="#10" y="4.342"/><use xlink:href="#10" y="6.513"/><use xlink:href="#9" y="10.855"/><use xlink:href="#19" y="15.197"/><use xlink:href="#1" y="17.368"/><use xlink:href="#4" y="19.539"/><use xlink:href="#20" y="21.71"/><use xlink:href="#21" y="23.881"/><use xlink:href="#9" y="28.223"/><use xlink:href="#10" y="32.565"/><use xlink:href="#10" y="34.736"/><use xlink:href="#10" y="36.907"/><use xlink:href="#9" y="41.249"/><use xlink:href="#11" y="45.591"/></svg><svg x="3392"><use xlink:href="#a"/><use xlink:href="#b" x="31.996" y="45.566"/><use xlink:href="#10" y="2.171"/><use xlink:href="#10" y="4.342"/><use xlink:href="#10" y="6.513"/><use xlink:href="#9" y="10.855"/><use xlink:href="#19" y="15.197"/><use xlink:href="#1" y="17.368"/><use xlink:href="#4" y="19.539"/><use xlink:href="#20" y="21.71"/><use xlink:href="#21" y="23.881"/><use xlink:href="#9" y="28.223"/><use xlink:href="#10" y="32.565"/><use xlink:href="#10" y="34.736"/><use xlink:href="#10" y="36.907"/><use xlink:href="#9" y="41.249"/><use xlink:href="#22" y="45.591"/></svg><svg x="3445"><use xlink:href="#a"/><use xlink:href="#b" x="-.004" y="45.566"/><use xlink:href="#10"/><use xlink:href="#10" y="2.171"/><use xlink:href="#10" y="4.342"/><use xlink:href="#9" y="8.684"/><use xlink:href="#19" y="13.026"/><use xlink:href="#1" y="15.197"/><use xlink:href="#4" y="17.368"/><use xlink:href="#20" y="19.539"/><use xlink:href="#21" y="21.71"/><use xlink:href="#9" y="26.052"/><use xlink:href="#10" y="30.394"/><use xlink:href="#10" y="32.565"/><use xlink:href="#10" y="34.736"/><use xlink:href="#9" y="39.078"/><use xlink:href="#22" y="43.42"/></svg><svg x="3498"><use xlink:href="#a"/><use xlink:href="#b" x="-.004" y="45.566"/><use xlink:href="#19"/><use xlink:href="#1" y="2.171"/><use xlink:href="#4" y="4.342"/><use xlink:href="#20" y="6.513"/><use xlink:href="#21" y="8.684"/><use xlink:href="#9" y="13.026"/><use xlink:href="#10" y="17.368"/><use xlink:href="#10" y="19.539"/><use xlink:href="#10" y="21.71"/><use xlink:href="#9" y="26.052"/><use xlink:href="#22" y="30.394"/><use xlink:href="#13" y="32.565"/><use xlink:href="#13" y="34.736"/><use xlink:href="#13" y="36.907"/><use xlink:href="#13" y="39.078"/><use xlink:href="#13" y="41.249"/><use xlink:href="#13" y="43.42"/></svg><svg x="3551"><use xlink:href="#a"/><use xlink:href="#b" x="1.996" y="45.566"/><use xlink:href="#1"/><use xlink:href="#4" y="2.171"/><use xlink:href="#20" y="4.342"/><use xlink:href="#21" y="6.513"/><use xlink:href="#9" y="10.855"/><use xlink:href="#10" y="15.197"/><use xlink:href="#10" y="17.368"/><use xlink:href="#10" y="19.539"/><use xlink:href="#9" y="23.881"/><use xlink:href="#22" y="28.223"/><use xlink:href="#13" y="30.394"/><use xlink:href="#13" y="32.565"/><use xlink:href="#13" y="34.736"/><use xlink:href="#13" y="36.907"/><use xlink:href="#13" y="39.078"/><use xlink:href="#13" y="41.249"/><use xlink:href="#1" y="43.42"/><use xlink:href="#2" y="45.591"/></svg><svg x="3604"><use xlink:href="#a"/><use xlink:href="#b" x="2.996" y="45.566"/><use xlink:href="#1"/><use xlink:href="#4" y="2.171"/><use xlink:href="#20" y="4.342"/><use xlink:href="#21" y="6.513"/><use xlink:href="#9" y="10.855"/><use xlink:href="#10" y="15.197"/><use xlink:href="#10" y="17.368"/><use xlink:href="#10" y="19.539"/><use xlink:href="#9" y="23.881"/><use xlink:href="#22" y="28.223"/><use xlink:href="#13" y="30.394"/><use xlink:href="#13" y="32.565"/><use xlink:href="#13" y="34.736"/><use xlink:href="#13" y="36.907"/><use xlink:href="#13" y="39.078"/><use xlink:href="#13" y="41.249"/><use xlink:href="#1" y="43.42"/><text y="47.261" class="d">$</text><text x="2.004" y="47.261" class="d">e</text></svg><svg x="3657"><use xlink:href="#a"/><use xlink:href="#b" x="3.996" y="45.566"/><use xlink:href="#1"/><use xlink:href="#4" y="2.171"/><use xlink:href="#20" y="4.342"/><use xlink:href="#21" y="6.513"/><use xlink:href="#9" y="10.855"/><use xlink:href="#10" y="15.197"/><use xlink:href="#10" y="17.368"/><use xlink:href="#10" y="19.539"/><use xlink:href="#9" y="23.881"/><use xlink:href="#22" y="28.223"/><use xlink:href="#13" y="30.394"/><use xlink:href="#13" y="32.565"/><use xlink:href="#13" y="34.736"/><use xlink:href="#13" y="36.907"/><use xlink:href="#13" y="39.078"/><use xlink:href="#13" y="41.249"/><use xlink:href="#1" y="43.42"/><text y="47.261" class="d">$</text><text x="2.004" y="47.261" class="d">ex</text></svg><svg x="3710"><use xlink:href="#a"/><use xlink:href="#b" x="4.996" y="45.566"/><use xlink:href="#1"/><use xlink:href="#4" y="2.171"/><use xlink:href="#20" y="4.342"/><use xlink:href="#21" y="6.513"/><use xlink:href="#9" y="10.855"/><use xlink:href="#10" y="15.197"/><use xlink:href="#10" y="17.368"/><use xlink:href="#10" y="19.539"/><use xlink:href="#9" y="23.881"/><use xlink:href="#22" y="28.223"/><use xlink:href="#13" y="30.394"/><use xlink:href="#13" y="32.565"/><use xlink:href="#13" y="34.736"/><use xlink:href="#13" y="36.907"/><use xlink:href="#13" y="39.078"/><use xlink:href="#13" y="41.249"/><use xlink:href="#1" y="43.42"/><text y="47.261" class="d">$</text><text x="2.004" y="47.261" class="d">exi</text></svg><svg x="3763"><use xlink:href="#a"/><use xlink:href="#b" x="5.996" y="45.566"/><use xlink:href="#1"/><use xlink:href="#4" y="2.171"/><use xlink:href="#20" y="4.342"/><use xlink:href="#21" y="6.513"/><use xlink:href="#9" y="10.855"/><use xlink:href="#10" y="15.197"/><use xlink:href="#10" y="17.368"/><use xlink:href="#10" y="19.539"/><use xlink:href="#9" y="23.881"/><use xlink:href="#22" y="28.223"/><use xlink:href="#13" y="30.394"/><use xlink:href="#13" y="32.565"/><use xlink:href="#13" y="34.736"/><use xlink:href="#13" y="36.907"/><use xlink:href="#13" y="39.078"/><use xlink:href="#13" y="41.249"/><use xlink:href="#1" y="43.42"/><use xlink:href="#23" y="45.591"/></svg><svg x="3816"><use xlink:href="#a"/><use xlink:href="#b" x="-.004" y="45.566"/><use xlink:href="#4"/><use xlink:href="#20" y="2.171"/><use xlink:href="#21" y="4.342"/><use xlink:href="#9" y="8.684"/><use xlink:href="#10" y="13.026"/><use xlink:href="#10" y="15.197"/><use xlink:href="#10" y="17.368"/><use xlink:href="#9" y="21.71"/><use xlink:href="#22" y="26.052"/><use xlink:href="#13" y="28.223"/><use xlink:href="#13" y="30.394"/><use xlink:href="#13" y="32.565"/><use xlink:href="#13" y="34.736"/><use xlink:href="#13" y="36.907"/><use xlink:href="#13" y="39.078"/><use xlink:href="#1" y="41.249"/><use xlink:href="#23" y="43.42"/></svg><svg x="3869"><use xlink:href="#a"/><use xlink:href="#b" x="-.004" y="45.566"/><use xlink:href="#20"/><use xlink:href="#21" y="2.171"/><use xlink:href="#9" y="6.513"/><use xlink:href="#10" y="10.855"/><use xlink:href="#10" y="13.026"/><use xlink:href="#10" y="15.197"/><use xlink:href="#9" y="19.539"/><use xlink:href="#22" y="23.881"/><use xlink:href="#13" y="26.052"/><use xlink:href="#13" y="28.223"/><use xlink:href="#13" y="30.394"/><use xlink:href="#13" y="32.565"/><use xlink:href="#13" y="34.736"/><use xlink:href="#13" y="36.907"/><use xlink:href="#1" y="39.078"/><use xlink:href="#23" y="41.249"/><text y="45.09" class="d">exit</text></svg></svg></g></g></svg></svg>