<svg xmlns="http://www.w3.org/2000/svg" xmlns:xlink="http://www.w3.org/1999/xlink" width="650" height="369.07"><rect width="650" height="369.07" rx="0" ry="0" class="a"/><svg height="369.07" viewBox="0 0 65 36.907" width="650" xmlns="http://www.w3.org/2000/svg" xmlns:xlink="http://www.w3.org/1999/xlink"><style>@keyframes h{0%{transform:translateX(0)}.5%{transform:translateX(-65px)}8.6%{transform:translateX(-130px)}10.8%{transform:translateX(-195px)}12.9%{transform:translateX(-260px)}14.3%{transform:translateX(-325px)}15.6%{transform:translateX(-390px)}16.4%{transform:translateX(-455px)}18.7%{transform:translateX(-520px)}20.7%{transform:translateX(-585px)}22%{transform:translateX(-650px)}23.3%{transform:translateX(-715px)}27.4%{transform:translateX(-780px)}51.7%{transform:translateX(-845px)}51.9%{transform:translateX(-910px)}63.1%{transform:translateX(-975px)}64.8%{transform:translateX(-1040px)}66.6%{transform:translateX(-1105px)}67.9%{transform:translateX(-1170px)}69.4%{transform:translateX(-1235px)}73.5%{transform:translateX(-1365px)}73.6%{transform:translateX(-1430px)}92.2%{transform:translateX(-1495px)}93.9%{transform:translateX(-1560px)}95.2%{transform:translateX(-1625px)}96.8%{transform:translateX(-1690px)}to{transform:translateX(-1820px)}}.a{fill:#282d35}.d{fill:#b9c0cb;white-space:pre}</style><g font-family="Monaco,Consolas,Menlo,'Bitstream Vera Sans Mono','Powerline Symbols',monospace" font-size="1.67"><defs><symbol id="1"><text y="1.67" style="white-space:pre" fill="#a8cc8c" font-weight="700">tgwtg@zepo</text><text x="10.02" y="1.67" class="d">:</text><text x="11.022" y="1.67" style="white-space:pre" fill="#71bef2" font-weight="700">~/workspace/session2</text></symbol><symbol id="2"><text y="1.67" class="d">$</text></symbol><symbol id="3"><text y="1.67" class="d">$</text><text x="2.004" y="1.67" class="d">python3</text></symbol><symbol id="4"><text y="1.67" class="d">$</text><text x="2.004" y="1.67" class="d">python3</text><text x="10.02" y="1.67" class="d">favorite_color.py</text></symbol><symbol id="5"><text y="1.67" class="d">What</text><text x="5.01" y="1.67" class="d">is</text><text x="8.016" y="1.67" class="d">the</text><text x="12.024" y="1.67" class="d">best</text><text x="17.034" y="1.67" class="d">color?</text><text x="24.048" y="1.67" class="d">green</text></symbol><symbol id="6"><text y="1.67" class="d">Green</text><text x="6.012" y="1.67" class="d">is</text><text x="9.018" y="1.67" class="d">the</text><text x="13.026" y="1.67" class="d">right</text><text x="19.038" y="1.67" class="d">answer.</text><text x="27.054" y="1.67" class="d">Good</text><text x="32.064" y="1.67" class="d">job.</text></symbol><symbol id="7"><text y="1.67" class="d">$</text><text x="2.004" y="1.67" class="d">exit</text></symbol><symbol id="a"><path fill="transparent" d="M0 0h65v17H0z"/></symbol><symbol id="b"><path fill="#6f7683" d="M0 0h1.102v2.171H0z"/></symbol></defs><path class="a" d="M0 0h65v36.907H0z"/><g style="animation-duration:13.685735s;animation-iteration-count:infinite;animation-name:h;animation-timing-function:steps(1,end)"><svg width="1885"><svg><use xlink:href="#a"/><use xlink:href="#b" x="-.004"/></svg><svg x="65"><use xlink:href="#a"/><use xlink:href="#b" x="1.996" y="2.146"/><use xlink:href="#1"/><use xlink:href="#2" y="2.171"/></svg><svg x="130"><use xlink:href="#a"/><use xlink:href="#b" x="2.996" y="2.146"/><use xlink:href="#1"/><text y="3.841" class="d">$</text><text x="2.004" y="3.841" class="d">p</text></svg><svg x="195"><use xlink:href="#a"/><use xlink:href="#b" x="3.996" y="2.146"/><use xlink:href="#1"/><text y="3.841" class="d">$</text><text x="2.004" y="3.841" class="d">py</text></svg><svg x="260"><use xlink:href="#a"/><use xlink:href="#b" x="4.996" y="2.146"/><use xlink:href="#1"/><text y="3.841" class="d">$</text><text x="2.004" y="3.841" class="d">pyt</text></svg><svg x="325"><use xlink:href="#a"/><use xlink:href="#b" x="5.996" y="2.146"/><use xlink:href="#1"/><text y="3.841" class="d">$</text><text x="2.004" y="3.841" class="d">pyth</text></svg><svg x="390"><use xlink:href="#a"/><use xlink:href="#b" x="6.996" y="2.146"/><use xlink:href="#1"/><text y="3.841" class="d">$</text><text x="2.004" y="3.841" class="d">pytho</text></svg><svg x="455"><use xlink:href="#a"/><use xlink:href="#b" x="7.996" y="2.146"/><use xlink:href="#1"/><text y="3.841" class="d">$</text><text x="2.004" y="3.841" class="d">python</text></svg><svg x="520"><use xlink:href="#a"/><use xlink:href="#b" x="8.996" y="2.146"/><use xlink:href="#1"/><use xlink:href="#3" y="2.171"/></svg><svg x="585"><use xlink:href="#a"/><use xlink:href="#b" x="9.996" y="2.146"/><use xlink:href="#1"/><use xlink:href="#3" y="2.171"/></svg><svg x="650"><use xlink:href="#a"/><use xlink:href="#b" x="10.996" y="2.146"/><use xlink:href="#1"/><text y="3.841" class="d">$</text><text x="2.004" y="3.841" class="d">python3</text><text x="10.02" y="3.841" class="d">f</text></svg><svg x="715"><use xlink:href="#a"/><use xlink:href="#b" x="11.996" y="2.146"/><use xlink:href="#1"/><text y="3.841" class="d">$</text><text x="2.004" y="3.841" class="d">python3</text><text x="10.02" y="3.841" class="d">fa</text></svg><svg x="780"><use xlink:href="#a"/><use xlink:href="#b" x="27.996" y="2.146"/><use xlink:href="#1"/><use xlink:href="#4" y="2.171"/></svg><svg x="845"><use xlink:href="#a"/><use xlink:href="#b" x="-.004" y="4.317"/><use xlink:href="#1"/><use xlink:href="#4" y="2.171"/></svg><svg x="910"><use xlink:href="#a"/><use xlink:href="#b" x="23.996" y="4.317"/><use xlink:href="#1"/><use xlink:href="#4" y="2.171"/><text y="6.012" class="d">What</text><text x="5.01" y="6.012" class="d">is</text><text x="8.016" y="6.012" class="d">the</text><text x="12.024" y="6.012" class="d">best</text><text x="17.034" y="6.012" class="d">color?</text></svg><svg x="975"><use xlink:href="#a"/><use xlink:href="#b" x="24.996" y="4.317"/><use xlink:href="#1"/><use xlink:href="#4" y="2.171"/><text y="6.012" class="d">What</text><text x="5.01" y="6.012" class="d">is</text><text x="8.016" y="6.012" class="d">the</text><text x="12.024" y="6.012" class="d">best</text><text x="17.034" y="6.012" class="d">color?</text><text x="24.048" y="6.012" class="d">g</text></svg><svg x="1040"><use xlink:href="#a"/><use xlink:href="#b" x="25.996" y="4.317"/><use xlink:href="#1"/><use xlink:href="#4" y="2.171"/><text y="6.012" class="d">What</text><text x="5.01" y="6.012" class="d">is</text><text x="8.016" y="6.012" class="d">the</text><text x="12.024" y="6.012" class="d">best</text><text x="17.034" y="6.012" class="d">color?</text><text x="24.048" y="6.012" class="d">gr</text></svg><svg x="1105"><use xlink:href="#a"/><use xlink:href="#b" x="26.996" y="4.317"/><use xlink:href="#1"/><use xlink:href="#4" y="2.171"/><text y="6.012" class="d">What</text><text x="5.01" y="6.012" class="d">is</text><text x="8.016" y="6.012" class="d">the</text><text x="12.024" y="6.012" class="d">best</text><text x="17.034" y="6.012" class="d">color?</text><text x="24.048" y="6.012" class="d">gre</text></svg><svg x="1170"><use xlink:href="#a"/><use xlink:href="#b" x="27.996" y="4.317"/><use xlink:href="#1"/><use xlink:href="#4" y="2.171"/><text y="6.012" class="d">What</text><text x="5.01" y="6.012" class="d">is</text><text x="8.016" y="6.012" class="d">the</text><text x="12.024" y="6.012" class="d">best</text><text x="17.034" y="6.012" class="d">color?</text><text x="24.048" y="6.012" class="d">gree</text></svg><svg x="1235"><use xlink:href="#a"/><use xlink:href="#b" x="28.996" y="4.317"/><use xlink:href="#1"/><use xlink:href="#4" y="2.171"/><use xlink:href="#5" y="4.342"/></svg><svg x="1300"><use xlink:href="#a"/><use xlink:href="#b" x="-.004" y="6.488"/><use xlink:href="#1"/><use xlink:href="#4" y="2.171"/><use xlink:href="#5" y="4.342"/></svg><svg x="1365"><use xlink:href="#a"/><use xlink:href="#b" x="-.004" y="8.659"/><use xlink:href="#1"/><use xlink:href="#4" y="2.171"/><use xlink:href="#5" y="4.342"/><use xlink:href="#6" y="6.513"/></svg><svg x="1430"><use xlink:href="#a"/><use xlink:href="#b" x="1.996" y="10.83"/><use xlink:href="#1"/><use xlink:href="#4" y="2.171"/><use xlink:href="#5" y="4.342"/><use xlink:href="#6" y="6.513"/><use xlink:href="#1" y="8.684"/><use xlink:href="#2" y="10.855"/></svg><svg x="1495"><use xlink:href="#a"/><use xlink:href="#b" x="2.996" y="10.83"/><use xlink:href="#1"/><use xlink:href="#4" y="2.171"/><use xlink:href="#5" y="4.342"/><use xlink:href="#6" y="6.513"/><use xlink:href="#1" y="8.684"/><text y="12.525" class="d">$</text><text x="2.004" y="12.525" class="d">e</text></svg><svg x="1560"><use xlink:href="#a"/><use xlink:href="#b" x="3.996" y="10.83"/><use xlink:href="#1"/><use xlink:href="#4" y="2.171"/><use xlink:href="#5" y="4.342"/><use xlink:href="#6" y="6.513"/><use xlink:href="#1" y="8.684"/><text y="12.525" class="d">$</text><text x="2.004" y="12.525" class="d">ex</text></svg><svg x="1625"><use xlink:href="#a"/><use xlink:href="#b" x="4.996" y="10.83"/><use xlink:href="#1"/><use xlink:href="#4" y="2.171"/><use xlink:href="#5" y="4.342"/><use xlink:href="#6" y="6.513"/><use xlink:href="#1" y="8.684"/><text y="12.525" class="d">$</text><text x="2.004" y="12.525" class="d">exi</text></svg><svg x="1690"><use xlink:href="#a"/><use xlink:href="#b" x="5.996" y="10.83"/><use xlink:href="#1"/><use xlink:href="#4" y="2.171"/><use xlink:href="#5" y="4.342"/><use xlink:href="#6" y="6.513"/><use xlink:href="#1" y="8.684"/><use xlink:href="#7" y="10.855"/></svg><svg x="1755"><use xlink:href="#a"/><use xlink:href="#b" x="-.004" y="13.001"/><use xlink:href="#1"/><use xlink:href="#4" y="2.171"/><use xlink:href="#5" y="4.342"/><use xlink:href="#6" y="6.513"/><use xlink:href="#1" y="8.684"/><use xlink:href="#7" y="10.855"/></svg><svg x="1820"><use xlink:href="#a"/><use xlink:href="#b" x="-.004" y="15.172"/><use xlink:href="#1"/><use xlink:href="#4" y="2.171"/><use xlink:href="#5" y="4.342"/><use xlink:href="#6" y="6.513"/><use xlink:href="#1" y="8.684"/><use xlink:href="#7" y="10.855"/><text y="14.696" class="d">exit</text></svg></svg></g></g></svg></svg>