<svg xmlns="http://www.w3.org/2000/svg" xmlns:xlink="http://www.w3.org/1999/xlink" width="650" height="369.07"><rect width="650" height="369.07" rx="0" ry="0" class="a"/><svg height="369.07" viewBox="0 0 65 36.907" width="650" xmlns="http://www.w3.org/2000/svg" xmlns:xlink="http://www.w3.org/1999/xlink"><style>@keyframes h{0%{transform:translateX(0)}.17%{transform:translateX(-65px)}4.87%{transform:translateX(-130px)}6.61%{transform:translateX(-195px)}7.06%{transform:translateX(-260px)}7.51%{transform:translateX(-325px)}8.02%{transform:translateX(-390px)}8.21%{transform:translateX(-455px)}8.93%{transform:translateX(-520px)}9.62%{transform:translateX(-585px)}10.57%{transform:translateX(-650px)}10.96%{transform:translateX(-715px)}11.92%{transform:translateX(-780px)}13.82%{transform:translateX(-845px)}13.88%{transform:translateX(-910px)}19.28%{transform:translateX(-975px)}20.05%{transform:translateX(-1040px)}22%{transform:translateX(-1170px)}22.03%{transform:translateX(-1235px)}30.57%{transform:translateX(-1300px)}35.15%{transform:translateX(-1365px)}35.2%{transform:translateX(-1430px)}38.92%{transform:translateX(-1495px)}39.61%{transform:translateX(-1560px)}40.3%{transform:translateX(-1625px)}42.77%{transform:translateX(-1755px)}42.8%{transform:translateX(-1820px)}50.4%{transform:translateX(-1885px)}53.15%{transform:translateX(-1950px)}53.21%{transform:translateX(-2015px)}57.88%{transform:translateX(-2080px)}58.5%{transform:translateX(-2145px)}59.19%{transform:translateX(-2210px)}59.67%{transform:translateX(-2275px)}59.99%{transform:translateX(-2340px)}61.6%{transform:translateX(-2470px)}61.62%{transform:translateX(-2535px)}70.04%{transform:translateX(-2600px)}75.99%{transform:translateX(-2665px)}76.03%{transform:translateX(-2730px)}78.66%{transform:translateX(-2795px)}79.11%{transform:translateX(-2860px)}79.57%{transform:translateX(-2925px)}80.08%{transform:translateX(-2990px)}81.45%{transform:translateX(-3120px)}81.48%{transform:translateX(-3185px)}91.83%{transform:translateX(-3250px)}92.59%{transform:translateX(-3315px)}93.3%{transform:translateX(-3380px)}94%{transform:translateX(-3445px)}to{transform:translateX(-3575px)}}.a{fill:#282d35}.d{fill:#b9c0cb;white-space:pre}</style><g font-family="Monaco,Consolas,Menlo,'Bitstream Vera Sans Mono','Powerline Symbols',monospace" font-size="1.67"><defs><symbol id="1"><text y="1.67" style="white-space:pre" fill="#a8cc8c" font-weight="700">tgwtg@zepo</text><text x="10.02" y="1.67" class="d">:</text><text x="11.022" y="1.67" style="white-space:pre" fill="#71bef2" font-weight="700">~/workspace/session2</text></symbol><symbol id="2"><text y="1.67" class="d">$</text></symbol><symbol id="3"><text y="1.67" class="d">$</text><text x="2.004" y="1.67" class="d">python3</text></symbol><symbol id="4"><text y="1.67" class="d">$</text><text x="2.004" y="1.67" class="d">python3</text><text x="10.02" y="1.67" class="d">whos_the_boss.py</text></symbol><symbol id="5"><text y="1.67" class="d">Who&apos;s</text><text x="6.012" y="1.67" class="d">the</text><text x="10.02" y="1.67" class="d">boss</text><text x="15.03" y="1.67" class="d">-</text><text x="17.034" y="1.67" class="d">the</text><text x="21.042" y="1.67" class="d">cat,</text><text x="26.052" y="1.67" class="d">the</text><text x="30.06" y="1.67" class="d">human,</text><text x="37.074" y="1.67" class="d">or</text><text x="40.08" y="1.67" class="d">the</text><text x="44.088" y="1.67" class="d">baby?</text></symbol><symbol id="6"><text y="1.67" class="d">Who&apos;s</text><text x="6.012" y="1.67" class="d">the</text><text x="10.02" y="1.67" class="d">boss</text><text x="15.03" y="1.67" class="d">-</text><text x="17.034" y="1.67" class="d">the</text><text x="21.042" y="1.67" class="d">cat,</text><text x="26.052" y="1.67" class="d">the</text><text x="30.06" y="1.67" class="d">human,</text><text x="37.074" y="1.67" class="d">or</text><text x="40.08" y="1.67" class="d">the</text><text x="44.088" y="1.67" class="d">baby?</text><text x="50.1" y="1.67" class="d">me</text></symbol><symbol id="7"><text y="1.67" class="d">You</text><text x="4.008" y="1.67" class="d">gotta</text><text x="10.02" y="1.67" class="d">say</text><text x="14.028" y="1.67" class="d">&apos;cat&apos;,</text><text x="21.042" y="1.67" class="d">&apos;human&apos;,</text><text x="30.06" y="1.67" class="d">or</text><text x="33.066" y="1.67" class="d">&apos;baby&apos;.</text></symbol><symbol id="8"><text y="1.67" class="d">Who&apos;s</text><text x="6.012" y="1.67" class="d">the</text><text x="10.02" y="1.67" class="d">boss</text><text x="15.03" y="1.67" class="d">-</text><text x="17.034" y="1.67" class="d">the</text><text x="21.042" y="1.67" class="d">cat,</text><text x="26.052" y="1.67" class="d">the</text><text x="30.06" y="1.67" class="d">human,</text><text x="37.074" y="1.67" class="d">or</text><text x="40.08" y="1.67" class="d">the</text><text x="44.088" y="1.67" class="d">baby?</text><text x="50.1" y="1.67" class="d">cat</text></symbol><symbol id="9"><text y="1.67" class="d">Your</text><text x="5.01" y="1.67" class="d">honesty</text><text x="13.026" y="1.67" class="d">is</text><text x="16.032" y="1.67" class="d">commendable.</text></symbol><symbol id="10"><text y="1.67" class="d">Who&apos;s</text><text x="6.012" y="1.67" class="d">the</text><text x="10.02" y="1.67" class="d">boss</text><text x="15.03" y="1.67" class="d">-</text><text x="17.034" y="1.67" class="d">the</text><text x="21.042" y="1.67" class="d">cat,</text><text x="26.052" y="1.67" class="d">the</text><text x="30.06" y="1.67" class="d">human,</text><text x="37.074" y="1.67" class="d">or</text><text x="40.08" y="1.67" class="d">the</text><text x="44.088" y="1.67" class="d">baby?</text><text x="50.1" y="1.67" class="d">human</text></symbol><symbol id="11"><text y="1.67" class="d">Is</text><text x="3.006" y="1.67" class="d">the</text><text x="7.014" y="1.67" class="d">cat</text><text x="11.022" y="1.67" class="d">watching</text><text x="20.04" y="1.67" class="d">you</text><text x="24.048" y="1.67" class="d">right</text><text x="30.06" y="1.67" class="d">now?</text><text x="35.07" y="1.67" class="d">Are</text><text x="39.078" y="1.67" class="d">you</text><text x="43.086" y="1.67" class="d">safe?</text></symbol><symbol id="12"><text y="1.67" class="d">Who&apos;s</text><text x="6.012" y="1.67" class="d">the</text><text x="10.02" y="1.67" class="d">boss</text><text x="15.03" y="1.67" class="d">-</text><text x="17.034" y="1.67" class="d">the</text><text x="21.042" y="1.67" class="d">cat,</text><text x="26.052" y="1.67" class="d">the</text><text x="30.06" y="1.67" class="d">human,</text><text x="37.074" y="1.67" class="d">or</text><text x="40.08" y="1.67" class="d">the</text><text x="44.088" y="1.67" class="d">baby?</text><text x="50.1" y="1.67" class="d">baby</text></symbol><symbol id="13"><text y="1.67" class="d">Even</text><text x="5.01" y="1.67" class="d">the</text><text x="9.018" y="1.67" class="d">cat</text><text x="13.026" y="1.67" class="d">is</text><text x="16.032" y="1.67" class="d">no</text><text x="19.038" y="1.67" class="d">match</text><text x="25.05" y="1.67" class="d">for</text><text x="29.058" y="1.67" class="d">the</text><text x="33.066" y="1.67" class="d">baby!</text></symbol><symbol id="14"><text y="1.67" class="d">$</text><text x="2.004" y="1.67" class="d">exit</text></symbol><symbol id="a"><path fill="transparent" d="M0 0h65v17H0z"/></symbol><symbol id="b"><path fill="#6f7683" d="M0 0h1.102v2.171H0z"/></symbol></defs><path class="a" d="M0 0h65v36.907H0z"/><g style="animation-duration:31.992757s;animation-iteration-count:infinite;animation-name:h;animation-timing-function:steps(1,end)"><svg width="3640"><svg><use xlink:href="#a"/><use xlink:href="#b" x="-.004"/></svg><svg x="65"><use xlink:href="#a"/><use xlink:href="#b" x="1.996" y="2.146"/><use xlink:href="#1"/><use xlink:href="#2" y="2.171"/></svg><svg x="130"><use xlink:href="#a"/><use xlink:href="#b" x="2.996" y="2.146"/><use xlink:href="#1"/><text y="3.841" class="d">$</text><text x="2.004" y="3.841" class="d">p</text></svg><svg x="195"><use xlink:href="#a"/><use xlink:href="#b" x="3.996" y="2.146"/><use xlink:href="#1"/><text y="3.841" class="d">$</text><text x="2.004" y="3.841" class="d">py</text></svg><svg x="260"><use xlink:href="#a"/><use xlink:href="#b" x="4.996" y="2.146"/><use xlink:href="#1"/><text y="3.841" class="d">$</text><text x="2.004" y="3.841" class="d">pyt</text></svg><svg x="325"><use xlink:href="#a"/><use xlink:href="#b" x="5.996" y="2.146"/><use xlink:href="#1"/><text y="3.841" class="d">$</text><text x="2.004" y="3.841" class="d">pyth</text></svg><svg x="390"><use xlink:href="#a"/><use xlink:href="#b" x="6.996" y="2.146"/><use xlink:href="#1"/><text y="3.841" class="d">$</text><text x="2.004" y="3.841" class="d">pytho</text></svg><svg x="455"><use xlink:href="#a"/><use xlink:href="#b" x="7.996" y="2.146"/><use xlink:href="#1"/><text y="3.841" class="d">$</text><text x="2.004" y="3.841" class="d">python</text></svg><svg x="520"><use xlink:href="#a"/><use xlink:href="#b" x="8.996" y="2.146"/><use xlink:href="#1"/><use xlink:href="#3" y="2.171"/></svg><svg x="585"><use xlink:href="#a"/><use xlink:href="#b" x="9.996" y="2.146"/><use xlink:href="#1"/><use xlink:href="#3" y="2.171"/></svg><svg x="650"><use xlink:href="#a"/><use xlink:href="#b" x="10.996" y="2.146"/><use xlink:href="#1"/><text y="3.841" class="d">$</text><text x="2.004" y="3.841" class="d">python3</text><text x="10.02" y="3.841" class="d">w</text></svg><svg x="715"><use xlink:href="#a"/><use xlink:href="#b" x="11.996" y="2.146"/><use xlink:href="#1"/><text y="3.841" class="d">$</text><text x="2.004" y="3.841" class="d">python3</text><text x="10.02" y="3.841" class="d">wh</text></svg><svg x="780"><use xlink:href="#a"/><use xlink:href="#b" x="26.996" y="2.146"/><use xlink:href="#1"/><use xlink:href="#4" y="2.171"/></svg><svg x="845"><use xlink:href="#a"/><use xlink:href="#b" x="-.004" y="4.317"/><use xlink:href="#1"/><use xlink:href="#4" y="2.171"/></svg><svg x="910"><use xlink:href="#a"/><use xlink:href="#b" x="49.996" y="4.317"/><use xlink:href="#1"/><use xlink:href="#4" y="2.171"/><use xlink:href="#5" y="4.342"/></svg><svg x="975"><use xlink:href="#a"/><use xlink:href="#b" x="50.996" y="4.317"/><use xlink:href="#1"/><use xlink:href="#4" y="2.171"/><text y="6.012" class="d">Who&apos;s</text><text x="6.012" y="6.012" class="d">the</text><text x="10.02" y="6.012" class="d">boss</text><text x="15.03" y="6.012" class="d">-</text><text x="17.034" y="6.012" class="d">the</text><text x="21.042" y="6.012" class="d">cat,</text><text x="26.052" y="6.012" class="d">the</text><text x="30.06" y="6.012" class="d">human,</text><text x="37.074" y="6.012" class="d">or</text><text x="40.08" y="6.012" class="d">the</text><text x="44.088" y="6.012" class="d">baby?</text><text x="50.1" y="6.012" class="d">m</text></svg><svg x="1040"><use xlink:href="#a"/><use xlink:href="#b" x="51.996" y="4.317"/><use xlink:href="#1"/><use xlink:href="#4" y="2.171"/><use xlink:href="#6" y="4.342"/></svg><svg x="1105"><use xlink:href="#a"/><use xlink:href="#b" x="-.004" y="6.488"/><use xlink:href="#1"/><use xlink:href="#4" y="2.171"/><use xlink:href="#6" y="4.342"/></svg><svg x="1170"><use xlink:href="#a"/><use xlink:href="#b" x="-.004" y="8.659"/><use xlink:href="#1"/><use xlink:href="#4" y="2.171"/><use xlink:href="#6" y="4.342"/><use xlink:href="#7" y="6.513"/></svg><svg x="1235"><use xlink:href="#a"/><use xlink:href="#b" x="1.996" y="10.83"/><use xlink:href="#1"/><use xlink:href="#4" y="2.171"/><use xlink:href="#6" y="4.342"/><use xlink:href="#7" y="6.513"/><use xlink:href="#1" y="8.684"/><use xlink:href="#2" y="10.855"/></svg><svg x="1300"><use xlink:href="#a"/><use xlink:href="#b" x="26.996" y="10.83"/><use xlink:href="#1"/><use xlink:href="#4" y="2.171"/><use xlink:href="#6" y="4.342"/><use xlink:href="#7" y="6.513"/><use xlink:href="#1" y="8.684"/><use xlink:href="#4" y="10.855"/></svg><svg x="1365"><use xlink:href="#a"/><use xlink:href="#b" x="-.004" y="13.001"/><use xlink:href="#1"/><use xlink:href="#4" y="2.171"/><use xlink:href="#6" y="4.342"/><use xlink:href="#7" y="6.513"/><use xlink:href="#1" y="8.684"/><use xlink:href="#4" y="10.855"/></svg><svg x="1430"><use xlink:href="#a"/><use xlink:href="#b" x="49.996" y="13.001"/><use xlink:href="#1"/><use xlink:href="#4" y="2.171"/><use xlink:href="#6" y="4.342"/><use xlink:href="#7" y="6.513"/><use xlink:href="#1" y="8.684"/><use xlink:href="#4" y="10.855"/><use xlink:href="#5" y="13.026"/></svg><svg x="1495"><use xlink:href="#a"/><use xlink:href="#b" x="50.996" y="13.001"/><use xlink:href="#1"/><use xlink:href="#4" y="2.171"/><use xlink:href="#6" y="4.342"/><use xlink:href="#7" y="6.513"/><use xlink:href="#1" y="8.684"/><use xlink:href="#4" y="10.855"/><text y="14.696" class="d">Who&apos;s</text><text x="6.012" y="14.696" class="d">the</text><text x="10.02" y="14.696" class="d">boss</text><text x="15.03" y="14.696" class="d">-</text><text x="17.034" y="14.696" class="d">the</text><text x="21.042" y="14.696" class="d">cat,</text><text x="26.052" y="14.696" class="d">the</text><text x="30.06" y="14.696" class="d">human,</text><text x="37.074" y="14.696" class="d">or</text><text x="40.08" y="14.696" class="d">the</text><text x="44.088" y="14.696" class="d">baby?</text><text x="50.1" y="14.696" class="d">c</text></svg><svg x="1560"><use xlink:href="#a"/><use xlink:href="#b" x="51.996" y="13.001"/><use xlink:href="#1"/><use xlink:href="#4" y="2.171"/><use xlink:href="#6" y="4.342"/><use xlink:href="#7" y="6.513"/><use xlink:href="#1" y="8.684"/><use xlink:href="#4" y="10.855"/><text y="14.696" class="d">Who&apos;s</text><text x="6.012" y="14.696" class="d">the</text><text x="10.02" y="14.696" class="d">boss</text><text x="15.03" y="14.696" class="d">-</text><text x="17.034" y="14.696" class="d">the</text><text x="21.042" y="14.696" class="d">cat,</text><text x="26.052" y="14.696" class="d">the</text><text x="30.06" y="14.696" class="d">human,</text><text x="37.074" y="14.696" class="d">or</text><text x="40.08" y="14.696" class="d">the</text><text x="44.088" y="14.696" class="d">baby?</text><text x="50.1" y="14.696" class="d">ca</text></svg><svg x="1625"><use xlink:href="#a"/><use xlink:href="#b" x="52.996" y="13.001"/><use xlink:href="#1"/><use xlink:href="#4" y="2.171"/><use xlink:href="#6" y="4.342"/><use xlink:href="#7" y="6.513"/><use xlink:href="#1" y="8.684"/><use xlink:href="#4" y="10.855"/><use xlink:href="#8" y="13.026"/></svg><svg x="1690"><use xlink:href="#a"/><use xlink:href="#b" x="-.004" y="15.172"/><use xlink:href="#1"/><use xlink:href="#4" y="2.171"/><use xlink:href="#6" y="4.342"/><use xlink:href="#7" y="6.513"/><use xlink:href="#1" y="8.684"/><use xlink:href="#4" y="10.855"/><use xlink:href="#8" y="13.026"/></svg><svg x="1755"><use xlink:href="#a"/><use xlink:href="#b" x="-.004" y="17.343"/><use xlink:href="#1"/><use xlink:href="#4" y="2.171"/><use xlink:href="#6" y="4.342"/><use xlink:href="#7" y="6.513"/><use xlink:href="#1" y="8.684"/><use xlink:href="#4" y="10.855"/><use xlink:href="#8" y="13.026"/><use xlink:href="#9" y="15.197"/></svg><svg x="1820"><use xlink:href="#a"/><use xlink:href="#b" x="1.996" y="19.514"/><use xlink:href="#1"/><use xlink:href="#4" y="2.171"/><use xlink:href="#6" y="4.342"/><use xlink:href="#7" y="6.513"/><use xlink:href="#1" y="8.684"/><use xlink:href="#4" y="10.855"/><use xlink:href="#8" y="13.026"/><use xlink:href="#9" y="15.197"/><use xlink:href="#1" y="17.368"/><use xlink:href="#2" y="19.539"/></svg><svg x="1885"><use xlink:href="#a"/><use xlink:href="#b" x="26.996" y="19.514"/><use xlink:href="#1"/><use xlink:href="#4" y="2.171"/><use xlink:href="#6" y="4.342"/><use xlink:href="#7" y="6.513"/><use xlink:href="#1" y="8.684"/><use xlink:href="#4" y="10.855"/><use xlink:href="#8" y="13.026"/><use xlink:href="#9" y="15.197"/><use xlink:href="#1" y="17.368"/><use xlink:href="#4" y="19.539"/></svg><svg x="1950"><use xlink:href="#a"/><use xlink:href="#b" x="-.004" y="21.685"/><use xlink:href="#1"/><use xlink:href="#4" y="2.171"/><use xlink:href="#6" y="4.342"/><use xlink:href="#7" y="6.513"/><use xlink:href="#1" y="8.684"/><use xlink:href="#4" y="10.855"/><use xlink:href="#8" y="13.026"/><use xlink:href="#9" y="15.197"/><use xlink:href="#1" y="17.368"/><use xlink:href="#4" y="19.539"/></svg><svg x="2015"><use xlink:href="#a"/><use xlink:href="#b" x="49.996" y="21.685"/><use xlink:href="#1"/><use xlink:href="#4" y="2.171"/><use xlink:href="#6" y="4.342"/><use xlink:href="#7" y="6.513"/><use xlink:href="#1" y="8.684"/><use xlink:href="#4" y="10.855"/><use xlink:href="#8" y="13.026"/><use xlink:href="#9" y="15.197"/><use xlink:href="#1" y="17.368"/><use xlink:href="#4" y="19.539"/><use xlink:href="#5" y="21.71"/></svg><svg x="2080"><use xlink:href="#a"/><use xlink:href="#b" x="50.996" y="21.685"/><use xlink:href="#1"/><use xlink:href="#4" y="2.171"/><use xlink:href="#6" y="4.342"/><use xlink:href="#7" y="6.513"/><use xlink:href="#1" y="8.684"/><use xlink:href="#4" y="10.855"/><use xlink:href="#8" y="13.026"/><use xlink:href="#9" y="15.197"/><use xlink:href="#1" y="17.368"/><use xlink:href="#4" y="19.539"/><text y="23.38" class="d">Who&apos;s</text><text x="6.012" y="23.38" class="d">the</text><text x="10.02" y="23.38" class="d">boss</text><text x="15.03" y="23.38" class="d">-</text><text x="17.034" y="23.38" class="d">the</text><text x="21.042" y="23.38" class="d">cat,</text><text x="26.052" y="23.38" class="d">the</text><text x="30.06" y="23.38" class="d">human,</text><text x="37.074" y="23.38" class="d">or</text><text x="40.08" y="23.38" class="d">the</text><text x="44.088" y="23.38" class="d">baby?</text><text x="50.1" y="23.38" class="d">h</text></svg><svg x="2145"><use xlink:href="#a"/><use xlink:href="#b" x="51.996" y="21.685"/><use xlink:href="#1"/><use xlink:href="#4" y="2.171"/><use xlink:href="#6" y="4.342"/><use xlink:href="#7" y="6.513"/><use xlink:href="#1" y="8.684"/><use xlink:href="#4" y="10.855"/><use xlink:href="#8" y="13.026"/><use xlink:href="#9" y="15.197"/><use xlink:href="#1" y="17.368"/><use xlink:href="#4" y="19.539"/><text y="23.38" class="d">Who&apos;s</text><text x="6.012" y="23.38" class="d">the</text><text x="10.02" y="23.38" class="d">boss</text><text x="15.03" y="23.38" class="d">-</text><text x="17.034" y="23.38" class="d">the</text><text x="21.042" y="23.38" class="d">cat,</text><text x="26.052" y="23.38" class="d">the</text><text x="30.06" y="23.38" class="d">human,</text><text x="37.074" y="23.38" class="d">or</text><text x="40.08" y="23.38" class="d">the</text><text x="44.088" y="23.38" class="d">baby?</text><text x="50.1" y="23.38" class="d">hu</text></svg><svg x="2210"><use xlink:href="#a"/><use xlink:href="#b" x="52.996" y="21.685"/><use xlink:href="#1"/><use xlink:href="#4" y="2.171"/><use xlink:href="#6" y="4.342"/><use xlink:href="#7" y="6.513"/><use xlink:href="#1" y="8.684"/><use xlink:href="#4" y="10.855"/><use xlink:href="#8" y="13.026"/><use xlink:href="#9" y="15.197"/><use xlink:href="#1" y="17.368"/><use xlink:href="#4" y="19.539"/><text y="23.38" class="d">Who&apos;s</text><text x="6.012" y="23.38" class="d">the</text><text x="10.02" y="23.38" class="d">boss</text><text x="15.03" y="23.38" class="d">-</text><text x="17.034" y="23.38" class="d">the</text><text x="21.042" y="23.38" class="d">cat,</text><text x="26.052" y="23.38" class="d">the</text><text x="30.06" y="23.38" class="d">human,</text><text x="37.074" y="23.38" class="d">or</text><text x="40.08" y="23.38" class="d">the</text><text x="44.088" y="23.38" class="d">baby?</text><text x="50.1" y="23.38" class="d">hum</text></svg><svg x="2275"><use xlink:href="#a"/><use xlink:href="#b" x="53.996" y="21.685"/><use xlink:href="#1"/><use xlink:href="#4" y="2.171"/><use xlink:href="#6" y="4.342"/><use xlink:href="#7" y="6.513"/><use xlink:href="#1" y="8.684"/><use xlink:href="#4" y="10.855"/><use xlink:href="#8" y="13.026"/><use xlink:href="#9" y="15.197"/><use xlink:href="#1" y="17.368"/><use xlink:href="#4" y="19.539"/><text y="23.38" class="d">Who&apos;s</text><text x="6.012" y="23.38" class="d">the</text><text x="10.02" y="23.38" class="d">boss</text><text x="15.03" y="23.38" class="d">-</text><text x="17.034" y="23.38" class="d">the</text><text x="21.042" y="23.38" class="d">cat,</text><text x="26.052" y="23.38" class="d">the</text><text x="30.06" y="23.38" class="d">human,</text><text x="37.074" y="23.38" class="d">or</text><text x="40.08" y="23.38" class="d">the</text><text x="44.088" y="23.38" class="d">baby?</text><text x="50.1" y="23.38" class="d">huma</text></svg><svg x="2340"><use xlink:href="#a"/><use xlink:href="#b" x="54.996" y="21.685"/><use xlink:href="#1"/><use xlink:href="#4" y="2.171"/><use xlink:href="#6" y="4.342"/><use xlink:href="#7" y="6.513"/><use xlink:href="#1" y="8.684"/><use xlink:href="#4" y="10.855"/><use xlink:href="#8" y="13.026"/><use xlink:href="#9" y="15.197"/><use xlink:href="#1" y="17.368"/><use xlink:href="#4" y="19.539"/><use xlink:href="#10" y="21.71"/></svg><svg x="2405"><use xlink:href="#a"/><use xlink:href="#b" x="-.004" y="23.856"/><use xlink:href="#1"/><use xlink:href="#4" y="2.171"/><use xlink:href="#6" y="4.342"/><use xlink:href="#7" y="6.513"/><use xlink:href="#1" y="8.684"/><use xlink:href="#4" y="10.855"/><use xlink:href="#8" y="13.026"/><use xlink:href="#9" y="15.197"/><use xlink:href="#1" y="17.368"/><use xlink:href="#4" y="19.539"/><use xlink:href="#10" y="21.71"/></svg><svg x="2470"><use xlink:href="#a"/><use xlink:href="#b" x="-.004" y="26.027"/><use xlink:href="#1"/><use xlink:href="#4" y="2.171"/><use xlink:href="#6" y="4.342"/><use xlink:href="#7" y="6.513"/><use xlink:href="#1" y="8.684"/><use xlink:href="#4" y="10.855"/><use xlink:href="#8" y="13.026"/><use xlink:href="#9" y="15.197"/><use xlink:href="#1" y="17.368"/><use xlink:href="#4" y="19.539"/><use xlink:href="#10" y="21.71"/><use xlink:href="#11" y="23.881"/></svg><svg x="2535"><use xlink:href="#a"/><use xlink:href="#b" x="1.996" y="28.198"/><use xlink:href="#1"/><use xlink:href="#4" y="2.171"/><use xlink:href="#6" y="4.342"/><use xlink:href="#7" y="6.513"/><use xlink:href="#1" y="8.684"/><use xlink:href="#4" y="10.855"/><use xlink:href="#8" y="13.026"/><use xlink:href="#9" y="15.197"/><use xlink:href="#1" y="17.368"/><use xlink:href="#4" y="19.539"/><use xlink:href="#10" y="21.71"/><use xlink:href="#11" y="23.881"/><use xlink:href="#1" y="26.052"/><use xlink:href="#2" y="28.223"/></svg><svg x="2600"><use xlink:href="#a"/><use xlink:href="#b" x="26.996" y="28.198"/><use xlink:href="#1"/><use xlink:href="#4" y="2.171"/><use xlink:href="#6" y="4.342"/><use xlink:href="#7" y="6.513"/><use xlink:href="#1" y="8.684"/><use xlink:href="#4" y="10.855"/><use xlink:href="#8" y="13.026"/><use xlink:href="#9" y="15.197"/><use xlink:href="#1" y="17.368"/><use xlink:href="#4" y="19.539"/><use xlink:href="#10" y="21.71"/><use xlink:href="#11" y="23.881"/><use xlink:href="#1" y="26.052"/><use xlink:href="#4" y="28.223"/></svg><svg x="2665"><use xlink:href="#a"/><use xlink:href="#b" x="-.004" y="30.369"/><use xlink:href="#1"/><use xlink:href="#4" y="2.171"/><use xlink:href="#6" y="4.342"/><use xlink:href="#7" y="6.513"/><use xlink:href="#1" y="8.684"/><use xlink:href="#4" y="10.855"/><use xlink:href="#8" y="13.026"/><use xlink:href="#9" y="15.197"/><use xlink:href="#1" y="17.368"/><use xlink:href="#4" y="19.539"/><use xlink:href="#10" y="21.71"/><use xlink:href="#11" y="23.881"/><use xlink:href="#1" y="26.052"/><use xlink:href="#4" y="28.223"/></svg><svg x="2730"><use xlink:href="#a"/><use xlink:href="#b" x="49.996" y="30.369"/><use xlink:href="#1"/><use xlink:href="#4" y="2.171"/><use xlink:href="#6" y="4.342"/><use xlink:href="#7" y="6.513"/><use xlink:href="#1" y="8.684"/><use xlink:href="#4" y="10.855"/><use xlink:href="#8" y="13.026"/><use xlink:href="#9" y="15.197"/><use xlink:href="#1" y="17.368"/><use xlink:href="#4" y="19.539"/><use xlink:href="#10" y="21.71"/><use xlink:href="#11" y="23.881"/><use xlink:href="#1" y="26.052"/><use xlink:href="#4" y="28.223"/><use xlink:href="#5" y="30.394"/></svg><svg x="2795"><use xlink:href="#a"/><use xlink:href="#b" x="50.996" y="30.369"/><use xlink:href="#1"/><use xlink:href="#4" y="2.171"/><use xlink:href="#6" y="4.342"/><use xlink:href="#7" y="6.513"/><use xlink:href="#1" y="8.684"/><use xlink:href="#4" y="10.855"/><use xlink:href="#8" y="13.026"/><use xlink:href="#9" y="15.197"/><use xlink:href="#1" y="17.368"/><use xlink:href="#4" y="19.539"/><use xlink:href="#10" y="21.71"/><use xlink:href="#11" y="23.881"/><use xlink:href="#1" y="26.052"/><use xlink:href="#4" y="28.223"/><text y="32.064" class="d">Who&apos;s</text><text x="6.012" y="32.064" class="d">the</text><text x="10.02" y="32.064" class="d">boss</text><text x="15.03" y="32.064" class="d">-</text><text x="17.034" y="32.064" class="d">the</text><text x="21.042" y="32.064" class="d">cat,</text><text x="26.052" y="32.064" class="d">the</text><text x="30.06" y="32.064" class="d">human,</text><text x="37.074" y="32.064" class="d">or</text><text x="40.08" y="32.064" class="d">the</text><text x="44.088" y="32.064" class="d">baby?</text><text x="50.1" y="32.064" class="d">b</text></svg><svg x="2860"><use xlink:href="#a"/><use xlink:href="#b" x="51.996" y="30.369"/><use xlink:href="#1"/><use xlink:href="#4" y="2.171"/><use xlink:href="#6" y="4.342"/><use xlink:href="#7" y="6.513"/><use xlink:href="#1" y="8.684"/><use xlink:href="#4" y="10.855"/><use xlink:href="#8" y="13.026"/><use xlink:href="#9" y="15.197"/><use xlink:href="#1" y="17.368"/><use xlink:href="#4" y="19.539"/><use xlink:href="#10" y="21.71"/><use xlink:href="#11" y="23.881"/><use xlink:href="#1" y="26.052"/><use xlink:href="#4" y="28.223"/><text y="32.064" class="d">Who&apos;s</text><text x="6.012" y="32.064" class="d">the</text><text x="10.02" y="32.064" class="d">boss</text><text x="15.03" y="32.064" class="d">-</text><text x="17.034" y="32.064" class="d">the</text><text x="21.042" y="32.064" class="d">cat,</text><text x="26.052" y="32.064" class="d">the</text><text x="30.06" y="32.064" class="d">human,</text><text x="37.074" y="32.064" class="d">or</text><text x="40.08" y="32.064" class="d">the</text><text x="44.088" y="32.064" class="d">baby?</text><text x="50.1" y="32.064" class="d">ba</text></svg><svg x="2925"><use xlink:href="#a"/><use xlink:href="#b" x="52.996" y="30.369"/><use xlink:href="#1"/><use xlink:href="#4" y="2.171"/><use xlink:href="#6" y="4.342"/><use xlink:href="#7" y="6.513"/><use xlink:href="#1" y="8.684"/><use xlink:href="#4" y="10.855"/><use xlink:href="#8" y="13.026"/><use xlink:href="#9" y="15.197"/><use xlink:href="#1" y="17.368"/><use xlink:href="#4" y="19.539"/><use xlink:href="#10" y="21.71"/><use xlink:href="#11" y="23.881"/><use xlink:href="#1" y="26.052"/><use xlink:href="#4" y="28.223"/><text y="32.064" class="d">Who&apos;s</text><text x="6.012" y="32.064" class="d">the</text><text x="10.02" y="32.064" class="d">boss</text><text x="15.03" y="32.064" class="d">-</text><text x="17.034" y="32.064" class="d">the</text><text x="21.042" y="32.064" class="d">cat,</text><text x="26.052" y="32.064" class="d">the</text><text x="30.06" y="32.064" class="d">human,</text><text x="37.074" y="32.064" class="d">or</text><text x="40.08" y="32.064" class="d">the</text><text x="44.088" y="32.064" class="d">baby?</text><text x="50.1" y="32.064" class="d">bab</text></svg><svg x="2990"><use xlink:href="#a"/><use xlink:href="#b" x="53.996" y="30.369"/><use xlink:href="#1"/><use xlink:href="#4" y="2.171"/><use xlink:href="#6" y="4.342"/><use xlink:href="#7" y="6.513"/><use xlink:href="#1" y="8.684"/><use xlink:href="#4" y="10.855"/><use xlink:href="#8" y="13.026"/><use xlink:href="#9" y="15.197"/><use xlink:href="#1" y="17.368"/><use xlink:href="#4" y="19.539"/><use xlink:href="#10" y="21.71"/><use xlink:href="#11" y="23.881"/><use xlink:href="#1" y="26.052"/><use xlink:href="#4" y="28.223"/><use xlink:href="#12" y="30.394"/></svg><svg x="3055"><use xlink:href="#a"/><use xlink:href="#b" x="-.004" y="32.54"/><use xlink:href="#1"/><use xlink:href="#4" y="2.171"/><use xlink:href="#6" y="4.342"/><use xlink:href="#7" y="6.513"/><use xlink:href="#1" y="8.684"/><use xlink:href="#4" y="10.855"/><use xlink:href="#8" y="13.026"/><use xlink:href="#9" y="15.197"/><use xlink:href="#1" y="17.368"/><use xlink:href="#4" y="19.539"/><use xlink:href="#10" y="21.71"/><use xlink:href="#11" y="23.881"/><use xlink:href="#1" y="26.052"/><use xlink:href="#4" y="28.223"/><use xlink:href="#12" y="30.394"/></svg><svg x="3120"><use xlink:href="#a"/><use xlink:href="#b" x="-.004" y="34.711"/><use xlink:href="#1"/><use xlink:href="#4" y="2.171"/><use xlink:href="#6" y="4.342"/><use xlink:href="#7" y="6.513"/><use xlink:href="#1" y="8.684"/><use xlink:href="#4" y="10.855"/><use xlink:href="#8" y="13.026"/><use xlink:href="#9" y="15.197"/><use xlink:href="#1" y="17.368"/><use xlink:href="#4" y="19.539"/><use xlink:href="#10" y="21.71"/><use xlink:href="#11" y="23.881"/><use xlink:href="#1" y="26.052"/><use xlink:href="#4" y="28.223"/><use xlink:href="#12" y="30.394"/><use xlink:href="#13" y="32.565"/></svg><svg x="3185"><use xlink:href="#a"/><use xlink:href="#b" x="1.996" y="34.711"/><use xlink:href="#4"/><use xlink:href="#6" y="2.171"/><use xlink:href="#7" y="4.342"/><use xlink:href="#1" y="6.513"/><use xlink:href="#4" y="8.684"/><use xlink:href="#8" y="10.855"/><use xlink:href="#9" y="13.026"/><use xlink:href="#1" y="15.197"/><use xlink:href="#4" y="17.368"/><use xlink:href="#10" y="19.539"/><use xlink:href="#11" y="21.71"/><use xlink:href="#1" y="23.881"/><use xlink:href="#4" y="26.052"/><use xlink:href="#12" y="28.223"/><use xlink:href="#13" y="30.394"/><use xlink:href="#1" y="32.565"/><use xlink:href="#2" y="34.736"/></svg><svg x="3250"><use xlink:href="#a"/><use xlink:href="#b" x="2.996" y="34.711"/><use xlink:href="#4"/><use xlink:href="#6" y="2.171"/><use xlink:href="#7" y="4.342"/><use xlink:href="#1" y="6.513"/><use xlink:href="#4" y="8.684"/><use xlink:href="#8" y="10.855"/><use xlink:href="#9" y="13.026"/><use xlink:href="#1" y="15.197"/><use xlink:href="#4" y="17.368"/><use xlink:href="#10" y="19.539"/><use xlink:href="#11" y="21.71"/><use xlink:href="#1" y="23.881"/><use xlink:href="#4" y="26.052"/><use xlink:href="#12" y="28.223"/><use xlink:href="#13" y="30.394"/><use xlink:href="#1" y="32.565"/><text y="36.406" class="d">$</text><text x="2.004" y="36.406" class="d">e</text></svg><svg x="3315"><use xlink:href="#a"/><use xlink:href="#b" x="3.996" y="34.711"/><use xlink:href="#4"/><use xlink:href="#6" y="2.171"/><use xlink:href="#7" y="4.342"/><use xlink:href="#1" y="6.513"/><use xlink:href="#4" y="8.684"/><use xlink:href="#8" y="10.855"/><use xlink:href="#9" y="13.026"/><use xlink:href="#1" y="15.197"/><use xlink:href="#4" y="17.368"/><use xlink:href="#10" y="19.539"/><use xlink:href="#11" y="21.71"/><use xlink:href="#1" y="23.881"/><use xlink:href="#4" y="26.052"/><use xlink:href="#12" y="28.223"/><use xlink:href="#13" y="30.394"/><use xlink:href="#1" y="32.565"/><text y="36.406" class="d">$</text><text x="2.004" y="36.406" class="d">ex</text></svg><svg x="3380"><use xlink:href="#a"/><use xlink:href="#b" x="4.996" y="34.711"/><use xlink:href="#4"/><use xlink:href="#6" y="2.171"/><use xlink:href="#7" y="4.342"/><use xlink:href="#1" y="6.513"/><use xlink:href="#4" y="8.684"/><use xlink:href="#8" y="10.855"/><use xlink:href="#9" y="13.026"/><use xlink:href="#1" y="15.197"/><use xlink:href="#4" y="17.368"/><use xlink:href="#10" y="19.539"/><use xlink:href="#11" y="21.71"/><use xlink:href="#1" y="23.881"/><use xlink:href="#4" y="26.052"/><use xlink:href="#12" y="28.223"/><use xlink:href="#13" y="30.394"/><use xlink:href="#1" y="32.565"/><text y="36.406" class="d">$</text><text x="2.004" y="36.406" class="d">exi</text></svg><svg x="3445"><use xlink:href="#a"/><use xlink:href="#b" x="5.996" y="34.711"/><use xlink:href="#4"/><use xlink:href="#6" y="2.171"/><use xlink:href="#7" y="4.342"/><use xlink:href="#1" y="6.513"/><use xlink:href="#4" y="8.684"/><use xlink:href="#8" y="10.855"/><use xlink:href="#9" y="13.026"/><use xlink:href="#1" y="15.197"/><use xlink:href="#4" y="17.368"/><use xlink:href="#10" y="19.539"/><use xlink:href="#11" y="21.71"/><use xlink:href="#1" y="23.881"/><use xlink:href="#4" y="26.052"/><use xlink:href="#12" y="28.223"/><use xlink:href="#13" y="30.394"/><use xlink:href="#1" y="32.565"/><use xlink:href="#14" y="34.736"/></svg><svg x="3510"><use xlink:href="#a"/><use xlink:href="#b" x="-.004" y="34.711"/><use xlink:href="#6"/><use xlink:href="#7" y="2.171"/><use xlink:href="#1" y="4.342"/><use xlink:href="#4" y="6.513"/><use xlink:href="#8" y="8.684"/><use xlink:href="#9" y="10.855"/><use xlink:href="#1" y="13.026"/><use xlink:href="#4" y="15.197"/><use xlink:href="#10" y="17.368"/><use xlink:href="#11" y="19.539"/><use xlink:href="#1" y="21.71"/><use xlink:href="#4" y="23.881"/><use xlink:href="#12" y="26.052"/><use xlink:href="#13" y="28.223"/><use xlink:href="#1" y="30.394"/><use xlink:href="#14" y="32.565"/></svg><svg x="3575"><use xlink:href="#a"/><use xlink:href="#b" x="-.004" y="34.711"/><use xlink:href="#7"/><use xlink:href="#1" y="2.171"/><use xlink:href="#4" y="4.342"/><use xlink:href="#8" y="6.513"/><use xlink:href="#9" y="8.684"/><use xlink:href="#1" y="10.855"/><use xlink:href="#4" y="13.026"/><use xlink:href="#10" y="15.197"/><use xlink:href="#11" y="17.368"/><use xlink:href="#1" y="19.539"/><use xlink:href="#4" y="21.71"/><use xlink:href="#12" y="23.881"/><use xlink:href="#13" y="26.052"/><use xlink:href="#1" y="28.223"/><use xlink:href="#14" y="30.394"/><text y="34.235" class="d">exit</text></svg></svg></g></g></svg></svg>