<svg xmlns="http://www.w3.org/2000/svg" xmlns:xlink="http://www.w3.org/1999/xlink" width="730" height="260.52"><rect width="730" height="260.52" rx="0" ry="0" class="a"/><svg height="260.52" viewBox="0 0 73 26.052" width="730" xmlns="http://www.w3.org/2000/svg" xmlns:xlink="http://www.w3.org/1999/xlink"><style>@keyframes h{0%{transform:translateX(0)}.29%{transform:translateX(-73px)}6.18%{transform:translateX(-146px)}7.58%{transform:translateX(-219px)}8.95%{transform:translateX(-292px)}9.58%{transform:translateX(-365px)}10.32%{transform:translateX(-438px)}10.6%{transform:translateX(-511px)}11.66%{transform:translateX(-584px)}13.33%{transform:translateX(-657px)}14.6%{transform:translateX(-730px)}15.27%{transform:translateX(-803px)}16.67%{transform:translateX(-876px)}21.09%{transform:translateX(-1022px)}21.2%{transform:translateX(-1095px)}27.68%{transform:translateX(-1168px)}29.05%{transform:translateX(-1241px)}30.36%{transform:translateX(-1314px)}31.67%{transform:translateX(-1387px)}32.54%{transform:translateX(-1460px)}33.51%{transform:translateX(-1533px)}33.84%{transform:translateX(-1606px)}34.96%{transform:translateX(-1679px)}36.08%{transform:translateX(-1752px)}42.41%{transform:translateX(-1898px)}42.45%{transform:translateX(-1971px)}55.71%{transform:translateX(-2044px)}65.97%{transform:translateX(-2117px)}66.07%{transform:translateX(-2190px)}71.15%{transform:translateX(-2263px)}72.05%{transform:translateX(-2336px)}72.81%{transform:translateX(-2409px)}73.65%{transform:translateX(-2482px)}75.3%{transform:translateX(-2555px)}76.24%{transform:translateX(-2628px)}77.2%{transform:translateX(-2701px)}78.97%{transform:translateX(-2774px)}79.02%{transform:translateX(-2847px)}93.06%{transform:translateX(-2920px)}94.58%{transform:translateX(-2993px)}95.42%{transform:translateX(-3066px)}98.49%{transform:translateX(-3139px)}to{transform:translateX(-3285px)}}.a{fill:#282d35}.d{fill:#b9c0cb;white-space:pre}</style><g font-family="Monaco,Consolas,Menlo,'Bitstream Vera Sans Mono','Powerline Symbols',monospace" font-size="1.67"><defs><symbol id="1"><text y="1.67" style="white-space:pre" fill="#a8cc8c" font-weight="700">tgwtg@zepo</text><text x="10.02" y="1.67" class="d">:</text><text x="11.022" y="1.67" style="white-space:pre" fill="#71bef2" font-weight="700">~/workspace</text></symbol><symbol id="2"><text y="1.67" class="d">$</text></symbol><symbol id="3"><text y="1.67" class="d">$</text><text x="2.004" y="1.67" class="d">python3</text></symbol><symbol id="4"><text y="1.67" class="d">$</text><text x="2.004" y="1.67" class="d">python3</text><text x="10.02" y="1.67" class="d">favorite_ice_cream.py</text></symbol><symbol id="5"><text y="1.67" class="d">What</text><text x="5.01" y="1.67" class="d">is</text><text x="8.016" y="1.67" class="d">your</text><text x="13.026" y="1.67" class="d">favorite</text><text x="22.044" y="1.67" class="d">ice</text><text x="26.052" y="1.67" class="d">cream</text><text x="32.064" y="1.67" class="d">flavor:</text><text x="40.08" y="1.67" class="d">chocolate,</text><text x="51.102" y="1.67" class="d">vanilla</text><text x="59.118" y="1.67" class="d">or</text><text x="62.124" y="1.67" class="d">strawberry?</text></symbol><symbol id="6"><text y="1.67" class="d">chocolate</text></symbol><symbol id="7"><text y="1.67" class="d">I</text><text x="2.004" y="1.67" class="d">guess</text><text x="8.016" y="1.67" class="d">everyone</text><text x="17.034" y="1.67" class="d">is</text><text x="20.04" y="1.67" class="d">entitled</text><text x="29.058" y="1.67" class="d">to</text><text x="32.064" y="1.67" class="d">their</text><text x="38.076" y="1.67" class="d">opinion.</text></symbol><symbol id="8"><text y="1.67" class="d">vanilla</text></symbol><symbol id="9"><text y="1.67" class="d">Hey,</text><text x="5.01" y="1.67" class="d">vanilla</text><text x="13.026" y="1.67" class="d">is</text><text x="16.032" y="1.67" class="d">my</text><text x="19.038" y="1.67" class="d">favorite</text><text x="28.056" y="1.67" class="d">ice</text><text x="32.064" y="1.67" class="d">cream</text><text x="38.076" y="1.67" class="d">too!</text><text x="43.086" y="1.67" class="d">We</text><text x="46.092" y="1.67" class="d">should</text><text x="53.106" y="1.67" class="d">be</text><text x="56.112" y="1.67" class="d">friends!</text></symbol><symbol id="10"><text y="1.67" class="d">$</text><text x="2.004" y="1.67" class="d">exit</text></symbol><symbol id="a"><path fill="transparent" d="M0 0h73v12H0z"/></symbol><symbol id="b"><path fill="#6f7683" d="M0 0h1.102v2.171H0z"/></symbol></defs><path class="a" d="M0 0h73v26.052H0z"/><g style="animation-duration:22.685063s;animation-iteration-count:infinite;animation-name:h;animation-timing-function:steps(1,end)"><svg width="3358"><svg><use xlink:href="#a"/><use xlink:href="#b" x="-.004"/></svg><svg x="73"><use xlink:href="#a"/><use xlink:href="#b" x="1.996" y="2.146"/><use xlink:href="#1"/><use xlink:href="#2" y="2.171"/></svg><svg x="146"><use xlink:href="#a"/><use xlink:href="#b" x="2.996" y="2.146"/><use xlink:href="#1"/><text y="3.841" class="d">$</text><text x="2.004" y="3.841" class="d">p</text></svg><svg x="219"><use xlink:href="#a"/><use xlink:href="#b" x="3.996" y="2.146"/><use xlink:href="#1"/><text y="3.841" class="d">$</text><text x="2.004" y="3.841" class="d">py</text></svg><svg x="292"><use xlink:href="#a"/><use xlink:href="#b" x="4.996" y="2.146"/><use xlink:href="#1"/><text y="3.841" class="d">$</text><text x="2.004" y="3.841" class="d">pyt</text></svg><svg x="365"><use xlink:href="#a"/><use xlink:href="#b" x="5.996" y="2.146"/><use xlink:href="#1"/><text y="3.841" class="d">$</text><text x="2.004" y="3.841" class="d">pyth</text></svg><svg x="438"><use xlink:href="#a"/><use xlink:href="#b" x="6.996" y="2.146"/><use xlink:href="#1"/><text y="3.841" class="d">$</text><text x="2.004" y="3.841" class="d">pytho</text></svg><svg x="511"><use xlink:href="#a"/><use xlink:href="#b" x="7.996" y="2.146"/><use xlink:href="#1"/><text y="3.841" class="d">$</text><text x="2.004" y="3.841" class="d">python</text></svg><svg x="584"><use xlink:href="#a"/><use xlink:href="#b" x="8.996" y="2.146"/><use xlink:href="#1"/><use xlink:href="#3" y="2.171"/></svg><svg x="657"><use xlink:href="#a"/><use xlink:href="#b" x="9.996" y="2.146"/><use xlink:href="#1"/><use xlink:href="#3" y="2.171"/></svg><svg x="730"><use xlink:href="#a"/><use xlink:href="#b" x="10.996" y="2.146"/><use xlink:href="#1"/><text y="3.841" class="d">$</text><text x="2.004" y="3.841" class="d">python3</text><text x="10.02" y="3.841" class="d">f</text></svg><svg x="803"><use xlink:href="#a"/><use xlink:href="#b" x="11.996" y="2.146"/><use xlink:href="#1"/><text y="3.841" class="d">$</text><text x="2.004" y="3.841" class="d">python3</text><text x="10.02" y="3.841" class="d">fa</text></svg><svg x="876"><use xlink:href="#a"/><use xlink:href="#b" x="31.996" y="2.146"/><use xlink:href="#1"/><use xlink:href="#4" y="2.171"/></svg><svg x="949"><use xlink:href="#a"/><use xlink:href="#b" x="-.004" y="4.317"/><use xlink:href="#1"/><use xlink:href="#4" y="2.171"/></svg><svg x="1022"><use xlink:href="#a"/><use xlink:href="#b" x="-.004" y="4.317"/><use xlink:href="#1"/><use xlink:href="#4" y="2.171"/></svg><svg x="1095"><use xlink:href="#a"/><use xlink:href="#b" x="-.004" y="6.488"/><use xlink:href="#1"/><use xlink:href="#4" y="2.171"/><use xlink:href="#5" y="4.342"/></svg><svg x="1168"><use xlink:href="#a"/><use xlink:href="#b" x=".996" y="6.488"/><use xlink:href="#1"/><use xlink:href="#4" y="2.171"/><use xlink:href="#5" y="4.342"/><text y="8.183" class="d">c</text></svg><svg x="1241"><use xlink:href="#a"/><use xlink:href="#b" x="1.996" y="6.488"/><use xlink:href="#1"/><use xlink:href="#4" y="2.171"/><use xlink:href="#5" y="4.342"/><text y="8.183" class="d">ch</text></svg><svg x="1314"><use xlink:href="#a"/><use xlink:href="#b" x="2.996" y="6.488"/><use xlink:href="#1"/><use xlink:href="#4" y="2.171"/><use xlink:href="#5" y="4.342"/><text y="8.183" class="d">cho</text></svg><svg x="1387"><use xlink:href="#a"/><use xlink:href="#b" x="3.996" y="6.488"/><use xlink:href="#1"/><use xlink:href="#4" y="2.171"/><use xlink:href="#5" y="4.342"/><text y="8.183" class="d">choc</text></svg><svg x="1460"><use xlink:href="#a"/><use xlink:href="#b" x="4.996" y="6.488"/><use xlink:href="#1"/><use xlink:href="#4" y="2.171"/><use xlink:href="#5" y="4.342"/><text y="8.183" class="d">choco</text></svg><svg x="1533"><use xlink:href="#a"/><use xlink:href="#b" x="5.996" y="6.488"/><use xlink:href="#1"/><use xlink:href="#4" y="2.171"/><use xlink:href="#5" y="4.342"/><text y="8.183" class="d">chocol</text></svg><svg x="1606"><use xlink:href="#a"/><use xlink:href="#b" x="6.996" y="6.488"/><use xlink:href="#1"/><use xlink:href="#4" y="2.171"/><use xlink:href="#5" y="4.342"/><text y="8.183" class="d">chocola</text></svg><svg x="1679"><use xlink:href="#a"/><use xlink:href="#b" x="7.996" y="6.488"/><use xlink:href="#1"/><use xlink:href="#4" y="2.171"/><use xlink:href="#5" y="4.342"/><text y="8.183" class="d">chocolat</text></svg><svg x="1752"><use xlink:href="#a"/><use xlink:href="#b" x="8.996" y="6.488"/><use xlink:href="#1"/><use xlink:href="#4" y="2.171"/><use xlink:href="#5" y="4.342"/><use xlink:href="#6" y="6.513"/></svg><svg x="1825"><use xlink:href="#a"/><use xlink:href="#b" x="-.004" y="8.659"/><use xlink:href="#1"/><use xlink:href="#4" y="2.171"/><use xlink:href="#5" y="4.342"/><use xlink:href="#6" y="6.513"/></svg><svg x="1898"><use xlink:href="#a"/><use xlink:href="#b" x="-.004" y="10.83"/><use xlink:href="#1"/><use xlink:href="#4" y="2.171"/><use xlink:href="#5" y="4.342"/><use xlink:href="#6" y="6.513"/><use xlink:href="#7" y="8.684"/></svg><svg x="1971"><use xlink:href="#a"/><use xlink:href="#b" x="1.996" y="13.001"/><use xlink:href="#1"/><use xlink:href="#4" y="2.171"/><use xlink:href="#5" y="4.342"/><use xlink:href="#6" y="6.513"/><use xlink:href="#7" y="8.684"/><use xlink:href="#1" y="10.855"/><use xlink:href="#2" y="13.026"/></svg><svg x="2044"><use xlink:href="#a"/><use xlink:href="#b" x="31.996" y="13.001"/><use xlink:href="#1"/><use xlink:href="#4" y="2.171"/><use xlink:href="#5" y="4.342"/><use xlink:href="#6" y="6.513"/><use xlink:href="#7" y="8.684"/><use xlink:href="#1" y="10.855"/><use xlink:href="#4" y="13.026"/></svg><svg x="2117"><use xlink:href="#a"/><use xlink:href="#b" x="-.004" y="15.172"/><use xlink:href="#1"/><use xlink:href="#4" y="2.171"/><use xlink:href="#5" y="4.342"/><use xlink:href="#6" y="6.513"/><use xlink:href="#7" y="8.684"/><use xlink:href="#1" y="10.855"/><use xlink:href="#4" y="13.026"/></svg><svg x="2190"><use xlink:href="#a"/><use xlink:href="#b" x="-.004" y="17.343"/><use xlink:href="#1"/><use xlink:href="#4" y="2.171"/><use xlink:href="#5" y="4.342"/><use xlink:href="#6" y="6.513"/><use xlink:href="#7" y="8.684"/><use xlink:href="#1" y="10.855"/><use xlink:href="#4" y="13.026"/><use xlink:href="#5" y="15.197"/></svg><svg x="2263"><use xlink:href="#a"/><use xlink:href="#b" x=".996" y="17.343"/><use xlink:href="#1"/><use xlink:href="#4" y="2.171"/><use xlink:href="#5" y="4.342"/><use xlink:href="#6" y="6.513"/><use xlink:href="#7" y="8.684"/><use xlink:href="#1" y="10.855"/><use xlink:href="#4" y="13.026"/><use xlink:href="#5" y="15.197"/><text y="19.038" class="d">v</text></svg><svg x="2336"><use xlink:href="#a"/><use xlink:href="#b" x="1.996" y="17.343"/><use xlink:href="#1"/><use xlink:href="#4" y="2.171"/><use xlink:href="#5" y="4.342"/><use xlink:href="#6" y="6.513"/><use xlink:href="#7" y="8.684"/><use xlink:href="#1" y="10.855"/><use xlink:href="#4" y="13.026"/><use xlink:href="#5" y="15.197"/><text y="19.038" class="d">va</text></svg><svg x="2409"><use xlink:href="#a"/><use xlink:href="#b" x="2.996" y="17.343"/><use xlink:href="#1"/><use xlink:href="#4" y="2.171"/><use xlink:href="#5" y="4.342"/><use xlink:href="#6" y="6.513"/><use xlink:href="#7" y="8.684"/><use xlink:href="#1" y="10.855"/><use xlink:href="#4" y="13.026"/><use xlink:href="#5" y="15.197"/><text y="19.038" class="d">van</text></svg><svg x="2482"><use xlink:href="#a"/><use xlink:href="#b" x="3.996" y="17.343"/><use xlink:href="#1"/><use xlink:href="#4" y="2.171"/><use xlink:href="#5" y="4.342"/><use xlink:href="#6" y="6.513"/><use xlink:href="#7" y="8.684"/><use xlink:href="#1" y="10.855"/><use xlink:href="#4" y="13.026"/><use xlink:href="#5" y="15.197"/><text y="19.038" class="d">vani</text></svg><svg x="2555"><use xlink:href="#a"/><use xlink:href="#b" x="4.996" y="17.343"/><use xlink:href="#1"/><use xlink:href="#4" y="2.171"/><use xlink:href="#5" y="4.342"/><use xlink:href="#6" y="6.513"/><use xlink:href="#7" y="8.684"/><use xlink:href="#1" y="10.855"/><use xlink:href="#4" y="13.026"/><use xlink:href="#5" y="15.197"/><text y="19.038" class="d">vanil</text></svg><svg x="2628"><use xlink:href="#a"/><use xlink:href="#b" x="5.996" y="17.343"/><use xlink:href="#1"/><use xlink:href="#4" y="2.171"/><use xlink:href="#5" y="4.342"/><use xlink:href="#6" y="6.513"/><use xlink:href="#7" y="8.684"/><use xlink:href="#1" y="10.855"/><use xlink:href="#4" y="13.026"/><use xlink:href="#5" y="15.197"/><text y="19.038" class="d">vanill</text></svg><svg x="2701"><use xlink:href="#a"/><use xlink:href="#b" x="6.996" y="17.343"/><use xlink:href="#1"/><use xlink:href="#4" y="2.171"/><use xlink:href="#5" y="4.342"/><use xlink:href="#6" y="6.513"/><use xlink:href="#7" y="8.684"/><use xlink:href="#1" y="10.855"/><use xlink:href="#4" y="13.026"/><use xlink:href="#5" y="15.197"/><use xlink:href="#8" y="17.368"/></svg><svg x="2774"><use xlink:href="#a"/><use xlink:href="#b" x="-.004" y="21.685"/><use xlink:href="#1"/><use xlink:href="#4" y="2.171"/><use xlink:href="#5" y="4.342"/><use xlink:href="#6" y="6.513"/><use xlink:href="#7" y="8.684"/><use xlink:href="#1" y="10.855"/><use xlink:href="#4" y="13.026"/><use xlink:href="#5" y="15.197"/><use xlink:href="#8" y="17.368"/><use xlink:href="#9" y="19.539"/></svg><svg x="2847"><use xlink:href="#a"/><use xlink:href="#b" x="1.996" y="23.856"/><use xlink:href="#1"/><use xlink:href="#4" y="2.171"/><use xlink:href="#5" y="4.342"/><use xlink:href="#6" y="6.513"/><use xlink:href="#7" y="8.684"/><use xlink:href="#1" y="10.855"/><use xlink:href="#4" y="13.026"/><use xlink:href="#5" y="15.197"/><use xlink:href="#8" y="17.368"/><use xlink:href="#9" y="19.539"/><use xlink:href="#1" y="21.71"/><use xlink:href="#2" y="23.881"/></svg><svg x="2920"><use xlink:href="#a"/><use xlink:href="#b" x="2.996" y="23.856"/><use xlink:href="#1"/><use xlink:href="#4" y="2.171"/><use xlink:href="#5" y="4.342"/><use xlink:href="#6" y="6.513"/><use xlink:href="#7" y="8.684"/><use xlink:href="#1" y="10.855"/><use xlink:href="#4" y="13.026"/><use xlink:href="#5" y="15.197"/><use xlink:href="#8" y="17.368"/><use xlink:href="#9" y="19.539"/><use xlink:href="#1" y="21.71"/><text y="25.551" class="d">$</text><text x="2.004" y="25.551" class="d">e</text></svg><svg x="2993"><use xlink:href="#a"/><use xlink:href="#b" x="3.996" y="23.856"/><use xlink:href="#1"/><use xlink:href="#4" y="2.171"/><use xlink:href="#5" y="4.342"/><use xlink:href="#6" y="6.513"/><use xlink:href="#7" y="8.684"/><use xlink:href="#1" y="10.855"/><use xlink:href="#4" y="13.026"/><use xlink:href="#5" y="15.197"/><use xlink:href="#8" y="17.368"/><use xlink:href="#9" y="19.539"/><use xlink:href="#1" y="21.71"/><text y="25.551" class="d">$</text><text x="2.004" y="25.551" class="d">ex</text></svg><svg x="3066"><use xlink:href="#a"/><use xlink:href="#b" x="4.996" y="23.856"/><use xlink:href="#1"/><use xlink:href="#4" y="2.171"/><use xlink:href="#5" y="4.342"/><use xlink:href="#6" y="6.513"/><use xlink:href="#7" y="8.684"/><use xlink:href="#1" y="10.855"/><use xlink:href="#4" y="13.026"/><use xlink:href="#5" y="15.197"/><use xlink:href="#8" y="17.368"/><use xlink:href="#9" y="19.539"/><use xlink:href="#1" y="21.71"/><text y="25.551" class="d">$</text><text x="2.004" y="25.551" class="d">exi</text></svg><svg x="3139"><use xlink:href="#a"/><use xlink:href="#b" x="5.996" y="23.856"/><use xlink:href="#1"/><use xlink:href="#4" y="2.171"/><use xlink:href="#5" y="4.342"/><use xlink:href="#6" y="6.513"/><use xlink:href="#7" y="8.684"/><use xlink:href="#1" y="10.855"/><use xlink:href="#4" y="13.026"/><use xlink:href="#5" y="15.197"/><use xlink:href="#8" y="17.368"/><use xlink:href="#9" y="19.539"/><use xlink:href="#1" y="21.71"/><use xlink:href="#10" y="23.881"/></svg><svg x="3212"><use xlink:href="#a"/><use xlink:href="#b" x="-.004" y="23.856"/><use xlink:href="#4"/><use xlink:href="#5" y="2.171"/><use xlink:href="#6" y="4.342"/><use xlink:href="#7" y="6.513"/><use xlink:href="#1" y="8.684"/><use xlink:href="#4" y="10.855"/><use xlink:href="#5" y="13.026"/><use xlink:href="#8" y="15.197"/><use xlink:href="#9" y="17.368"/><use xlink:href="#1" y="19.539"/><use xlink:href="#10" y="21.71"/></svg><svg x="3285"><use xlink:href="#a"/><use xlink:href="#b" x="-.004" y="23.856"/><use xlink:href="#5"/><use xlink:href="#6" y="2.171"/><use xlink:href="#7" y="4.342"/><use xlink:href="#1" y="6.513"/><use xlink:href="#4" y="8.684"/><use xlink:href="#5" y="10.855"/><use xlink:href="#8" y="13.026"/><use xlink:href="#9" y="15.197"/><use xlink:href="#1" y="17.368"/><use xlink:href="#10" y="19.539"/><text y="23.38" class="d">exit</text></svg></svg></g></g></svg></svg>