<svg xmlns="http://www.w3.org/2000/svg" xmlns:xlink="http://www.w3.org/1999/xlink" width="560" height="325.65"><rect width="560" height="325.65" rx="0" ry="0" class="a"/><svg height="325.65" viewBox="0 0 56 32.565" width="560" xmlns="http://www.w3.org/2000/svg" xmlns:xlink="http://www.w3.org/1999/xlink"><style>@keyframes h{0%{transform:translateX(0)}.3%{transform:translateX(-56px)}6.6%{transform:translateX(-112px)}8.6%{transform:translateX(-168px)}9.6%{transform:translateX(-224px)}10.7%{transform:translateX(-280px)}11.8%{transform:translateX(-336px)}12.5%{transform:translateX(-392px)}13.8%{transform:translateX(-448px)}16.6%{transform:translateX(-504px)}17.8%{transform:translateX(-560px)}18.4%{transform:translateX(-616px)}18.9%{transform:translateX(-672px)}19.9%{transform:translateX(-728px)}24%{transform:translateX(-784px)}28.9%{transform:translateX(-840px)}30.9%{transform:translateX(-896px)}38.9%{transform:translateX(-1008px)}39.1%{transform:translateX(-1064px)}52%{transform:translateX(-1120px)}58.2%{transform:translateX(-1232px)}59.8%{transform:translateX(-1288px)}61.5%{transform:translateX(-1344px)}63.2%{transform:translateX(-1400px)}64.9%{transform:translateX(-1456px)}66.6%{transform:translateX(-1512px)}68.2%{transform:translateX(-1568px)}69.9%{transform:translateX(-1624px)}71.6%{transform:translateX(-1680px)}73.3%{transform:translateX(-1736px)}75%{transform:translateX(-1792px)}76.6%{transform:translateX(-1848px)}78.3%{transform:translateX(-1904px)}80%{transform:translateX(-1960px)}81.7%{transform:translateX(-2016px)}83.4%{transform:translateX(-2072px)}85%{transform:translateX(-2128px)}86.7%{transform:translateX(-2184px)}88.4%{transform:translateX(-2240px)}90.1%{transform:translateX(-2296px)}91.8%{transform:translateX(-2352px)}to{transform:translateX(-2464px)}}.a{fill:#282d35}.d{fill:#b9c0cb;white-space:pre}</style><g font-family="Monaco,Consolas,Menlo,'Bitstream Vera Sans Mono','Powerline Symbols',monospace" font-size="1.67"><defs><symbol id="1"><text y="1.67" style="white-space:pre" fill="#a8cc8c" font-weight="700">tgwtg@zepo</text><text x="10.02" y="1.67" class="d">:</text><text x="11.022" y="1.67" style="white-space:pre" fill="#71bef2" font-weight="700">~/workspace/exercises</text></symbol><symbol id="2"><text y="1.67" class="d">$</text></symbol><symbol id="3"><text y="1.67" class="d">$</text><text x="2.004" y="1.67" class="d">python3</text></symbol><symbol id="4"><text y="1.67" class="d">$</text><text x="2.004" y="1.67" class="d">python3</text><text x="10.02" y="1.67" class="d">bouncing_ball.py</text></symbol><symbol id="5"><text y="1.67" class="d">Enter</text><text x="6.012" y="1.67" class="d">a</text><text x="8.016" y="1.67" class="d">starting</text><text x="17.034" y="1.67" class="d">frame</text><text x="23.046" y="1.67" class="d">(1-20):</text><text x="31.062" y="1.67" class="d">1</text></symbol><symbol id="6"><text y="1.67" class="d">Follow</text><text x="7.014" y="1.67" class="d">the</text><text x="11.022" y="1.67" class="d">bouncing</text><text x="20.04" y="1.67" class="d">ball...</text></symbol><symbol id="7"><text y="1.67" class="d">+---------------------+</text></symbol><symbol id="8"><text y="1.67" class="d">|</text><text x="22.044" y="1.67" class="d">|</text></symbol><symbol id="9"><text y="1.67" class="d">|</text><text x="20.04" y="1.67" class="d">_</text><text x="22.044" y="1.67" class="d">|</text></symbol><symbol id="a"><path fill="transparent" d="M0 0h56v15H0z"/></symbol><symbol id="b"><path fill="#6f7683" d="M0 0h1.102v2.171H0z"/></symbol></defs><path class="a" d="M0 0h56v32.565H0z"/><g style="animation-duration:11.931138s;animation-iteration-count:infinite;animation-name:h;animation-timing-function:steps(1,end)"><svg width="2520"><svg><use xlink:href="#a"/><use xlink:href="#b" x="-.004"/></svg><svg x="56"><use xlink:href="#a"/><use xlink:href="#b" x="1.996" y="2.146"/><use xlink:href="#1"/><use xlink:href="#2" y="2.171"/></svg><svg x="112"><use xlink:href="#a"/><use xlink:href="#b" x="2.996" y="2.146"/><use xlink:href="#1"/><text y="3.841" class="d">$</text><text x="2.004" y="3.841" class="d">p</text></svg><svg x="168"><use xlink:href="#a"/><use xlink:href="#b" x="3.996" y="2.146"/><use xlink:href="#1"/><text y="3.841" class="d">$</text><text x="2.004" y="3.841" class="d">py</text></svg><svg x="224"><use xlink:href="#a"/><use xlink:href="#b" x="4.996" y="2.146"/><use xlink:href="#1"/><text y="3.841" class="d">$</text><text x="2.004" y="3.841" class="d">pyt</text></svg><svg x="280"><use xlink:href="#a"/><use xlink:href="#b" x="5.996" y="2.146"/><use xlink:href="#1"/><text y="3.841" class="d">$</text><text x="2.004" y="3.841" class="d">pyth</text></svg><svg x="336"><use xlink:href="#a"/><use xlink:href="#b" x="6.996" y="2.146"/><use xlink:href="#1"/><text y="3.841" class="d">$</text><text x="2.004" y="3.841" class="d">pytho</text></svg><svg x="392"><use xlink:href="#a"/><use xlink:href="#b" x="7.996" y="2.146"/><use xlink:href="#1"/><text y="3.841" class="d">$</text><text x="2.004" y="3.841" class="d">python</text></svg><svg x="448"><use xlink:href="#a"/><use xlink:href="#b" x="8.996" y="2.146"/><use xlink:href="#1"/><use xlink:href="#3" y="2.171"/></svg><svg x="504"><use xlink:href="#a"/><use xlink:href="#b" x="9.996" y="2.146"/><use xlink:href="#1"/><use xlink:href="#3" y="2.171"/></svg><svg x="560"><use xlink:href="#a"/><use xlink:href="#b" x="10.996" y="2.146"/><use xlink:href="#1"/><text y="3.841" class="d">$</text><text x="2.004" y="3.841" class="d">python3</text><text x="10.02" y="3.841" class="d">b</text></svg><svg x="616"><use xlink:href="#a"/><use xlink:href="#b" x="11.996" y="2.146"/><use xlink:href="#1"/><text y="3.841" class="d">$</text><text x="2.004" y="3.841" class="d">python3</text><text x="10.02" y="3.841" class="d">bo</text></svg><svg x="672"><use xlink:href="#a"/><use xlink:href="#b" x="12.996" y="2.146"/><use xlink:href="#1"/><text y="3.841" class="d">$</text><text x="2.004" y="3.841" class="d">python3</text><text x="10.02" y="3.841" class="d">bou</text></svg><svg x="728"><use xlink:href="#a"/><use xlink:href="#b" x="22.996" y="2.146"/><use xlink:href="#1"/><text y="3.841" class="d">$</text><text x="2.004" y="3.841" class="d">python3</text><text x="10.02" y="3.841" class="d">bouncing_ball</text></svg><svg x="784"><use xlink:href="#a"/><use xlink:href="#b" x="23.996" y="2.146"/><use xlink:href="#1"/><text y="3.841" class="d">$</text><text x="2.004" y="3.841" class="d">python3</text><text x="10.02" y="3.841" class="d">bouncing_ball.</text></svg><svg x="840"><use xlink:href="#a"/><use xlink:href="#b" x="24.996" y="2.146"/><use xlink:href="#1"/><text y="3.841" class="d">$</text><text x="2.004" y="3.841" class="d">python3</text><text x="10.02" y="3.841" class="d">bouncing_ball.p</text></svg><svg x="896"><use xlink:href="#a"/><use xlink:href="#b" x="26.996" y="2.146"/><use xlink:href="#1"/><use xlink:href="#4" y="2.171"/></svg><svg x="952"><use xlink:href="#a"/><use xlink:href="#b" x="-.004" y="4.317"/><use xlink:href="#1"/><use xlink:href="#4" y="2.171"/></svg><svg x="1008"><use xlink:href="#a"/><use xlink:href="#b" x="-.004" y="4.317"/><use xlink:href="#1"/><use xlink:href="#4" y="2.171"/></svg><svg x="1064"><use xlink:href="#a"/><use xlink:href="#b" x="30.996" y="4.317"/><use xlink:href="#1"/><use xlink:href="#4" y="2.171"/><text y="6.012" class="d">Enter</text><text x="6.012" y="6.012" class="d">a</text><text x="8.016" y="6.012" class="d">starting</text><text x="17.034" y="6.012" class="d">frame</text><text x="23.046" y="6.012" class="d">(1-20):</text></svg><svg x="1120"><use xlink:href="#a"/><use xlink:href="#b" x="31.996" y="4.317"/><use xlink:href="#1"/><use xlink:href="#4" y="2.171"/><use xlink:href="#5" y="4.342"/></svg><svg x="1176"><use xlink:href="#a"/><use xlink:href="#b" x="-.004" y="6.488"/><use xlink:href="#1"/><use xlink:href="#4" y="2.171"/><use xlink:href="#5" y="4.342"/></svg><svg x="1232"><use xlink:href="#a"/><use xlink:href="#b" x="-.004" y="23.856"/><use xlink:href="#6" y="2.171"/><use xlink:href="#7" y="6.513"/><text y="10.354" class="d">|O</text><text x="22.044" y="10.354" class="d">|</text><use xlink:href="#8" y="10.855"/><use xlink:href="#8" y="13.026"/><use xlink:href="#8" y="15.197"/><use xlink:href="#8" y="17.368"/><use xlink:href="#7" y="19.539"/></svg><svg x="1288"><use xlink:href="#a"/><use xlink:href="#b" x="-.004" y="23.856"/><use xlink:href="#6" y="2.171"/><use xlink:href="#7" y="6.513"/><use xlink:href="#8" y="8.684"/><text y="12.525" class="d">|</text><text x="2.004" y="12.525" class="d">O</text><text x="22.044" y="12.525" class="d">|</text><use xlink:href="#8" y="13.026"/><use xlink:href="#8" y="15.197"/><use xlink:href="#8" y="17.368"/><use xlink:href="#7" y="19.539"/></svg><svg x="1344"><use xlink:href="#a"/><use xlink:href="#b" x="-.004" y="23.856"/><use xlink:href="#6" y="2.171"/><use xlink:href="#7" y="6.513"/><use xlink:href="#8" y="8.684"/><use xlink:href="#8" y="10.855"/><text y="14.696" class="d">|</text><text x="3.006" y="14.696" class="d">O</text><text x="22.044" y="14.696" class="d">|</text><use xlink:href="#8" y="15.197"/><use xlink:href="#8" y="17.368"/><use xlink:href="#7" y="19.539"/></svg><svg x="1400"><use xlink:href="#a"/><use xlink:href="#b" x="-.004" y="23.856"/><use xlink:href="#6" y="2.171"/><use xlink:href="#7" y="6.513"/><use xlink:href="#8" y="8.684"/><use xlink:href="#8" y="10.855"/><use xlink:href="#8" y="13.026"/><text y="16.867" class="d">|</text><text x="4.008" y="16.867" class="d">O</text><text x="22.044" y="16.867" class="d">|</text><use xlink:href="#8" y="17.368"/><use xlink:href="#7" y="19.539"/></svg><svg x="1456"><use xlink:href="#a"/><use xlink:href="#b" x="-.004" y="23.856"/><use xlink:href="#6" y="2.171"/><use xlink:href="#7" y="6.513"/><use xlink:href="#8" y="8.684"/><use xlink:href="#8" y="10.855"/><use xlink:href="#8" y="13.026"/><use xlink:href="#8" y="15.197"/><text y="19.038" class="d">|</text><text x="5.01" y="19.038" class="d">o</text><text x="22.044" y="19.038" class="d">|</text><use xlink:href="#7" y="19.539"/></svg><svg x="1512"><use xlink:href="#a"/><use xlink:href="#b" x="-.004" y="23.856"/><use xlink:href="#6" y="2.171"/><use xlink:href="#7" y="6.513"/><use xlink:href="#8" y="8.684"/><use xlink:href="#8" y="10.855"/><use xlink:href="#8" y="13.026"/><text y="16.867" class="d">|</text><text x="6.012" y="16.867" class="d">O</text><text x="22.044" y="16.867" class="d">|</text><use xlink:href="#8" y="17.368"/><use xlink:href="#7" y="19.539"/></svg><svg x="1568"><use xlink:href="#a"/><use xlink:href="#b" x="-.004" y="23.856"/><use xlink:href="#6" y="2.171"/><use xlink:href="#7" y="6.513"/><use xlink:href="#8" y="8.684"/><use xlink:href="#8" y="10.855"/><text y="14.696" class="d">|</text><text x="7.014" y="14.696" class="d">O</text><text x="22.044" y="14.696" class="d">|</text><use xlink:href="#8" y="15.197"/><use xlink:href="#8" y="17.368"/><use xlink:href="#7" y="19.539"/></svg><svg x="1624"><use xlink:href="#a"/><use xlink:href="#b" x="-.004" y="23.856"/><use xlink:href="#6" y="2.171"/><use xlink:href="#7" y="6.513"/><use xlink:href="#8" y="8.684"/><text y="12.525" class="d">|</text><text x="8.016" y="12.525" class="d">O</text><text x="22.044" y="12.525" class="d">|</text><use xlink:href="#8" y="13.026"/><use xlink:href="#8" y="15.197"/><use xlink:href="#8" y="17.368"/><use xlink:href="#7" y="19.539"/></svg><svg x="1680"><use xlink:href="#a"/><use xlink:href="#b" x="-.004" y="23.856"/><use xlink:href="#6" y="2.171"/><use xlink:href="#7" y="6.513"/><use xlink:href="#8" y="8.684"/><use xlink:href="#8" y="10.855"/><text y="14.696" class="d">|</text><text x="9.018" y="14.696" class="d">O</text><text x="22.044" y="14.696" class="d">|</text><use xlink:href="#8" y="15.197"/><use xlink:href="#8" y="17.368"/><use xlink:href="#7" y="19.539"/></svg><svg x="1736"><use xlink:href="#a"/><use xlink:href="#b" x="-.004" y="23.856"/><use xlink:href="#6" y="2.171"/><use xlink:href="#7" y="6.513"/><use xlink:href="#8" y="8.684"/><use xlink:href="#8" y="10.855"/><use xlink:href="#8" y="13.026"/><text y="16.867" class="d">|</text><text x="10.02" y="16.867" class="d">O</text><text x="22.044" y="16.867" class="d">|</text><use xlink:href="#8" y="17.368"/><use xlink:href="#7" y="19.539"/></svg><svg x="1792"><use xlink:href="#a"/><use xlink:href="#b" x="-.004" y="23.856"/><use xlink:href="#6" y="2.171"/><use xlink:href="#7" y="6.513"/><use xlink:href="#8" y="8.684"/><use xlink:href="#8" y="10.855"/><use xlink:href="#8" y="13.026"/><use xlink:href="#8" y="15.197"/><text y="19.038" class="d">|</text><text x="11.022" y="19.038" class="d">o</text><text x="22.044" y="19.038" class="d">|</text><use xlink:href="#7" y="19.539"/></svg><svg x="1848"><use xlink:href="#a"/><use xlink:href="#b" x="-.004" y="23.856"/><use xlink:href="#6" y="2.171"/><use xlink:href="#7" y="6.513"/><use xlink:href="#8" y="8.684"/><use xlink:href="#8" y="10.855"/><use xlink:href="#8" y="13.026"/><text y="16.867" class="d">|</text><text x="12.024" y="16.867" class="d">O</text><text x="22.044" y="16.867" class="d">|</text><use xlink:href="#8" y="17.368"/><use xlink:href="#7" y="19.539"/></svg><svg x="1904"><use xlink:href="#a"/><use xlink:href="#b" x="-.004" y="23.856"/><use xlink:href="#6" y="2.171"/><use xlink:href="#7" y="6.513"/><use xlink:href="#8" y="8.684"/><use xlink:href="#8" y="10.855"/><text y="14.696" class="d">|</text><text x="13.026" y="14.696" class="d">O</text><text x="22.044" y="14.696" class="d">|</text><use xlink:href="#8" y="15.197"/><use xlink:href="#8" y="17.368"/><use xlink:href="#7" y="19.539"/></svg><svg x="1960"><use xlink:href="#a"/><use xlink:href="#b" x="-.004" y="23.856"/><use xlink:href="#6" y="2.171"/><use xlink:href="#7" y="6.513"/><use xlink:href="#8" y="8.684"/><use xlink:href="#8" y="10.855"/><use xlink:href="#8" y="13.026"/><text y="16.867" class="d">|</text><text x="14.028" y="16.867" class="d">O</text><text x="22.044" y="16.867" class="d">|</text><use xlink:href="#8" y="17.368"/><use xlink:href="#7" y="19.539"/></svg><svg x="2016"><use xlink:href="#a"/><use xlink:href="#b" x="-.004" y="23.856"/><use xlink:href="#6" y="2.171"/><use xlink:href="#7" y="6.513"/><use xlink:href="#8" y="8.684"/><use xlink:href="#8" y="10.855"/><use xlink:href="#8" y="13.026"/><use xlink:href="#8" y="15.197"/><text y="19.038" class="d">|</text><text x="15.03" y="19.038" class="d">o</text><text x="22.044" y="19.038" class="d">|</text><use xlink:href="#7" y="19.539"/></svg><svg x="2072"><use xlink:href="#a"/><use xlink:href="#b" x="-.004" y="23.856"/><use xlink:href="#6" y="2.171"/><use xlink:href="#7" y="6.513"/><use xlink:href="#8" y="8.684"/><use xlink:href="#8" y="10.855"/><use xlink:href="#8" y="13.026"/><text y="16.867" class="d">|</text><text x="16.032" y="16.867" class="d">O</text><text x="22.044" y="16.867" class="d">|</text><use xlink:href="#8" y="17.368"/><use xlink:href="#7" y="19.539"/></svg><svg x="2128"><use xlink:href="#a"/><use xlink:href="#b" x="-.004" y="23.856"/><use xlink:href="#6" y="2.171"/><use xlink:href="#7" y="6.513"/><use xlink:href="#8" y="8.684"/><use xlink:href="#8" y="10.855"/><use xlink:href="#8" y="13.026"/><use xlink:href="#8" y="15.197"/><text y="19.038" class="d">|</text><text x="17.034" y="19.038" class="d">o</text><text x="22.044" y="19.038" class="d">|</text><use xlink:href="#7" y="19.539"/></svg><svg x="2184"><use xlink:href="#a"/><use xlink:href="#b" x="-.004" y="23.856"/><use xlink:href="#6" y="2.171"/><use xlink:href="#7" y="6.513"/><use xlink:href="#8" y="8.684"/><use xlink:href="#8" y="10.855"/><use xlink:href="#8" y="13.026"/><use xlink:href="#8" y="15.197"/><text y="19.038" class="d">|</text><text x="19.038" y="19.038" class="d">o</text><text x="22.044" y="19.038" class="d">|</text><use xlink:href="#7" y="19.539"/></svg><svg x="2240"><use xlink:href="#a"/><use xlink:href="#b" x="-.004" y="23.856"/><use xlink:href="#6" y="2.171"/><use xlink:href="#7" y="6.513"/><use xlink:href="#8" y="8.684"/><use xlink:href="#8" y="10.855"/><use xlink:href="#8" y="13.026"/><use xlink:href="#8" y="15.197"/><text y="19.038" class="d">|</text><text x="20.04" y="19.038" class="d">o</text><text x="22.044" y="19.038" class="d">|</text><use xlink:href="#7" y="19.539"/></svg><svg x="2296"><use xlink:href="#a"/><use xlink:href="#b" x="-.004" y="23.856"/><use xlink:href="#6" y="2.171"/><use xlink:href="#7" y="6.513"/><use xlink:href="#8" y="8.684"/><use xlink:href="#8" y="10.855"/><use xlink:href="#8" y="13.026"/><use xlink:href="#8" y="15.197"/><use xlink:href="#9" y="17.368"/><use xlink:href="#7" y="19.539"/></svg><svg x="2352"><use xlink:href="#a"/><use xlink:href="#b" x="1.996" y="26.027"/><use xlink:href="#6" y="2.171"/><use xlink:href="#7" y="6.513"/><use xlink:href="#8" y="8.684"/><use xlink:href="#8" y="10.855"/><use xlink:href="#8" y="13.026"/><use xlink:href="#8" y="15.197"/><use xlink:href="#9" y="17.368"/><use xlink:href="#7" y="19.539"/><use xlink:href="#1" y="23.881"/><use xlink:href="#2" y="26.052"/></svg><svg x="2408"><use xlink:href="#a"/><use xlink:href="#b" x="-.004" y="28.198"/><use xlink:href="#6" y="2.171"/><use xlink:href="#7" y="6.513"/><use xlink:href="#8" y="8.684"/><use xlink:href="#8" y="10.855"/><use xlink:href="#8" y="13.026"/><use xlink:href="#8" y="15.197"/><use xlink:href="#9" y="17.368"/><use xlink:href="#7" y="19.539"/><use xlink:href="#1" y="23.881"/><use xlink:href="#2" y="26.052"/></svg><svg x="2464"><use xlink:href="#a"/><use xlink:href="#b" x="-.004" y="30.369"/><use xlink:href="#6" y="2.171"/><use xlink:href="#7" y="6.513"/><use xlink:href="#8" y="8.684"/><use xlink:href="#8" y="10.855"/><use xlink:href="#8" y="13.026"/><use xlink:href="#8" y="15.197"/><use xlink:href="#9" y="17.368"/><use xlink:href="#7" y="19.539"/><use xlink:href="#1" y="23.881"/><use xlink:href="#2" y="26.052"/><text y="29.893" class="d">exit</text></svg></svg></g></g></svg></svg>