<svg xmlns="http://www.w3.org/2000/svg" xmlns:xlink="http://www.w3.org/1999/xlink" width="560" height="325.65"><rect width="560" height="325.65" rx="0" ry="0" class="a"/><svg height="325.65" viewBox="0 0 56 32.565" width="560" xmlns="http://www.w3.org/2000/svg" xmlns:xlink="http://www.w3.org/1999/xlink"><style>@keyframes h{0%{transform:translateX(0)}.11%{transform:translateX(-56px)}4.82%{transform:translateX(-112px)}5.6%{transform:translateX(-168px)}6%{transform:translateX(-224px)}6.48%{transform:translateX(-280px)}7.06%{transform:translateX(-336px)}7.32%{transform:translateX(-392px)}7.97%{transform:translateX(-448px)}9.08%{transform:translateX(-504px)}9.84%{transform:translateX(-560px)}10.01%{transform:translateX(-616px)}10.31%{transform:translateX(-672px)}10.9%{transform:translateX(-728px)}13.59%{transform:translateX(-784px)}14.84%{transform:translateX(-840px)}15.55%{transform:translateX(-896px)}17.34%{transform:translateX(-952px)}17.41%{transform:translateX(-1008px)}21.57%{transform:translateX(-1064px)}25.73%{transform:translateX(-1120px)}29.89%{transform:translateX(-1176px)}34.05%{transform:translateX(-1232px)}38.22%{transform:translateX(-1288px)}42.37%{transform:translateX(-1344px)}46.54%{transform:translateX(-1400px)}50.69%{transform:translateX(-1456px)}54.86%{transform:translateX(-1512px)}59.02%{transform:translateX(-1568px)}63.18%{transform:translateX(-1624px)}67.34%{transform:translateX(-1680px)}71.5%{transform:translateX(-1736px)}75.66%{transform:translateX(-1792px)}79.82%{transform:translateX(-1848px)}83.98%{transform:translateX(-1904px)}88.14%{transform:translateX(-1960px)}92.3%{transform:translateX(-2016px)}96.46%{transform:translateX(-2072px)}96.65%{transform:translateX(-2128px)}96.68%{transform:translateX(-2184px)}to{transform:translateX(-2296px)}}.a{fill:#282d35}.d{fill:#b9c0cb;white-space:pre}</style><g font-family="Monaco,Consolas,Menlo,'Bitstream Vera Sans Mono','Powerline Symbols',monospace" font-size="1.67"><defs><symbol id="1"><text y="1.67" style="white-space:pre" fill="#a8cc8c" font-weight="700">tgwtg@zepo</text><text x="10.02" y="1.67" class="d">:</text><text x="11.022" y="1.67" style="white-space:pre" fill="#71bef2" font-weight="700">~/workspace/exercises</text></symbol><symbol id="2"><text y="1.67" class="d">$</text></symbol><symbol id="3"><text y="1.67" class="d">$</text><text x="2.004" y="1.67" class="d">python3</text></symbol><symbol id="4"><text y="1.67" class="d">$</text><text x="2.004" y="1.67" class="d">python3</text><text x="10.02" y="1.67" class="d">bouncing_ball.py</text></symbol><symbol id="5"><text y="1.67" class="d">+---------------------+</text></symbol><symbol id="6"><text y="1.67" class="d">|</text><text x="22.044" y="1.67" class="d">|</text></symbol><symbol id="7"><text y="1.67" class="d">Traceback</text><text x="10.02" y="1.67" class="d">(most</text><text x="16.032" y="1.67" class="d">recent</text><text x="23.046" y="1.67" class="d">call</text><text x="28.056" y="1.67" class="d">last):</text></symbol><symbol id="8"><text x="2.004" y="1.67" class="d">File</text><text x="7.014" y="1.67" class="d">&quot;/home/tgwtg/workspace/exercises/bouncing_ball.py</text></symbol><symbol id="9"><text y="1.67" class="d">&quot;,</text><text x="3.006" y="1.67" class="d">line</text><text x="8.016" y="1.67" class="d">258,</text><text x="13.026" y="1.67" class="d">in</text><text x="16.032" y="1.67" class="d">&lt;module&gt;</text></symbol><symbol id="10"><text x="4.008" y="1.67" class="d">print(frame_20)</text></symbol><symbol id="11"><text y="1.67" class="d">NameError:</text><text x="11.022" y="1.67" class="d">name</text><text x="16.032" y="1.67" class="d">&apos;frame_20&apos;</text><text x="27.054" y="1.67" class="d">is</text><text x="30.06" y="1.67" class="d">not</text><text x="34.068" y="1.67" class="d">defined</text></symbol><symbol id="a"><path fill="transparent" d="M0 0h56v15H0z"/></symbol><symbol id="b"><path fill="#6f7683" d="M0 0h1.102v2.171H0z"/></symbol></defs><path class="a" d="M0 0h56v32.565H0z"/><g style="animation-duration:26.459991s;animation-iteration-count:infinite;animation-name:h;animation-timing-function:steps(1,end)"><svg width="2352"><svg><use xlink:href="#a"/><use xlink:href="#b" x="-.004"/></svg><svg x="56"><use xlink:href="#a"/><use xlink:href="#b" x="1.996" y="2.146"/><use xlink:href="#1"/><use xlink:href="#2" y="2.171"/></svg><svg x="112"><use xlink:href="#a"/><use xlink:href="#b" x="2.996" y="2.146"/><use xlink:href="#1"/><text y="3.841" class="d">$</text><text x="2.004" y="3.841" class="d">p</text></svg><svg x="168"><use xlink:href="#a"/><use xlink:href="#b" x="3.996" y="2.146"/><use xlink:href="#1"/><text y="3.841" class="d">$</text><text x="2.004" y="3.841" class="d">py</text></svg><svg x="224"><use xlink:href="#a"/><use xlink:href="#b" x="4.996" y="2.146"/><use xlink:href="#1"/><text y="3.841" class="d">$</text><text x="2.004" y="3.841" class="d">pyt</text></svg><svg x="280"><use xlink:href="#a"/><use xlink:href="#b" x="5.996" y="2.146"/><use xlink:href="#1"/><text y="3.841" class="d">$</text><text x="2.004" y="3.841" class="d">pyth</text></svg><svg x="336"><use xlink:href="#a"/><use xlink:href="#b" x="6.996" y="2.146"/><use xlink:href="#1"/><text y="3.841" class="d">$</text><text x="2.004" y="3.841" class="d">pytho</text></svg><svg x="392"><use xlink:href="#a"/><use xlink:href="#b" x="7.996" y="2.146"/><use xlink:href="#1"/><text y="3.841" class="d">$</text><text x="2.004" y="3.841" class="d">python</text></svg><svg x="448"><use xlink:href="#a"/><use xlink:href="#b" x="8.996" y="2.146"/><use xlink:href="#1"/><use xlink:href="#3" y="2.171"/></svg><svg x="504"><use xlink:href="#a"/><use xlink:href="#b" x="9.996" y="2.146"/><use xlink:href="#1"/><use xlink:href="#3" y="2.171"/></svg><svg x="560"><use xlink:href="#a"/><use xlink:href="#b" x="10.996" y="2.146"/><use xlink:href="#1"/><text y="3.841" class="d">$</text><text x="2.004" y="3.841" class="d">python3</text><text x="10.02" y="3.841" class="d">b</text></svg><svg x="616"><use xlink:href="#a"/><use xlink:href="#b" x="11.996" y="2.146"/><use xlink:href="#1"/><text y="3.841" class="d">$</text><text x="2.004" y="3.841" class="d">python3</text><text x="10.02" y="3.841" class="d">bo</text></svg><svg x="672"><use xlink:href="#a"/><use xlink:href="#b" x="12.996" y="2.146"/><use xlink:href="#1"/><text y="3.841" class="d">$</text><text x="2.004" y="3.841" class="d">python3</text><text x="10.02" y="3.841" class="d">bou</text></svg><svg x="728"><use xlink:href="#a"/><use xlink:href="#b" x="22.996" y="2.146"/><use xlink:href="#1"/><text y="3.841" class="d">$</text><text x="2.004" y="3.841" class="d">python3</text><text x="10.02" y="3.841" class="d">bouncing_ball</text></svg><svg x="784"><use xlink:href="#a"/><use xlink:href="#b" x="23.996" y="2.146"/><use xlink:href="#1"/><text y="3.841" class="d">$</text><text x="2.004" y="3.841" class="d">python3</text><text x="10.02" y="3.841" class="d">bouncing_ball.</text></svg><svg x="840"><use xlink:href="#a"/><use xlink:href="#b" x="24.996" y="2.146"/><use xlink:href="#1"/><text y="3.841" class="d">$</text><text x="2.004" y="3.841" class="d">python3</text><text x="10.02" y="3.841" class="d">bouncing_ball.p</text></svg><svg x="896"><use xlink:href="#a"/><use xlink:href="#b" x="25.996" y="2.146"/><use xlink:href="#1"/><use xlink:href="#4" y="2.171"/></svg><svg x="952"><use xlink:href="#a"/><use xlink:href="#b" x="-.004" y="4.317"/><use xlink:href="#1"/><use xlink:href="#4" y="2.171"/></svg><svg x="1008"><use xlink:href="#a"/><use xlink:href="#b" x="-.004" y="21.685"/><use xlink:href="#5" y="4.342"/><text y="8.183" class="d">|O</text><text x="22.044" y="8.183" class="d">|</text><use xlink:href="#6" y="8.684"/><use xlink:href="#6" y="10.855"/><use xlink:href="#6" y="13.026"/><use xlink:href="#6" y="15.197"/><use xlink:href="#5" y="17.368"/></svg><svg x="1064"><use xlink:href="#a"/><use xlink:href="#b" x="-.004" y="21.685"/><use xlink:href="#5" y="4.342"/><use xlink:href="#6" y="6.513"/><text y="10.354" class="d">|</text><text x="2.004" y="10.354" class="d">O</text><text x="22.044" y="10.354" class="d">|</text><use xlink:href="#6" y="10.855"/><use xlink:href="#6" y="13.026"/><use xlink:href="#6" y="15.197"/><use xlink:href="#5" y="17.368"/></svg><svg x="1120"><use xlink:href="#a"/><use xlink:href="#b" x="-.004" y="21.685"/><use xlink:href="#5" y="4.342"/><use xlink:href="#6" y="6.513"/><use xlink:href="#6" y="8.684"/><text y="12.525" class="d">|</text><text x="3.006" y="12.525" class="d">O</text><text x="22.044" y="12.525" class="d">|</text><use xlink:href="#6" y="13.026"/><use xlink:href="#6" y="15.197"/><use xlink:href="#5" y="17.368"/></svg><svg x="1176"><use xlink:href="#a"/><use xlink:href="#b" x="-.004" y="21.685"/><use xlink:href="#5" y="4.342"/><use xlink:href="#6" y="6.513"/><use xlink:href="#6" y="8.684"/><use xlink:href="#6" y="10.855"/><text y="14.696" class="d">|</text><text x="4.008" y="14.696" class="d">O</text><text x="22.044" y="14.696" class="d">|</text><use xlink:href="#6" y="15.197"/><use xlink:href="#5" y="17.368"/></svg><svg x="1232"><use xlink:href="#a"/><use xlink:href="#b" x="-.004" y="21.685"/><use xlink:href="#5" y="4.342"/><use xlink:href="#6" y="6.513"/><use xlink:href="#6" y="8.684"/><use xlink:href="#6" y="10.855"/><use xlink:href="#6" y="13.026"/><text y="16.867" class="d">|</text><text x="5.01" y="16.867" class="d">o</text><text x="22.044" y="16.867" class="d">|</text><use xlink:href="#5" y="17.368"/></svg><svg x="1288"><use xlink:href="#a"/><use xlink:href="#b" x="-.004" y="21.685"/><use xlink:href="#5" y="4.342"/><use xlink:href="#6" y="6.513"/><use xlink:href="#6" y="8.684"/><use xlink:href="#6" y="10.855"/><text y="14.696" class="d">|</text><text x="6.012" y="14.696" class="d">O</text><text x="22.044" y="14.696" class="d">|</text><use xlink:href="#6" y="15.197"/><use xlink:href="#5" y="17.368"/></svg><svg x="1344"><use xlink:href="#a"/><use xlink:href="#b" x="-.004" y="21.685"/><use xlink:href="#5" y="4.342"/><use xlink:href="#6" y="6.513"/><use xlink:href="#6" y="8.684"/><text y="12.525" class="d">|</text><text x="7.014" y="12.525" class="d">O</text><text x="22.044" y="12.525" class="d">|</text><use xlink:href="#6" y="13.026"/><use xlink:href="#6" y="15.197"/><use xlink:href="#5" y="17.368"/></svg><svg x="1400"><use xlink:href="#a"/><use xlink:href="#b" x="-.004" y="21.685"/><use xlink:href="#5" y="4.342"/><use xlink:href="#6" y="6.513"/><text y="10.354" class="d">|</text><text x="8.016" y="10.354" class="d">O</text><text x="22.044" y="10.354" class="d">|</text><use xlink:href="#6" y="10.855"/><use xlink:href="#6" y="13.026"/><use xlink:href="#6" y="15.197"/><use xlink:href="#5" y="17.368"/></svg><svg x="1456"><use xlink:href="#a"/><use xlink:href="#b" x="-.004" y="2.146"/></svg><svg x="1512"><use xlink:href="#a"/><use xlink:href="#b" x="-.004" y="21.685"/><use xlink:href="#5" y="4.342"/><use xlink:href="#6" y="6.513"/><use xlink:href="#6" y="8.684"/><text y="12.525" class="d">|</text><text x="9.018" y="12.525" class="d">O</text><text x="22.044" y="12.525" class="d">|</text><use xlink:href="#6" y="13.026"/><use xlink:href="#6" y="15.197"/><use xlink:href="#5" y="17.368"/></svg><svg x="1568"><use xlink:href="#a"/><use xlink:href="#b" x="-.004" y="2.146"/></svg><svg x="1624"><use xlink:href="#a"/><use xlink:href="#b" x="-.004" y="2.146"/></svg><svg x="1680"><use xlink:href="#a"/><use xlink:href="#b" x="-.004" y="21.685"/><use xlink:href="#5" y="4.342"/><use xlink:href="#6" y="6.513"/><use xlink:href="#6" y="8.684"/><text y="12.525" class="d">|</text><text x="13.026" y="12.525" class="d">O</text><text x="22.044" y="12.525" class="d">|</text><use xlink:href="#6" y="13.026"/><use xlink:href="#6" y="15.197"/><use xlink:href="#5" y="17.368"/></svg><svg x="1736"><use xlink:href="#a"/><use xlink:href="#b" x="-.004" y="21.685"/><use xlink:href="#5" y="4.342"/><use xlink:href="#6" y="6.513"/><use xlink:href="#6" y="8.684"/><use xlink:href="#6" y="10.855"/><text y="14.696" class="d">|</text><text x="14.028" y="14.696" class="d">O</text><text x="22.044" y="14.696" class="d">|</text><use xlink:href="#6" y="15.197"/><use xlink:href="#5" y="17.368"/></svg><svg x="1792"><use xlink:href="#a"/><use xlink:href="#b" x="-.004" y="21.685"/><use xlink:href="#5" y="4.342"/><use xlink:href="#6" y="6.513"/><use xlink:href="#6" y="8.684"/><use xlink:href="#6" y="10.855"/><use xlink:href="#6" y="13.026"/><text y="16.867" class="d">|</text><text x="15.03" y="16.867" class="d">o</text><text x="22.044" y="16.867" class="d">|</text><use xlink:href="#5" y="17.368"/></svg><svg x="1848"><use xlink:href="#a"/><use xlink:href="#b" x="-.004" y="21.685"/><use xlink:href="#5" y="4.342"/><use xlink:href="#6" y="6.513"/><use xlink:href="#6" y="8.684"/><use xlink:href="#6" y="10.855"/><text y="14.696" class="d">|</text><text x="16.032" y="14.696" class="d">O</text><text x="22.044" y="14.696" class="d">|</text><use xlink:href="#6" y="15.197"/><use xlink:href="#5" y="17.368"/></svg><svg x="1904"><use xlink:href="#a"/><use xlink:href="#b" x="-.004" y="21.685"/><use xlink:href="#5" y="4.342"/><use xlink:href="#6" y="6.513"/><use xlink:href="#6" y="8.684"/><use xlink:href="#6" y="10.855"/><use xlink:href="#6" y="13.026"/><text y="16.867" class="d">|</text><text x="17.034" y="16.867" class="d">o</text><text x="22.044" y="16.867" class="d">|</text><use xlink:href="#5" y="17.368"/></svg><svg x="1960"><use xlink:href="#a"/><use xlink:href="#b" x="-.004" y="21.685"/><use xlink:href="#5" y="4.342"/><use xlink:href="#6" y="6.513"/><use xlink:href="#6" y="8.684"/><use xlink:href="#6" y="10.855"/><use xlink:href="#6" y="13.026"/><text y="16.867" class="d">|</text><text x="19.038" y="16.867" class="d">o</text><text x="22.044" y="16.867" class="d">|</text><use xlink:href="#5" y="17.368"/></svg><svg x="2016"><use xlink:href="#a"/><use xlink:href="#b" x="-.004" y="21.685"/><use xlink:href="#5" y="4.342"/><use xlink:href="#6" y="6.513"/><use xlink:href="#6" y="8.684"/><use xlink:href="#6" y="10.855"/><use xlink:href="#6" y="13.026"/><text y="16.867" class="d">|</text><text x="20.04" y="16.867" class="d">o</text><text x="22.044" y="16.867" class="d">|</text><use xlink:href="#5" y="17.368"/></svg><svg x="2072"><use xlink:href="#a"/><use xlink:href="#b" x="-.004" y="2.146"/></svg><svg x="2128"><use xlink:href="#a"/><use xlink:href="#b" x="-.004" y="13.001"/><use xlink:href="#7" y="2.171"/><use xlink:href="#8" y="4.342"/><use xlink:href="#9" y="6.513"/><use xlink:href="#10" y="8.684"/><use xlink:href="#11" y="10.855"/></svg><svg x="2184"><use xlink:href="#a"/><use xlink:href="#b" x="1.996" y="15.172"/><use xlink:href="#7" y="2.171"/><use xlink:href="#8" y="4.342"/><use xlink:href="#9" y="6.513"/><use xlink:href="#10" y="8.684"/><use xlink:href="#11" y="10.855"/><use xlink:href="#1" y="13.026"/><use xlink:href="#2" y="15.197"/></svg><svg x="2240"><use xlink:href="#a"/><use xlink:href="#b" x="-.004" y="17.343"/><use xlink:href="#7" y="2.171"/><use xlink:href="#8" y="4.342"/><use xlink:href="#9" y="6.513"/><use xlink:href="#10" y="8.684"/><use xlink:href="#11" y="10.855"/><use xlink:href="#1" y="13.026"/><use xlink:href="#2" y="15.197"/></svg><svg x="2296"><use xlink:href="#a"/><use xlink:href="#b" x="-.004" y="19.514"/><use xlink:href="#7" y="2.171"/><use xlink:href="#8" y="4.342"/><use xlink:href="#9" y="6.513"/><use xlink:href="#10" y="8.684"/><use xlink:href="#11" y="10.855"/><use xlink:href="#1" y="13.026"/><use xlink:href="#2" y="15.197"/><text y="19.038" class="d">exit</text></svg></svg></g></g></svg></svg>