<svg xmlns="http://www.w3.org/2000/svg" xmlns:xlink="http://www.w3.org/1999/xlink" width="680" height="455.91"><rect width="680" height="455.91" rx="0" ry="0" class="a"/><svg height="455.91" viewBox="0 0 68 45.591" width="680" xmlns="http://www.w3.org/2000/svg" xmlns:xlink="http://www.w3.org/1999/xlink"><style>@keyframes h{0%{transform:translateX(0)}.13%{transform:translateX(-68px)}2.76%{transform:translateX(-136px)}3.42%{transform:translateX(-204px)}3.76%{transform:translateX(-272px)}3.94%{transform:translateX(-340px)}4.28%{transform:translateX(-408px)}4.4%{transform:translateX(-476px)}4.91%{transform:translateX(-544px)}5.52%{transform:translateX(-612px)}5.97%{transform:translateX(-680px)}6.21%{transform:translateX(-748px)}6.65%{transform:translateX(-816px)}9.54%{transform:translateX(-884px)}9.58%{transform:translateX(-952px)}14.04%{transform:translateX(-1020px)}14.49%{transform:translateX(-1088px)}14.87%{transform:translateX(-1156px)}16.39%{transform:translateX(-1292px)}21.94%{transform:translateX(-1360px)}22.46%{transform:translateX(-1428px)}23.16%{transform:translateX(-1496px)}23.85%{transform:translateX(-1564px)}24.42%{transform:translateX(-1632px)}24.88%{transform:translateX(-1700px)}25.4%{transform:translateX(-1768px)}25.93%{transform:translateX(-1836px)}26.48%{transform:translateX(-1904px)}27.61%{transform:translateX(-2040px)}27.62%{transform:translateX(-2108px)}34.16%{transform:translateX(-2176px)}37.26%{transform:translateX(-2244px)}37.29%{transform:translateX(-2312px)}42.53%{transform:translateX(-2380px)}43.06%{transform:translateX(-2448px)}43.57%{transform:translateX(-2516px)}43.92%{transform:translateX(-2584px)}45.25%{transform:translateX(-2720px)}52.1%{transform:translateX(-2788px)}54.19%{transform:translateX(-2856px)}57.18%{transform:translateX(-2992px)}57.2%{transform:translateX(-3060px)}62.27%{transform:translateX(-3128px)}64.54%{transform:translateX(-3196px)}64.58%{transform:translateX(-3264px)}67.78%{transform:translateX(-3332px)}68.33%{transform:translateX(-3400px)}70.15%{transform:translateX(-3468px)}79.07%{transform:translateX(-3536px)}79.8%{transform:translateX(-3604px)}80.58%{transform:translateX(-3672px)}81.37%{transform:translateX(-3740px)}84.42%{transform:translateX(-3808px)}85.52%{transform:translateX(-3944px)}85.54%{transform:translateX(-4012px)}98.7%{transform:translateX(-4080px)}99.1%{transform:translateX(-4148px)}99.33%{transform:translateX(-4216px)}99.57%{transform:translateX(-4284px)}to{transform:translateX(-4420px)}}.a{fill:#282d35}.d{fill:#b9c0cb;white-space:pre}</style><g font-family="Monaco,Consolas,Menlo,'Bitstream Vera Sans Mono','Powerline Symbols',monospace" font-size="1.67"><defs><symbol id="1"><text y="1.67" style="white-space:pre" fill="#a8cc8c" font-weight="700">tgwtg@zepo</text><text x="10.02" y="1.67" class="d">:</text><text x="11.022" y="1.67" style="white-space:pre" fill="#71bef2" font-weight="700">~/workspace/session2</text></symbol><symbol id="2"><text y="1.67" class="d">$</text></symbol><symbol id="3"><text y="1.67" class="d">$</text><text x="2.004" y="1.67" class="d">python3</text></symbol><symbol id="4"><text y="1.67" class="d">$</text><text x="2.004" y="1.67" class="d">python3</text><text x="10.02" y="1.67" class="d">lightning.py</text></symbol><symbol id="5"><text y="1.67" class="d">CAR</text><text x="4.008" y="1.67" class="d">SALE!</text></symbol><symbol id="6"><text y="1.67" class="d">What</text><text x="5.01" y="1.67" class="d">is</text><text x="8.016" y="1.67" class="d">your</text><text x="13.026" y="1.67" class="d">name?</text></symbol><symbol id="7"><text y="1.67" class="d">What</text><text x="5.01" y="1.67" class="d">is</text><text x="8.016" y="1.67" class="d">your</text><text x="13.026" y="1.67" class="d">name?</text><text x="19.038" y="1.67" class="d">Pat</text></symbol><symbol id="8"><text y="1.67" class="d">Greetings,</text><text x="11.022" y="1.67" class="d">Pat!</text></symbol><symbol id="9"><text y="1.67" class="d">Who</text><text x="4.008" y="1.67" class="d">much</text><text x="9.018" y="1.67" class="d">would</text><text x="15.03" y="1.67" class="d">you</text><text x="19.038" y="1.67" class="d">pay</text><text x="23.046" y="1.67" class="d">for</text><text x="27.054" y="1.67" class="d">this</text><text x="32.064" y="1.67" class="d">fine</text><text x="37.074" y="1.67" class="d">1988</text><text x="42.084" y="1.67" class="d">Nissan</text><text x="49.098" y="1.67" class="d">Sentra?</text></symbol><symbol id="10"><text y="1.67" class="d">Who</text><text x="4.008" y="1.67" class="d">much</text><text x="9.018" y="1.67" class="d">would</text><text x="15.03" y="1.67" class="d">you</text><text x="19.038" y="1.67" class="d">pay</text><text x="23.046" y="1.67" class="d">for</text><text x="27.054" y="1.67" class="d">this</text><text x="32.064" y="1.67" class="d">fine</text><text x="37.074" y="1.67" class="d">1988</text><text x="42.084" y="1.67" class="d">Nissan</text><text x="49.098" y="1.67" class="d">Sentra?</text><text x="57.114" y="1.67" class="d">100000000</text></symbol><symbol id="11"><text y="1.67" class="d">SOLD!</text></symbol><symbol id="12"><text y="1.67" class="d">What</text><text x="5.01" y="1.67" class="d">is</text><text x="8.016" y="1.67" class="d">your</text><text x="13.026" y="1.67" class="d">name?</text><text x="19.038" y="1.67" class="d">Jess</text></symbol><symbol id="13"><text y="1.67" class="d">Greetings,</text><text x="11.022" y="1.67" class="d">Jess!</text></symbol><symbol id="14"><text y="1.67" class="d">Who</text><text x="4.008" y="1.67" class="d">much</text><text x="9.018" y="1.67" class="d">would</text><text x="15.03" y="1.67" class="d">you</text><text x="19.038" y="1.67" class="d">pay</text><text x="23.046" y="1.67" class="d">for</text><text x="27.054" y="1.67" class="d">this</text><text x="32.064" y="1.67" class="d">fine</text><text x="37.074" y="1.67" class="d">1988</text><text x="42.084" y="1.67" class="d">Nissan</text><text x="49.098" y="1.67" class="d">Sentra?</text><text x="57.114" y="1.67" class="d">40</text></symbol><symbol id="15"><text y="1.67" class="d">Don&apos;t</text><text x="6.012" y="1.67" class="d">you</text><text x="10.02" y="1.67" class="d">see</text><text x="14.028" y="1.67" class="d">the</text><text x="18.036" y="1.67" class="d">majesty</text><text x="26.052" y="1.67" class="d">of</text><text x="29.058" y="1.67" class="d">this</text><text x="34.068" y="1.67" class="d">vehicle???</text></symbol><symbol id="16"><text y="1.67" class="d">What</text><text x="5.01" y="1.67" class="d">is</text><text x="8.016" y="1.67" class="d">your</text><text x="13.026" y="1.67" class="d">name?</text><text x="19.038" y="1.67" class="d">Mo</text></symbol><symbol id="17"><text y="1.67" class="d">Greetings,</text><text x="11.022" y="1.67" class="d">Mo!</text></symbol><symbol id="18"><text y="1.67" class="d">Who</text><text x="4.008" y="1.67" class="d">much</text><text x="9.018" y="1.67" class="d">would</text><text x="15.03" y="1.67" class="d">you</text><text x="19.038" y="1.67" class="d">pay</text><text x="23.046" y="1.67" class="d">for</text><text x="27.054" y="1.67" class="d">this</text><text x="32.064" y="1.67" class="d">fine</text><text x="37.074" y="1.67" class="d">1988</text><text x="42.084" y="1.67" class="d">Nissan</text><text x="49.098" y="1.67" class="d">Sentra?</text><text x="57.114" y="1.67" class="d">50001</text></symbol><symbol id="19"><text y="1.67" class="d">I&apos;ll</text><text x="5.01" y="1.67" class="d">have</text><text x="10.02" y="1.67" class="d">to</text><text x="13.026" y="1.67" class="d">think</text><text x="19.038" y="1.67" class="d">about</text><text x="25.05" y="1.67" class="d">it.</text></symbol><symbol id="20"><text y="1.67" class="d">$</text><text x="2.004" y="1.67" class="d">exit</text></symbol><symbol id="a"><path fill="transparent" d="M0 0h68v21H0z"/></symbol><symbol id="b"><path fill="#6f7683" d="M0 0h1.102v2.171H0z"/></symbol></defs><path class="a" d="M0 0h68v45.591H0z"/><g style="animation-duration:46.828666s;animation-iteration-count:infinite;animation-name:h;animation-timing-function:steps(1,end)"><svg width="4488"><svg><use xlink:href="#a"/><use xlink:href="#b" x="-.004"/></svg><svg x="68"><use xlink:href="#a"/><use xlink:href="#b" x="1.996" y="2.146"/><use xlink:href="#1"/><use xlink:href="#2" y="2.171"/></svg><svg x="136"><use xlink:href="#a"/><use xlink:href="#b" x="2.996" y="2.146"/><use xlink:href="#1"/><text y="3.841" class="d">$</text><text x="2.004" y="3.841" class="d">p</text></svg><svg x="204"><use xlink:href="#a"/><use xlink:href="#b" x="3.996" y="2.146"/><use xlink:href="#1"/><text y="3.841" class="d">$</text><text x="2.004" y="3.841" class="d">py</text></svg><svg x="272"><use xlink:href="#a"/><use xlink:href="#b" x="4.996" y="2.146"/><use xlink:href="#1"/><text y="3.841" class="d">$</text><text x="2.004" y="3.841" class="d">pyt</text></svg><svg x="340"><use xlink:href="#a"/><use xlink:href="#b" x="5.996" y="2.146"/><use xlink:href="#1"/><text y="3.841" class="d">$</text><text x="2.004" y="3.841" class="d">pyth</text></svg><svg x="408"><use xlink:href="#a"/><use xlink:href="#b" x="6.996" y="2.146"/><use xlink:href="#1"/><text y="3.841" class="d">$</text><text x="2.004" y="3.841" class="d">pytho</text></svg><svg x="476"><use xlink:href="#a"/><use xlink:href="#b" x="7.996" y="2.146"/><use xlink:href="#1"/><text y="3.841" class="d">$</text><text x="2.004" y="3.841" class="d">python</text></svg><svg x="544"><use xlink:href="#a"/><use xlink:href="#b" x="8.996" y="2.146"/><use xlink:href="#1"/><use xlink:href="#3" y="2.171"/></svg><svg x="612"><use xlink:href="#a"/><use xlink:href="#b" x="9.996" y="2.146"/><use xlink:href="#1"/><use xlink:href="#3" y="2.171"/></svg><svg x="680"><use xlink:href="#a"/><use xlink:href="#b" x="10.996" y="2.146"/><use xlink:href="#1"/><text y="3.841" class="d">$</text><text x="2.004" y="3.841" class="d">python3</text><text x="10.02" y="3.841" class="d">l</text></svg><svg x="748"><use xlink:href="#a"/><use xlink:href="#b" x="11.996" y="2.146"/><use xlink:href="#1"/><text y="3.841" class="d">$</text><text x="2.004" y="3.841" class="d">python3</text><text x="10.02" y="3.841" class="d">li</text></svg><svg x="816"><use xlink:href="#a"/><use xlink:href="#b" x="22.996" y="2.146"/><use xlink:href="#1"/><use xlink:href="#4" y="2.171"/></svg><svg x="884"><use xlink:href="#a"/><use xlink:href="#b" x="-.004" y="4.317"/><use xlink:href="#1"/><use xlink:href="#4" y="2.171"/></svg><svg x="952"><use xlink:href="#a"/><use xlink:href="#b" x="18.996" y="6.488"/><use xlink:href="#1"/><use xlink:href="#4" y="2.171"/><use xlink:href="#5" y="4.342"/><use xlink:href="#6" y="6.513"/></svg><svg x="1020"><use xlink:href="#a"/><use xlink:href="#b" x="19.996" y="6.488"/><use xlink:href="#1"/><use xlink:href="#4" y="2.171"/><use xlink:href="#5" y="4.342"/><text y="8.183" class="d">What</text><text x="5.01" y="8.183" class="d">is</text><text x="8.016" y="8.183" class="d">your</text><text x="13.026" y="8.183" class="d">name?</text><text x="19.038" y="8.183" class="d">P</text></svg><svg x="1088"><use xlink:href="#a"/><use xlink:href="#b" x="20.996" y="6.488"/><use xlink:href="#1"/><use xlink:href="#4" y="2.171"/><use xlink:href="#5" y="4.342"/><text y="8.183" class="d">What</text><text x="5.01" y="8.183" class="d">is</text><text x="8.016" y="8.183" class="d">your</text><text x="13.026" y="8.183" class="d">name?</text><text x="19.038" y="8.183" class="d">Pa</text></svg><svg x="1156"><use xlink:href="#a"/><use xlink:href="#b" x="21.996" y="6.488"/><use xlink:href="#1"/><use xlink:href="#4" y="2.171"/><use xlink:href="#5" y="4.342"/><use xlink:href="#7" y="6.513"/></svg><svg x="1224"><use xlink:href="#a"/><use xlink:href="#b" x="-.004" y="8.659"/><use xlink:href="#1"/><use xlink:href="#4" y="2.171"/><use xlink:href="#5" y="4.342"/><use xlink:href="#7" y="6.513"/></svg><svg x="1292"><use xlink:href="#a"/><use xlink:href="#b" x="56.996" y="10.83"/><use xlink:href="#1"/><use xlink:href="#4" y="2.171"/><use xlink:href="#5" y="4.342"/><use xlink:href="#7" y="6.513"/><use xlink:href="#8" y="8.684"/><use xlink:href="#9" y="10.855"/></svg><svg x="1360"><use xlink:href="#a"/><use xlink:href="#b" x="57.996" y="10.83"/><use xlink:href="#1"/><use xlink:href="#4" y="2.171"/><use xlink:href="#5" y="4.342"/><use xlink:href="#7" y="6.513"/><use xlink:href="#8" y="8.684"/><text y="12.525" class="d">Who</text><text x="4.008" y="12.525" class="d">much</text><text x="9.018" y="12.525" class="d">would</text><text x="15.03" y="12.525" class="d">you</text><text x="19.038" y="12.525" class="d">pay</text><text x="23.046" y="12.525" class="d">for</text><text x="27.054" y="12.525" class="d">this</text><text x="32.064" y="12.525" class="d">fine</text><text x="37.074" y="12.525" class="d">1988</text><text x="42.084" y="12.525" class="d">Nissan</text><text x="49.098" y="12.525" class="d">Sentra?</text><text x="57.114" y="12.525" class="d">1</text></svg><svg x="1428"><use xlink:href="#a"/><use xlink:href="#b" x="58.996" y="10.83"/><use xlink:href="#1"/><use xlink:href="#4" y="2.171"/><use xlink:href="#5" y="4.342"/><use xlink:href="#7" y="6.513"/><use xlink:href="#8" y="8.684"/><text y="12.525" class="d">Who</text><text x="4.008" y="12.525" class="d">much</text><text x="9.018" y="12.525" class="d">would</text><text x="15.03" y="12.525" class="d">you</text><text x="19.038" y="12.525" class="d">pay</text><text x="23.046" y="12.525" class="d">for</text><text x="27.054" y="12.525" class="d">this</text><text x="32.064" y="12.525" class="d">fine</text><text x="37.074" y="12.525" class="d">1988</text><text x="42.084" y="12.525" class="d">Nissan</text><text x="49.098" y="12.525" class="d">Sentra?</text><text x="57.114" y="12.525" class="d">10</text></svg><svg x="1496"><use xlink:href="#a"/><use xlink:href="#b" x="59.996" y="10.83"/><use xlink:href="#1"/><use xlink:href="#4" y="2.171"/><use xlink:href="#5" y="4.342"/><use xlink:href="#7" y="6.513"/><use xlink:href="#8" y="8.684"/><text y="12.525" class="d">Who</text><text x="4.008" y="12.525" class="d">much</text><text x="9.018" y="12.525" class="d">would</text><text x="15.03" y="12.525" class="d">you</text><text x="19.038" y="12.525" class="d">pay</text><text x="23.046" y="12.525" class="d">for</text><text x="27.054" y="12.525" class="d">this</text><text x="32.064" y="12.525" class="d">fine</text><text x="37.074" y="12.525" class="d">1988</text><text x="42.084" y="12.525" class="d">Nissan</text><text x="49.098" y="12.525" class="d">Sentra?</text><text x="57.114" y="12.525" class="d">100</text></svg><svg x="1564"><use xlink:href="#a"/><use xlink:href="#b" x="60.996" y="10.83"/><use xlink:href="#1"/><use xlink:href="#4" y="2.171"/><use xlink:href="#5" y="4.342"/><use xlink:href="#7" y="6.513"/><use xlink:href="#8" y="8.684"/><text y="12.525" class="d">Who</text><text x="4.008" y="12.525" class="d">much</text><text x="9.018" y="12.525" class="d">would</text><text x="15.03" y="12.525" class="d">you</text><text x="19.038" y="12.525" class="d">pay</text><text x="23.046" y="12.525" class="d">for</text><text x="27.054" y="12.525" class="d">this</text><text x="32.064" y="12.525" class="d">fine</text><text x="37.074" y="12.525" class="d">1988</text><text x="42.084" y="12.525" class="d">Nissan</text><text x="49.098" y="12.525" class="d">Sentra?</text><text x="57.114" y="12.525" class="d">1000</text></svg><svg x="1632"><use xlink:href="#a"/><use xlink:href="#b" x="61.996" y="10.83"/><use xlink:href="#1"/><use xlink:href="#4" y="2.171"/><use xlink:href="#5" y="4.342"/><use xlink:href="#7" y="6.513"/><use xlink:href="#8" y="8.684"/><text y="12.525" class="d">Who</text><text x="4.008" y="12.525" class="d">much</text><text x="9.018" y="12.525" class="d">would</text><text x="15.03" y="12.525" class="d">you</text><text x="19.038" y="12.525" class="d">pay</text><text x="23.046" y="12.525" class="d">for</text><text x="27.054" y="12.525" class="d">this</text><text x="32.064" y="12.525" class="d">fine</text><text x="37.074" y="12.525" class="d">1988</text><text x="42.084" y="12.525" class="d">Nissan</text><text x="49.098" y="12.525" class="d">Sentra?</text><text x="57.114" y="12.525" class="d">10000</text></svg><svg x="1700"><use xlink:href="#a"/><use xlink:href="#b" x="62.996" y="10.83"/><use xlink:href="#1"/><use xlink:href="#4" y="2.171"/><use xlink:href="#5" y="4.342"/><use xlink:href="#7" y="6.513"/><use xlink:href="#8" y="8.684"/><text y="12.525" class="d">Who</text><text x="4.008" y="12.525" class="d">much</text><text x="9.018" y="12.525" class="d">would</text><text x="15.03" y="12.525" class="d">you</text><text x="19.038" y="12.525" class="d">pay</text><text x="23.046" y="12.525" class="d">for</text><text x="27.054" y="12.525" class="d">this</text><text x="32.064" y="12.525" class="d">fine</text><text x="37.074" y="12.525" class="d">1988</text><text x="42.084" y="12.525" class="d">Nissan</text><text x="49.098" y="12.525" class="d">Sentra?</text><text x="57.114" y="12.525" class="d">100000</text></svg><svg x="1768"><use xlink:href="#a"/><use xlink:href="#b" x="63.996" y="10.83"/><use xlink:href="#1"/><use xlink:href="#4" y="2.171"/><use xlink:href="#5" y="4.342"/><use xlink:href="#7" y="6.513"/><use xlink:href="#8" y="8.684"/><text y="12.525" class="d">Who</text><text x="4.008" y="12.525" class="d">much</text><text x="9.018" y="12.525" class="d">would</text><text x="15.03" y="12.525" class="d">you</text><text x="19.038" y="12.525" class="d">pay</text><text x="23.046" y="12.525" class="d">for</text><text x="27.054" y="12.525" class="d">this</text><text x="32.064" y="12.525" class="d">fine</text><text x="37.074" y="12.525" class="d">1988</text><text x="42.084" y="12.525" class="d">Nissan</text><text x="49.098" y="12.525" class="d">Sentra?</text><text x="57.114" y="12.525" class="d">1000000</text></svg><svg x="1836"><use xlink:href="#a"/><use xlink:href="#b" x="64.996" y="10.83"/><use xlink:href="#1"/><use xlink:href="#4" y="2.171"/><use xlink:href="#5" y="4.342"/><use xlink:href="#7" y="6.513"/><use xlink:href="#8" y="8.684"/><text y="12.525" class="d">Who</text><text x="4.008" y="12.525" class="d">much</text><text x="9.018" y="12.525" class="d">would</text><text x="15.03" y="12.525" class="d">you</text><text x="19.038" y="12.525" class="d">pay</text><text x="23.046" y="12.525" class="d">for</text><text x="27.054" y="12.525" class="d">this</text><text x="32.064" y="12.525" class="d">fine</text><text x="37.074" y="12.525" class="d">1988</text><text x="42.084" y="12.525" class="d">Nissan</text><text x="49.098" y="12.525" class="d">Sentra?</text><text x="57.114" y="12.525" class="d">10000000</text></svg><svg x="1904"><use xlink:href="#a"/><use xlink:href="#b" x="65.996" y="10.83"/><use xlink:href="#1"/><use xlink:href="#4" y="2.171"/><use xlink:href="#5" y="4.342"/><use xlink:href="#7" y="6.513"/><use xlink:href="#8" y="8.684"/><use xlink:href="#10" y="10.855"/></svg><svg x="1972"><use xlink:href="#a"/><use xlink:href="#b" x="-.004" y="13.001"/><use xlink:href="#1"/><use xlink:href="#4" y="2.171"/><use xlink:href="#5" y="4.342"/><use xlink:href="#7" y="6.513"/><use xlink:href="#8" y="8.684"/><use xlink:href="#10" y="10.855"/></svg><svg x="2040"><use xlink:href="#a"/><use xlink:href="#b" x="-.004" y="15.172"/><use xlink:href="#1"/><use xlink:href="#4" y="2.171"/><use xlink:href="#5" y="4.342"/><use xlink:href="#7" y="6.513"/><use xlink:href="#8" y="8.684"/><use xlink:href="#10" y="10.855"/><use xlink:href="#11" y="13.026"/></svg><svg x="2108"><use xlink:href="#a"/><use xlink:href="#b" x="1.996" y="17.343"/><use xlink:href="#1"/><use xlink:href="#4" y="2.171"/><use xlink:href="#5" y="4.342"/><use xlink:href="#7" y="6.513"/><use xlink:href="#8" y="8.684"/><use xlink:href="#10" y="10.855"/><use xlink:href="#11" y="13.026"/><use xlink:href="#1" y="15.197"/><use xlink:href="#2" y="17.368"/></svg><svg x="2176"><use xlink:href="#a"/><use xlink:href="#b" x="22.996" y="17.343"/><use xlink:href="#1"/><use xlink:href="#4" y="2.171"/><use xlink:href="#5" y="4.342"/><use xlink:href="#7" y="6.513"/><use xlink:href="#8" y="8.684"/><use xlink:href="#10" y="10.855"/><use xlink:href="#11" y="13.026"/><use xlink:href="#1" y="15.197"/><use xlink:href="#4" y="17.368"/></svg><svg x="2244"><use xlink:href="#a"/><use xlink:href="#b" x="-.004" y="19.514"/><use xlink:href="#1"/><use xlink:href="#4" y="2.171"/><use xlink:href="#5" y="4.342"/><use xlink:href="#7" y="6.513"/><use xlink:href="#8" y="8.684"/><use xlink:href="#10" y="10.855"/><use xlink:href="#11" y="13.026"/><use xlink:href="#1" y="15.197"/><use xlink:href="#4" y="17.368"/></svg><svg x="2312"><use xlink:href="#a"/><use xlink:href="#b" x="18.996" y="21.685"/><use xlink:href="#1"/><use xlink:href="#4" y="2.171"/><use xlink:href="#5" y="4.342"/><use xlink:href="#7" y="6.513"/><use xlink:href="#8" y="8.684"/><use xlink:href="#10" y="10.855"/><use xlink:href="#11" y="13.026"/><use xlink:href="#1" y="15.197"/><use xlink:href="#4" y="17.368"/><use xlink:href="#5" y="19.539"/><use xlink:href="#6" y="21.71"/></svg><svg x="2380"><use xlink:href="#a"/><use xlink:href="#b" x="19.996" y="21.685"/><use xlink:href="#1"/><use xlink:href="#4" y="2.171"/><use xlink:href="#5" y="4.342"/><use xlink:href="#7" y="6.513"/><use xlink:href="#8" y="8.684"/><use xlink:href="#10" y="10.855"/><use xlink:href="#11" y="13.026"/><use xlink:href="#1" y="15.197"/><use xlink:href="#4" y="17.368"/><use xlink:href="#5" y="19.539"/><text y="23.38" class="d">What</text><text x="5.01" y="23.38" class="d">is</text><text x="8.016" y="23.38" class="d">your</text><text x="13.026" y="23.38" class="d">name?</text><text x="19.038" y="23.38" class="d">J</text></svg><svg x="2448"><use xlink:href="#a"/><use xlink:href="#b" x="20.996" y="21.685"/><use xlink:href="#1"/><use xlink:href="#4" y="2.171"/><use xlink:href="#5" y="4.342"/><use xlink:href="#7" y="6.513"/><use xlink:href="#8" y="8.684"/><use xlink:href="#10" y="10.855"/><use xlink:href="#11" y="13.026"/><use xlink:href="#1" y="15.197"/><use xlink:href="#4" y="17.368"/><use xlink:href="#5" y="19.539"/><text y="23.38" class="d">What</text><text x="5.01" y="23.38" class="d">is</text><text x="8.016" y="23.38" class="d">your</text><text x="13.026" y="23.38" class="d">name?</text><text x="19.038" y="23.38" class="d">Je</text></svg><svg x="2516"><use xlink:href="#a"/><use xlink:href="#b" x="21.996" y="21.685"/><use xlink:href="#1"/><use xlink:href="#4" y="2.171"/><use xlink:href="#5" y="4.342"/><use xlink:href="#7" y="6.513"/><use xlink:href="#8" y="8.684"/><use xlink:href="#10" y="10.855"/><use xlink:href="#11" y="13.026"/><use xlink:href="#1" y="15.197"/><use xlink:href="#4" y="17.368"/><use xlink:href="#5" y="19.539"/><text y="23.38" class="d">What</text><text x="5.01" y="23.38" class="d">is</text><text x="8.016" y="23.38" class="d">your</text><text x="13.026" y="23.38" class="d">name?</text><text x="19.038" y="23.38" class="d">Jes</text></svg><svg x="2584"><use xlink:href="#a"/><use xlink:href="#b" x="22.996" y="21.685"/><use xlink:href="#1"/><use xlink:href="#4" y="2.171"/><use xlink:href="#5" y="4.342"/><use xlink:href="#7" y="6.513"/><use xlink:href="#8" y="8.684"/><use xlink:href="#10" y="10.855"/><use xlink:href="#11" y="13.026"/><use xlink:href="#1" y="15.197"/><use xlink:href="#4" y="17.368"/><use xlink:href="#5" y="19.539"/><use xlink:href="#12" y="21.71"/></svg><svg x="2652"><use xlink:href="#a"/><use xlink:href="#b" x="-.004" y="23.856"/><use xlink:href="#1"/><use xlink:href="#4" y="2.171"/><use xlink:href="#5" y="4.342"/><use xlink:href="#7" y="6.513"/><use xlink:href="#8" y="8.684"/><use xlink:href="#10" y="10.855"/><use xlink:href="#11" y="13.026"/><use xlink:href="#1" y="15.197"/><use xlink:href="#4" y="17.368"/><use xlink:href="#5" y="19.539"/><use xlink:href="#12" y="21.71"/></svg><svg x="2720"><use xlink:href="#a"/><use xlink:href="#b" x="56.996" y="26.027"/><use xlink:href="#1"/><use xlink:href="#4" y="2.171"/><use xlink:href="#5" y="4.342"/><use xlink:href="#7" y="6.513"/><use xlink:href="#8" y="8.684"/><use xlink:href="#10" y="10.855"/><use xlink:href="#11" y="13.026"/><use xlink:href="#1" y="15.197"/><use xlink:href="#4" y="17.368"/><use xlink:href="#5" y="19.539"/><use xlink:href="#12" y="21.71"/><use xlink:href="#13" y="23.881"/><use xlink:href="#9" y="26.052"/></svg><svg x="2788"><use xlink:href="#a"/><use xlink:href="#b" x="57.996" y="26.027"/><use xlink:href="#1"/><use xlink:href="#4" y="2.171"/><use xlink:href="#5" y="4.342"/><use xlink:href="#7" y="6.513"/><use xlink:href="#8" y="8.684"/><use xlink:href="#10" y="10.855"/><use xlink:href="#11" y="13.026"/><use xlink:href="#1" y="15.197"/><use xlink:href="#4" y="17.368"/><use xlink:href="#5" y="19.539"/><use xlink:href="#12" y="21.71"/><use xlink:href="#13" y="23.881"/><text y="27.722" class="d">Who</text><text x="4.008" y="27.722" class="d">much</text><text x="9.018" y="27.722" class="d">would</text><text x="15.03" y="27.722" class="d">you</text><text x="19.038" y="27.722" class="d">pay</text><text x="23.046" y="27.722" class="d">for</text><text x="27.054" y="27.722" class="d">this</text><text x="32.064" y="27.722" class="d">fine</text><text x="37.074" y="27.722" class="d">1988</text><text x="42.084" y="27.722" class="d">Nissan</text><text x="49.098" y="27.722" class="d">Sentra?</text><text x="57.114" y="27.722" class="d">4</text></svg><svg x="2856"><use xlink:href="#a"/><use xlink:href="#b" x="58.996" y="26.027"/><use xlink:href="#1"/><use xlink:href="#4" y="2.171"/><use xlink:href="#5" y="4.342"/><use xlink:href="#7" y="6.513"/><use xlink:href="#8" y="8.684"/><use xlink:href="#10" y="10.855"/><use xlink:href="#11" y="13.026"/><use xlink:href="#1" y="15.197"/><use xlink:href="#4" y="17.368"/><use xlink:href="#5" y="19.539"/><use xlink:href="#12" y="21.71"/><use xlink:href="#13" y="23.881"/><use xlink:href="#14" y="26.052"/></svg><svg x="2924"><use xlink:href="#a"/><use xlink:href="#b" x="-.004" y="28.198"/><use xlink:href="#1"/><use xlink:href="#4" y="2.171"/><use xlink:href="#5" y="4.342"/><use xlink:href="#7" y="6.513"/><use xlink:href="#8" y="8.684"/><use xlink:href="#10" y="10.855"/><use xlink:href="#11" y="13.026"/><use xlink:href="#1" y="15.197"/><use xlink:href="#4" y="17.368"/><use xlink:href="#5" y="19.539"/><use xlink:href="#12" y="21.71"/><use xlink:href="#13" y="23.881"/><use xlink:href="#14" y="26.052"/></svg><svg x="2992"><use xlink:href="#a"/><use xlink:href="#b" x="-.004" y="30.369"/><use xlink:href="#1"/><use xlink:href="#4" y="2.171"/><use xlink:href="#5" y="4.342"/><use xlink:href="#7" y="6.513"/><use xlink:href="#8" y="8.684"/><use xlink:href="#10" y="10.855"/><use xlink:href="#11" y="13.026"/><use xlink:href="#1" y="15.197"/><use xlink:href="#4" y="17.368"/><use xlink:href="#5" y="19.539"/><use xlink:href="#12" y="21.71"/><use xlink:href="#13" y="23.881"/><use xlink:href="#14" y="26.052"/><use xlink:href="#15" y="28.223"/></svg><svg x="3060"><use xlink:href="#a"/><use xlink:href="#b" x="1.996" y="32.54"/><use xlink:href="#1"/><use xlink:href="#4" y="2.171"/><use xlink:href="#5" y="4.342"/><use xlink:href="#7" y="6.513"/><use xlink:href="#8" y="8.684"/><use xlink:href="#10" y="10.855"/><use xlink:href="#11" y="13.026"/><use xlink:href="#1" y="15.197"/><use xlink:href="#4" y="17.368"/><use xlink:href="#5" y="19.539"/><use xlink:href="#12" y="21.71"/><use xlink:href="#13" y="23.881"/><use xlink:href="#14" y="26.052"/><use xlink:href="#15" y="28.223"/><use xlink:href="#1" y="30.394"/><use xlink:href="#2" y="32.565"/></svg><svg x="3128"><use xlink:href="#a"/><use xlink:href="#b" x="22.996" y="32.54"/><use xlink:href="#1"/><use xlink:href="#4" y="2.171"/><use xlink:href="#5" y="4.342"/><use xlink:href="#7" y="6.513"/><use xlink:href="#8" y="8.684"/><use xlink:href="#10" y="10.855"/><use xlink:href="#11" y="13.026"/><use xlink:href="#1" y="15.197"/><use xlink:href="#4" y="17.368"/><use xlink:href="#5" y="19.539"/><use xlink:href="#12" y="21.71"/><use xlink:href="#13" y="23.881"/><use xlink:href="#14" y="26.052"/><use xlink:href="#15" y="28.223"/><use xlink:href="#1" y="30.394"/><use xlink:href="#4" y="32.565"/></svg><svg x="3196"><use xlink:href="#a"/><use xlink:href="#b" x="-.004" y="34.711"/><use xlink:href="#1"/><use xlink:href="#4" y="2.171"/><use xlink:href="#5" y="4.342"/><use xlink:href="#7" y="6.513"/><use xlink:href="#8" y="8.684"/><use xlink:href="#10" y="10.855"/><use xlink:href="#11" y="13.026"/><use xlink:href="#1" y="15.197"/><use xlink:href="#4" y="17.368"/><use xlink:href="#5" y="19.539"/><use xlink:href="#12" y="21.71"/><use xlink:href="#13" y="23.881"/><use xlink:href="#14" y="26.052"/><use xlink:href="#15" y="28.223"/><use xlink:href="#1" y="30.394"/><use xlink:href="#4" y="32.565"/></svg><svg x="3264"><use xlink:href="#a"/><use xlink:href="#b" x="18.996" y="36.882"/><use xlink:href="#1"/><use xlink:href="#4" y="2.171"/><use xlink:href="#5" y="4.342"/><use xlink:href="#7" y="6.513"/><use xlink:href="#8" y="8.684"/><use xlink:href="#10" y="10.855"/><use xlink:href="#11" y="13.026"/><use xlink:href="#1" y="15.197"/><use xlink:href="#4" y="17.368"/><use xlink:href="#5" y="19.539"/><use xlink:href="#12" y="21.71"/><use xlink:href="#13" y="23.881"/><use xlink:href="#14" y="26.052"/><use xlink:href="#15" y="28.223"/><use xlink:href="#1" y="30.394"/><use xlink:href="#4" y="32.565"/><use xlink:href="#5" y="34.736"/><use xlink:href="#6" y="36.907"/></svg><svg x="3332"><use xlink:href="#a"/><use xlink:href="#b" x="19.996" y="36.882"/><use xlink:href="#1"/><use xlink:href="#4" y="2.171"/><use xlink:href="#5" y="4.342"/><use xlink:href="#7" y="6.513"/><use xlink:href="#8" y="8.684"/><use xlink:href="#10" y="10.855"/><use xlink:href="#11" y="13.026"/><use xlink:href="#1" y="15.197"/><use xlink:href="#4" y="17.368"/><use xlink:href="#5" y="19.539"/><use xlink:href="#12" y="21.71"/><use xlink:href="#13" y="23.881"/><use xlink:href="#14" y="26.052"/><use xlink:href="#15" y="28.223"/><use xlink:href="#1" y="30.394"/><use xlink:href="#4" y="32.565"/><use xlink:href="#5" y="34.736"/><text y="38.577" class="d">What</text><text x="5.01" y="38.577" class="d">is</text><text x="8.016" y="38.577" class="d">your</text><text x="13.026" y="38.577" class="d">name?</text><text x="19.038" y="38.577" class="d">M</text></svg><svg x="3400"><use xlink:href="#a"/><use xlink:href="#b" x="20.996" y="36.882"/><use xlink:href="#1"/><use xlink:href="#4" y="2.171"/><use xlink:href="#5" y="4.342"/><use xlink:href="#7" y="6.513"/><use xlink:href="#8" y="8.684"/><use xlink:href="#10" y="10.855"/><use xlink:href="#11" y="13.026"/><use xlink:href="#1" y="15.197"/><use xlink:href="#4" y="17.368"/><use xlink:href="#5" y="19.539"/><use xlink:href="#12" y="21.71"/><use xlink:href="#13" y="23.881"/><use xlink:href="#14" y="26.052"/><use xlink:href="#15" y="28.223"/><use xlink:href="#1" y="30.394"/><use xlink:href="#4" y="32.565"/><use xlink:href="#5" y="34.736"/><use xlink:href="#16" y="36.907"/></svg><svg x="3468"><use xlink:href="#a"/><use xlink:href="#b" x="56.996" y="41.224"/><use xlink:href="#1"/><use xlink:href="#4" y="2.171"/><use xlink:href="#5" y="4.342"/><use xlink:href="#7" y="6.513"/><use xlink:href="#8" y="8.684"/><use xlink:href="#10" y="10.855"/><use xlink:href="#11" y="13.026"/><use xlink:href="#1" y="15.197"/><use xlink:href="#4" y="17.368"/><use xlink:href="#5" y="19.539"/><use xlink:href="#12" y="21.71"/><use xlink:href="#13" y="23.881"/><use xlink:href="#14" y="26.052"/><use xlink:href="#15" y="28.223"/><use xlink:href="#1" y="30.394"/><use xlink:href="#4" y="32.565"/><use xlink:href="#5" y="34.736"/><use xlink:href="#16" y="36.907"/><use xlink:href="#17" y="39.078"/><use xlink:href="#9" y="41.249"/></svg><svg x="3536"><use xlink:href="#a"/><use xlink:href="#b" x="57.996" y="41.224"/><use xlink:href="#1"/><use xlink:href="#4" y="2.171"/><use xlink:href="#5" y="4.342"/><use xlink:href="#7" y="6.513"/><use xlink:href="#8" y="8.684"/><use xlink:href="#10" y="10.855"/><use xlink:href="#11" y="13.026"/><use xlink:href="#1" y="15.197"/><use xlink:href="#4" y="17.368"/><use xlink:href="#5" y="19.539"/><use xlink:href="#12" y="21.71"/><use xlink:href="#13" y="23.881"/><use xlink:href="#14" y="26.052"/><use xlink:href="#15" y="28.223"/><use xlink:href="#1" y="30.394"/><use xlink:href="#4" y="32.565"/><use xlink:href="#5" y="34.736"/><use xlink:href="#16" y="36.907"/><use xlink:href="#17" y="39.078"/><text y="42.919" class="d">Who</text><text x="4.008" y="42.919" class="d">much</text><text x="9.018" y="42.919" class="d">would</text><text x="15.03" y="42.919" class="d">you</text><text x="19.038" y="42.919" class="d">pay</text><text x="23.046" y="42.919" class="d">for</text><text x="27.054" y="42.919" class="d">this</text><text x="32.064" y="42.919" class="d">fine</text><text x="37.074" y="42.919" class="d">1988</text><text x="42.084" y="42.919" class="d">Nissan</text><text x="49.098" y="42.919" class="d">Sentra?</text><text x="57.114" y="42.919" class="d">5</text></svg><svg x="3604"><use xlink:href="#a"/><use xlink:href="#b" x="58.996" y="41.224"/><use xlink:href="#1"/><use xlink:href="#4" y="2.171"/><use xlink:href="#5" y="4.342"/><use xlink:href="#7" y="6.513"/><use xlink:href="#8" y="8.684"/><use xlink:href="#10" y="10.855"/><use xlink:href="#11" y="13.026"/><use xlink:href="#1" y="15.197"/><use xlink:href="#4" y="17.368"/><use xlink:href="#5" y="19.539"/><use xlink:href="#12" y="21.71"/><use xlink:href="#13" y="23.881"/><use xlink:href="#14" y="26.052"/><use xlink:href="#15" y="28.223"/><use xlink:href="#1" y="30.394"/><use xlink:href="#4" y="32.565"/><use xlink:href="#5" y="34.736"/><use xlink:href="#16" y="36.907"/><use xlink:href="#17" y="39.078"/><text y="42.919" class="d">Who</text><text x="4.008" y="42.919" class="d">much</text><text x="9.018" y="42.919" class="d">would</text><text x="15.03" y="42.919" class="d">you</text><text x="19.038" y="42.919" class="d">pay</text><text x="23.046" y="42.919" class="d">for</text><text x="27.054" y="42.919" class="d">this</text><text x="32.064" y="42.919" class="d">fine</text><text x="37.074" y="42.919" class="d">1988</text><text x="42.084" y="42.919" class="d">Nissan</text><text x="49.098" y="42.919" class="d">Sentra?</text><text x="57.114" y="42.919" class="d">50</text></svg><svg x="3672"><use xlink:href="#a"/><use xlink:href="#b" x="59.996" y="41.224"/><use xlink:href="#1"/><use xlink:href="#4" y="2.171"/><use xlink:href="#5" y="4.342"/><use xlink:href="#7" y="6.513"/><use xlink:href="#8" y="8.684"/><use xlink:href="#10" y="10.855"/><use xlink:href="#11" y="13.026"/><use xlink:href="#1" y="15.197"/><use xlink:href="#4" y="17.368"/><use xlink:href="#5" y="19.539"/><use xlink:href="#12" y="21.71"/><use xlink:href="#13" y="23.881"/><use xlink:href="#14" y="26.052"/><use xlink:href="#15" y="28.223"/><use xlink:href="#1" y="30.394"/><use xlink:href="#4" y="32.565"/><use xlink:href="#5" y="34.736"/><use xlink:href="#16" y="36.907"/><use xlink:href="#17" y="39.078"/><text y="42.919" class="d">Who</text><text x="4.008" y="42.919" class="d">much</text><text x="9.018" y="42.919" class="d">would</text><text x="15.03" y="42.919" class="d">you</text><text x="19.038" y="42.919" class="d">pay</text><text x="23.046" y="42.919" class="d">for</text><text x="27.054" y="42.919" class="d">this</text><text x="32.064" y="42.919" class="d">fine</text><text x="37.074" y="42.919" class="d">1988</text><text x="42.084" y="42.919" class="d">Nissan</text><text x="49.098" y="42.919" class="d">Sentra?</text><text x="57.114" y="42.919" class="d">500</text></svg><svg x="3740"><use xlink:href="#a"/><use xlink:href="#b" x="60.996" y="41.224"/><use xlink:href="#1"/><use xlink:href="#4" y="2.171"/><use xlink:href="#5" y="4.342"/><use xlink:href="#7" y="6.513"/><use xlink:href="#8" y="8.684"/><use xlink:href="#10" y="10.855"/><use xlink:href="#11" y="13.026"/><use xlink:href="#1" y="15.197"/><use xlink:href="#4" y="17.368"/><use xlink:href="#5" y="19.539"/><use xlink:href="#12" y="21.71"/><use xlink:href="#13" y="23.881"/><use xlink:href="#14" y="26.052"/><use xlink:href="#15" y="28.223"/><use xlink:href="#1" y="30.394"/><use xlink:href="#4" y="32.565"/><use xlink:href="#5" y="34.736"/><use xlink:href="#16" y="36.907"/><use xlink:href="#17" y="39.078"/><text y="42.919" class="d">Who</text><text x="4.008" y="42.919" class="d">much</text><text x="9.018" y="42.919" class="d">would</text><text x="15.03" y="42.919" class="d">you</text><text x="19.038" y="42.919" class="d">pay</text><text x="23.046" y="42.919" class="d">for</text><text x="27.054" y="42.919" class="d">this</text><text x="32.064" y="42.919" class="d">fine</text><text x="37.074" y="42.919" class="d">1988</text><text x="42.084" y="42.919" class="d">Nissan</text><text x="49.098" y="42.919" class="d">Sentra?</text><text x="57.114" y="42.919" class="d">5000</text></svg><svg x="3808"><use xlink:href="#a"/><use xlink:href="#b" x="61.996" y="41.224"/><use xlink:href="#1"/><use xlink:href="#4" y="2.171"/><use xlink:href="#5" y="4.342"/><use xlink:href="#7" y="6.513"/><use xlink:href="#8" y="8.684"/><use xlink:href="#10" y="10.855"/><use xlink:href="#11" y="13.026"/><use xlink:href="#1" y="15.197"/><use xlink:href="#4" y="17.368"/><use xlink:href="#5" y="19.539"/><use xlink:href="#12" y="21.71"/><use xlink:href="#13" y="23.881"/><use xlink:href="#14" y="26.052"/><use xlink:href="#15" y="28.223"/><use xlink:href="#1" y="30.394"/><use xlink:href="#4" y="32.565"/><use xlink:href="#5" y="34.736"/><use xlink:href="#16" y="36.907"/><use xlink:href="#17" y="39.078"/><use xlink:href="#18" y="41.249"/></svg><svg x="3876"><use xlink:href="#a"/><use xlink:href="#b" x="-.004" y="43.395"/><use xlink:href="#1"/><use xlink:href="#4" y="2.171"/><use xlink:href="#5" y="4.342"/><use xlink:href="#7" y="6.513"/><use xlink:href="#8" y="8.684"/><use xlink:href="#10" y="10.855"/><use xlink:href="#11" y="13.026"/><use xlink:href="#1" y="15.197"/><use xlink:href="#4" y="17.368"/><use xlink:href="#5" y="19.539"/><use xlink:href="#12" y="21.71"/><use xlink:href="#13" y="23.881"/><use xlink:href="#14" y="26.052"/><use xlink:href="#15" y="28.223"/><use xlink:href="#1" y="30.394"/><use xlink:href="#4" y="32.565"/><use xlink:href="#5" y="34.736"/><use xlink:href="#16" y="36.907"/><use xlink:href="#17" y="39.078"/><use xlink:href="#18" y="41.249"/></svg><svg x="3944"><use xlink:href="#a"/><use xlink:href="#b" x="-.004" y="43.395"/><use xlink:href="#4"/><use xlink:href="#5" y="2.171"/><use xlink:href="#7" y="4.342"/><use xlink:href="#8" y="6.513"/><use xlink:href="#10" y="8.684"/><use xlink:href="#11" y="10.855"/><use xlink:href="#1" y="13.026"/><use xlink:href="#4" y="15.197"/><use xlink:href="#5" y="17.368"/><use xlink:href="#12" y="19.539"/><use xlink:href="#13" y="21.71"/><use xlink:href="#14" y="23.881"/><use xlink:href="#15" y="26.052"/><use xlink:href="#1" y="28.223"/><use xlink:href="#4" y="30.394"/><use xlink:href="#5" y="32.565"/><use xlink:href="#16" y="34.736"/><use xlink:href="#17" y="36.907"/><use xlink:href="#18" y="39.078"/><use xlink:href="#19" y="41.249"/></svg><svg x="4012"><use xlink:href="#a"/><use xlink:href="#b" x="1.996" y="43.395"/><use xlink:href="#5"/><use xlink:href="#7" y="2.171"/><use xlink:href="#8" y="4.342"/><use xlink:href="#10" y="6.513"/><use xlink:href="#11" y="8.684"/><use xlink:href="#1" y="10.855"/><use xlink:href="#4" y="13.026"/><use xlink:href="#5" y="15.197"/><use xlink:href="#12" y="17.368"/><use xlink:href="#13" y="19.539"/><use xlink:href="#14" y="21.71"/><use xlink:href="#15" y="23.881"/><use xlink:href="#1" y="26.052"/><use xlink:href="#4" y="28.223"/><use xlink:href="#5" y="30.394"/><use xlink:href="#16" y="32.565"/><use xlink:href="#17" y="34.736"/><use xlink:href="#18" y="36.907"/><use xlink:href="#19" y="39.078"/><use xlink:href="#1" y="41.249"/><use xlink:href="#2" y="43.42"/></svg><svg x="4080"><use xlink:href="#a"/><use xlink:href="#b" x="2.996" y="43.395"/><use xlink:href="#5"/><use xlink:href="#7" y="2.171"/><use xlink:href="#8" y="4.342"/><use xlink:href="#10" y="6.513"/><use xlink:href="#11" y="8.684"/><use xlink:href="#1" y="10.855"/><use xlink:href="#4" y="13.026"/><use xlink:href="#5" y="15.197"/><use xlink:href="#12" y="17.368"/><use xlink:href="#13" y="19.539"/><use xlink:href="#14" y="21.71"/><use xlink:href="#15" y="23.881"/><use xlink:href="#1" y="26.052"/><use xlink:href="#4" y="28.223"/><use xlink:href="#5" y="30.394"/><use xlink:href="#16" y="32.565"/><use xlink:href="#17" y="34.736"/><use xlink:href="#18" y="36.907"/><use xlink:href="#19" y="39.078"/><use xlink:href="#1" y="41.249"/><text y="45.09" class="d">$</text><text x="2.004" y="45.09" class="d">e</text></svg><svg x="4148"><use xlink:href="#a"/><use xlink:href="#b" x="3.996" y="43.395"/><use xlink:href="#5"/><use xlink:href="#7" y="2.171"/><use xlink:href="#8" y="4.342"/><use xlink:href="#10" y="6.513"/><use xlink:href="#11" y="8.684"/><use xlink:href="#1" y="10.855"/><use xlink:href="#4" y="13.026"/><use xlink:href="#5" y="15.197"/><use xlink:href="#12" y="17.368"/><use xlink:href="#13" y="19.539"/><use xlink:href="#14" y="21.71"/><use xlink:href="#15" y="23.881"/><use xlink:href="#1" y="26.052"/><use xlink:href="#4" y="28.223"/><use xlink:href="#5" y="30.394"/><use xlink:href="#16" y="32.565"/><use xlink:href="#17" y="34.736"/><use xlink:href="#18" y="36.907"/><use xlink:href="#19" y="39.078"/><use xlink:href="#1" y="41.249"/><text y="45.09" class="d">$</text><text x="2.004" y="45.09" class="d">ex</text></svg><svg x="4216"><use xlink:href="#a"/><use xlink:href="#b" x="4.996" y="43.395"/><use xlink:href="#5"/><use xlink:href="#7" y="2.171"/><use xlink:href="#8" y="4.342"/><use xlink:href="#10" y="6.513"/><use xlink:href="#11" y="8.684"/><use xlink:href="#1" y="10.855"/><use xlink:href="#4" y="13.026"/><use xlink:href="#5" y="15.197"/><use xlink:href="#12" y="17.368"/><use xlink:href="#13" y="19.539"/><use xlink:href="#14" y="21.71"/><use xlink:href="#15" y="23.881"/><use xlink:href="#1" y="26.052"/><use xlink:href="#4" y="28.223"/><use xlink:href="#5" y="30.394"/><use xlink:href="#16" y="32.565"/><use xlink:href="#17" y="34.736"/><use xlink:href="#18" y="36.907"/><use xlink:href="#19" y="39.078"/><use xlink:href="#1" y="41.249"/><text y="45.09" class="d">$</text><text x="2.004" y="45.09" class="d">exi</text></svg><svg x="4284"><use xlink:href="#a"/><use xlink:href="#b" x="5.996" y="43.395"/><use xlink:href="#5"/><use xlink:href="#7" y="2.171"/><use xlink:href="#8" y="4.342"/><use xlink:href="#10" y="6.513"/><use xlink:href="#11" y="8.684"/><use xlink:href="#1" y="10.855"/><use xlink:href="#4" y="13.026"/><use xlink:href="#5" y="15.197"/><use xlink:href="#12" y="17.368"/><use xlink:href="#13" y="19.539"/><use xlink:href="#14" y="21.71"/><use xlink:href="#15" y="23.881"/><use xlink:href="#1" y="26.052"/><use xlink:href="#4" y="28.223"/><use xlink:href="#5" y="30.394"/><use xlink:href="#16" y="32.565"/><use xlink:href="#17" y="34.736"/><use xlink:href="#18" y="36.907"/><use xlink:href="#19" y="39.078"/><use xlink:href="#1" y="41.249"/><use xlink:href="#20" y="43.42"/></svg><svg x="4352"><use xlink:href="#a"/><use xlink:href="#b" x="-.004" y="43.395"/><use xlink:href="#7"/><use xlink:href="#8" y="2.171"/><use xlink:href="#10" y="4.342"/><use xlink:href="#11" y="6.513"/><use xlink:href="#1" y="8.684"/><use xlink:href="#4" y="10.855"/><use xlink:href="#5" y="13.026"/><use xlink:href="#12" y="15.197"/><use xlink:href="#13" y="17.368"/><use xlink:href="#14" y="19.539"/><use xlink:href="#15" y="21.71"/><use xlink:href="#1" y="23.881"/><use xlink:href="#4" y="26.052"/><use xlink:href="#5" y="28.223"/><use xlink:href="#16" y="30.394"/><use xlink:href="#17" y="32.565"/><use xlink:href="#18" y="34.736"/><use xlink:href="#19" y="36.907"/><use xlink:href="#1" y="39.078"/><use xlink:href="#20" y="41.249"/></svg><svg x="4420"><use xlink:href="#a"/><use xlink:href="#b" x="-.004" y="43.395"/><use xlink:href="#8"/><use xlink:href="#10" y="2.171"/><use xlink:href="#11" y="4.342"/><use xlink:href="#1" y="6.513"/><use xlink:href="#4" y="8.684"/><use xlink:href="#5" y="10.855"/><use xlink:href="#12" y="13.026"/><use xlink:href="#13" y="15.197"/><use xlink:href="#14" y="17.368"/><use xlink:href="#15" y="19.539"/><use xlink:href="#1" y="21.71"/><use xlink:href="#4" y="23.881"/><use xlink:href="#5" y="26.052"/><use xlink:href="#16" y="28.223"/><use xlink:href="#17" y="30.394"/><use xlink:href="#18" y="32.565"/><use xlink:href="#19" y="34.736"/><use xlink:href="#1" y="36.907"/><use xlink:href="#20" y="39.078"/><text y="42.919" class="d">exit</text></svg></svg></g></g></svg></svg>