<svg xmlns="http://www.w3.org/2000/svg" xmlns:xlink="http://www.w3.org/1999/xlink" width="1110" height="434.2"><rect width="1110" height="434.2" rx="0" ry="0" class="a"/><svg height="434.2" viewBox="0 0 111 43.42" width="1110" xmlns="http://www.w3.org/2000/svg" xmlns:xlink="http://www.w3.org/1999/xlink"><style>@keyframes h{0%{transform:translateX(0)}.1%{transform:translateX(-111px)}1.58%{transform:translateX(-222px)}2.16%{transform:translateX(-333px)}2.69%{transform:translateX(-444px)}2.97%{transform:translateX(-555px)}3.24%{transform:translateX(-666px)}3.4%{transform:translateX(-777px)}3.85%{transform:translateX(-888px)}4.59%{transform:translateX(-999px)}6.01%{transform:translateX(-1110px)}6.35%{transform:translateX(-1221px)}6.63%{transform:translateX(-1332px)}7.06%{transform:translateX(-1443px)}10.03%{transform:translateX(-1554px)}10.07%{transform:translateX(-1776px)}18.52%{transform:translateX(-1887px)}19.96%{transform:translateX(-2109px)}25.56%{transform:translateX(-2220px)}26.83%{transform:translateX(-2442px)}33.36%{transform:translateX(-2553px)}34.49%{transform:translateX(-2775px)}36.55%{transform:translateX(-2886px)}37.71%{transform:translateX(-3219px)}41.83%{transform:translateX(-3330px)}42.61%{transform:translateX(-3552px)}43.52%{transform:translateX(-3663px)}44.21%{transform:translateX(-3885px)}49.45%{transform:translateX(-3996px)}50.41%{transform:translateX(-4218px)}52.49%{transform:translateX(-4329px)}53.35%{transform:translateX(-4440px)}59.51%{transform:translateX(-4551px)}60.08%{transform:translateX(-4773px)}62.18%{transform:translateX(-4884px)}62.66%{transform:translateX(-5328px)}65.65%{transform:translateX(-5439px)}66.35%{transform:translateX(-5661px)}69.07%{transform:translateX(-5772px)}70.68%{transform:translateX(-5994px)}74.05%{transform:translateX(-6105px)}74.58%{transform:translateX(-6438px)}77.01%{transform:translateX(-6549px)}77.65%{transform:translateX(-6771px)}79.5%{transform:translateX(-6882px)}81.38%{transform:translateX(-7104px)}84.74%{transform:translateX(-7215px)}85.32%{transform:translateX(-7326px)}86.24%{transform:translateX(-7437px)}89.17%{transform:translateX(-7659px)}91.98%{transform:translateX(-7770px)}92.75%{transform:translateX(-7992px)}94.41%{transform:translateX(-8103px)}95.2%{transform:translateX(-8325px)}95.22%{transform:translateX(-8436px)}to{transform:translateX(-8658px)}}.a{fill:#282d35}.d{fill:#b9c0cb;white-space:pre}</style><g font-family="Monaco,Consolas,Menlo,'Bitstream Vera Sans Mono','Powerline Symbols',monospace" font-size="1.67"><defs><symbol id="1"><text y="1.67" style="white-space:pre" fill="#a8cc8c" font-weight="700">tgwtg@zepo</text><text x="10.02" y="1.67" class="d">:</text><text x="11.022" y="1.67" style="white-space:pre" fill="#71bef2" font-weight="700">~/workspace/exercises</text></symbol><symbol id="2"><text y="1.67" class="d">$</text></symbol><symbol id="3"><text y="1.67" class="d">$</text><text x="2.004" y="1.67" class="d">python3</text></symbol><symbol id="4"><text y="1.67" class="d">$</text><text x="2.004" y="1.67" class="d">python3</text><text x="10.02" y="1.67" class="d">alien_investigators.py</text></symbol><symbol id="5"><text y="1.67" class="d">There</text><text x="6.012" y="1.67" class="d">have</text><text x="11.022" y="1.67" class="d">reports</text><text x="19.038" y="1.67" class="d">of</text><text x="22.044" y="1.67" class="d">strange</text><text x="30.06" y="1.67" class="d">lights</text><text x="37.074" y="1.67" class="d">in</text><text x="40.08" y="1.67" class="d">the</text><text x="44.088" y="1.67" class="d">forest.</text></symbol><symbol id="6"><text y="1.67" class="d">The</text><text x="4.008" y="1.67" class="d">locals</text><text x="11.022" y="1.67" class="d">believe</text><text x="19.038" y="1.67" class="d">aliens</text><text x="26.052" y="1.67" class="d">have</text><text x="31.062" y="1.67" class="d">landed</text><text x="38.076" y="1.67" class="d">and</text><text x="42.084" y="1.67" class="d">are</text><text x="46.092" y="1.67" class="d">trying</text><text x="53.106" y="1.67" class="d">to</text><text x="56.112" y="1.67" class="d">recruit</text><text x="64.128" y="1.67" class="d">woodland</text><text x="73.146" y="1.67" class="d">creatures</text><text x="83.166" y="1.67" class="d">for</text><text x="87.174" y="1.67" class="d">their</text><text x="93.186" y="1.67" class="d">dastardly</text><text x="103.206" y="1.67" class="d">schemes.</text></symbol><symbol id="7"><text y="1.67" class="d">Your</text><text x="5.01" y="1.67" class="d">job</text><text x="9.018" y="1.67" class="d">is</text><text x="12.024" y="1.67" class="d">to</text><text x="15.03" y="1.67" class="d">assemble</text><text x="24.048" y="1.67" class="d">a</text><text x="26.052" y="1.67" class="d">team</text><text x="31.062" y="1.67" class="d">of</text><text x="34.068" y="1.67" class="d">investigators</text><text x="48.096" y="1.67" class="d">to</text><text x="51.102" y="1.67" class="d">check</text><text x="57.114" y="1.67" class="d">out</text><text x="61.122" y="1.67" class="d">the</text><text x="65.13" y="1.67" class="d">forest</text><text x="72.144" y="1.67" class="d">to</text><text x="75.15" y="1.67" class="d">find</text><text x="80.16" y="1.67" class="d">out</text><text x="84.168" y="1.67" class="d">what&apos;s</text><text x="91.182" y="1.67" class="d">really</text><text x="98.196" y="1.67" class="d">going</text><text x="104.208" y="1.67" class="d">on.</text></symbol><symbol id="8"><text y="1.67" class="d">---</text></symbol><symbol id="9"><text y="1.67" class="d">Include</text><text x="8.016" y="1.67" class="d">&apos;Harvey</text><text x="16.032" y="1.67" class="d">(Physicist)&apos;?</text><text x="30.06" y="1.67" class="d">(y/n)</text><text x="36.072" y="1.67" class="d">y</text></symbol><symbol id="10"><text y="1.67" class="d">Should</text><text x="7.014" y="1.67" class="d">&apos;Harvey</text><text x="15.03" y="1.67" class="d">(Physicist)&apos;</text><text x="28.056" y="1.67" class="d">be</text><text x="31.062" y="1.67" class="d">the</text><text x="35.07" y="1.67" class="d">team</text><text x="40.08" y="1.67" class="d">leader?</text><text x="48.096" y="1.67" class="d">y</text></symbol><symbol id="11"><text y="1.67" class="d">Team</text><text x="5.01" y="1.67" class="d">so</text><text x="8.016" y="1.67" class="d">far:</text></symbol><symbol id="12"><text x="2.004" y="1.67" class="d">Harvey</text><text x="9.018" y="1.67" class="d">(Physicist)</text></symbol><symbol id="13"><text y="1.67" class="d">Include</text><text x="8.016" y="1.67" class="d">&apos;Wendy</text><text x="15.03" y="1.67" class="d">(Has</text><text x="20.04" y="1.67" class="d">a</text><text x="22.044" y="1.67" class="d">really</text><text x="29.058" y="1.67" class="d">good</text><text x="34.068" y="1.67" class="d">flashlight)&apos;?</text><text x="48.096" y="1.67" class="d">(y/n)</text><text x="54.108" y="1.67" class="d">y</text></symbol><symbol id="14"><text y="1.67" class="d">Should</text><text x="7.014" y="1.67" class="d">&apos;Wendy</text><text x="14.028" y="1.67" class="d">(Has</text><text x="19.038" y="1.67" class="d">a</text><text x="21.042" y="1.67" class="d">really</text><text x="28.056" y="1.67" class="d">good</text><text x="33.066" y="1.67" class="d">flashlight)&apos;</text><text x="46.092" y="1.67" class="d">be</text><text x="49.098" y="1.67" class="d">the</text><text x="53.106" y="1.67" class="d">team</text><text x="58.116" y="1.67" class="d">leader?</text><text x="66.132" y="1.67" class="d">n</text></symbol><symbol id="15"><text x="2.004" y="1.67" class="d">Wendy</text><text x="8.016" y="1.67" class="d">(Has</text><text x="13.026" y="1.67" class="d">a</text><text x="15.03" y="1.67" class="d">really</text><text x="22.044" y="1.67" class="d">good</text><text x="27.054" y="1.67" class="d">flashlight)</text></symbol><symbol id="16"><text y="1.67" class="d">Include</text><text x="8.016" y="1.67" class="d">&apos;Andre</text><text x="15.03" y="1.67" class="d">(Owns</text><text x="21.042" y="1.67" class="d">the</text><text x="25.05" y="1.67" class="d">forest)&apos;?</text><text x="35.07" y="1.67" class="d">(y/n)</text><text x="41.082" y="1.67" class="d">y</text></symbol><symbol id="17"><text y="1.67" class="d">Should</text><text x="7.014" y="1.67" class="d">&apos;Andre</text><text x="14.028" y="1.67" class="d">(Owns</text><text x="20.04" y="1.67" class="d">the</text><text x="24.048" y="1.67" class="d">forest)&apos;</text><text x="33.066" y="1.67" class="d">be</text><text x="36.072" y="1.67" class="d">the</text><text x="40.08" y="1.67" class="d">team</text><text x="45.09" y="1.67" class="d">leader?</text><text x="53.106" y="1.67" class="d">n</text></symbol><symbol id="18"><text x="2.004" y="1.67" class="d">Andre</text><text x="8.016" y="1.67" class="d">(Owns</text><text x="14.028" y="1.67" class="d">the</text><text x="18.036" y="1.67" class="d">forest)</text></symbol><symbol id="19"><text y="1.67" class="d">Include</text><text x="8.016" y="1.67" class="d">&apos;Julie</text><text x="15.03" y="1.67" class="d">(Biologist)&apos;?</text><text x="29.058" y="1.67" class="d">(y/n)</text><text x="35.07" y="1.67" class="d">y</text></symbol><symbol id="20"><text x="2.004" y="1.67" class="d">Julie</text><text x="8.016" y="1.67" class="d">(Biologist)</text></symbol><symbol id="21"><text y="1.67" class="d">Include</text><text x="8.016" y="1.67" class="d">&apos;Cleetus</text><text x="17.034" y="1.67" class="d">(Self-proclaimed</text><text x="34.068" y="1.67" class="d">expert</text><text x="41.082" y="1.67" class="d">on</text><text x="44.088" y="1.67" class="d">things)&apos;?</text><text x="54.108" y="1.67" class="d">(y/n)</text><text x="60.12" y="1.67" class="d">y</text></symbol><symbol id="22"><text y="1.67" class="d">Should</text><text x="7.014" y="1.67" class="d">&apos;Cleetus</text><text x="16.032" y="1.67" class="d">(Self-proclaimed</text><text x="33.066" y="1.67" class="d">expert</text><text x="40.08" y="1.67" class="d">on</text><text x="43.086" y="1.67" class="d">things)&apos;</text><text x="52.104" y="1.67" class="d">be</text><text x="55.11" y="1.67" class="d">the</text><text x="59.118" y="1.67" class="d">team</text><text x="64.128" y="1.67" class="d">leader?</text><text x="72.144" y="1.67" class="d">n</text></symbol><symbol id="23"><text x="2.004" y="1.67" class="d">Cleetus</text><text x="10.02" y="1.67" class="d">(Self-proclaimed</text><text x="27.054" y="1.67" class="d">expert</text><text x="34.068" y="1.67" class="d">on</text><text x="37.074" y="1.67" class="d">things)</text></symbol><symbol id="24"><text y="1.67" class="d">Include</text><text x="8.016" y="1.67" class="d">&apos;Marlowe</text><text x="17.034" y="1.67" class="d">(Private</text><text x="26.052" y="1.67" class="d">Investigator)&apos;?</text><text x="42.084" y="1.67" class="d">(y/n)</text><text x="48.096" y="1.67" class="d">n</text></symbol><symbol id="25"><text y="1.67" class="d">Include</text><text x="8.016" y="1.67" class="d">&apos;Brian</text><text x="15.03" y="1.67" class="d">(Talks</text><text x="22.044" y="1.67" class="d">to</text><text x="25.05" y="1.67" class="d">animals)&apos;?</text><text x="36.072" y="1.67" class="d">(y/n)</text><text x="42.084" y="1.67" class="d">n</text></symbol><symbol id="26"><text y="1.67" class="d">Include</text><text x="8.016" y="1.67" class="d">&apos;Joan</text><text x="14.028" y="1.67" class="d">(Zealot)&apos;?</text><text x="25.05" y="1.67" class="d">(y/n)</text><text x="31.062" y="1.67" class="d">n</text></symbol><symbol id="27"><text y="1.67" class="d">Include</text><text x="8.016" y="1.67" class="d">&apos;Winston</text><text x="17.034" y="1.67" class="d">(Agreed</text><text x="25.05" y="1.67" class="d">to</text><text x="28.056" y="1.67" class="d">be</text><text x="31.062" y="1.67" class="d">alien</text><text x="37.074" y="1.67" class="d">bait)&apos;?</text><text x="45.09" y="1.67" class="d">(y/n)</text><text x="51.102" y="1.67" class="d">y</text></symbol><symbol id="28"><text y="1.67" class="d">Should</text><text x="7.014" y="1.67" class="d">&apos;Winston</text><text x="16.032" y="1.67" class="d">(Agreed</text><text x="24.048" y="1.67" class="d">to</text><text x="27.054" y="1.67" class="d">be</text><text x="30.06" y="1.67" class="d">alien</text><text x="36.072" y="1.67" class="d">bait)&apos;</text><text x="43.086" y="1.67" class="d">be</text><text x="46.092" y="1.67" class="d">the</text><text x="50.1" y="1.67" class="d">team</text><text x="55.11" y="1.67" class="d">leader?</text><text x="63.126" y="1.67" class="d">n</text></symbol><symbol id="29"><text x="2.004" y="1.67" class="d">Winston</text><text x="10.02" y="1.67" class="d">(Agreed</text><text x="18.036" y="1.67" class="d">to</text><text x="21.042" y="1.67" class="d">be</text><text x="24.048" y="1.67" class="d">alien</text><text x="30.06" y="1.67" class="d">bait)</text></symbol><symbol id="30"><text y="1.67" class="d">Include</text><text x="8.016" y="1.67" class="d">&apos;Landrel</text><text x="17.034" y="1.67" class="d">(Anthropologist)&apos;?</text><text x="36.072" y="1.67" class="d">(y/n)</text><text x="42.084" y="1.67" class="d">y</text></symbol><symbol id="31"><text y="1.67" class="d">Should</text><text x="7.014" y="1.67" class="d">&apos;Landrel</text><text x="16.032" y="1.67" class="d">(Anthropologist)&apos;</text><text x="34.068" y="1.67" class="d">be</text><text x="37.074" y="1.67" class="d">the</text><text x="41.082" y="1.67" class="d">team</text><text x="46.092" y="1.67" class="d">leader?</text><text x="54.108" y="1.67" class="d">y</text></symbol><symbol id="32"><text x="2.004" y="1.67" class="d">Landrel</text><text x="10.02" y="1.67" class="d">(Anthropologist)</text></symbol><symbol id="33"><text y="1.67" class="d">Include</text><text x="8.016" y="1.67" class="d">&apos;Marvin</text><text x="16.032" y="1.67" class="d">(Photographer)&apos;?</text><text x="33.066" y="1.67" class="d">(y/n)</text><text x="39.078" y="1.67" class="d">n</text></symbol><symbol id="34"><text y="1.67" class="d">Team</text><text x="5.01" y="1.67" class="d">Leader:</text><text x="13.026" y="1.67" class="d">Landrel</text><text x="21.042" y="1.67" class="d">(Anthropologist)</text></symbol><symbol id="35"><text y="1.67" class="d">And</text><text x="4.008" y="1.67" class="d">the</text><text x="8.016" y="1.67" class="d">rest</text><text x="13.026" y="1.67" class="d">of</text><text x="16.032" y="1.67" class="d">the</text><text x="20.04" y="1.67" class="d">team:</text></symbol><symbol id="a"><path fill="transparent" d="M0 0h111v20H0z"/></symbol><symbol id="b"><path fill="#6f7683" d="M0 0h1.102v2.171H0z"/></symbol></defs><path class="a" d="M0 0h111v43.42H0z"/><g style="animation-duration:51.938963s;animation-iteration-count:infinite;animation-name:h;animation-timing-function:steps(1,end)"><svg width="8769"><svg><use xlink:href="#a"/><use xlink:href="#b" x="-.004"/></svg><svg x="111"><use xlink:href="#a"/><use xlink:href="#b" x="1.996" y="2.146"/><use xlink:href="#1"/><use xlink:href="#2" y="2.171"/></svg><svg x="222"><use xlink:href="#a"/><use xlink:href="#b" x="2.996" y="2.146"/><use xlink:href="#1"/><text y="3.841" class="d">$</text><text x="2.004" y="3.841" class="d">p</text></svg><svg x="333"><use xlink:href="#a"/><use xlink:href="#b" x="3.996" y="2.146"/><use xlink:href="#1"/><text y="3.841" class="d">$</text><text x="2.004" y="3.841" class="d">py</text></svg><svg x="444"><use xlink:href="#a"/><use xlink:href="#b" x="4.996" y="2.146"/><use xlink:href="#1"/><text y="3.841" class="d">$</text><text x="2.004" y="3.841" class="d">pyt</text></svg><svg x="555"><use xlink:href="#a"/><use xlink:href="#b" x="5.996" y="2.146"/><use xlink:href="#1"/><text y="3.841" class="d">$</text><text x="2.004" y="3.841" class="d">pyth</text></svg><svg x="666"><use xlink:href="#a"/><use xlink:href="#b" x="6.996" y="2.146"/><use xlink:href="#1"/><text y="3.841" class="d">$</text><text x="2.004" y="3.841" class="d">pytho</text></svg><svg x="777"><use xlink:href="#a"/><use xlink:href="#b" x="7.996" y="2.146"/><use xlink:href="#1"/><text y="3.841" class="d">$</text><text x="2.004" y="3.841" class="d">python</text></svg><svg x="888"><use xlink:href="#a"/><use xlink:href="#b" x="8.996" y="2.146"/><use xlink:href="#1"/><use xlink:href="#3" y="2.171"/></svg><svg x="999"><use xlink:href="#a"/><use xlink:href="#b" x="9.996" y="2.146"/><use xlink:href="#1"/><use xlink:href="#3" y="2.171"/></svg><svg x="1110"><use xlink:href="#a"/><use xlink:href="#b" x="10.996" y="2.146"/><use xlink:href="#1"/><text y="3.841" class="d">$</text><text x="2.004" y="3.841" class="d">python3</text><text x="10.02" y="3.841" class="d">a</text></svg><svg x="1221"><use xlink:href="#a"/><use xlink:href="#b" x="11.996" y="2.146"/><use xlink:href="#1"/><text y="3.841" class="d">$</text><text x="2.004" y="3.841" class="d">python3</text><text x="10.02" y="3.841" class="d">al</text></svg><svg x="1332"><use xlink:href="#a"/><use xlink:href="#b" x="12.996" y="2.146"/><use xlink:href="#1"/><text y="3.841" class="d">$</text><text x="2.004" y="3.841" class="d">python3</text><text x="10.02" y="3.841" class="d">ali</text></svg><svg x="1443"><use xlink:href="#a"/><use xlink:href="#b" x="32.996" y="2.146"/><use xlink:href="#1"/><use xlink:href="#4" y="2.171"/></svg><svg x="1554"><use xlink:href="#a"/><use xlink:href="#b" x="-.004" y="4.317"/><use xlink:href="#1"/><use xlink:href="#4" y="2.171"/></svg><svg x="1665"><use xlink:href="#a"/><use xlink:href="#b" x="-.004" y="13.001"/><use xlink:href="#5" y="2.171"/><use xlink:href="#6" y="4.342"/><use xlink:href="#7" y="6.513"/><use xlink:href="#8" y="8.684"/></svg><svg x="1776"><use xlink:href="#a"/><use xlink:href="#b" x="35.996" y="13.001"/><use xlink:href="#5" y="2.171"/><use xlink:href="#6" y="4.342"/><use xlink:href="#7" y="6.513"/><use xlink:href="#8" y="8.684"/><text y="14.696" class="d">Include</text><text x="8.016" y="14.696" class="d">&apos;Harvey</text><text x="16.032" y="14.696" class="d">(Physicist)&apos;?</text><text x="30.06" y="14.696" class="d">(y/n)</text></svg><svg x="1887"><use xlink:href="#a"/><use xlink:href="#b" x="36.996" y="13.001"/><use xlink:href="#5" y="2.171"/><use xlink:href="#6" y="4.342"/><use xlink:href="#7" y="6.513"/><use xlink:href="#8" y="8.684"/><use xlink:href="#9" y="13.026"/></svg><svg x="1998"><use xlink:href="#a"/><use xlink:href="#b" x="-.004" y="15.172"/><use xlink:href="#5" y="2.171"/><use xlink:href="#6" y="4.342"/><use xlink:href="#7" y="6.513"/><use xlink:href="#8" y="8.684"/><use xlink:href="#9" y="13.026"/></svg><svg x="2109"><use xlink:href="#a"/><use xlink:href="#b" x="47.996" y="15.172"/><use xlink:href="#5" y="2.171"/><use xlink:href="#6" y="4.342"/><use xlink:href="#7" y="6.513"/><use xlink:href="#8" y="8.684"/><use xlink:href="#9" y="13.026"/><text y="16.867" class="d">Should</text><text x="7.014" y="16.867" class="d">&apos;Harvey</text><text x="15.03" y="16.867" class="d">(Physicist)&apos;</text><text x="28.056" y="16.867" class="d">be</text><text x="31.062" y="16.867" class="d">the</text><text x="35.07" y="16.867" class="d">team</text><text x="40.08" y="16.867" class="d">leader?</text></svg><svg x="2220"><use xlink:href="#a"/><use xlink:href="#b" x="48.996" y="15.172"/><use xlink:href="#5" y="2.171"/><use xlink:href="#6" y="4.342"/><use xlink:href="#7" y="6.513"/><use xlink:href="#8" y="8.684"/><use xlink:href="#9" y="13.026"/><use xlink:href="#10" y="15.197"/></svg><svg x="2331"><use xlink:href="#a"/><use xlink:href="#b" x="-.004" y="17.343"/><use xlink:href="#5" y="2.171"/><use xlink:href="#6" y="4.342"/><use xlink:href="#7" y="6.513"/><use xlink:href="#8" y="8.684"/><use xlink:href="#9" y="13.026"/><use xlink:href="#10" y="15.197"/></svg><svg x="2442"><use xlink:href="#a"/><use xlink:href="#b" x="53.996" y="8.659"/><use xlink:href="#11" y="2.171"/><use xlink:href="#12" y="4.342"/><text y="10.354" class="d">Include</text><text x="8.016" y="10.354" class="d">&apos;Wendy</text><text x="15.03" y="10.354" class="d">(Has</text><text x="20.04" y="10.354" class="d">a</text><text x="22.044" y="10.354" class="d">really</text><text x="29.058" y="10.354" class="d">good</text><text x="34.068" y="10.354" class="d">flashlight)&apos;?</text><text x="48.096" y="10.354" class="d">(y/n)</text></svg><svg x="2553"><use xlink:href="#a"/><use xlink:href="#b" x="54.996" y="8.659"/><use xlink:href="#11" y="2.171"/><use xlink:href="#12" y="4.342"/><use xlink:href="#13" y="8.684"/></svg><svg x="2664"><use xlink:href="#a"/><use xlink:href="#b" x="-.004" y="10.83"/><use xlink:href="#11" y="2.171"/><use xlink:href="#12" y="4.342"/><use xlink:href="#13" y="8.684"/></svg><svg x="2775"><use xlink:href="#a"/><use xlink:href="#b" x="65.996" y="10.83"/><use xlink:href="#11" y="2.171"/><use xlink:href="#12" y="4.342"/><use xlink:href="#13" y="8.684"/><text y="12.525" class="d">Should</text><text x="7.014" y="12.525" class="d">&apos;Wendy</text><text x="14.028" y="12.525" class="d">(Has</text><text x="19.038" y="12.525" class="d">a</text><text x="21.042" y="12.525" class="d">really</text><text x="28.056" y="12.525" class="d">good</text><text x="33.066" y="12.525" class="d">flashlight)&apos;</text><text x="46.092" y="12.525" class="d">be</text><text x="49.098" y="12.525" class="d">the</text><text x="53.106" y="12.525" class="d">team</text><text x="58.116" y="12.525" class="d">leader?</text></svg><svg x="2886"><use xlink:href="#a"/><use xlink:href="#b" x="66.996" y="10.83"/><use xlink:href="#11" y="2.171"/><use xlink:href="#12" y="4.342"/><use xlink:href="#13" y="8.684"/><use xlink:href="#14" y="10.855"/></svg><svg x="2997"><use xlink:href="#a"/><use xlink:href="#b" x="-.004" y="13.001"/><use xlink:href="#11" y="2.171"/><use xlink:href="#12" y="4.342"/><use xlink:href="#13" y="8.684"/><use xlink:href="#14" y="10.855"/></svg><svg x="3108"><use xlink:href="#a"/><use xlink:href="#b" x="-.004" y="10.83"/><use xlink:href="#11" y="2.171"/><use xlink:href="#12" y="4.342"/><use xlink:href="#15" y="6.513"/></svg><svg x="3219"><use xlink:href="#a"/><use xlink:href="#b" x="40.996" y="10.83"/><use xlink:href="#11" y="2.171"/><use xlink:href="#12" y="4.342"/><use xlink:href="#15" y="6.513"/><text y="12.525" class="d">Include</text><text x="8.016" y="12.525" class="d">&apos;Andre</text><text x="15.03" y="12.525" class="d">(Owns</text><text x="21.042" y="12.525" class="d">the</text><text x="25.05" y="12.525" class="d">forest)&apos;?</text><text x="35.07" y="12.525" class="d">(y/n)</text></svg><svg x="3330"><use xlink:href="#a"/><use xlink:href="#b" x="41.996" y="10.83"/><use xlink:href="#11" y="2.171"/><use xlink:href="#12" y="4.342"/><use xlink:href="#15" y="6.513"/><use xlink:href="#16" y="10.855"/></svg><svg x="3441"><use xlink:href="#a"/><use xlink:href="#b" x="-.004" y="13.001"/><use xlink:href="#11" y="2.171"/><use xlink:href="#12" y="4.342"/><use xlink:href="#15" y="6.513"/><use xlink:href="#16" y="10.855"/></svg><svg x="3552"><use xlink:href="#a"/><use xlink:href="#b" x="52.996" y="13.001"/><use xlink:href="#11" y="2.171"/><use xlink:href="#12" y="4.342"/><use xlink:href="#15" y="6.513"/><use xlink:href="#16" y="10.855"/><text y="14.696" class="d">Should</text><text x="7.014" y="14.696" class="d">&apos;Andre</text><text x="14.028" y="14.696" class="d">(Owns</text><text x="20.04" y="14.696" class="d">the</text><text x="24.048" y="14.696" class="d">forest)&apos;</text><text x="33.066" y="14.696" class="d">be</text><text x="36.072" y="14.696" class="d">the</text><text x="40.08" y="14.696" class="d">team</text><text x="45.09" y="14.696" class="d">leader?</text></svg><svg x="3663"><use xlink:href="#a"/><use xlink:href="#b" x="53.996" y="13.001"/><use xlink:href="#11" y="2.171"/><use xlink:href="#12" y="4.342"/><use xlink:href="#15" y="6.513"/><use xlink:href="#16" y="10.855"/><use xlink:href="#17" y="13.026"/></svg><svg x="3774"><use xlink:href="#a"/><use xlink:href="#b" x="-.004" y="15.172"/><use xlink:href="#11" y="2.171"/><use xlink:href="#12" y="4.342"/><use xlink:href="#15" y="6.513"/><use xlink:href="#16" y="10.855"/><use xlink:href="#17" y="13.026"/></svg><svg x="3885"><use xlink:href="#a"/><use xlink:href="#b" x="34.996" y="13.001"/><use xlink:href="#11" y="2.171"/><use xlink:href="#12" y="4.342"/><use xlink:href="#15" y="6.513"/><use xlink:href="#18" y="8.684"/><text y="14.696" class="d">Include</text><text x="8.016" y="14.696" class="d">&apos;Julie</text><text x="15.03" y="14.696" class="d">(Biologist)&apos;?</text><text x="29.058" y="14.696" class="d">(y/n)</text></svg><svg x="3996"><use xlink:href="#a"/><use xlink:href="#b" x="35.996" y="13.001"/><use xlink:href="#11" y="2.171"/><use xlink:href="#12" y="4.342"/><use xlink:href="#15" y="6.513"/><use xlink:href="#18" y="8.684"/><use xlink:href="#19" y="13.026"/></svg><svg x="4107"><use xlink:href="#a"/><use xlink:href="#b" x="-.004" y="15.172"/><use xlink:href="#11" y="2.171"/><use xlink:href="#12" y="4.342"/><use xlink:href="#15" y="6.513"/><use xlink:href="#18" y="8.684"/><use xlink:href="#19" y="13.026"/></svg><svg x="4218"><use xlink:href="#a"/><use xlink:href="#b" x="46.996" y="15.172"/><use xlink:href="#11" y="2.171"/><use xlink:href="#12" y="4.342"/><use xlink:href="#15" y="6.513"/><use xlink:href="#18" y="8.684"/><use xlink:href="#19" y="13.026"/><text y="16.867" class="d">Should</text><text x="7.014" y="16.867" class="d">&apos;Julie</text><text x="14.028" y="16.867" class="d">(Biologist)&apos;</text><text x="27.054" y="16.867" class="d">be</text><text x="30.06" y="16.867" class="d">the</text><text x="34.068" y="16.867" class="d">team</text><text x="39.078" y="16.867" class="d">leader?</text></svg><svg x="4329"><use xlink:href="#a"/><use xlink:href="#b" x="47.996" y="15.172"/><use xlink:href="#11" y="2.171"/><use xlink:href="#12" y="4.342"/><use xlink:href="#15" y="6.513"/><use xlink:href="#18" y="8.684"/><use xlink:href="#19" y="13.026"/><text y="16.867" class="d">Should</text><text x="7.014" y="16.867" class="d">&apos;Julie</text><text x="14.028" y="16.867" class="d">(Biologist)&apos;</text><text x="27.054" y="16.867" class="d">be</text><text x="30.06" y="16.867" class="d">the</text><text x="34.068" y="16.867" class="d">team</text><text x="39.078" y="16.867" class="d">leader?</text><text x="47.094" y="16.867" class="d">y</text></svg><svg x="4440"><use xlink:href="#a"/><use xlink:href="#b" x="59.996" y="15.172"/><use xlink:href="#11" y="2.171"/><use xlink:href="#20" y="4.342"/><use xlink:href="#12" y="6.513"/><use xlink:href="#15" y="8.684"/><use xlink:href="#18" y="10.855"/><text y="16.867" class="d">Include</text><text x="8.016" y="16.867" class="d">&apos;Cleetus</text><text x="17.034" y="16.867" class="d">(Self-proclaimed</text><text x="34.068" y="16.867" class="d">expert</text><text x="41.082" y="16.867" class="d">on</text><text x="44.088" y="16.867" class="d">things)&apos;?</text><text x="54.108" y="16.867" class="d">(y/n)</text></svg><svg x="4551"><use xlink:href="#a"/><use xlink:href="#b" x="60.996" y="15.172"/><use xlink:href="#11" y="2.171"/><use xlink:href="#20" y="4.342"/><use xlink:href="#12" y="6.513"/><use xlink:href="#15" y="8.684"/><use xlink:href="#18" y="10.855"/><use xlink:href="#21" y="15.197"/></svg><svg x="4662"><use xlink:href="#a"/><use xlink:href="#b" x="-.004" y="17.343"/><use xlink:href="#11" y="2.171"/><use xlink:href="#20" y="4.342"/><use xlink:href="#12" y="6.513"/><use xlink:href="#15" y="8.684"/><use xlink:href="#18" y="10.855"/><use xlink:href="#21" y="15.197"/></svg><svg x="4773"><use xlink:href="#a"/><use xlink:href="#b" x="71.996" y="17.343"/><use xlink:href="#11" y="2.171"/><use xlink:href="#20" y="4.342"/><use xlink:href="#12" y="6.513"/><use xlink:href="#15" y="8.684"/><use xlink:href="#18" y="10.855"/><use xlink:href="#21" y="15.197"/><text y="19.038" class="d">Should</text><text x="7.014" y="19.038" class="d">&apos;Cleetus</text><text x="16.032" y="19.038" class="d">(Self-proclaimed</text><text x="33.066" y="19.038" class="d">expert</text><text x="40.08" y="19.038" class="d">on</text><text x="43.086" y="19.038" class="d">things)&apos;</text><text x="52.104" y="19.038" class="d">be</text><text x="55.11" y="19.038" class="d">the</text><text x="59.118" y="19.038" class="d">team</text><text x="64.128" y="19.038" class="d">leader?</text></svg><svg x="4884"><use xlink:href="#a"/><use xlink:href="#b" x="72.996" y="17.343"/><use xlink:href="#11" y="2.171"/><use xlink:href="#20" y="4.342"/><use xlink:href="#12" y="6.513"/><use xlink:href="#15" y="8.684"/><use xlink:href="#18" y="10.855"/><use xlink:href="#21" y="15.197"/><use xlink:href="#22" y="17.368"/></svg><svg x="4995"><use xlink:href="#a"/><use xlink:href="#b" x="-.004" y="19.514"/><use xlink:href="#11" y="2.171"/><use xlink:href="#20" y="4.342"/><use xlink:href="#12" y="6.513"/><use xlink:href="#15" y="8.684"/><use xlink:href="#18" y="10.855"/><use xlink:href="#21" y="15.197"/><use xlink:href="#22" y="17.368"/></svg><svg x="5106"><use xlink:href="#a"/><use xlink:href="#b" x="-.004" y="13.001"/><use xlink:href="#11" y="2.171"/><use xlink:href="#20" y="4.342"/><use xlink:href="#12" y="6.513"/><use xlink:href="#15" y="8.684"/><use xlink:href="#18" y="10.855"/></svg><svg x="5217"><use xlink:href="#a"/><use xlink:href="#b" x="-.004" y="17.343"/><use xlink:href="#11" y="2.171"/><use xlink:href="#20" y="4.342"/><use xlink:href="#12" y="6.513"/><use xlink:href="#15" y="8.684"/><use xlink:href="#18" y="10.855"/><use xlink:href="#23" y="13.026"/></svg><svg x="5328"><use xlink:href="#a"/><use xlink:href="#b" x="47.996" y="17.343"/><use xlink:href="#11" y="2.171"/><use xlink:href="#20" y="4.342"/><use xlink:href="#12" y="6.513"/><use xlink:href="#15" y="8.684"/><use xlink:href="#18" y="10.855"/><use xlink:href="#23" y="13.026"/><text y="19.038" class="d">Include</text><text x="8.016" y="19.038" class="d">&apos;Marlowe</text><text x="17.034" y="19.038" class="d">(Private</text><text x="26.052" y="19.038" class="d">Investigator)&apos;?</text><text x="42.084" y="19.038" class="d">(y/n)</text></svg><svg x="5439"><use xlink:href="#a"/><use xlink:href="#b" x="48.996" y="17.343"/><use xlink:href="#11" y="2.171"/><use xlink:href="#20" y="4.342"/><use xlink:href="#12" y="6.513"/><use xlink:href="#15" y="8.684"/><use xlink:href="#18" y="10.855"/><use xlink:href="#23" y="13.026"/><use xlink:href="#24" y="17.368"/></svg><svg x="5550"><use xlink:href="#a"/><use xlink:href="#b" x="-.004" y="19.514"/><use xlink:href="#11" y="2.171"/><use xlink:href="#20" y="4.342"/><use xlink:href="#12" y="6.513"/><use xlink:href="#15" y="8.684"/><use xlink:href="#18" y="10.855"/><use xlink:href="#23" y="13.026"/><use xlink:href="#24" y="17.368"/></svg><svg x="5661"><use xlink:href="#a"/><use xlink:href="#b" x="41.996" y="17.343"/><use xlink:href="#11" y="2.171"/><use xlink:href="#20" y="4.342"/><use xlink:href="#12" y="6.513"/><use xlink:href="#15" y="8.684"/><use xlink:href="#18" y="10.855"/><use xlink:href="#23" y="13.026"/><text y="19.038" class="d">Include</text><text x="8.016" y="19.038" class="d">&apos;Brian</text><text x="15.03" y="19.038" class="d">(Talks</text><text x="22.044" y="19.038" class="d">to</text><text x="25.05" y="19.038" class="d">animals)&apos;?</text><text x="36.072" y="19.038" class="d">(y/n)</text></svg><svg x="5772"><use xlink:href="#a"/><use xlink:href="#b" x="42.996" y="17.343"/><use xlink:href="#11" y="2.171"/><use xlink:href="#20" y="4.342"/><use xlink:href="#12" y="6.513"/><use xlink:href="#15" y="8.684"/><use xlink:href="#18" y="10.855"/><use xlink:href="#23" y="13.026"/><use xlink:href="#25" y="17.368"/></svg><svg x="5883"><use xlink:href="#a"/><use xlink:href="#b" x="-.004" y="19.514"/><use xlink:href="#11" y="2.171"/><use xlink:href="#20" y="4.342"/><use xlink:href="#12" y="6.513"/><use xlink:href="#15" y="8.684"/><use xlink:href="#18" y="10.855"/><use xlink:href="#23" y="13.026"/><use xlink:href="#25" y="17.368"/></svg><svg x="5994"><use xlink:href="#a"/><use xlink:href="#b" x="30.996" y="17.343"/><use xlink:href="#11" y="2.171"/><use xlink:href="#20" y="4.342"/><use xlink:href="#12" y="6.513"/><use xlink:href="#15" y="8.684"/><use xlink:href="#18" y="10.855"/><use xlink:href="#23" y="13.026"/><text y="19.038" class="d">Include</text><text x="8.016" y="19.038" class="d">&apos;Joan</text><text x="14.028" y="19.038" class="d">(Zealot)&apos;?</text><text x="25.05" y="19.038" class="d">(y/n)</text></svg><svg x="6105"><use xlink:href="#a"/><use xlink:href="#b" x="31.996" y="17.343"/><use xlink:href="#11" y="2.171"/><use xlink:href="#20" y="4.342"/><use xlink:href="#12" y="6.513"/><use xlink:href="#15" y="8.684"/><use xlink:href="#18" y="10.855"/><use xlink:href="#23" y="13.026"/><use xlink:href="#26" y="17.368"/></svg><svg x="6216"><use xlink:href="#a"/><use xlink:href="#b" x="-.004" y="19.514"/><use xlink:href="#11" y="2.171"/><use xlink:href="#20" y="4.342"/><use xlink:href="#12" y="6.513"/><use xlink:href="#15" y="8.684"/><use xlink:href="#18" y="10.855"/><use xlink:href="#23" y="13.026"/><use xlink:href="#26" y="17.368"/></svg><svg x="6327"><use xlink:href="#a"/><use xlink:href="#b" x="-.004" y="17.343"/><use xlink:href="#11" y="2.171"/><use xlink:href="#20" y="4.342"/><use xlink:href="#12" y="6.513"/><use xlink:href="#15" y="8.684"/><use xlink:href="#18" y="10.855"/><use xlink:href="#23" y="13.026"/></svg><svg x="6438"><use xlink:href="#a"/><use xlink:href="#b" x="50.996" y="17.343"/><use xlink:href="#11" y="2.171"/><use xlink:href="#20" y="4.342"/><use xlink:href="#12" y="6.513"/><use xlink:href="#15" y="8.684"/><use xlink:href="#18" y="10.855"/><use xlink:href="#23" y="13.026"/><text y="19.038" class="d">Include</text><text x="8.016" y="19.038" class="d">&apos;Winston</text><text x="17.034" y="19.038" class="d">(Agreed</text><text x="25.05" y="19.038" class="d">to</text><text x="28.056" y="19.038" class="d">be</text><text x="31.062" y="19.038" class="d">alien</text><text x="37.074" y="19.038" class="d">bait)&apos;?</text><text x="45.09" y="19.038" class="d">(y/n)</text></svg><svg x="6549"><use xlink:href="#a"/><use xlink:href="#b" x="51.996" y="17.343"/><use xlink:href="#11" y="2.171"/><use xlink:href="#20" y="4.342"/><use xlink:href="#12" y="6.513"/><use xlink:href="#15" y="8.684"/><use xlink:href="#18" y="10.855"/><use xlink:href="#23" y="13.026"/><use xlink:href="#27" y="17.368"/></svg><svg x="6660"><use xlink:href="#a"/><use xlink:href="#b" x="-.004" y="19.514"/><use xlink:href="#11" y="2.171"/><use xlink:href="#20" y="4.342"/><use xlink:href="#12" y="6.513"/><use xlink:href="#15" y="8.684"/><use xlink:href="#18" y="10.855"/><use xlink:href="#23" y="13.026"/><use xlink:href="#27" y="17.368"/></svg><svg x="6771"><use xlink:href="#a"/><use xlink:href="#b" x="62.996" y="19.514"/><use xlink:href="#11" y="2.171"/><use xlink:href="#20" y="4.342"/><use xlink:href="#12" y="6.513"/><use xlink:href="#15" y="8.684"/><use xlink:href="#18" y="10.855"/><use xlink:href="#23" y="13.026"/><use xlink:href="#27" y="17.368"/><text y="21.209" class="d">Should</text><text x="7.014" y="21.209" class="d">&apos;Winston</text><text x="16.032" y="21.209" class="d">(Agreed</text><text x="24.048" y="21.209" class="d">to</text><text x="27.054" y="21.209" class="d">be</text><text x="30.06" y="21.209" class="d">alien</text><text x="36.072" y="21.209" class="d">bait)&apos;</text><text x="43.086" y="21.209" class="d">be</text><text x="46.092" y="21.209" class="d">the</text><text x="50.1" y="21.209" class="d">team</text><text x="55.11" y="21.209" class="d">leader?</text></svg><svg x="6882"><use xlink:href="#a"/><use xlink:href="#b" x="63.996" y="19.514"/><use xlink:href="#11" y="2.171"/><use xlink:href="#20" y="4.342"/><use xlink:href="#12" y="6.513"/><use xlink:href="#15" y="8.684"/><use xlink:href="#18" y="10.855"/><use xlink:href="#23" y="13.026"/><use xlink:href="#27" y="17.368"/><use xlink:href="#28" y="19.539"/></svg><svg x="6993"><use xlink:href="#a"/><use xlink:href="#b" x="-.004" y="21.685"/><use xlink:href="#11" y="2.171"/><use xlink:href="#20" y="4.342"/><use xlink:href="#12" y="6.513"/><use xlink:href="#15" y="8.684"/><use xlink:href="#18" y="10.855"/><use xlink:href="#23" y="13.026"/><use xlink:href="#27" y="17.368"/><use xlink:href="#28" y="19.539"/></svg><svg x="7104"><use xlink:href="#a"/><use xlink:href="#b" x="41.996" y="19.514"/><use xlink:href="#11" y="2.171"/><use xlink:href="#20" y="4.342"/><use xlink:href="#12" y="6.513"/><use xlink:href="#15" y="8.684"/><use xlink:href="#18" y="10.855"/><use xlink:href="#23" y="13.026"/><use xlink:href="#29" y="15.197"/><text y="21.209" class="d">Include</text><text x="8.016" y="21.209" class="d">&apos;Landrel</text><text x="17.034" y="21.209" class="d">(Anthropologist)&apos;?</text><text x="36.072" y="21.209" class="d">(y/n)</text></svg><svg x="7215"><use xlink:href="#a"/><use xlink:href="#b" x="42.996" y="19.514"/><use xlink:href="#11" y="2.171"/><use xlink:href="#20" y="4.342"/><use xlink:href="#12" y="6.513"/><use xlink:href="#15" y="8.684"/><use xlink:href="#18" y="10.855"/><use xlink:href="#23" y="13.026"/><use xlink:href="#29" y="15.197"/><use xlink:href="#30" y="19.539"/></svg><svg x="7326"><use xlink:href="#a"/><use xlink:href="#b" x="53.996" y="21.685"/><use xlink:href="#11" y="2.171"/><use xlink:href="#20" y="4.342"/><use xlink:href="#12" y="6.513"/><use xlink:href="#15" y="8.684"/><use xlink:href="#18" y="10.855"/><use xlink:href="#23" y="13.026"/><use xlink:href="#29" y="15.197"/><use xlink:href="#30" y="19.539"/><text y="23.38" class="d">Should</text><text x="7.014" y="23.38" class="d">&apos;Landrel</text><text x="16.032" y="23.38" class="d">(Anthropologist)&apos;</text><text x="34.068" y="23.38" class="d">be</text><text x="37.074" y="23.38" class="d">the</text><text x="41.082" y="23.38" class="d">team</text><text x="46.092" y="23.38" class="d">leader?</text></svg><svg x="7437"><use xlink:href="#a"/><use xlink:href="#b" x="54.996" y="21.685"/><use xlink:href="#11" y="2.171"/><use xlink:href="#20" y="4.342"/><use xlink:href="#12" y="6.513"/><use xlink:href="#15" y="8.684"/><use xlink:href="#18" y="10.855"/><use xlink:href="#23" y="13.026"/><use xlink:href="#29" y="15.197"/><use xlink:href="#30" y="19.539"/><use xlink:href="#31" y="21.71"/></svg><svg x="7548"><use xlink:href="#a"/><use xlink:href="#b" x="-.004" y="23.856"/><use xlink:href="#11" y="2.171"/><use xlink:href="#20" y="4.342"/><use xlink:href="#12" y="6.513"/><use xlink:href="#15" y="8.684"/><use xlink:href="#18" y="10.855"/><use xlink:href="#23" y="13.026"/><use xlink:href="#29" y="15.197"/><use xlink:href="#30" y="19.539"/><use xlink:href="#31" y="21.71"/></svg><svg x="7659"><use xlink:href="#a"/><use xlink:href="#b" x="38.996" y="21.685"/><use xlink:href="#11" y="2.171"/><use xlink:href="#32" y="4.342"/><use xlink:href="#20" y="6.513"/><use xlink:href="#12" y="8.684"/><use xlink:href="#15" y="10.855"/><use xlink:href="#18" y="13.026"/><use xlink:href="#23" y="15.197"/><use xlink:href="#29" y="17.368"/><text y="23.38" class="d">Include</text><text x="8.016" y="23.38" class="d">&apos;Marvin</text><text x="16.032" y="23.38" class="d">(Photographer)&apos;?</text><text x="33.066" y="23.38" class="d">(y/n)</text></svg><svg x="7770"><use xlink:href="#a"/><use xlink:href="#b" x="39.996" y="21.685"/><use xlink:href="#11" y="2.171"/><use xlink:href="#32" y="4.342"/><use xlink:href="#20" y="6.513"/><use xlink:href="#12" y="8.684"/><use xlink:href="#15" y="10.855"/><use xlink:href="#18" y="13.026"/><use xlink:href="#23" y="15.197"/><use xlink:href="#29" y="17.368"/><use xlink:href="#33" y="21.71"/></svg><svg x="7881"><use xlink:href="#a"/><use xlink:href="#b" x="-.004" y="23.856"/><use xlink:href="#11" y="2.171"/><use xlink:href="#32" y="4.342"/><use xlink:href="#20" y="6.513"/><use xlink:href="#12" y="8.684"/><use xlink:href="#15" y="10.855"/><use xlink:href="#18" y="13.026"/><use xlink:href="#23" y="15.197"/><use xlink:href="#29" y="17.368"/><use xlink:href="#33" y="21.71"/></svg><svg x="7992"><use xlink:href="#a"/><use xlink:href="#b" x="39.996" y="21.685"/><use xlink:href="#11" y="2.171"/><use xlink:href="#32" y="4.342"/><use xlink:href="#20" y="6.513"/><use xlink:href="#12" y="8.684"/><use xlink:href="#15" y="10.855"/><use xlink:href="#18" y="13.026"/><use xlink:href="#23" y="15.197"/><use xlink:href="#29" y="17.368"/><text y="23.38" class="d">Include</text><text x="8.016" y="23.38" class="d">&apos;Linda</text><text x="15.03" y="23.38" class="d">(Conspiracy</text><text x="27.054" y="23.38" class="d">Nut)&apos;?</text><text x="34.068" y="23.38" class="d">(y/n)</text></svg><svg x="8103"><use xlink:href="#a"/><use xlink:href="#b" x="40.996" y="21.685"/><use xlink:href="#11" y="2.171"/><use xlink:href="#32" y="4.342"/><use xlink:href="#20" y="6.513"/><use xlink:href="#12" y="8.684"/><use xlink:href="#15" y="10.855"/><use xlink:href="#18" y="13.026"/><use xlink:href="#23" y="15.197"/><use xlink:href="#29" y="17.368"/><text y="23.38" class="d">Include</text><text x="8.016" y="23.38" class="d">&apos;Linda</text><text x="15.03" y="23.38" class="d">(Conspiracy</text><text x="27.054" y="23.38" class="d">Nut)&apos;?</text><text x="34.068" y="23.38" class="d">(y/n)</text><text x="40.08" y="23.38" class="d">n</text></svg><svg x="8214"><use xlink:href="#a"/><use xlink:href="#b" x="-.004" y="2.146"/></svg><svg x="8325"><use xlink:href="#a"/><use xlink:href="#b" x="-.004" y="19.514"/><use xlink:href="#34" y="2.171"/><use xlink:href="#35" y="4.342"/><use xlink:href="#20" y="6.513"/><use xlink:href="#12" y="8.684"/><use xlink:href="#15" y="10.855"/><use xlink:href="#18" y="13.026"/><use xlink:href="#23" y="15.197"/><use xlink:href="#29" y="17.368"/></svg><svg x="8436"><use xlink:href="#a"/><use xlink:href="#b" x="1.996" y="21.685"/><use xlink:href="#34" y="2.171"/><use xlink:href="#35" y="4.342"/><use xlink:href="#20" y="6.513"/><use xlink:href="#12" y="8.684"/><use xlink:href="#15" y="10.855"/><use xlink:href="#18" y="13.026"/><use xlink:href="#23" y="15.197"/><use xlink:href="#29" y="17.368"/><use xlink:href="#1" y="19.539"/><use xlink:href="#2" y="21.71"/></svg><svg x="8547"><use xlink:href="#a"/><use xlink:href="#b" x="-.004" y="23.856"/><use xlink:href="#34" y="2.171"/><use xlink:href="#35" y="4.342"/><use xlink:href="#20" y="6.513"/><use xlink:href="#12" y="8.684"/><use xlink:href="#15" y="10.855"/><use xlink:href="#18" y="13.026"/><use xlink:href="#23" y="15.197"/><use xlink:href="#29" y="17.368"/><use xlink:href="#1" y="19.539"/><use xlink:href="#2" y="21.71"/></svg><svg x="8658"><use xlink:href="#a"/><use xlink:href="#b" x="-.004" y="26.027"/><use xlink:href="#34" y="2.171"/><use xlink:href="#35" y="4.342"/><use xlink:href="#20" y="6.513"/><use xlink:href="#12" y="8.684"/><use xlink:href="#15" y="10.855"/><use xlink:href="#18" y="13.026"/><use xlink:href="#23" y="15.197"/><use xlink:href="#29" y="17.368"/><use xlink:href="#1" y="19.539"/><use xlink:href="#2" y="21.71"/><text y="25.551" class="d">exit</text></svg></svg></g></g></svg></svg>