<svg xmlns="http://www.w3.org/2000/svg" xmlns:xlink="http://www.w3.org/1999/xlink" width="980" height="537.62"><rect width="980" height="537.62" rx="5" ry="5" class="a"/><svg y="0%" x="0%"><circle cx="20" cy="20" r="6" fill="#ff5f58"/><circle cx="40" cy="20" r="6" fill="#ffbd2e"/><circle cx="60" cy="20" r="6" fill="#18c132"/></svg><svg height="477.62" viewBox="0 0 94 47.762" width="940" x="15" xmlns="http://www.w3.org/2000/svg" xmlns:xlink="http://www.w3.org/1999/xlink" y="50"><style>@keyframes i{0%{transform:translateX(0)}1.56%{transform:translateX(-94px)}1.74%{transform:translateX(-282px)}1.75%{transform:translateX(-376px)}6.33%{transform:translateX(-470px)}7.16%{transform:translateX(-564px)}7.85%{transform:translateX(-658px)}8.19%{transform:translateX(-752px)}8.76%{transform:translateX(-846px)}9.29%{transform:translateX(-940px)}10.4%{transform:translateX(-1034px)}11.28%{transform:translateX(-1128px)}12.15%{transform:translateX(-1222px)}12.72%{transform:translateX(-1316px)}13.37%{transform:translateX(-1410px)}14.13%{transform:translateX(-1504px)}14.74%{transform:translateX(-1598px)}15.2%{transform:translateX(-1692px)}15.77%{transform:translateX(-1786px)}16.3%{transform:translateX(-1880px)}16.76%{transform:translateX(-1974px)}17.29%{transform:translateX(-2068px)}18.09%{transform:translateX(-2162px)}18.74%{transform:translateX(-2256px)}20.2%{transform:translateX(-2538px)}20.45%{transform:translateX(-2632px)}28.15%{transform:translateX(-2820px)}34.05%{transform:translateX(-2914px)}36.03%{transform:translateX(-3008px)}37.11%{transform:translateX(-3102px)}40.83%{transform:translateX(-3290px)}47.54%{transform:translateX(-3384px)}48.04%{transform:translateX(-3478px)}48.75%{transform:translateX(-3572px)}49.98%{transform:translateX(-3666px)}51.42%{transform:translateX(-3760px)}52.18%{transform:translateX(-3854px)}53.09%{transform:translateX(-3948px)}53.71%{transform:translateX(-4042px)}54.28%{transform:translateX(-4136px)}54.81%{transform:translateX(-4230px)}55.53%{transform:translateX(-4324px)}55.92%{transform:translateX(-4418px)}56.6%{transform:translateX(-4512px)}60.56%{transform:translateX(-4700px)}69.21%{transform:translateX(-4794px)}71.19%{transform:translateX(-4888px)}72.03%{transform:translateX(-4982px)}72.83%{transform:translateX(-5076px)}73.79%{transform:translateX(-5170px)}77.87%{transform:translateX(-5358px)}77.88%{transform:translateX(-5452px)}78.08%{transform:translateX(-5734px)}to{transform:translateX(-5828px)}}.a{fill:#282d35}.f{fill:#b9c0cb;white-space:pre}</style><g font-family="Monaco,Consolas,Menlo,'Bitstream Vera Sans Mono','Powerline Symbols',monospace" font-size="1.67"><defs><symbol id="1"><text y="1.67" class="f">&gt;</text></symbol><symbol id="2"><text y="1.67" class="f">&gt;</text><text x="2.004" y="1.67" class="f">python3</text></symbol><symbol id="3"><text y="1.67" class="f">&gt;</text><text x="2.004" y="1.67" class="f">python3</text><text x="10.02" y="1.67" class="f">lightning.py</text></symbol><symbol id="4"><text y="1.67" class="f">World&apos;s</text><text x="8.016" y="1.67" class="f">Greatest</text><text x="17.034" y="1.67" class="f">Cup</text><text x="21.042" y="1.67" class="f">Ordering</text><text x="30.06" y="1.67" class="f">System</text></symbol><symbol id="5"><text y="1.67" class="f">What</text><text x="5.01" y="1.67" class="f">is</text><text x="8.016" y="1.67" class="f">the</text><text x="12.024" y="1.67" class="f">customer</text><text x="21.042" y="1.67" class="f">name?</text></symbol><symbol id="6"><text y="1.67" class="f">We</text><text x="3.006" y="1.67" class="f">gotta</text><text x="9.018" y="1.67" class="f">know</text><text x="14.028" y="1.67" class="f">who</text><text x="18.036" y="1.67" class="f">they</text><text x="23.046" y="1.67" class="f">are</text><text x="27.054" y="1.67" class="f">-</text><text x="29.058" y="1.67" class="f">name</text><text x="34.068" y="1.67" class="f">please?</text><text x="42.084" y="1.67" class="f">Joe</text></symbol><symbol id="7"><text y="1.67" class="f">Order</text><text x="6.012" y="1.67" class="f">is</text><text x="9.018" y="1.67" class="f">for</text><text x="13.026" y="1.67" class="f">Joe</text></symbol><symbol id="8"><text y="1.67" class="f">Drink</text><text x="6.012" y="1.67" class="f">Menu</text></symbol><symbol id="9"><text y="1.67" class="f">latte</text></symbol><symbol id="10"><text y="1.67" class="f">mocha</text></symbol><symbol id="11"><text y="1.67" class="f">espresso</text></symbol><symbol id="12"><text y="1.67" class="f">flat</text><text x="5.01" y="1.67" class="f">white</text></symbol><symbol id="13"><text y="1.67" class="f">Taking</text><text x="7.014" y="1.67" class="f">Order</text></symbol><symbol id="14"><text y="1.67" class="f">What</text><text x="5.01" y="1.67" class="f">would</text><text x="11.022" y="1.67" class="f">the</text><text x="15.03" y="1.67" class="f">customer</text><text x="24.048" y="1.67" class="f">like</text><text x="29.058" y="1.67" class="f">to</text><text x="32.064" y="1.67" class="f">order?</text><text x="39.078" y="1.67" class="f">vanilla</text></symbol><symbol id="15"><text y="1.67" class="f">What</text><text x="5.01" y="1.67" class="f">would</text><text x="11.022" y="1.67" class="f">the</text><text x="15.03" y="1.67" class="f">customer</text><text x="24.048" y="1.67" class="f">like</text><text x="29.058" y="1.67" class="f">to</text><text x="32.064" y="1.67" class="f">order?</text><text x="39.078" y="1.67" class="f">vanilla</text><text x="47.094" y="1.67" class="f">latte</text></symbol><symbol id="16"><text y="1.67" class="f">You</text><text x="4.008" y="1.67" class="f">gotta</text><text x="10.02" y="1.67" class="f">stick</text><text x="16.032" y="1.67" class="f">to</text><text x="19.038" y="1.67" class="f">the</text><text x="23.046" y="1.67" class="f">menu</text><text x="28.056" y="1.67" class="f">-</text><text x="30.06" y="1.67" class="f">drink</text><text x="36.072" y="1.67" class="f">choice?</text><text x="44.088" y="1.67" class="f">mocha</text></symbol><symbol id="17"><text y="1.67" class="f">Joe</text><text x="4.008" y="1.67" class="f">has</text><text x="8.016" y="1.67" class="f">ordered</text><text x="16.032" y="1.67" class="f">a</text><text x="18.036" y="1.67" class="f">mocha</text></symbol><symbol id="a"><path fill="transparent" d="M0 0h94v22H0z"/></symbol><symbol id="b"><path fill="#6f7683" d="M0 0h1.102v2.171H0z"/></symbol></defs><path class="a" d="M0 0h94v47.762H0z"/><g style="animation-duration:40.39083s;animation-iteration-count:infinite;animation-name:i;animation-timing-function:steps(1,end)"><svg width="5922"><svg><use xlink:href="#a"/><use xlink:href="#b" x="-.004"/></svg><svg x="94"><use xlink:href="#a"/><use xlink:href="#b" x="-.004"/></svg><svg x="188"><use xlink:href="#a"/><use xlink:href="#b" x="-.004"/></svg><svg x="282"><use xlink:href="#a"/><use xlink:href="#b" x="1.996"/><use xlink:href="#1"/></svg><svg x="376"><use xlink:href="#a"/><use xlink:href="#b" x="1.996"/><use xlink:href="#1"/></svg><svg x="470"><use xlink:href="#a"/><use xlink:href="#b" x="2.996"/><text y="1.67" class="f">&gt;</text><text x="2.004" y="1.67" class="f">p</text></svg><svg x="564"><use xlink:href="#a"/><use xlink:href="#b" x="3.996"/><text y="1.67" class="f">&gt;</text><text x="2.004" y="1.67" class="f">py</text></svg><svg x="658"><use xlink:href="#a"/><use xlink:href="#b" x="4.996"/><text y="1.67" class="f">&gt;</text><text x="2.004" y="1.67" class="f">pyt</text></svg><svg x="752"><use xlink:href="#a"/><use xlink:href="#b" x="5.996"/><text y="1.67" class="f">&gt;</text><text x="2.004" y="1.67" class="f">pyth</text></svg><svg x="846"><use xlink:href="#a"/><use xlink:href="#b" x="6.996"/><text y="1.67" class="f">&gt;</text><text x="2.004" y="1.67" class="f">pytho</text></svg><svg x="940"><use xlink:href="#a"/><use xlink:href="#b" x="7.996"/><text y="1.67" class="f">&gt;</text><text x="2.004" y="1.67" class="f">python</text></svg><svg x="1034"><use xlink:href="#a"/><use xlink:href="#b" x="8.996"/><use xlink:href="#2"/></svg><svg x="1128"><use xlink:href="#a"/><use xlink:href="#b" x="9.996"/><use xlink:href="#2"/></svg><svg x="1222"><use xlink:href="#a"/><use xlink:href="#b" x="10.996"/><text y="1.67" class="f">&gt;</text><text x="2.004" y="1.67" class="f">python3</text><text x="10.02" y="1.67" class="f">l</text></svg><svg x="1316"><use xlink:href="#a"/><use xlink:href="#b" x="11.996"/><text y="1.67" class="f">&gt;</text><text x="2.004" y="1.67" class="f">python3</text><text x="10.02" y="1.67" class="f">li</text></svg><svg x="1410"><use xlink:href="#a"/><use xlink:href="#b" x="12.996"/><text y="1.67" class="f">&gt;</text><text x="2.004" y="1.67" class="f">python3</text><text x="10.02" y="1.67" class="f">lig</text></svg><svg x="1504"><use xlink:href="#a"/><use xlink:href="#b" x="13.996"/><text y="1.67" class="f">&gt;</text><text x="2.004" y="1.67" class="f">python3</text><text x="10.02" y="1.67" class="f">ligh</text></svg><svg x="1598"><use xlink:href="#a"/><use xlink:href="#b" x="14.996"/><text y="1.67" class="f">&gt;</text><text x="2.004" y="1.67" class="f">python3</text><text x="10.02" y="1.67" class="f">light</text></svg><svg x="1692"><use xlink:href="#a"/><use xlink:href="#b" x="15.996"/><text y="1.67" class="f">&gt;</text><text x="2.004" y="1.67" class="f">python3</text><text x="10.02" y="1.67" class="f">lightn</text></svg><svg x="1786"><use xlink:href="#a"/><use xlink:href="#b" x="16.996"/><text y="1.67" class="f">&gt;</text><text x="2.004" y="1.67" class="f">python3</text><text x="10.02" y="1.67" class="f">lightni</text></svg><svg x="1880"><use xlink:href="#a"/><use xlink:href="#b" x="17.996"/><text y="1.67" class="f">&gt;</text><text x="2.004" y="1.67" class="f">python3</text><text x="10.02" y="1.67" class="f">lightnin</text></svg><svg x="1974"><use xlink:href="#a"/><use xlink:href="#b" x="18.996"/><text y="1.67" class="f">&gt;</text><text x="2.004" y="1.67" class="f">python3</text><text x="10.02" y="1.67" class="f">lightning</text></svg><svg x="2068"><use xlink:href="#a"/><use xlink:href="#b" x="19.996"/><text y="1.67" class="f">&gt;</text><text x="2.004" y="1.67" class="f">python3</text><text x="10.02" y="1.67" class="f">lightning.</text></svg><svg x="2162"><use xlink:href="#a"/><use xlink:href="#b" x="20.996"/><text y="1.67" class="f">&gt;</text><text x="2.004" y="1.67" class="f">python3</text><text x="10.02" y="1.67" class="f">lightning.p</text></svg><svg x="2256"><use xlink:href="#a"/><use xlink:href="#b" x="21.996"/><use xlink:href="#3"/></svg><svg x="2350"><use xlink:href="#a"/><use xlink:href="#b" x="21.996"/><use xlink:href="#3"/></svg><svg x="2444"><use xlink:href="#a"/><use xlink:href="#b" x="-.004" y="2.146"/><use xlink:href="#3"/></svg><svg x="2538"><use xlink:href="#a"/><use xlink:href="#b" x="-.004" y="2.146"/><use xlink:href="#3"/></svg><svg x="2632"><use xlink:href="#a"/><use xlink:href="#b" x="26.996" y="6.488"/><use xlink:href="#3"/><use xlink:href="#4" y="2.171"/><use xlink:href="#5" y="6.513"/></svg><svg x="2726"><use xlink:href="#a"/><use xlink:href="#b" x="-.004" y="8.659"/><use xlink:href="#3"/><use xlink:href="#4" y="2.171"/><use xlink:href="#5" y="6.513"/></svg><svg x="2820"><use xlink:href="#a"/><use xlink:href="#b" x="41.996" y="8.659"/><use xlink:href="#3"/><use xlink:href="#4" y="2.171"/><use xlink:href="#5" y="6.513"/><text y="10.354" class="f">We</text><text x="3.006" y="10.354" class="f">gotta</text><text x="9.018" y="10.354" class="f">know</text><text x="14.028" y="10.354" class="f">who</text><text x="18.036" y="10.354" class="f">they</text><text x="23.046" y="10.354" class="f">are</text><text x="27.054" y="10.354" class="f">-</text><text x="29.058" y="10.354" class="f">name</text><text x="34.068" y="10.354" class="f">please?</text></svg><svg x="2914"><use xlink:href="#a"/><use xlink:href="#b" x="42.996" y="8.659"/><use xlink:href="#3"/><use xlink:href="#4" y="2.171"/><use xlink:href="#5" y="6.513"/><text y="10.354" class="f">We</text><text x="3.006" y="10.354" class="f">gotta</text><text x="9.018" y="10.354" class="f">know</text><text x="14.028" y="10.354" class="f">who</text><text x="18.036" y="10.354" class="f">they</text><text x="23.046" y="10.354" class="f">are</text><text x="27.054" y="10.354" class="f">-</text><text x="29.058" y="10.354" class="f">name</text><text x="34.068" y="10.354" class="f">please?</text><text x="42.084" y="10.354" class="f">J</text></svg><svg x="3008"><use xlink:href="#a"/><use xlink:href="#b" x="43.996" y="8.659"/><use xlink:href="#3"/><use xlink:href="#4" y="2.171"/><use xlink:href="#5" y="6.513"/><text y="10.354" class="f">We</text><text x="3.006" y="10.354" class="f">gotta</text><text x="9.018" y="10.354" class="f">know</text><text x="14.028" y="10.354" class="f">who</text><text x="18.036" y="10.354" class="f">they</text><text x="23.046" y="10.354" class="f">are</text><text x="27.054" y="10.354" class="f">-</text><text x="29.058" y="10.354" class="f">name</text><text x="34.068" y="10.354" class="f">please?</text><text x="42.084" y="10.354" class="f">Jo</text></svg><svg x="3102"><use xlink:href="#a"/><use xlink:href="#b" x="44.996" y="8.659"/><use xlink:href="#3"/><use xlink:href="#4" y="2.171"/><use xlink:href="#5" y="6.513"/><use xlink:href="#6" y="8.684"/></svg><svg x="3196"><use xlink:href="#a"/><use xlink:href="#b" x="-.004" y="10.83"/><use xlink:href="#3"/><use xlink:href="#4" y="2.171"/><use xlink:href="#5" y="6.513"/><use xlink:href="#6" y="8.684"/></svg><svg x="3290"><use xlink:href="#a"/><use xlink:href="#b" x="38.996" y="30.369"/><use xlink:href="#3"/><use xlink:href="#4" y="2.171"/><use xlink:href="#5" y="6.513"/><use xlink:href="#6" y="8.684"/><use xlink:href="#7" y="10.855"/><use xlink:href="#8" y="15.197"/><use xlink:href="#9" y="17.368"/><use xlink:href="#10" y="19.539"/><use xlink:href="#11" y="21.71"/><use xlink:href="#12" y="23.881"/><use xlink:href="#13" y="28.223"/><text y="32.064" class="f">What</text><text x="5.01" y="32.064" class="f">would</text><text x="11.022" y="32.064" class="f">the</text><text x="15.03" y="32.064" class="f">customer</text><text x="24.048" y="32.064" class="f">like</text><text x="29.058" y="32.064" class="f">to</text><text x="32.064" y="32.064" class="f">order?</text></svg><svg x="3384"><use xlink:href="#a"/><use xlink:href="#b" x="39.996" y="30.369"/><use xlink:href="#3"/><use xlink:href="#4" y="2.171"/><use xlink:href="#5" y="6.513"/><use xlink:href="#6" y="8.684"/><use xlink:href="#7" y="10.855"/><use xlink:href="#8" y="15.197"/><use xlink:href="#9" y="17.368"/><use xlink:href="#10" y="19.539"/><use xlink:href="#11" y="21.71"/><use xlink:href="#12" y="23.881"/><use xlink:href="#13" y="28.223"/><text y="32.064" class="f">What</text><text x="5.01" y="32.064" class="f">would</text><text x="11.022" y="32.064" class="f">the</text><text x="15.03" y="32.064" class="f">customer</text><text x="24.048" y="32.064" class="f">like</text><text x="29.058" y="32.064" class="f">to</text><text x="32.064" y="32.064" class="f">order?</text><text x="39.078" y="32.064" class="f">v</text></svg><svg x="3478"><use xlink:href="#a"/><use xlink:href="#b" x="40.996" y="30.369"/><use xlink:href="#3"/><use xlink:href="#4" y="2.171"/><use xlink:href="#5" y="6.513"/><use xlink:href="#6" y="8.684"/><use xlink:href="#7" y="10.855"/><use xlink:href="#8" y="15.197"/><use xlink:href="#9" y="17.368"/><use xlink:href="#10" y="19.539"/><use xlink:href="#11" y="21.71"/><use xlink:href="#12" y="23.881"/><use xlink:href="#13" y="28.223"/><text y="32.064" class="f">What</text><text x="5.01" y="32.064" class="f">would</text><text x="11.022" y="32.064" class="f">the</text><text x="15.03" y="32.064" class="f">customer</text><text x="24.048" y="32.064" class="f">like</text><text x="29.058" y="32.064" class="f">to</text><text x="32.064" y="32.064" class="f">order?</text><text x="39.078" y="32.064" class="f">va</text></svg><svg x="3572"><use xlink:href="#a"/><use xlink:href="#b" x="41.996" y="30.369"/><use xlink:href="#3"/><use xlink:href="#4" y="2.171"/><use xlink:href="#5" y="6.513"/><use xlink:href="#6" y="8.684"/><use xlink:href="#7" y="10.855"/><use xlink:href="#8" y="15.197"/><use xlink:href="#9" y="17.368"/><use xlink:href="#10" y="19.539"/><use xlink:href="#11" y="21.71"/><use xlink:href="#12" y="23.881"/><use xlink:href="#13" y="28.223"/><text y="32.064" class="f">What</text><text x="5.01" y="32.064" class="f">would</text><text x="11.022" y="32.064" class="f">the</text><text x="15.03" y="32.064" class="f">customer</text><text x="24.048" y="32.064" class="f">like</text><text x="29.058" y="32.064" class="f">to</text><text x="32.064" y="32.064" class="f">order?</text><text x="39.078" y="32.064" class="f">van</text></svg><svg x="3666"><use xlink:href="#a"/><use xlink:href="#b" x="42.996" y="30.369"/><use xlink:href="#3"/><use xlink:href="#4" y="2.171"/><use xlink:href="#5" y="6.513"/><use xlink:href="#6" y="8.684"/><use xlink:href="#7" y="10.855"/><use xlink:href="#8" y="15.197"/><use xlink:href="#9" y="17.368"/><use xlink:href="#10" y="19.539"/><use xlink:href="#11" y="21.71"/><use xlink:href="#12" y="23.881"/><use xlink:href="#13" y="28.223"/><text y="32.064" class="f">What</text><text x="5.01" y="32.064" class="f">would</text><text x="11.022" y="32.064" class="f">the</text><text x="15.03" y="32.064" class="f">customer</text><text x="24.048" y="32.064" class="f">like</text><text x="29.058" y="32.064" class="f">to</text><text x="32.064" y="32.064" class="f">order?</text><text x="39.078" y="32.064" class="f">vani</text></svg><svg x="3760"><use xlink:href="#a"/><use xlink:href="#b" x="43.996" y="30.369"/><use xlink:href="#3"/><use xlink:href="#4" y="2.171"/><use xlink:href="#5" y="6.513"/><use xlink:href="#6" y="8.684"/><use xlink:href="#7" y="10.855"/><use xlink:href="#8" y="15.197"/><use xlink:href="#9" y="17.368"/><use xlink:href="#10" y="19.539"/><use xlink:href="#11" y="21.71"/><use xlink:href="#12" y="23.881"/><use xlink:href="#13" y="28.223"/><text y="32.064" class="f">What</text><text x="5.01" y="32.064" class="f">would</text><text x="11.022" y="32.064" class="f">the</text><text x="15.03" y="32.064" class="f">customer</text><text x="24.048" y="32.064" class="f">like</text><text x="29.058" y="32.064" class="f">to</text><text x="32.064" y="32.064" class="f">order?</text><text x="39.078" y="32.064" class="f">vanil</text></svg><svg x="3854"><use xlink:href="#a"/><use xlink:href="#b" x="44.996" y="30.369"/><use xlink:href="#3"/><use xlink:href="#4" y="2.171"/><use xlink:href="#5" y="6.513"/><use xlink:href="#6" y="8.684"/><use xlink:href="#7" y="10.855"/><use xlink:href="#8" y="15.197"/><use xlink:href="#9" y="17.368"/><use xlink:href="#10" y="19.539"/><use xlink:href="#11" y="21.71"/><use xlink:href="#12" y="23.881"/><use xlink:href="#13" y="28.223"/><text y="32.064" class="f">What</text><text x="5.01" y="32.064" class="f">would</text><text x="11.022" y="32.064" class="f">the</text><text x="15.03" y="32.064" class="f">customer</text><text x="24.048" y="32.064" class="f">like</text><text x="29.058" y="32.064" class="f">to</text><text x="32.064" y="32.064" class="f">order?</text><text x="39.078" y="32.064" class="f">vanill</text></svg><svg x="3948"><use xlink:href="#a"/><use xlink:href="#b" x="45.996" y="30.369"/><use xlink:href="#3"/><use xlink:href="#4" y="2.171"/><use xlink:href="#5" y="6.513"/><use xlink:href="#6" y="8.684"/><use xlink:href="#7" y="10.855"/><use xlink:href="#8" y="15.197"/><use xlink:href="#9" y="17.368"/><use xlink:href="#10" y="19.539"/><use xlink:href="#11" y="21.71"/><use xlink:href="#12" y="23.881"/><use xlink:href="#13" y="28.223"/><use xlink:href="#14" y="30.394"/></svg><svg x="4042"><use xlink:href="#a"/><use xlink:href="#b" x="46.996" y="30.369"/><use xlink:href="#3"/><use xlink:href="#4" y="2.171"/><use xlink:href="#5" y="6.513"/><use xlink:href="#6" y="8.684"/><use xlink:href="#7" y="10.855"/><use xlink:href="#8" y="15.197"/><use xlink:href="#9" y="17.368"/><use xlink:href="#10" y="19.539"/><use xlink:href="#11" y="21.71"/><use xlink:href="#12" y="23.881"/><use xlink:href="#13" y="28.223"/><use xlink:href="#14" y="30.394"/></svg><svg x="4136"><use xlink:href="#a"/><use xlink:href="#b" x="47.996" y="30.369"/><use xlink:href="#3"/><use xlink:href="#4" y="2.171"/><use xlink:href="#5" y="6.513"/><use xlink:href="#6" y="8.684"/><use xlink:href="#7" y="10.855"/><use xlink:href="#8" y="15.197"/><use xlink:href="#9" y="17.368"/><use xlink:href="#10" y="19.539"/><use xlink:href="#11" y="21.71"/><use xlink:href="#12" y="23.881"/><use xlink:href="#13" y="28.223"/><text y="32.064" class="f">What</text><text x="5.01" y="32.064" class="f">would</text><text x="11.022" y="32.064" class="f">the</text><text x="15.03" y="32.064" class="f">customer</text><text x="24.048" y="32.064" class="f">like</text><text x="29.058" y="32.064" class="f">to</text><text x="32.064" y="32.064" class="f">order?</text><text x="39.078" y="32.064" class="f">vanilla</text><text x="47.094" y="32.064" class="f">l</text></svg><svg x="4230"><use xlink:href="#a"/><use xlink:href="#b" x="48.996" y="30.369"/><use xlink:href="#3"/><use xlink:href="#4" y="2.171"/><use xlink:href="#5" y="6.513"/><use xlink:href="#6" y="8.684"/><use xlink:href="#7" y="10.855"/><use xlink:href="#8" y="15.197"/><use xlink:href="#9" y="17.368"/><use xlink:href="#10" y="19.539"/><use xlink:href="#11" y="21.71"/><use xlink:href="#12" y="23.881"/><use xlink:href="#13" y="28.223"/><text y="32.064" class="f">What</text><text x="5.01" y="32.064" class="f">would</text><text x="11.022" y="32.064" class="f">the</text><text x="15.03" y="32.064" class="f">customer</text><text x="24.048" y="32.064" class="f">like</text><text x="29.058" y="32.064" class="f">to</text><text x="32.064" y="32.064" class="f">order?</text><text x="39.078" y="32.064" class="f">vanilla</text><text x="47.094" y="32.064" class="f">la</text></svg><svg x="4324"><use xlink:href="#a"/><use xlink:href="#b" x="49.996" y="30.369"/><use xlink:href="#3"/><use xlink:href="#4" y="2.171"/><use xlink:href="#5" y="6.513"/><use xlink:href="#6" y="8.684"/><use xlink:href="#7" y="10.855"/><use xlink:href="#8" y="15.197"/><use xlink:href="#9" y="17.368"/><use xlink:href="#10" y="19.539"/><use xlink:href="#11" y="21.71"/><use xlink:href="#12" y="23.881"/><use xlink:href="#13" y="28.223"/><text y="32.064" class="f">What</text><text x="5.01" y="32.064" class="f">would</text><text x="11.022" y="32.064" class="f">the</text><text x="15.03" y="32.064" class="f">customer</text><text x="24.048" y="32.064" class="f">like</text><text x="29.058" y="32.064" class="f">to</text><text x="32.064" y="32.064" class="f">order?</text><text x="39.078" y="32.064" class="f">vanilla</text><text x="47.094" y="32.064" class="f">lat</text></svg><svg x="4418"><use xlink:href="#a"/><use xlink:href="#b" x="50.996" y="30.369"/><use xlink:href="#3"/><use xlink:href="#4" y="2.171"/><use xlink:href="#5" y="6.513"/><use xlink:href="#6" y="8.684"/><use xlink:href="#7" y="10.855"/><use xlink:href="#8" y="15.197"/><use xlink:href="#9" y="17.368"/><use xlink:href="#10" y="19.539"/><use xlink:href="#11" y="21.71"/><use xlink:href="#12" y="23.881"/><use xlink:href="#13" y="28.223"/><text y="32.064" class="f">What</text><text x="5.01" y="32.064" class="f">would</text><text x="11.022" y="32.064" class="f">the</text><text x="15.03" y="32.064" class="f">customer</text><text x="24.048" y="32.064" class="f">like</text><text x="29.058" y="32.064" class="f">to</text><text x="32.064" y="32.064" class="f">order?</text><text x="39.078" y="32.064" class="f">vanilla</text><text x="47.094" y="32.064" class="f">latt</text></svg><svg x="4512"><use xlink:href="#a"/><use xlink:href="#b" x="51.996" y="30.369"/><use xlink:href="#3"/><use xlink:href="#4" y="2.171"/><use xlink:href="#5" y="6.513"/><use xlink:href="#6" y="8.684"/><use xlink:href="#7" y="10.855"/><use xlink:href="#8" y="15.197"/><use xlink:href="#9" y="17.368"/><use xlink:href="#10" y="19.539"/><use xlink:href="#11" y="21.71"/><use xlink:href="#12" y="23.881"/><use xlink:href="#13" y="28.223"/><use xlink:href="#15" y="30.394"/></svg><svg x="4606"><use xlink:href="#a"/><use xlink:href="#b" x="-.004" y="32.54"/><use xlink:href="#3"/><use xlink:href="#4" y="2.171"/><use xlink:href="#5" y="6.513"/><use xlink:href="#6" y="8.684"/><use xlink:href="#7" y="10.855"/><use xlink:href="#8" y="15.197"/><use xlink:href="#9" y="17.368"/><use xlink:href="#10" y="19.539"/><use xlink:href="#11" y="21.71"/><use xlink:href="#12" y="23.881"/><use xlink:href="#13" y="28.223"/><use xlink:href="#15" y="30.394"/></svg><svg x="4700"><use xlink:href="#a"/><use xlink:href="#b" x="43.996" y="32.54"/><use xlink:href="#3"/><use xlink:href="#4" y="2.171"/><use xlink:href="#5" y="6.513"/><use xlink:href="#6" y="8.684"/><use xlink:href="#7" y="10.855"/><use xlink:href="#8" y="15.197"/><use xlink:href="#9" y="17.368"/><use xlink:href="#10" y="19.539"/><use xlink:href="#11" y="21.71"/><use xlink:href="#12" y="23.881"/><use xlink:href="#13" y="28.223"/><use xlink:href="#15" y="30.394"/><text y="34.235" class="f">You</text><text x="4.008" y="34.235" class="f">gotta</text><text x="10.02" y="34.235" class="f">stick</text><text x="16.032" y="34.235" class="f">to</text><text x="19.038" y="34.235" class="f">the</text><text x="23.046" y="34.235" class="f">menu</text><text x="28.056" y="34.235" class="f">-</text><text x="30.06" y="34.235" class="f">drink</text><text x="36.072" y="34.235" class="f">choice?</text></svg><svg x="4794"><use xlink:href="#a"/><use xlink:href="#b" x="44.996" y="32.54"/><use xlink:href="#3"/><use xlink:href="#4" y="2.171"/><use xlink:href="#5" y="6.513"/><use xlink:href="#6" y="8.684"/><use xlink:href="#7" y="10.855"/><use xlink:href="#8" y="15.197"/><use xlink:href="#9" y="17.368"/><use xlink:href="#10" y="19.539"/><use xlink:href="#11" y="21.71"/><use xlink:href="#12" y="23.881"/><use xlink:href="#13" y="28.223"/><use xlink:href="#15" y="30.394"/><text y="34.235" class="f">You</text><text x="4.008" y="34.235" class="f">gotta</text><text x="10.02" y="34.235" class="f">stick</text><text x="16.032" y="34.235" class="f">to</text><text x="19.038" y="34.235" class="f">the</text><text x="23.046" y="34.235" class="f">menu</text><text x="28.056" y="34.235" class="f">-</text><text x="30.06" y="34.235" class="f">drink</text><text x="36.072" y="34.235" class="f">choice?</text><text x="44.088" y="34.235" class="f">m</text></svg><svg x="4888"><use xlink:href="#a"/><use xlink:href="#b" x="45.996" y="32.54"/><use xlink:href="#3"/><use xlink:href="#4" y="2.171"/><use xlink:href="#5" y="6.513"/><use xlink:href="#6" y="8.684"/><use xlink:href="#7" y="10.855"/><use xlink:href="#8" y="15.197"/><use xlink:href="#9" y="17.368"/><use xlink:href="#10" y="19.539"/><use xlink:href="#11" y="21.71"/><use xlink:href="#12" y="23.881"/><use xlink:href="#13" y="28.223"/><use xlink:href="#15" y="30.394"/><text y="34.235" class="f">You</text><text x="4.008" y="34.235" class="f">gotta</text><text x="10.02" y="34.235" class="f">stick</text><text x="16.032" y="34.235" class="f">to</text><text x="19.038" y="34.235" class="f">the</text><text x="23.046" y="34.235" class="f">menu</text><text x="28.056" y="34.235" class="f">-</text><text x="30.06" y="34.235" class="f">drink</text><text x="36.072" y="34.235" class="f">choice?</text><text x="44.088" y="34.235" class="f">mo</text></svg><svg x="4982"><use xlink:href="#a"/><use xlink:href="#b" x="46.996" y="32.54"/><use xlink:href="#3"/><use xlink:href="#4" y="2.171"/><use xlink:href="#5" y="6.513"/><use xlink:href="#6" y="8.684"/><use xlink:href="#7" y="10.855"/><use xlink:href="#8" y="15.197"/><use xlink:href="#9" y="17.368"/><use xlink:href="#10" y="19.539"/><use xlink:href="#11" y="21.71"/><use xlink:href="#12" y="23.881"/><use xlink:href="#13" y="28.223"/><use xlink:href="#15" y="30.394"/><text y="34.235" class="f">You</text><text x="4.008" y="34.235" class="f">gotta</text><text x="10.02" y="34.235" class="f">stick</text><text x="16.032" y="34.235" class="f">to</text><text x="19.038" y="34.235" class="f">the</text><text x="23.046" y="34.235" class="f">menu</text><text x="28.056" y="34.235" class="f">-</text><text x="30.06" y="34.235" class="f">drink</text><text x="36.072" y="34.235" class="f">choice?</text><text x="44.088" y="34.235" class="f">moc</text></svg><svg x="5076"><use xlink:href="#a"/><use xlink:href="#b" x="47.996" y="32.54"/><use xlink:href="#3"/><use xlink:href="#4" y="2.171"/><use xlink:href="#5" y="6.513"/><use xlink:href="#6" y="8.684"/><use xlink:href="#7" y="10.855"/><use xlink:href="#8" y="15.197"/><use xlink:href="#9" y="17.368"/><use xlink:href="#10" y="19.539"/><use xlink:href="#11" y="21.71"/><use xlink:href="#12" y="23.881"/><use xlink:href="#13" y="28.223"/><use xlink:href="#15" y="30.394"/><text y="34.235" class="f">You</text><text x="4.008" y="34.235" class="f">gotta</text><text x="10.02" y="34.235" class="f">stick</text><text x="16.032" y="34.235" class="f">to</text><text x="19.038" y="34.235" class="f">the</text><text x="23.046" y="34.235" class="f">menu</text><text x="28.056" y="34.235" class="f">-</text><text x="30.06" y="34.235" class="f">drink</text><text x="36.072" y="34.235" class="f">choice?</text><text x="44.088" y="34.235" class="f">moch</text></svg><svg x="5170"><use xlink:href="#a"/><use xlink:href="#b" x="48.996" y="32.54"/><use xlink:href="#3"/><use xlink:href="#4" y="2.171"/><use xlink:href="#5" y="6.513"/><use xlink:href="#6" y="8.684"/><use xlink:href="#7" y="10.855"/><use xlink:href="#8" y="15.197"/><use xlink:href="#9" y="17.368"/><use xlink:href="#10" y="19.539"/><use xlink:href="#11" y="21.71"/><use xlink:href="#12" y="23.881"/><use xlink:href="#13" y="28.223"/><use xlink:href="#15" y="30.394"/><use xlink:href="#16" y="32.565"/></svg><svg x="5264"><use xlink:href="#a"/><use xlink:href="#b" x="-.004" y="34.711"/><use xlink:href="#3"/><use xlink:href="#4" y="2.171"/><use xlink:href="#5" y="6.513"/><use xlink:href="#6" y="8.684"/><use xlink:href="#7" y="10.855"/><use xlink:href="#8" y="15.197"/><use xlink:href="#9" y="17.368"/><use xlink:href="#10" y="19.539"/><use xlink:href="#11" y="21.71"/><use xlink:href="#12" y="23.881"/><use xlink:href="#13" y="28.223"/><use xlink:href="#15" y="30.394"/><use xlink:href="#16" y="32.565"/></svg><svg x="5358"><use xlink:href="#a"/><use xlink:href="#b" x="-.004" y="36.882"/><use xlink:href="#3"/><use xlink:href="#4" y="2.171"/><use xlink:href="#5" y="6.513"/><use xlink:href="#6" y="8.684"/><use xlink:href="#7" y="10.855"/><use xlink:href="#8" y="15.197"/><use xlink:href="#9" y="17.368"/><use xlink:href="#10" y="19.539"/><use xlink:href="#11" y="21.71"/><use xlink:href="#12" y="23.881"/><use xlink:href="#13" y="28.223"/><use xlink:href="#15" y="30.394"/><use xlink:href="#16" y="32.565"/><use xlink:href="#17" y="34.736"/></svg><svg x="5452"><use xlink:href="#a"/><use xlink:href="#b" x="-.004" y="36.882"/><use xlink:href="#3"/><use xlink:href="#4" y="2.171"/><use xlink:href="#5" y="6.513"/><use xlink:href="#6" y="8.684"/><use xlink:href="#7" y="10.855"/><use xlink:href="#8" y="15.197"/><use xlink:href="#9" y="17.368"/><use xlink:href="#10" y="19.539"/><use xlink:href="#11" y="21.71"/><use xlink:href="#12" y="23.881"/><use xlink:href="#13" y="28.223"/><use xlink:href="#15" y="30.394"/><use xlink:href="#16" y="32.565"/><use xlink:href="#17" y="34.736"/></svg><svg x="5546"><use xlink:href="#a"/><use xlink:href="#b" x="-.004" y="36.882"/><use xlink:href="#3"/><use xlink:href="#4" y="2.171"/><use xlink:href="#5" y="6.513"/><use xlink:href="#6" y="8.684"/><use xlink:href="#7" y="10.855"/><use xlink:href="#8" y="15.197"/><use xlink:href="#9" y="17.368"/><use xlink:href="#10" y="19.539"/><use xlink:href="#11" y="21.71"/><use xlink:href="#12" y="23.881"/><use xlink:href="#13" y="28.223"/><use xlink:href="#15" y="30.394"/><use xlink:href="#16" y="32.565"/><use xlink:href="#17" y="34.736"/></svg><svg x="5640"><use xlink:href="#a"/><use xlink:href="#b" x="1.996" y="36.882"/><use xlink:href="#3"/><use xlink:href="#4" y="2.171"/><use xlink:href="#5" y="6.513"/><use xlink:href="#6" y="8.684"/><use xlink:href="#7" y="10.855"/><use xlink:href="#8" y="15.197"/><use xlink:href="#9" y="17.368"/><use xlink:href="#10" y="19.539"/><use xlink:href="#11" y="21.71"/><use xlink:href="#12" y="23.881"/><use xlink:href="#13" y="28.223"/><use xlink:href="#15" y="30.394"/><use xlink:href="#16" y="32.565"/><use xlink:href="#17" y="34.736"/><use xlink:href="#1" y="36.907"/></svg><svg x="5734"><use xlink:href="#a"/><use xlink:href="#b" x="1.996" y="36.882"/><use xlink:href="#3"/><use xlink:href="#4" y="2.171"/><use xlink:href="#5" y="6.513"/><use xlink:href="#6" y="8.684"/><use xlink:href="#7" y="10.855"/><use xlink:href="#8" y="15.197"/><use xlink:href="#9" y="17.368"/><use xlink:href="#10" y="19.539"/><use xlink:href="#11" y="21.71"/><use xlink:href="#12" y="23.881"/><use xlink:href="#13" y="28.223"/><use xlink:href="#15" y="30.394"/><use xlink:href="#16" y="32.565"/><use xlink:href="#17" y="34.736"/><use xlink:href="#1" y="36.907"/></svg><svg x="5828"><use xlink:href="#a"/><use xlink:href="#b" x="-.004" y="39.053"/><use xlink:href="#3"/><use xlink:href="#4" y="2.171"/><use xlink:href="#5" y="6.513"/><use xlink:href="#6" y="8.684"/><use xlink:href="#7" y="10.855"/><use xlink:href="#8" y="15.197"/><use xlink:href="#9" y="17.368"/><use xlink:href="#10" y="19.539"/><use xlink:href="#11" y="21.71"/><use xlink:href="#12" y="23.881"/><use xlink:href="#13" y="28.223"/><use xlink:href="#15" y="30.394"/><use xlink:href="#16" y="32.565"/><use xlink:href="#17" y="34.736"/><use xlink:href="#1" y="36.907"/></svg></svg></g></g></svg></svg>