<svg xmlns="http://www.w3.org/2000/svg" xmlns:xlink="http://www.w3.org/1999/xlink" width="740" height="494.2"><rect width="740" height="494.2" rx="5" ry="5" class="a"/><svg y="0%" x="0%"><circle cx="20" cy="20" r="6" fill="#ff5f58"/><circle cx="40" cy="20" r="6" fill="#ffbd2e"/><circle cx="60" cy="20" r="6" fill="#18c132"/></svg><svg height="434.2" viewBox="0 0 70 43.42" width="700" x="15" xmlns="http://www.w3.org/2000/svg" xmlns:xlink="http://www.w3.org/1999/xlink" y="50"><style>@keyframes i{0%{transform:translateX(0)}5.9%{transform:translateX(-70px)}6.6%{transform:translateX(-140px)}6.7%{transform:translateX(-280px)}24.1%{transform:translateX(-350px)}26.4%{transform:translateX(-420px)}27.8%{transform:translateX(-490px)}28.7%{transform:translateX(-560px)}31.1%{transform:translateX(-630px)}34.8%{transform:translateX(-700px)}36.2%{transform:translateX(-770px)}37.7%{transform:translateX(-840px)}39.7%{transform:translateX(-910px)}42%{transform:translateX(-980px)}43.5%{transform:translateX(-1050px)}45.3%{transform:translateX(-1120px)}46.4%{transform:translateX(-1190px)}48.1%{transform:translateX(-1260px)}49.1%{transform:translateX(-1330px)}50.4%{transform:translateX(-1400px)}51.8%{transform:translateX(-1470px)}54.3%{transform:translateX(-1540px)}56.6%{transform:translateX(-1610px)}62%{transform:translateX(-1820px)}62.9%{transform:translateX(-1890px)}68.6%{transform:translateX(-1960px)}70.4%{transform:translateX(-2030px)}72.7%{transform:translateX(-2100px)}77.6%{transform:translateX(-2310px)}83.2%{transform:translateX(-2380px)}84.6%{transform:translateX(-2450px)}86.4%{transform:translateX(-2520px)}87.3%{transform:translateX(-2590px)}88.8%{transform:translateX(-2660px)}91.6%{transform:translateX(-2800px)}91.7%{transform:translateX(-2870px)}92.4%{transform:translateX(-3080px)}to{transform:translateX(-3150px)}}.a{fill:#282d35}.f{fill:#b9c0cb;white-space:pre}</style><g font-family="Monaco,Consolas,Menlo,'Bitstream Vera Sans Mono','Powerline Symbols',monospace" font-size="1.67"><defs><symbol id="1"><text y="1.67" class="f">&gt;</text></symbol><symbol id="2"><text y="1.67" class="f">&gt;</text><text x="2.004" y="1.67" class="f">python</text></symbol><symbol id="3"><text y="1.67" class="f">&gt;</text><text x="2.004" y="1.67" class="f">python</text><text x="9.018" y="1.67" class="f">lightning.py</text></symbol><symbol id="4"><text y="1.67" class="f">World&apos;s</text><text x="8.016" y="1.67" class="f">Greatest</text><text x="17.034" y="1.67" class="f">Cup</text><text x="21.042" y="1.67" class="f">Ordering</text><text x="30.06" y="1.67" class="f">System</text></symbol><symbol id="5"><text y="1.67" class="f">What</text><text x="5.01" y="1.67" class="f">is</text><text x="8.016" y="1.67" class="f">the</text><text x="12.024" y="1.67" class="f">customer</text><text x="21.042" y="1.67" class="f">name?</text><text x="27.054" y="1.67" class="f">Joe</text></symbol><symbol id="6"><text y="1.67" class="f">Order</text><text x="6.012" y="1.67" class="f">is</text><text x="9.018" y="1.67" class="f">for</text><text x="13.026" y="1.67" class="f">Joe</text></symbol><symbol id="7"><text y="1.67" class="f">Drink</text><text x="6.012" y="1.67" class="f">Menu</text></symbol><symbol id="8"><text y="1.67" class="f">latte</text></symbol><symbol id="9"><text y="1.67" class="f">mocha</text></symbol><symbol id="10"><text y="1.67" class="f">espresso</text></symbol><symbol id="11"><text y="1.67" class="f">pourover</text></symbol><symbol id="12"><text y="1.67" class="f">Taking</text><text x="7.014" y="1.67" class="f">Order</text></symbol><symbol id="13"><text y="1.67" class="f">What</text><text x="5.01" y="1.67" class="f">drink</text><text x="11.022" y="1.67" class="f">would</text><text x="17.034" y="1.67" class="f">the</text><text x="21.042" y="1.67" class="f">customer</text><text x="30.06" y="1.67" class="f">like?</text><text x="36.072" y="1.67" class="f">mocha</text></symbol><symbol id="14"><text y="1.67" class="f">Joe</text><text x="4.008" y="1.67" class="f">has</text><text x="8.016" y="1.67" class="f">ordered</text><text x="16.032" y="1.67" class="f">a</text><text x="18.036" y="1.67" class="f">mocha</text></symbol><symbol id="a"><path fill="transparent" d="M0 0h70v20H0z"/></symbol><symbol id="b"><path fill="#6f7683" d="M0 0h1.102v2.171H0z"/></symbol></defs><path class="a" d="M0 0h70v43.42H0z"/><g style="animation-duration:10.626284s;animation-iteration-count:infinite;animation-name:i;animation-timing-function:steps(1,end)"><svg width="3220"><svg><use xlink:href="#a"/><use xlink:href="#b" x="-.004"/></svg><svg x="70"><use xlink:href="#a"/><use xlink:href="#b" x="-.004"/></svg><svg x="140"><use xlink:href="#a"/><use xlink:href="#b" x="-.004"/></svg><svg x="210"><use xlink:href="#a"/><use xlink:href="#b" x="1.996"/><use xlink:href="#1"/></svg><svg x="280"><use xlink:href="#a"/><use xlink:href="#b" x="1.996"/><use xlink:href="#1"/></svg><svg x="350"><use xlink:href="#a"/><use xlink:href="#b" x="2.996"/><text y="1.67" class="f">&gt;</text><text x="2.004" y="1.67" class="f">p</text></svg><svg x="420"><use xlink:href="#a"/><use xlink:href="#b" x="3.996"/><text y="1.67" class="f">&gt;</text><text x="2.004" y="1.67" class="f">py</text></svg><svg x="490"><use xlink:href="#a"/><use xlink:href="#b" x="4.996"/><text y="1.67" class="f">&gt;</text><text x="2.004" y="1.67" class="f">pyt</text></svg><svg x="560"><use xlink:href="#a"/><use xlink:href="#b" x="5.996"/><text y="1.67" class="f">&gt;</text><text x="2.004" y="1.67" class="f">pyth</text></svg><svg x="630"><use xlink:href="#a"/><use xlink:href="#b" x="6.996"/><text y="1.67" class="f">&gt;</text><text x="2.004" y="1.67" class="f">pytho</text></svg><svg x="700"><use xlink:href="#a"/><use xlink:href="#b" x="7.996"/><use xlink:href="#2"/></svg><svg x="770"><use xlink:href="#a"/><use xlink:href="#b" x="8.996"/><use xlink:href="#2"/></svg><svg x="840"><use xlink:href="#a"/><use xlink:href="#b" x="9.996"/><text y="1.67" class="f">&gt;</text><text x="2.004" y="1.67" class="f">python</text><text x="9.018" y="1.67" class="f">l</text></svg><svg x="910"><use xlink:href="#a"/><use xlink:href="#b" x="10.996"/><text y="1.67" class="f">&gt;</text><text x="2.004" y="1.67" class="f">python</text><text x="9.018" y="1.67" class="f">li</text></svg><svg x="980"><use xlink:href="#a"/><use xlink:href="#b" x="11.996"/><text y="1.67" class="f">&gt;</text><text x="2.004" y="1.67" class="f">python</text><text x="9.018" y="1.67" class="f">lig</text></svg><svg x="1050"><use xlink:href="#a"/><use xlink:href="#b" x="12.996"/><text y="1.67" class="f">&gt;</text><text x="2.004" y="1.67" class="f">python</text><text x="9.018" y="1.67" class="f">ligh</text></svg><svg x="1120"><use xlink:href="#a"/><use xlink:href="#b" x="13.996"/><text y="1.67" class="f">&gt;</text><text x="2.004" y="1.67" class="f">python</text><text x="9.018" y="1.67" class="f">light</text></svg><svg x="1190"><use xlink:href="#a"/><use xlink:href="#b" x="14.996"/><text y="1.67" class="f">&gt;</text><text x="2.004" y="1.67" class="f">python</text><text x="9.018" y="1.67" class="f">lightn</text></svg><svg x="1260"><use xlink:href="#a"/><use xlink:href="#b" x="15.996"/><text y="1.67" class="f">&gt;</text><text x="2.004" y="1.67" class="f">python</text><text x="9.018" y="1.67" class="f">lightni</text></svg><svg x="1330"><use xlink:href="#a"/><use xlink:href="#b" x="16.996"/><text y="1.67" class="f">&gt;</text><text x="2.004" y="1.67" class="f">python</text><text x="9.018" y="1.67" class="f">lightnin</text></svg><svg x="1400"><use xlink:href="#a"/><use xlink:href="#b" x="17.996"/><text y="1.67" class="f">&gt;</text><text x="2.004" y="1.67" class="f">python</text><text x="9.018" y="1.67" class="f">lightning</text></svg><svg x="1470"><use xlink:href="#a"/><use xlink:href="#b" x="18.996"/><text y="1.67" class="f">&gt;</text><text x="2.004" y="1.67" class="f">python</text><text x="9.018" y="1.67" class="f">lightning.</text></svg><svg x="1540"><use xlink:href="#a"/><use xlink:href="#b" x="19.996"/><text y="1.67" class="f">&gt;</text><text x="2.004" y="1.67" class="f">python</text><text x="9.018" y="1.67" class="f">lightning.p</text></svg><svg x="1610"><use xlink:href="#a"/><use xlink:href="#b" x="20.996"/><use xlink:href="#3"/></svg><svg x="1680"><use xlink:href="#a"/><use xlink:href="#b" x="20.996"/><use xlink:href="#3"/></svg><svg x="1750"><use xlink:href="#a"/><use xlink:href="#b" x="-.004" y="2.146"/><use xlink:href="#3"/></svg><svg x="1820"><use xlink:href="#a"/><use xlink:href="#b" x="-.004" y="2.146"/><use xlink:href="#3"/></svg><svg x="1890"><use xlink:href="#a"/><use xlink:href="#b" x="26.996" y="4.317"/><use xlink:href="#3"/><use xlink:href="#4" y="2.171"/><text y="6.012" class="f">What</text><text x="5.01" y="6.012" class="f">is</text><text x="8.016" y="6.012" class="f">the</text><text x="12.024" y="6.012" class="f">customer</text><text x="21.042" y="6.012" class="f">name?</text></svg><svg x="1960"><use xlink:href="#a"/><use xlink:href="#b" x="27.996" y="4.317"/><use xlink:href="#3"/><use xlink:href="#4" y="2.171"/><text y="6.012" class="f">What</text><text x="5.01" y="6.012" class="f">is</text><text x="8.016" y="6.012" class="f">the</text><text x="12.024" y="6.012" class="f">customer</text><text x="21.042" y="6.012" class="f">name?</text><text x="27.054" y="6.012" class="f">J</text></svg><svg x="2030"><use xlink:href="#a"/><use xlink:href="#b" x="28.996" y="4.317"/><use xlink:href="#3"/><use xlink:href="#4" y="2.171"/><text y="6.012" class="f">What</text><text x="5.01" y="6.012" class="f">is</text><text x="8.016" y="6.012" class="f">the</text><text x="12.024" y="6.012" class="f">customer</text><text x="21.042" y="6.012" class="f">name?</text><text x="27.054" y="6.012" class="f">Jo</text></svg><svg x="2100"><use xlink:href="#a"/><use xlink:href="#b" x="29.996" y="4.317"/><use xlink:href="#3"/><use xlink:href="#4" y="2.171"/><use xlink:href="#5" y="4.342"/></svg><svg x="2170"><use xlink:href="#a"/><use xlink:href="#b" x="-.004" y="6.488"/><use xlink:href="#3"/><use xlink:href="#4" y="2.171"/><use xlink:href="#5" y="4.342"/></svg><svg x="2240"><use xlink:href="#a"/><use xlink:href="#b" x="-.004" y="21.685"/><use xlink:href="#3"/><use xlink:href="#4" y="2.171"/><use xlink:href="#5" y="4.342"/><use xlink:href="#6" y="6.513"/><use xlink:href="#7" y="8.684"/><use xlink:href="#8" y="10.855"/><use xlink:href="#9" y="13.026"/><use xlink:href="#10" y="15.197"/><use xlink:href="#11" y="17.368"/><use xlink:href="#12" y="19.539"/></svg><svg x="2310"><use xlink:href="#a"/><use xlink:href="#b" x="35.996" y="21.685"/><use xlink:href="#3"/><use xlink:href="#4" y="2.171"/><use xlink:href="#5" y="4.342"/><use xlink:href="#6" y="6.513"/><use xlink:href="#7" y="8.684"/><use xlink:href="#8" y="10.855"/><use xlink:href="#9" y="13.026"/><use xlink:href="#10" y="15.197"/><use xlink:href="#11" y="17.368"/><use xlink:href="#12" y="19.539"/><text y="23.38" class="f">What</text><text x="5.01" y="23.38" class="f">drink</text><text x="11.022" y="23.38" class="f">would</text><text x="17.034" y="23.38" class="f">the</text><text x="21.042" y="23.38" class="f">customer</text><text x="30.06" y="23.38" class="f">like?</text></svg><svg x="2380"><use xlink:href="#a"/><use xlink:href="#b" x="36.996" y="21.685"/><use xlink:href="#3"/><use xlink:href="#4" y="2.171"/><use xlink:href="#5" y="4.342"/><use xlink:href="#6" y="6.513"/><use xlink:href="#7" y="8.684"/><use xlink:href="#8" y="10.855"/><use xlink:href="#9" y="13.026"/><use xlink:href="#10" y="15.197"/><use xlink:href="#11" y="17.368"/><use xlink:href="#12" y="19.539"/><text y="23.38" class="f">What</text><text x="5.01" y="23.38" class="f">drink</text><text x="11.022" y="23.38" class="f">would</text><text x="17.034" y="23.38" class="f">the</text><text x="21.042" y="23.38" class="f">customer</text><text x="30.06" y="23.38" class="f">like?</text><text x="36.072" y="23.38" class="f">m</text></svg><svg x="2450"><use xlink:href="#a"/><use xlink:href="#b" x="37.996" y="21.685"/><use xlink:href="#3"/><use xlink:href="#4" y="2.171"/><use xlink:href="#5" y="4.342"/><use xlink:href="#6" y="6.513"/><use xlink:href="#7" y="8.684"/><use xlink:href="#8" y="10.855"/><use xlink:href="#9" y="13.026"/><use xlink:href="#10" y="15.197"/><use xlink:href="#11" y="17.368"/><use xlink:href="#12" y="19.539"/><text y="23.38" class="f">What</text><text x="5.01" y="23.38" class="f">drink</text><text x="11.022" y="23.38" class="f">would</text><text x="17.034" y="23.38" class="f">the</text><text x="21.042" y="23.38" class="f">customer</text><text x="30.06" y="23.38" class="f">like?</text><text x="36.072" y="23.38" class="f">mo</text></svg><svg x="2520"><use xlink:href="#a"/><use xlink:href="#b" x="38.996" y="21.685"/><use xlink:href="#3"/><use xlink:href="#4" y="2.171"/><use xlink:href="#5" y="4.342"/><use xlink:href="#6" y="6.513"/><use xlink:href="#7" y="8.684"/><use xlink:href="#8" y="10.855"/><use xlink:href="#9" y="13.026"/><use xlink:href="#10" y="15.197"/><use xlink:href="#11" y="17.368"/><use xlink:href="#12" y="19.539"/><text y="23.38" class="f">What</text><text x="5.01" y="23.38" class="f">drink</text><text x="11.022" y="23.38" class="f">would</text><text x="17.034" y="23.38" class="f">the</text><text x="21.042" y="23.38" class="f">customer</text><text x="30.06" y="23.38" class="f">like?</text><text x="36.072" y="23.38" class="f">moc</text></svg><svg x="2590"><use xlink:href="#a"/><use xlink:href="#b" x="39.996" y="21.685"/><use xlink:href="#3"/><use xlink:href="#4" y="2.171"/><use xlink:href="#5" y="4.342"/><use xlink:href="#6" y="6.513"/><use xlink:href="#7" y="8.684"/><use xlink:href="#8" y="10.855"/><use xlink:href="#9" y="13.026"/><use xlink:href="#10" y="15.197"/><use xlink:href="#11" y="17.368"/><use xlink:href="#12" y="19.539"/><text y="23.38" class="f">What</text><text x="5.01" y="23.38" class="f">drink</text><text x="11.022" y="23.38" class="f">would</text><text x="17.034" y="23.38" class="f">the</text><text x="21.042" y="23.38" class="f">customer</text><text x="30.06" y="23.38" class="f">like?</text><text x="36.072" y="23.38" class="f">moch</text></svg><svg x="2660"><use xlink:href="#a"/><use xlink:href="#b" x="40.996" y="21.685"/><use xlink:href="#3"/><use xlink:href="#4" y="2.171"/><use xlink:href="#5" y="4.342"/><use xlink:href="#6" y="6.513"/><use xlink:href="#7" y="8.684"/><use xlink:href="#8" y="10.855"/><use xlink:href="#9" y="13.026"/><use xlink:href="#10" y="15.197"/><use xlink:href="#11" y="17.368"/><use xlink:href="#12" y="19.539"/><use xlink:href="#13" y="21.71"/></svg><svg x="2730"><use xlink:href="#a"/><use xlink:href="#b" x="-.004" y="23.856"/><use xlink:href="#3"/><use xlink:href="#4" y="2.171"/><use xlink:href="#5" y="4.342"/><use xlink:href="#6" y="6.513"/><use xlink:href="#7" y="8.684"/><use xlink:href="#8" y="10.855"/><use xlink:href="#9" y="13.026"/><use xlink:href="#10" y="15.197"/><use xlink:href="#11" y="17.368"/><use xlink:href="#12" y="19.539"/><use xlink:href="#13" y="21.71"/></svg><svg x="2800"><use xlink:href="#a"/><use xlink:href="#b" x="-.004" y="26.027"/><use xlink:href="#3"/><use xlink:href="#4" y="2.171"/><use xlink:href="#5" y="4.342"/><use xlink:href="#6" y="6.513"/><use xlink:href="#7" y="8.684"/><use xlink:href="#8" y="10.855"/><use xlink:href="#9" y="13.026"/><use xlink:href="#10" y="15.197"/><use xlink:href="#11" y="17.368"/><use xlink:href="#12" y="19.539"/><use xlink:href="#13" y="21.71"/><use xlink:href="#14" y="23.881"/></svg><svg x="2870"><use xlink:href="#a"/><use xlink:href="#b" x="-.004" y="26.027"/><use xlink:href="#3"/><use xlink:href="#4" y="2.171"/><use xlink:href="#5" y="4.342"/><use xlink:href="#6" y="6.513"/><use xlink:href="#7" y="8.684"/><use xlink:href="#8" y="10.855"/><use xlink:href="#9" y="13.026"/><use xlink:href="#10" y="15.197"/><use xlink:href="#11" y="17.368"/><use xlink:href="#12" y="19.539"/><use xlink:href="#13" y="21.71"/><use xlink:href="#14" y="23.881"/></svg><svg x="2940"><use xlink:href="#a"/><use xlink:href="#b" x="-.004" y="26.027"/><use xlink:href="#3"/><use xlink:href="#4" y="2.171"/><use xlink:href="#5" y="4.342"/><use xlink:href="#6" y="6.513"/><use xlink:href="#7" y="8.684"/><use xlink:href="#8" y="10.855"/><use xlink:href="#9" y="13.026"/><use xlink:href="#10" y="15.197"/><use xlink:href="#11" y="17.368"/><use xlink:href="#12" y="19.539"/><use xlink:href="#13" y="21.71"/><use xlink:href="#14" y="23.881"/></svg><svg x="3010"><use xlink:href="#a"/><use xlink:href="#b" x="1.996" y="26.027"/><use xlink:href="#3"/><use xlink:href="#4" y="2.171"/><use xlink:href="#5" y="4.342"/><use xlink:href="#6" y="6.513"/><use xlink:href="#7" y="8.684"/><use xlink:href="#8" y="10.855"/><use xlink:href="#9" y="13.026"/><use xlink:href="#10" y="15.197"/><use xlink:href="#11" y="17.368"/><use xlink:href="#12" y="19.539"/><use xlink:href="#13" y="21.71"/><use xlink:href="#14" y="23.881"/><use xlink:href="#1" y="26.052"/></svg><svg x="3080"><use xlink:href="#a"/><use xlink:href="#b" x="1.996" y="26.027"/><use xlink:href="#3"/><use xlink:href="#4" y="2.171"/><use xlink:href="#5" y="4.342"/><use xlink:href="#6" y="6.513"/><use xlink:href="#7" y="8.684"/><use xlink:href="#8" y="10.855"/><use xlink:href="#9" y="13.026"/><use xlink:href="#10" y="15.197"/><use xlink:href="#11" y="17.368"/><use xlink:href="#12" y="19.539"/><use xlink:href="#13" y="21.71"/><use xlink:href="#14" y="23.881"/><use xlink:href="#1" y="26.052"/></svg><svg x="3150"><use xlink:href="#a"/><use xlink:href="#b" x="-.004" y="28.198"/><use xlink:href="#3"/><use xlink:href="#4" y="2.171"/><use xlink:href="#5" y="4.342"/><use xlink:href="#6" y="6.513"/><use xlink:href="#7" y="8.684"/><use xlink:href="#8" y="10.855"/><use xlink:href="#9" y="13.026"/><use xlink:href="#10" y="15.197"/><use xlink:href="#11" y="17.368"/><use xlink:href="#12" y="19.539"/><use xlink:href="#13" y="21.71"/><use xlink:href="#14" y="23.881"/><use xlink:href="#1" y="26.052"/></svg></svg></g></g></svg></svg>