<svg xmlns="http://www.w3.org/2000/svg" xmlns:xlink="http://www.w3.org/1999/xlink" width="840" height="581.04"><rect width="840" height="581.04" rx="5" ry="5" class="a"/><svg y="0%" x="0%"><circle cx="20" cy="20" r="6" fill="#ff5f58"/><circle cx="40" cy="20" r="6" fill="#ffbd2e"/><circle cx="60" cy="20" r="6" fill="#18c132"/></svg><svg height="521.04" viewBox="0 0 80 52.104" width="800" x="15" xmlns="http://www.w3.org/2000/svg" xmlns:xlink="http://www.w3.org/1999/xlink" y="50"><style>@keyframes i{0%{transform:translateX(0)}5.34%{transform:translateX(-80px)}5.77%{transform:translateX(-320px)}5.78%{transform:translateX(-400px)}8.9%{transform:translateX(-480px)}10.35%{transform:translateX(-560px)}11.59%{transform:translateX(-640px)}11.92%{transform:translateX(-720px)}12.79%{transform:translateX(-800px)}13.7%{transform:translateX(-880px)}17.16%{transform:translateX(-960px)}18.56%{transform:translateX(-1040px)}20.61%{transform:translateX(-1120px)}21.2%{transform:translateX(-1200px)}21.73%{transform:translateX(-1280px)}22.44%{transform:translateX(-1360px)}23.54%{transform:translateX(-1440px)}23.96%{transform:translateX(-1520px)}24.42%{transform:translateX(-1600px)}24.92%{transform:translateX(-1680px)}26.12%{transform:translateX(-1760px)}27.54%{transform:translateX(-1840px)}28.02%{transform:translateX(-1920px)}32.18%{transform:translateX(-2080px)}32.19%{transform:translateX(-2160px)}32.97%{transform:translateX(-2320px)}39%{transform:translateX(-2400px)}41.74%{transform:translateX(-2560px)}41.77%{transform:translateX(-2640px)}42.33%{transform:translateX(-2880px)}53.56%{transform:translateX(-2960px)}64.18%{transform:translateX(-3200px)}64.87%{transform:translateX(-3280px)}71.49%{transform:translateX(-3360px)}75.73%{transform:translateX(-3520px)}75.74%{transform:translateX(-3600px)}75.77%{transform:translateX(-3680px)}76.32%{transform:translateX(-3920px)}to{transform:translateX(-4000px)}}.a{fill:#282d35}.f{fill:#b9c0cb;white-space:pre}</style><g font-family="Monaco,Consolas,Menlo,'Bitstream Vera Sans Mono','Powerline Symbols',monospace" font-size="1.67"><defs><symbol id="1"><text y="1.67" class="f">&gt;</text></symbol><symbol id="2"><text y="1.67" class="f">&gt;</text><text x="2.004" y="1.67" class="f">python3</text></symbol><symbol id="3"><text y="1.67" class="f">&gt;</text><text x="2.004" y="1.67" class="f">python3</text><text x="10.02" y="1.67" class="f">nonetype.py</text></symbol><symbol id="4"><text y="1.67" class="f">The</text><text x="4.008" y="1.67" class="f">computer</text><text x="13.026" y="1.67" class="f">is</text><text x="16.032" y="1.67" class="f">thinking</text><text x="25.05" y="1.67" class="f">of</text><text x="28.056" y="1.67" class="f">a</text><text x="30.06" y="1.67" class="f">number</text><text x="37.074" y="1.67" class="f">between</text><text x="45.09" y="1.67" class="f">1</text><text x="47.094" y="1.67" class="f">and</text><text x="51.102" y="1.67" class="f">10.</text></symbol><symbol id="5"><text y="1.67" class="f">What</text><text x="5.01" y="1.67" class="f">number</text><text x="12.024" y="1.67" class="f">do</text><text x="15.03" y="1.67" class="f">you</text><text x="19.038" y="1.67" class="f">think</text><text x="25.05" y="1.67" class="f">it</text><text x="28.056" y="1.67" class="f">is?</text></symbol><symbol id="6"><text y="1.67" class="f">What</text><text x="5.01" y="1.67" class="f">number</text><text x="12.024" y="1.67" class="f">do</text><text x="15.03" y="1.67" class="f">you</text><text x="19.038" y="1.67" class="f">think</text><text x="25.05" y="1.67" class="f">it</text><text x="28.056" y="1.67" class="f">is?</text><text x="32.064" y="1.67" class="f">4</text></symbol><symbol id="7"><text y="1.67" class="f">The</text><text x="4.008" y="1.67" class="f">computer</text><text x="13.026" y="1.67" class="f">picked:</text><text x="21.042" y="1.67" class="f">&apos;4&apos;</text></symbol><symbol id="8"><text y="1.67" class="f">The</text><text x="4.008" y="1.67" class="f">user</text><text x="9.018" y="1.67" class="f">guessed:</text><text x="18.036" y="1.67" class="f">&apos;4&apos;</text></symbol><symbol id="9"><text y="1.67" class="f">These</text><text x="6.012" y="1.67" class="f">numbers</text><text x="14.028" y="1.67" class="f">match</text></symbol><symbol id="10"><text y="1.67" class="f">The</text><text x="4.008" y="1.67" class="f">computer</text><text x="13.026" y="1.67" class="f">picked:</text><text x="21.042" y="1.67" class="f">&apos;6&apos;</text></symbol><symbol id="11"><text y="1.67" class="f">Traceback</text><text x="10.02" y="1.67" class="f">(most</text><text x="16.032" y="1.67" class="f">recent</text><text x="23.046" y="1.67" class="f">call</text><text x="28.056" y="1.67" class="f">last):</text></symbol><symbol id="12"><text x="2.004" y="1.67" class="f">File</text><text x="7.014" y="1.67" class="f">&quot;/Users/charlie/workspace/other/nonetype.py&quot;,</text><text x="53.106" y="1.67" class="f">line</text><text x="58.116" y="1.67" class="f">51,</text><text x="62.124" y="1.67" class="f">in</text><text x="65.13" y="1.67" class="f">&lt;module&gt;</text></symbol><symbol id="13"><text x="4.008" y="1.67" class="f">print(&quot;These</text><text x="17.034" y="1.67" class="f">numbers</text><text x="25.05" y="1.67" class="f">&quot;</text><text x="27.054" y="1.67" class="f">+</text><text x="29.058" y="1.67" class="f">result)</text></symbol><symbol id="14"><text y="1.67" class="f">TypeError:</text><text x="11.022" y="1.67" class="f">can</text><text x="15.03" y="1.67" class="f">only</text><text x="20.04" y="1.67" class="f">concatenate</text><text x="32.064" y="1.67" class="f">str</text><text x="36.072" y="1.67" class="f">(not</text><text x="41.082" y="1.67" class="f">&quot;NoneType&quot;)</text><text x="53.106" y="1.67" class="f">to</text><text x="56.112" y="1.67" class="f">str</text></symbol><symbol id="a"><path fill="transparent" d="M0 0h80v24H0z"/></symbol><symbol id="b"><path fill="#6f7683" d="M0 0h1.102v2.171H0z"/></symbol></defs><path class="a" d="M0 0h80v52.104H0z"/><g style="animation-duration:19.320763s;animation-iteration-count:infinite;animation-name:i;animation-timing-function:steps(1,end)"><svg width="4080"><svg><use xlink:href="#a"/><use xlink:href="#b" x="-.004"/></svg><svg x="80"><use xlink:href="#a"/><use xlink:href="#b" x="-.004"/></svg><svg x="160"><use xlink:href="#a"/><use xlink:href="#b" x="-.004"/></svg><svg x="240"><use xlink:href="#a"/><use xlink:href="#b" x="1.996"/><use xlink:href="#1"/></svg><svg x="320"><use xlink:href="#a"/><use xlink:href="#b" x="1.996"/><use xlink:href="#1"/></svg><svg x="400"><use xlink:href="#a"/><use xlink:href="#b" x="1.996"/><use xlink:href="#1"/></svg><svg x="480"><use xlink:href="#a"/><use xlink:href="#b" x="2.996"/><text y="1.67" class="f">&gt;</text><text x="2.004" y="1.67" class="f">p</text></svg><svg x="560"><use xlink:href="#a"/><use xlink:href="#b" x="3.996"/><text y="1.67" class="f">&gt;</text><text x="2.004" y="1.67" class="f">py</text></svg><svg x="640"><use xlink:href="#a"/><use xlink:href="#b" x="4.996"/><text y="1.67" class="f">&gt;</text><text x="2.004" y="1.67" class="f">pyt</text></svg><svg x="720"><use xlink:href="#a"/><use xlink:href="#b" x="5.996"/><text y="1.67" class="f">&gt;</text><text x="2.004" y="1.67" class="f">pyth</text></svg><svg x="800"><use xlink:href="#a"/><use xlink:href="#b" x="6.996"/><text y="1.67" class="f">&gt;</text><text x="2.004" y="1.67" class="f">pytho</text></svg><svg x="880"><use xlink:href="#a"/><use xlink:href="#b" x="7.996"/><text y="1.67" class="f">&gt;</text><text x="2.004" y="1.67" class="f">python</text></svg><svg x="960"><use xlink:href="#a"/><use xlink:href="#b" x="8.996"/><use xlink:href="#2"/></svg><svg x="1040"><use xlink:href="#a"/><use xlink:href="#b" x="9.996"/><use xlink:href="#2"/></svg><svg x="1120"><use xlink:href="#a"/><use xlink:href="#b" x="10.996"/><text y="1.67" class="f">&gt;</text><text x="2.004" y="1.67" class="f">python3</text><text x="10.02" y="1.67" class="f">n</text></svg><svg x="1200"><use xlink:href="#a"/><use xlink:href="#b" x="11.996"/><text y="1.67" class="f">&gt;</text><text x="2.004" y="1.67" class="f">python3</text><text x="10.02" y="1.67" class="f">no</text></svg><svg x="1280"><use xlink:href="#a"/><use xlink:href="#b" x="12.996"/><text y="1.67" class="f">&gt;</text><text x="2.004" y="1.67" class="f">python3</text><text x="10.02" y="1.67" class="f">non</text></svg><svg x="1360"><use xlink:href="#a"/><use xlink:href="#b" x="13.996"/><text y="1.67" class="f">&gt;</text><text x="2.004" y="1.67" class="f">python3</text><text x="10.02" y="1.67" class="f">none</text></svg><svg x="1440"><use xlink:href="#a"/><use xlink:href="#b" x="14.996"/><text y="1.67" class="f">&gt;</text><text x="2.004" y="1.67" class="f">python3</text><text x="10.02" y="1.67" class="f">nonet</text></svg><svg x="1520"><use xlink:href="#a"/><use xlink:href="#b" x="15.996"/><text y="1.67" class="f">&gt;</text><text x="2.004" y="1.67" class="f">python3</text><text x="10.02" y="1.67" class="f">nonety</text></svg><svg x="1600"><use xlink:href="#a"/><use xlink:href="#b" x="16.996"/><text y="1.67" class="f">&gt;</text><text x="2.004" y="1.67" class="f">python3</text><text x="10.02" y="1.67" class="f">nonetyp</text></svg><svg x="1680"><use xlink:href="#a"/><use xlink:href="#b" x="17.996"/><text y="1.67" class="f">&gt;</text><text x="2.004" y="1.67" class="f">python3</text><text x="10.02" y="1.67" class="f">nonetype</text></svg><svg x="1760"><use xlink:href="#a"/><use xlink:href="#b" x="18.996"/><text y="1.67" class="f">&gt;</text><text x="2.004" y="1.67" class="f">python3</text><text x="10.02" y="1.67" class="f">nonetype.</text></svg><svg x="1840"><use xlink:href="#a"/><use xlink:href="#b" x="19.996"/><text y="1.67" class="f">&gt;</text><text x="2.004" y="1.67" class="f">python3</text><text x="10.02" y="1.67" class="f">nonetype.p</text></svg><svg x="1920"><use xlink:href="#a"/><use xlink:href="#b" x="20.996"/><use xlink:href="#3"/></svg><svg x="2000"><use xlink:href="#a"/><use xlink:href="#b" x="20.996"/><use xlink:href="#3"/></svg><svg x="2080"><use xlink:href="#a"/><use xlink:href="#b" x="-.004" y="2.146"/><use xlink:href="#3"/></svg><svg x="2160"><use xlink:href="#a"/><use xlink:href="#b" x="-.004" y="2.146"/><use xlink:href="#3"/></svg><svg x="2240"><use xlink:href="#a"/><use xlink:href="#b" x="-.004" y="4.317"/><use xlink:href="#3"/><use xlink:href="#4" y="2.171"/></svg><svg x="2320"><use xlink:href="#a"/><use xlink:href="#b" x="31.996" y="4.317"/><use xlink:href="#3"/><use xlink:href="#4" y="2.171"/><use xlink:href="#5" y="4.342"/></svg><svg x="2400"><use xlink:href="#a"/><use xlink:href="#b" x="32.996" y="4.317"/><use xlink:href="#3"/><use xlink:href="#4" y="2.171"/><use xlink:href="#6" y="4.342"/></svg><svg x="2480"><use xlink:href="#a"/><use xlink:href="#b" x="-.004" y="6.488"/><use xlink:href="#3"/><use xlink:href="#4" y="2.171"/><use xlink:href="#6" y="4.342"/></svg><svg x="2560"><use xlink:href="#a"/><use xlink:href="#b" x="-.004" y="13.001"/><use xlink:href="#3"/><use xlink:href="#4" y="2.171"/><use xlink:href="#6" y="4.342"/><use xlink:href="#7" y="6.513"/><use xlink:href="#8" y="8.684"/><use xlink:href="#9" y="10.855"/></svg><svg x="2640"><use xlink:href="#a"/><use xlink:href="#b" x="-.004" y="13.001"/><use xlink:href="#3"/><use xlink:href="#4" y="2.171"/><use xlink:href="#6" y="4.342"/><use xlink:href="#7" y="6.513"/><use xlink:href="#8" y="8.684"/><use xlink:href="#9" y="10.855"/></svg><svg x="2720"><use xlink:href="#a"/><use xlink:href="#b" x="-.004" y="13.001"/><use xlink:href="#3"/><use xlink:href="#4" y="2.171"/><use xlink:href="#6" y="4.342"/><use xlink:href="#7" y="6.513"/><use xlink:href="#8" y="8.684"/><use xlink:href="#9" y="10.855"/></svg><svg x="2800"><use xlink:href="#a"/><use xlink:href="#b" x="1.996" y="13.001"/><use xlink:href="#3"/><use xlink:href="#4" y="2.171"/><use xlink:href="#6" y="4.342"/><use xlink:href="#7" y="6.513"/><use xlink:href="#8" y="8.684"/><use xlink:href="#9" y="10.855"/><use xlink:href="#1" y="13.026"/></svg><svg x="2880"><use xlink:href="#a"/><use xlink:href="#b" x="1.996" y="13.001"/><use xlink:href="#3"/><use xlink:href="#4" y="2.171"/><use xlink:href="#6" y="4.342"/><use xlink:href="#7" y="6.513"/><use xlink:href="#8" y="8.684"/><use xlink:href="#9" y="10.855"/><use xlink:href="#1" y="13.026"/></svg><svg x="2960"><use xlink:href="#a"/><use xlink:href="#b" x="1.996" y="13.001"/><use xlink:href="#3"/><use xlink:href="#4" y="2.171"/><use xlink:href="#6" y="4.342"/><use xlink:href="#7" y="6.513"/><use xlink:href="#8" y="8.684"/><use xlink:href="#9" y="10.855"/><use xlink:href="#3" y="13.026"/></svg><svg x="3040"><use xlink:href="#a"/><use xlink:href="#b" x="1.996" y="13.001"/><use xlink:href="#3"/><use xlink:href="#4" y="2.171"/><use xlink:href="#6" y="4.342"/><use xlink:href="#7" y="6.513"/><use xlink:href="#8" y="8.684"/><use xlink:href="#9" y="10.855"/><use xlink:href="#3" y="13.026"/></svg><svg x="3120"><use xlink:href="#a"/><use xlink:href="#b" x="-.004" y="15.172"/><use xlink:href="#3"/><use xlink:href="#4" y="2.171"/><use xlink:href="#6" y="4.342"/><use xlink:href="#7" y="6.513"/><use xlink:href="#8" y="8.684"/><use xlink:href="#9" y="10.855"/><use xlink:href="#3" y="13.026"/></svg><svg x="3200"><use xlink:href="#a"/><use xlink:href="#b" x="-.004" y="15.172"/><use xlink:href="#3"/><use xlink:href="#4" y="2.171"/><use xlink:href="#6" y="4.342"/><use xlink:href="#7" y="6.513"/><use xlink:href="#8" y="8.684"/><use xlink:href="#9" y="10.855"/><use xlink:href="#3" y="13.026"/></svg><svg x="3280"><use xlink:href="#a"/><use xlink:href="#b" x="31.996" y="17.343"/><use xlink:href="#3"/><use xlink:href="#4" y="2.171"/><use xlink:href="#6" y="4.342"/><use xlink:href="#7" y="6.513"/><use xlink:href="#8" y="8.684"/><use xlink:href="#9" y="10.855"/><use xlink:href="#3" y="13.026"/><use xlink:href="#4" y="15.197"/><use xlink:href="#5" y="17.368"/></svg><svg x="3360"><use xlink:href="#a"/><use xlink:href="#b" x="32.996" y="17.343"/><use xlink:href="#3"/><use xlink:href="#4" y="2.171"/><use xlink:href="#6" y="4.342"/><use xlink:href="#7" y="6.513"/><use xlink:href="#8" y="8.684"/><use xlink:href="#9" y="10.855"/><use xlink:href="#3" y="13.026"/><use xlink:href="#4" y="15.197"/><use xlink:href="#6" y="17.368"/></svg><svg x="3440"><use xlink:href="#a"/><use xlink:href="#b" x="-.004" y="19.514"/><use xlink:href="#3"/><use xlink:href="#4" y="2.171"/><use xlink:href="#6" y="4.342"/><use xlink:href="#7" y="6.513"/><use xlink:href="#8" y="8.684"/><use xlink:href="#9" y="10.855"/><use xlink:href="#3" y="13.026"/><use xlink:href="#4" y="15.197"/><use xlink:href="#6" y="17.368"/></svg><svg x="3520"><use xlink:href="#a"/><use xlink:href="#b" x="-.004" y="28.198"/><use xlink:href="#3"/><use xlink:href="#4" y="2.171"/><use xlink:href="#6" y="4.342"/><use xlink:href="#7" y="6.513"/><use xlink:href="#8" y="8.684"/><use xlink:href="#9" y="10.855"/><use xlink:href="#3" y="13.026"/><use xlink:href="#4" y="15.197"/><use xlink:href="#6" y="17.368"/><use xlink:href="#10" y="19.539"/><use xlink:href="#8" y="21.71"/><use xlink:href="#11" y="23.881"/><use xlink:href="#12" y="26.052"/></svg><svg x="3600"><use xlink:href="#a"/><use xlink:href="#b" x="-.004" y="32.54"/><use xlink:href="#3"/><use xlink:href="#4" y="2.171"/><use xlink:href="#6" y="4.342"/><use xlink:href="#7" y="6.513"/><use xlink:href="#8" y="8.684"/><use xlink:href="#9" y="10.855"/><use xlink:href="#3" y="13.026"/><use xlink:href="#4" y="15.197"/><use xlink:href="#6" y="17.368"/><use xlink:href="#10" y="19.539"/><use xlink:href="#8" y="21.71"/><use xlink:href="#11" y="23.881"/><use xlink:href="#12" y="26.052"/><use xlink:href="#13" y="28.223"/><use xlink:href="#14" y="30.394"/></svg><svg x="3680"><use xlink:href="#a"/><use xlink:href="#b" x="-.004" y="32.54"/><use xlink:href="#3"/><use xlink:href="#4" y="2.171"/><use xlink:href="#6" y="4.342"/><use xlink:href="#7" y="6.513"/><use xlink:href="#8" y="8.684"/><use xlink:href="#9" y="10.855"/><use xlink:href="#3" y="13.026"/><use xlink:href="#4" y="15.197"/><use xlink:href="#6" y="17.368"/><use xlink:href="#10" y="19.539"/><use xlink:href="#8" y="21.71"/><use xlink:href="#11" y="23.881"/><use xlink:href="#12" y="26.052"/><use xlink:href="#13" y="28.223"/><use xlink:href="#14" y="30.394"/></svg><svg x="3760"><use xlink:href="#a"/><use xlink:href="#b" x="-.004" y="32.54"/><use xlink:href="#3"/><use xlink:href="#4" y="2.171"/><use xlink:href="#6" y="4.342"/><use xlink:href="#7" y="6.513"/><use xlink:href="#8" y="8.684"/><use xlink:href="#9" y="10.855"/><use xlink:href="#3" y="13.026"/><use xlink:href="#4" y="15.197"/><use xlink:href="#6" y="17.368"/><use xlink:href="#10" y="19.539"/><use xlink:href="#8" y="21.71"/><use xlink:href="#11" y="23.881"/><use xlink:href="#12" y="26.052"/><use xlink:href="#13" y="28.223"/><use xlink:href="#14" y="30.394"/></svg><svg x="3840"><use xlink:href="#a"/><use xlink:href="#b" x="1.996" y="32.54"/><use xlink:href="#3"/><use xlink:href="#4" y="2.171"/><use xlink:href="#6" y="4.342"/><use xlink:href="#7" y="6.513"/><use xlink:href="#8" y="8.684"/><use xlink:href="#9" y="10.855"/><use xlink:href="#3" y="13.026"/><use xlink:href="#4" y="15.197"/><use xlink:href="#6" y="17.368"/><use xlink:href="#10" y="19.539"/><use xlink:href="#8" y="21.71"/><use xlink:href="#11" y="23.881"/><use xlink:href="#12" y="26.052"/><use xlink:href="#13" y="28.223"/><use xlink:href="#14" y="30.394"/><use xlink:href="#1" y="32.565"/></svg><svg x="3920"><use xlink:href="#a"/><use xlink:href="#b" x="1.996" y="32.54"/><use xlink:href="#3"/><use xlink:href="#4" y="2.171"/><use xlink:href="#6" y="4.342"/><use xlink:href="#7" y="6.513"/><use xlink:href="#8" y="8.684"/><use xlink:href="#9" y="10.855"/><use xlink:href="#3" y="13.026"/><use xlink:href="#4" y="15.197"/><use xlink:href="#6" y="17.368"/><use xlink:href="#10" y="19.539"/><use xlink:href="#8" y="21.71"/><use xlink:href="#11" y="23.881"/><use xlink:href="#12" y="26.052"/><use xlink:href="#13" y="28.223"/><use xlink:href="#14" y="30.394"/><use xlink:href="#1" y="32.565"/></svg><svg x="4000"><use xlink:href="#a"/><use xlink:href="#b" x="-.004" y="34.711"/><use xlink:href="#3"/><use xlink:href="#4" y="2.171"/><use xlink:href="#6" y="4.342"/><use xlink:href="#7" y="6.513"/><use xlink:href="#8" y="8.684"/><use xlink:href="#9" y="10.855"/><use xlink:href="#3" y="13.026"/><use xlink:href="#4" y="15.197"/><use xlink:href="#6" y="17.368"/><use xlink:href="#10" y="19.539"/><use xlink:href="#8" y="21.71"/><use xlink:href="#11" y="23.881"/><use xlink:href="#12" y="26.052"/><use xlink:href="#13" y="28.223"/><use xlink:href="#14" y="30.394"/><use xlink:href="#1" y="32.565"/></svg></svg></g></g></svg></svg>